<svg width="123" height="28" viewBox="0 0 123 28" fill="none" xmlns="http://www.w3.org/2000/svg">
<path fill-rule="evenodd" clip-rule="evenodd" d="M27.042 7.01138L31.7504 17.6286C31.7796 17.7004 31.8106 17.7713 31.8443 17.8413L31.8862 17.9349L31.8881 17.9296C32.2792 18.6856 32.9421 19.3156 33.8137 19.67C34.0207 19.754 34.2304 19.8187 34.4419 19.866L32.1434 25.0513C32.126 25.0898 32.1078 25.1265 32.0877 25.1632C32.0458 25.2604 31.9929 25.3549 31.9291 25.445L31.7239 25.732C31.5571 26.0286 31.2954 26.348 30.9398 26.6884C30.741 26.8791 30.3964 27.1521 29.8074 27.4969C29.677 27.573 28.7817 27.923 28.1434 27.986C28.0732 27.9956 28.0021 28 27.9292 28C27.0621 28 26.3591 27.3271 26.3591 26.4967C26.3591 26.2456 26.4229 26.0103 26.536 25.802C26.5898 25.6961 26.66 25.5964 26.7475 25.5062C27.0056 25.2245 27.3712 25.0355 27.7833 24.9996C28.0258 24.934 28.2793 24.8544 28.5583 24.6593C28.6531 24.5919 28.7698 24.5193 29.0124 24.2743C29.0962 24.1885 29.1601 24.0371 29.2403 23.9032C29.2439 23.8936 29.2476 23.8849 29.2522 23.8761L30.1904 21.7586C30.1466 21.6913 30.1074 21.6204 30.0737 21.5442L24.1508 8.1865C23.8117 7.42175 24.1846 6.53887 24.9823 6.21425C25.7811 5.8905 26.7028 6.24663 27.042 7.01138ZM19.4607 7.15838C21.0426 8.19613 22.1076 9.90413 22.2078 11.8554C22.2133 11.9053 22.2161 11.9551 22.2161 12.0059V20.7655C22.2161 21.5959 21.5131 22.2696 20.6451 22.2696C19.778 22.2696 19.075 21.5959 19.075 20.7655V17.3932V12.159C19.075 10.8561 18.2225 9.74488 17.0217 9.3065C17.2324 8.15675 18.228 7.266 19.4607 7.15838ZM15.8884 6.10138C16.6488 6.10138 17.3773 6.22913 18.0529 6.4645C16.9743 6.96588 16.1765 7.94063 15.9522 9.10875C15.9486 9.10875 15.9449 9.10875 15.9404 9.10875L15.8884 9.10787C14.146 9.10787 12.7301 10.4466 12.7018 12.1082V12.159V17.3932V20.7655C12.7018 21.5959 11.9979 22.2696 11.1308 22.2696L11.108 22.2687L11.0852 22.2696C10.2182 22.2696 9.51426 21.5959 9.51426 20.7655V17.3932V12.159C9.51426 10.4904 8.11653 9.13588 6.38053 9.10875L6.32765 9.10787C4.58527 9.10787 3.17021 10.4466 3.14194 12.1082L3.14104 12.159V17.3932V20.7655C3.14104 21.588 2.45174 22.2556 1.59651 22.2687L1.57098 22.2696C0.702977 22.2696 0 21.5959 0 20.7655V12.0059C0 11.9551 0.00273774 11.9053 0.00820833 11.8554C0.172326 8.65113 2.93953 6.10138 6.32765 6.10138C8.23688 6.10138 9.94826 6.90988 11.108 8.18913C12.2678 6.90988 13.9792 6.10138 15.8884 6.10138ZM41.9284 20.0961C42.3706 20.4487 42.9131 20.657 43.4985 20.657C44.0838 20.657 44.6263 20.4487 45.0694 20.0961V20.7655C45.0694 21.5959 44.3665 22.2696 43.4985 22.2696C42.6314 22.2696 41.9284 21.5959 41.9284 20.7655V20.0961ZM60.429 6.552C61.297 6.552 62 7.22488 62 8.05525C62 8.4455 61.845 8.80075 61.5906 9.06763L52.359 19.2334H60.429C61.297 19.2334 62 19.9071 62 20.7375C62 21.5679 61.297 22.2408 60.429 22.2408H49.0575C48.6436 22.2793 48.215 22.1611 47.8759 21.8794C47.2604 21.3666 47.1619 20.4951 47.6269 19.8721C47.668 19.817 47.7126 19.7636 47.761 19.7138L56.9826 9.55938H48.9116C48.0445 9.55938 47.3406 8.88563 47.3406 8.05525C47.3406 7.22488 48.0445 6.552 48.9116 6.552H60.429ZM43.4985 0C44.3665 0 45.0694 0.672877 45.0694 1.50325V18.662C44.7795 19.2238 44.175 19.6105 43.4757 19.6105C42.8119 19.6105 42.232 19.2614 41.9284 18.7442V1.50325C41.9284 0.672877 42.6314 0 43.4985 0ZM38.6935 6.43212C39.4913 6.75587 39.8642 7.63875 39.525 8.4035L34.8786 18.8834C34.6635 18.8501 34.4501 18.7924 34.2413 18.7075C33.2265 18.2954 32.6074 17.3653 32.5774 16.3765L36.6338 7.22838C36.973 6.46363 37.8948 6.1075 38.6935 6.43212Z" fill="#00C4CC"/>
<path d="M66.9297 13.7109H67.4375V13.0703C67.4375 12.4036 67.5208 11.875 67.6875 11.4844C67.8594 11.0885 68.1458 10.8021 68.5469 10.625C68.9531 10.4427 69.5078 10.3516 70.2109 10.3516C71.4557 10.3516 72.0781 10.6562 72.0781 11.2656C72.0781 11.4635 72.013 11.6328 71.8828 11.7734C71.7526 11.9141 71.599 11.9844 71.4219 11.9844C71.3385 11.9844 71.1953 11.9688 70.9922 11.9375C70.7891 11.9062 70.6172 11.8906 70.4766 11.8906C70.0911 11.8906 69.8438 12.0052 69.7344 12.2344C69.625 12.4583 69.5703 12.7812 69.5703 13.2031V13.7109H70.0938C70.9062 13.7109 71.3125 13.9557 71.3125 14.4453C71.3125 14.7943 71.2031 15.0156 70.9844 15.1094C70.7708 15.2031 70.474 15.25 70.0938 15.25H69.5703V20.8984C69.5703 21.3203 69.4688 21.6432 69.2656 21.8672C69.0677 22.0859 68.8099 22.1953 68.4922 22.1953C68.1901 22.1953 67.9375 22.0859 67.7344 21.8672C67.5365 21.6432 67.4375 21.3203 67.4375 20.8984V15.25H66.8516C66.5339 15.25 66.2891 15.1797 66.1172 15.0391C65.9453 14.8932 65.8594 14.7057 65.8594 14.4766C65.8594 13.9661 66.2161 13.7109 66.9297 13.7109ZM77.6016 20.9922C77.0859 21.3932 76.5859 21.6953 76.1016 21.8984C75.6224 22.0964 75.0833 22.1953 74.4844 22.1953C73.9375 22.1953 73.4557 22.0885 73.0391 21.875C72.6276 21.6562 72.3099 21.362 72.0859 20.9922C71.862 20.6224 71.75 20.2214 71.75 19.7891C71.75 19.2057 71.9349 18.7083 72.3047 18.2969C72.6745 17.8854 73.1823 17.6094 73.8281 17.4688C73.9635 17.4375 74.2995 17.3672 74.8359 17.2578C75.3724 17.1484 75.8307 17.0495 76.2109 16.9609C76.5964 16.8672 77.013 16.7552 77.4609 16.625C77.4349 16.0625 77.3203 15.651 77.1172 15.3906C76.9193 15.125 76.5052 14.9922 75.875 14.9922C75.3333 14.9922 74.9245 15.0677 74.6484 15.2188C74.3776 15.3698 74.1432 15.5964 73.9453 15.8984C73.7526 16.2005 73.6146 16.401 73.5312 16.5C73.4531 16.5938 73.2812 16.6406 73.0156 16.6406C72.776 16.6406 72.5677 16.5651 72.3906 16.4141C72.2188 16.2578 72.1328 16.0599 72.1328 15.8203C72.1328 15.4453 72.2656 15.0807 72.5312 14.7266C72.7969 14.3724 73.2109 14.0807 73.7734 13.8516C74.3359 13.6224 75.0365 13.5078 75.875 13.5078C76.8125 13.5078 77.5495 13.6198 78.0859 13.8438C78.6224 14.0625 79 14.4115 79.2188 14.8906C79.4427 15.3698 79.5547 16.0052 79.5547 16.7969C79.5547 17.2969 79.5521 17.7214 79.5469 18.0703C79.5469 18.4193 79.5443 18.8073 79.5391 19.2344C79.5391 19.6354 79.6042 20.0547 79.7344 20.4922C79.8698 20.9245 79.9375 21.2031 79.9375 21.3281C79.9375 21.5469 79.8333 21.7474 79.625 21.9297C79.4219 22.1068 79.1901 22.1953 78.9297 22.1953C78.7109 22.1953 78.4948 22.0938 78.2812 21.8906C78.0677 21.6823 77.8411 21.3828 77.6016 20.9922ZM77.4609 17.9062C77.1484 18.0208 76.6927 18.1432 76.0938 18.2734C75.5 18.3984 75.0885 18.4922 74.8594 18.5547C74.6302 18.612 74.4115 18.7292 74.2031 18.9062C73.9948 19.0781 73.8906 19.3203 73.8906 19.6328C73.8906 19.9557 74.013 20.2318 74.2578 20.4609C74.5026 20.6849 74.8229 20.7969 75.2188 20.7969C75.6406 20.7969 76.0286 20.7057 76.3828 20.5234C76.7422 20.3359 77.0052 20.0964 77.1719 19.8047C77.3646 19.4818 77.4609 18.9505 77.4609 18.2109V17.9062ZM89.375 19.5547C89.375 19.8203 89.2943 20.1042 89.1328 20.4062C88.9766 20.7083 88.7344 20.9974 88.4062 21.2734C88.0833 21.5443 87.6745 21.763 87.1797 21.9297C86.6849 22.0964 86.1276 22.1797 85.5078 22.1797C84.1901 22.1797 83.1615 21.7969 82.4219 21.0312C81.6823 20.2604 81.3125 19.2292 81.3125 17.9375C81.3125 17.0625 81.4818 16.2891 81.8203 15.6172C82.1589 14.9453 82.6484 14.4271 83.2891 14.0625C83.9297 13.6927 84.6953 13.5078 85.5859 13.5078C86.138 13.5078 86.6432 13.5885 87.1016 13.75C87.5651 13.9115 87.9557 14.1198 88.2734 14.375C88.5964 14.6302 88.8411 14.9036 89.0078 15.1953C89.1797 15.4818 89.2656 15.75 89.2656 16C89.2656 16.2552 89.1693 16.4714 88.9766 16.6484C88.7891 16.8255 88.5599 16.9141 88.2891 16.9141C88.112 16.9141 87.9635 16.8698 87.8438 16.7812C87.7292 16.6875 87.599 16.5391 87.4531 16.3359C87.1927 15.9401 86.9193 15.6432 86.6328 15.4453C86.3516 15.2474 85.9922 15.1484 85.5547 15.1484C84.9245 15.1484 84.4167 15.3958 84.0312 15.8906C83.6458 16.3802 83.4531 17.0521 83.4531 17.9062C83.4531 18.3073 83.5026 18.6771 83.6016 19.0156C83.7005 19.349 83.8438 19.6354 84.0312 19.875C84.2188 20.1094 84.4453 20.2891 84.7109 20.4141C84.9766 20.5339 85.2682 20.5938 85.5859 20.5938C86.013 20.5938 86.3776 20.4948 86.6797 20.2969C86.987 20.099 87.2578 19.7969 87.4922 19.3906C87.6224 19.151 87.763 18.9635 87.9141 18.8281C88.0651 18.6927 88.25 18.625 88.4688 18.625C88.7292 18.625 88.9453 18.724 89.1172 18.9219C89.2891 19.1198 89.375 19.3307 89.375 19.5547ZM91.3594 13.7109H91.5938V12.4297C91.5938 12.0859 91.6016 11.8177 91.6172 11.625C91.638 11.4271 91.6901 11.2578 91.7734 11.1172C91.8568 10.9714 91.9766 10.8542 92.1328 10.7656C92.2891 10.6719 92.4635 10.625 92.6562 10.625C92.9271 10.625 93.1719 10.7266 93.3906 10.9297C93.5365 11.0651 93.6276 11.2318 93.6641 11.4297C93.7057 11.6224 93.7266 11.8984 93.7266 12.2578V13.7109H94.5078C94.8099 13.7109 95.0391 13.7839 95.1953 13.9297C95.3568 14.0703 95.4375 14.2526 95.4375 14.4766C95.4375 14.763 95.3229 14.9635 95.0938 15.0781C94.8698 15.1927 94.5469 15.25 94.125 15.25H93.7266V19.1719C93.7266 19.5052 93.737 19.763 93.7578 19.9453C93.7839 20.1224 93.8464 20.2682 93.9453 20.3828C94.0495 20.4922 94.2161 20.5469 94.4453 20.5469C94.5703 20.5469 94.7396 20.526 94.9531 20.4844C95.1667 20.4375 95.3333 20.4141 95.4531 20.4141C95.625 20.4141 95.7786 20.4844 95.9141 20.625C96.0547 20.7604 96.125 20.9297 96.125 21.1328C96.125 21.4766 95.9375 21.7396 95.5625 21.9219C95.1875 22.1042 94.6484 22.1953 93.9453 22.1953C93.2786 22.1953 92.7734 22.0833 92.4297 21.8594C92.0859 21.6354 91.8594 21.3255 91.75 20.9297C91.6458 20.5339 91.5938 20.0052 91.5938 19.3438V15.25H91.3125C91.0052 15.25 90.7708 15.1771 90.6094 15.0312C90.4479 14.8854 90.3672 14.7005 90.3672 14.4766C90.3672 14.2526 90.4505 14.0703 90.6172 13.9297C90.7891 13.7839 91.0365 13.7109 91.3594 13.7109ZM104.898 17.8594C104.898 18.4948 104.799 19.0807 104.602 19.6172C104.404 20.1536 104.117 20.6146 103.742 21C103.367 21.3854 102.919 21.6823 102.398 21.8906C101.878 22.0938 101.292 22.1953 100.641 22.1953C99.9948 22.1953 99.4141 22.0911 98.8984 21.8828C98.3828 21.6745 97.9349 21.3776 97.5547 20.9922C97.1797 20.6016 96.8932 20.1432 96.6953 19.6172C96.5026 19.0859 96.4062 18.5 96.4062 17.8594C96.4062 17.2135 96.5052 16.6224 96.7031 16.0859C96.901 15.5495 97.1849 15.0911 97.5547 14.7109C97.9245 14.3307 98.3724 14.0391 98.8984 13.8359C99.4245 13.6276 100.005 13.5234 100.641 13.5234C101.286 13.5234 101.872 13.6276 102.398 13.8359C102.924 14.0443 103.375 14.3411 103.75 14.7266C104.125 15.112 104.409 15.5703 104.602 16.1016C104.799 16.6328 104.898 17.2188 104.898 17.8594ZM102.758 17.8594C102.758 16.9896 102.565 16.3125 102.18 15.8281C101.799 15.3438 101.286 15.1016 100.641 15.1016C100.224 15.1016 99.8568 15.2109 99.5391 15.4297C99.2214 15.6432 98.9766 15.9609 98.8047 16.3828C98.6328 16.8047 98.5469 17.2969 98.5469 17.8594C98.5469 18.4167 98.6302 18.9036 98.7969 19.3203C98.9688 19.737 99.2109 20.0573 99.5234 20.2812C99.8411 20.5 100.214 20.6094 100.641 20.6094C101.286 20.6094 101.799 20.3672 102.18 19.8828C102.565 19.3932 102.758 18.7188 102.758 17.8594ZM108.703 19.1172V20.8984C108.703 21.3307 108.602 21.6562 108.398 21.875C108.195 22.0885 107.938 22.1953 107.625 22.1953C107.318 22.1953 107.065 22.0859 106.867 21.8672C106.669 21.6484 106.57 21.3255 106.57 20.8984V14.9609C106.57 14.0026 106.917 13.5234 107.609 13.5234C107.964 13.5234 108.219 13.6354 108.375 13.8594C108.531 14.0833 108.617 14.4141 108.633 14.8516C108.888 14.4141 109.148 14.0833 109.414 13.8594C109.685 13.6354 110.044 13.5234 110.492 13.5234C110.94 13.5234 111.375 13.6354 111.797 13.8594C112.219 14.0833 112.43 14.3802 112.43 14.75C112.43 15.0104 112.339 15.2266 112.156 15.3984C111.979 15.5651 111.786 15.6484 111.578 15.6484C111.5 15.6484 111.31 15.6016 111.008 15.5078C110.711 15.4089 110.448 15.3594 110.219 15.3594C109.906 15.3594 109.651 15.4427 109.453 15.6094C109.255 15.7708 109.102 16.013 108.992 16.3359C108.883 16.6589 108.807 17.0443 108.766 17.4922C108.724 17.9349 108.703 18.4766 108.703 19.1172ZM115.57 22.4609L115.766 21.9844L113.141 15.375C112.979 14.9948 112.898 14.7188 112.898 14.5469C112.898 14.3646 112.945 14.1953 113.039 14.0391C113.133 13.8828 113.26 13.7578 113.422 13.6641C113.589 13.5703 113.76 13.5234 113.938 13.5234C114.245 13.5234 114.477 13.6224 114.633 13.8203C114.789 14.013 114.927 14.2917 115.047 14.6562L116.852 19.9062L118.562 15.0234C118.698 14.6276 118.82 14.3177 118.93 14.0938C119.039 13.8698 119.154 13.7188 119.273 13.6406C119.398 13.5625 119.573 13.5234 119.797 13.5234C119.958 13.5234 120.112 13.5677 120.258 13.6562C120.409 13.7396 120.523 13.8542 120.602 14C120.685 14.1458 120.727 14.2995 120.727 14.4609C120.706 14.5599 120.672 14.7005 120.625 14.8828C120.578 15.0651 120.521 15.25 120.453 15.4375L117.672 22.7188C117.432 23.3594 117.198 23.862 116.969 24.2266C116.74 24.5911 116.435 24.8698 116.055 25.0625C115.68 25.2604 115.172 25.3594 114.531 25.3594C113.906 25.3594 113.438 25.2917 113.125 25.1562C112.812 25.0208 112.656 24.7734 112.656 24.4141C112.656 24.1693 112.729 23.9792 112.875 23.8438C113.026 23.7135 113.247 23.6484 113.539 23.6484C113.654 23.6484 113.766 23.6641 113.875 23.6953C114.01 23.7266 114.128 23.7422 114.227 23.7422C114.471 23.7422 114.664 23.7057 114.805 23.6328C114.945 23.5599 115.07 23.4323 115.18 23.25C115.294 23.0729 115.424 22.8099 115.57 22.4609Z" fill="#00C4CC"/>
</svg>
