<svg width="174" height="30" viewBox="0 0 174 30" fill="none" xmlns="http://www.w3.org/2000/svg">
<path d="M9.9265 23.5V20.908L9.7585 20.356V15.82C9.7585 14.94 9.4945 14.26 8.9665 13.78C8.4385 13.284 7.6385 13.036 6.5665 13.036C5.8465 13.036 5.1345 13.148 4.4305 13.372C3.7425 13.596 3.1585 13.908 2.6785 14.308L1.5025 12.124C2.1905 11.596 3.0065 11.204 3.9505 10.948C4.9105 10.676 5.9025 10.54 6.9265 10.54C8.7825 10.54 10.2145 10.988 11.2225 11.884C12.2465 12.764 12.7585 14.132 12.7585 15.988V23.5H9.9265ZM5.8945 23.668C4.9345 23.668 4.0945 23.508 3.3745 23.188C2.6545 22.852 2.0945 22.396 1.6945 21.82C1.3105 21.228 1.1185 20.564 1.1185 19.828C1.1185 19.108 1.2865 18.46 1.6225 17.884C1.9745 17.308 2.5425 16.852 3.3265 16.516C4.1105 16.18 5.1505 16.012 6.4465 16.012H10.1665V18.004H6.6625C5.6385 18.004 4.9505 18.172 4.5985 18.508C4.2465 18.828 4.0705 19.228 4.0705 19.708C4.0705 20.252 4.2865 20.684 4.7185 21.004C5.1505 21.324 5.7505 21.484 6.5185 21.484C7.2545 21.484 7.9105 21.316 8.4865 20.98C9.0785 20.644 9.5025 20.148 9.7585 19.492L10.2625 21.292C9.9745 22.044 9.4545 22.628 8.7025 23.044C7.9665 23.46 7.0305 23.668 5.8945 23.668ZM16.6086 23.5V10.684H19.6086V23.5H16.6086ZM18.1206 8.572C17.5606 8.572 17.0966 8.396 16.7286 8.044C16.3766 7.692 16.2006 7.268 16.2006 6.772C16.2006 6.26 16.3766 5.836 16.7286 5.5C17.0966 5.148 17.5606 4.972 18.1206 4.972C18.6806 4.972 19.1366 5.14 19.4886 5.476C19.8566 5.796 20.0406 6.204 20.0406 6.7C20.0406 7.228 19.8646 7.676 19.5126 8.044C19.1606 8.396 18.6966 8.572 18.1206 8.572ZM23.5461 23.5V10.684H26.4021V14.212L26.0661 13.18C26.4501 12.316 27.0501 11.66 27.8661 11.212C28.6981 10.764 29.7301 10.54 30.9621 10.54V13.396C30.8341 13.364 30.7141 13.348 30.6021 13.348C30.4901 13.332 30.3781 13.324 30.2661 13.324C29.1301 13.324 28.2261 13.66 27.5541 14.332C26.8821 14.988 26.5461 15.972 26.5461 17.284V23.5H23.5461ZM33.5071 23.5V5.692H36.5071V23.5H33.5071ZM40.4446 23.5V10.684H43.4446V23.5H40.4446ZM41.9566 8.572C41.3966 8.572 40.9326 8.396 40.5646 8.044C40.2126 7.692 40.0366 7.268 40.0366 6.772C40.0366 6.26 40.2126 5.836 40.5646 5.5C40.9326 5.148 41.3966 4.972 41.9566 4.972C42.5166 4.972 42.9726 5.14 43.3246 5.476C43.6926 5.796 43.8766 6.204 43.8766 6.7C43.8766 7.228 43.7006 7.676 43.3486 8.044C42.9966 8.396 42.5326 8.572 41.9566 8.572ZM54.6541 10.54C55.6781 10.54 56.5901 10.74 57.3901 11.14C58.2061 11.54 58.8461 12.156 59.3101 12.988C59.7741 13.804 60.0061 14.86 60.0061 16.156V23.5H57.0061V16.54C57.0061 15.404 56.7341 14.556 56.1901 13.996C55.6621 13.436 54.9181 13.156 53.9581 13.156C53.2541 13.156 52.6301 13.3 52.0861 13.588C51.5421 13.876 51.1181 14.308 50.8141 14.884C50.5261 15.444 50.3821 16.156 50.3821 17.02V23.5H47.3821V10.684H50.2381V14.14L49.7341 13.084C50.1821 12.268 50.8301 11.644 51.6781 11.212C52.5421 10.764 53.5341 10.54 54.6541 10.54ZM69.8592 23.668C68.4352 23.668 67.1872 23.388 66.1152 22.828C65.0592 22.252 64.2352 21.468 63.6432 20.476C63.0672 19.484 62.7792 18.356 62.7792 17.092C62.7792 15.812 63.0592 14.684 63.6192 13.708C64.1952 12.716 64.9792 11.94 65.9712 11.38C66.9792 10.82 68.1232 10.54 69.4032 10.54C70.6512 10.54 71.7632 10.812 72.7392 11.356C73.7152 11.9 74.4832 12.668 75.0432 13.66C75.6032 14.652 75.8832 15.82 75.8832 17.164C75.8832 17.292 75.8752 17.436 75.8592 17.596C75.8592 17.756 75.8512 17.908 75.8352 18.052H65.1552V16.06H74.2512L73.0752 16.684C73.0912 15.948 72.9392 15.3 72.6192 14.74C72.2992 14.18 71.8592 13.74 71.2992 13.42C70.7552 13.1 70.1232 12.94 69.4032 12.94C68.6672 12.94 68.0192 13.1 67.4592 13.42C66.9152 13.74 66.4832 14.188 66.1632 14.764C65.8592 15.324 65.7072 15.988 65.7072 16.756V17.236C65.7072 18.004 65.8832 18.684 66.2352 19.276C66.5872 19.868 67.0832 20.324 67.7232 20.644C68.3632 20.964 69.0992 21.124 69.9312 21.124C70.6512 21.124 71.2992 21.012 71.8752 20.788C72.4512 20.564 72.9632 20.212 73.4112 19.732L75.0192 21.58C74.4432 22.252 73.7152 22.772 72.8352 23.14C71.9712 23.492 70.9792 23.668 69.8592 23.668ZM79.7249 23.668C79.1809 23.668 78.7169 23.484 78.3329 23.116C77.9489 22.732 77.7569 22.252 77.7569 21.676C77.7569 21.068 77.9489 20.588 78.3329 20.236C78.7169 19.868 79.1809 19.684 79.7249 19.684C80.2689 19.684 80.7329 19.868 81.1169 20.236C81.5009 20.588 81.6929 21.068 81.6929 21.676C81.6929 22.252 81.5009 22.732 81.1169 23.116C80.7329 23.484 80.2689 23.668 79.7249 23.668ZM90.2933 23.668C88.9493 23.668 87.7493 23.388 86.6933 22.828C85.6533 22.252 84.8373 21.468 84.2453 20.476C83.6533 19.484 83.3573 18.356 83.3573 17.092C83.3573 15.812 83.6533 14.684 84.2453 13.708C84.8373 12.716 85.6533 11.94 86.6933 11.38C87.7493 10.82 88.9493 10.54 90.2933 10.54C91.5413 10.54 92.6373 10.796 93.5813 11.308C94.5413 11.804 95.2693 12.54 95.7653 13.516L93.4613 14.86C93.0773 14.252 92.6053 13.804 92.0453 13.516C91.5013 13.228 90.9093 13.084 90.2693 13.084C89.5333 13.084 88.8693 13.244 88.2773 13.564C87.6853 13.884 87.2213 14.348 86.8853 14.956C86.5493 15.548 86.3813 16.26 86.3813 17.092C86.3813 17.924 86.5493 18.644 86.8853 19.252C87.2213 19.844 87.6853 20.3 88.2773 20.62C88.8693 20.94 89.5333 21.1 90.2693 21.1C90.9093 21.1 91.5013 20.956 92.0453 20.668C92.6053 20.38 93.0773 19.932 93.4613 19.324L95.7653 20.668C95.2693 21.628 94.5413 22.372 93.5813 22.9C92.6373 23.412 91.5413 23.668 90.2933 23.668ZM103.931 23.668C102.619 23.668 101.451 23.388 100.427 22.828C99.4031 22.252 98.5951 21.468 98.0031 20.476C97.4111 19.484 97.1151 18.356 97.1151 17.092C97.1151 15.812 97.4111 14.684 98.0031 13.708C98.5951 12.716 99.4031 11.94 100.427 11.38C101.451 10.82 102.619 10.54 103.931 10.54C105.259 10.54 106.435 10.82 107.459 11.38C108.499 11.94 109.307 12.708 109.883 13.684C110.475 14.66 110.771 15.796 110.771 17.092C110.771 18.356 110.475 19.484 109.883 20.476C109.307 21.468 108.499 22.252 107.459 22.828C106.435 23.388 105.259 23.668 103.931 23.668ZM103.931 21.1C104.667 21.1 105.323 20.94 105.899 20.62C106.475 20.3 106.923 19.836 107.243 19.228C107.579 18.62 107.747 17.908 107.747 17.092C107.747 16.26 107.579 15.548 107.243 14.956C106.923 14.348 106.475 13.884 105.899 13.564C105.323 13.244 104.675 13.084 103.955 13.084C103.219 13.084 102.563 13.244 101.987 13.564C101.427 13.884 100.979 14.348 100.643 14.956C100.307 15.548 100.139 16.26 100.139 17.092C100.139 17.908 100.307 18.62 100.643 19.228C100.979 19.836 101.427 20.3 101.987 20.62C102.563 20.94 103.211 21.1 103.931 21.1ZM129.816 10.54C130.84 10.54 131.744 10.74 132.528 11.14C133.328 11.54 133.952 12.156 134.4 12.988C134.848 13.804 135.072 14.86 135.072 16.156V23.5H132.072V16.54C132.072 15.404 131.824 14.556 131.328 13.996C130.832 13.436 130.12 13.156 129.192 13.156C128.536 13.156 127.952 13.3 127.44 13.588C126.944 13.876 126.552 14.3 126.264 14.86C125.992 15.42 125.856 16.132 125.856 16.996V23.5H122.856V16.54C122.856 15.404 122.608 14.556 122.112 13.996C121.616 13.436 120.904 13.156 119.976 13.156C119.32 13.156 118.736 13.3 118.224 13.588C117.728 13.876 117.336 14.3 117.048 14.86C116.776 15.42 116.64 16.132 116.64 16.996V23.5H113.64V10.684H116.496V14.092L115.992 13.084C116.424 12.252 117.048 11.62 117.864 11.188C118.696 10.756 119.64 10.54 120.696 10.54C121.896 10.54 122.936 10.836 123.816 11.428C124.712 12.02 125.304 12.916 125.592 14.116L124.416 13.708C124.832 12.748 125.52 11.98 126.48 11.404C127.44 10.828 128.552 10.54 129.816 10.54Z" fill="white"/>
<path d="M144.706 22V11.612H145.406V22H144.706ZM151.212 22.056C150.512 22.056 149.887 21.8973 149.336 21.58C148.795 21.2627 148.361 20.824 148.034 20.264C147.717 19.704 147.558 19.0647 147.558 18.346C147.558 17.618 147.717 16.9787 148.034 16.428C148.361 15.868 148.795 15.4293 149.336 15.112C149.887 14.7947 150.512 14.636 151.212 14.636C151.912 14.636 152.537 14.7947 153.088 15.112C153.639 15.4293 154.073 15.868 154.39 16.428C154.707 16.9787 154.866 17.618 154.866 18.346C154.866 19.0647 154.707 19.704 154.39 20.264C154.073 20.824 153.639 21.2627 153.088 21.58C152.537 21.8973 151.912 22.056 151.212 22.056ZM151.212 21.426C151.772 21.426 152.276 21.3 152.724 21.048C153.172 20.7867 153.522 20.4227 153.774 19.956C154.026 19.4893 154.152 18.9527 154.152 18.346C154.152 17.73 154.026 17.1933 153.774 16.736C153.522 16.2693 153.172 15.91 152.724 15.658C152.276 15.3967 151.772 15.266 151.212 15.266C150.652 15.266 150.148 15.3967 149.7 15.658C149.261 15.91 148.911 16.2693 148.65 16.736C148.398 17.1933 148.272 17.73 148.272 18.346C148.272 18.9527 148.398 19.4893 148.65 19.956C148.911 20.4227 149.261 20.7867 149.7 21.048C150.148 21.3 150.652 21.426 151.212 21.426ZM160.076 24.772C159.413 24.772 158.783 24.6693 158.186 24.464C157.588 24.2587 157.103 23.974 156.73 23.61L157.108 23.078C157.472 23.414 157.906 23.6753 158.41 23.862C158.923 24.0487 159.474 24.142 160.062 24.142C161.042 24.142 161.76 23.9133 162.218 23.456C162.684 22.9987 162.918 22.28 162.918 21.3V19.27L163.058 18.178L162.946 17.086V14.692H163.618V21.216C163.618 22.4387 163.319 23.3347 162.722 23.904C162.134 24.4827 161.252 24.772 160.076 24.772ZM159.88 21.734C159.189 21.734 158.568 21.5847 158.018 21.286C157.476 20.978 157.042 20.558 156.716 20.026C156.398 19.4847 156.24 18.8687 156.24 18.178C156.24 17.478 156.398 16.862 156.716 16.33C157.042 15.798 157.476 15.3827 158.018 15.084C158.568 14.7853 159.189 14.636 159.88 14.636C160.542 14.636 161.135 14.7807 161.658 15.07C162.19 15.35 162.61 15.756 162.918 16.288C163.226 16.8107 163.38 17.4407 163.38 18.178C163.38 18.906 163.226 19.536 162.918 20.068C162.61 20.6 162.19 21.0107 161.658 21.3C161.135 21.5893 160.542 21.734 159.88 21.734ZM159.936 21.104C160.524 21.104 161.042 20.9827 161.49 20.74C161.938 20.488 162.288 20.1427 162.54 19.704C162.801 19.256 162.932 18.7473 162.932 18.178C162.932 17.5993 162.801 17.0907 162.54 16.652C162.288 16.2133 161.938 15.8727 161.49 15.63C161.042 15.3873 160.524 15.266 159.936 15.266C159.366 15.266 158.853 15.3873 158.396 15.63C157.948 15.8727 157.593 16.2133 157.332 16.652C157.08 17.0907 156.954 17.5993 156.954 18.178C156.954 18.7473 157.08 19.256 157.332 19.704C157.593 20.1427 157.948 20.488 158.396 20.74C158.853 20.9827 159.366 21.104 159.936 21.104ZM169.437 22.056C168.737 22.056 168.111 21.8973 167.561 21.58C167.019 21.2627 166.585 20.824 166.259 20.264C165.941 19.704 165.783 19.0647 165.783 18.346C165.783 17.618 165.941 16.9787 166.259 16.428C166.585 15.868 167.019 15.4293 167.561 15.112C168.111 14.7947 168.737 14.636 169.437 14.636C170.137 14.636 170.762 14.7947 171.313 15.112C171.863 15.4293 172.297 15.868 172.615 16.428C172.932 16.9787 173.091 17.618 173.091 18.346C173.091 19.0647 172.932 19.704 172.615 20.264C172.297 20.824 171.863 21.2627 171.313 21.58C170.762 21.8973 170.137 22.056 169.437 22.056ZM169.437 21.426C169.997 21.426 170.501 21.3 170.949 21.048C171.397 20.7867 171.747 20.4227 171.999 19.956C172.251 19.4893 172.377 18.9527 172.377 18.346C172.377 17.73 172.251 17.1933 171.999 16.736C171.747 16.2693 171.397 15.91 170.949 15.658C170.501 15.3967 169.997 15.266 169.437 15.266C168.877 15.266 168.373 15.3967 167.925 15.658C167.486 15.91 167.136 16.2693 166.875 16.736C166.623 17.1933 166.497 17.73 166.497 18.346C166.497 18.9527 166.623 19.4893 166.875 19.956C167.136 20.4227 167.486 20.7867 167.925 21.048C168.373 21.3 168.877 21.426 169.437 21.426Z" fill="white"/>
</svg>
