<svg width="216" height="63" viewBox="0 0 216 63" fill="none" xmlns="http://www.w3.org/2000/svg">
<path d="M208 62.8364H8C3.602 62.8364 0 59.307 0 54.9977V7.96546C0 3.65613 3.602 0.126756 8 0.126756H208C212.398 0.126756 216 3.65613 216 7.96546V54.9977C216 59.307 212.398 62.8364 208 62.8364Z" fill="white"/>
<path d="M208 1.38291C211.704 1.38291 214.718 4.33614 214.718 7.96546V54.9977C214.718 58.627 211.704 61.5803 208 61.5803H8C4.296 61.5803 1.282 58.627 1.282 54.9977V7.96546C1.282 4.33614 4.296 1.38291 8 1.38291H208ZM208 0.126756H8C3.602 0.126756 0 3.65613 0 7.96546V54.9977C0 59.307 3.602 62.8364 8 62.8364H208C212.398 62.8364 216 59.307 216 54.9977V7.96546C216 3.65613 212.398 0.126756 208 0.126756Z" fill="white"/>
<path d="M15.4959 11.9451C15.0259 12.4272 14.7539 13.1778 14.7539 14.1498V48.8204C14.7539 49.7924 15.0259 50.543 15.4959 51.025L15.6119 51.1309L35.4399 31.7105V31.2519L15.6119 11.8315L15.4959 11.9451Z" fill="black"/>
<path d="M44.4418 38.1875L37.8398 31.7108V31.2522L44.4498 24.7755L44.5978 24.8597L52.4258 29.2239C54.6598 30.4625 54.6598 32.5005 52.4258 33.7469L44.5978 38.1032L44.4418 38.1875Z" fill="black"/>
<path d="M43.3978 39.3091L36.6398 32.6873L16.6958 52.2312C17.4378 52.9955 18.6478 53.0876 20.0238 52.3233L43.3978 39.3091Z" fill="black"/>
<path d="M43.3978 23.6536L20.0238 10.6394C18.6478 9.88299 17.4378 9.9751 16.6958 10.7394L36.6398 30.2754L43.3978 23.6536Z" fill="black"/>
<path d="M75.8681 16.1867C75.8681 17.4957 75.4681 18.5442 74.6801 19.3261C73.7741 20.253 72.5941 20.7194 71.1481 20.7194C69.7661 20.7194 68.5861 20.2451 67.6181 19.3104C66.6481 18.3619 66.1641 17.1978 66.1641 15.8045C66.1641 14.4112 66.6481 13.2471 67.6181 12.3065C68.5861 11.3639 69.7661 10.8896 71.1481 10.8896C71.8361 10.8896 72.4921 11.0288 73.1181 11.2875C73.7421 11.5481 74.2501 11.9008 74.6181 12.3359L73.7821 13.1629C73.1401 12.4202 72.2661 12.0537 71.1481 12.0537C70.1401 12.0537 69.2661 12.3986 68.5241 13.0943C67.7901 13.7919 67.4221 14.6953 67.4221 15.8045C67.4221 16.9137 67.7901 17.8249 68.5241 18.5226C69.2661 19.2104 70.1401 19.5632 71.1481 19.5632C72.2181 19.5632 73.1181 19.2104 73.8281 18.5148C74.2961 18.0542 74.5621 17.4193 74.6321 16.608H71.1481V15.4753H75.7961C75.8521 15.7203 75.8681 15.9574 75.8681 16.1867Z" fill="black" stroke="black" stroke-width="0.16" stroke-miterlimit="10"/>
<path d="M83.2421 12.2592H78.8761V15.2379H82.8121V16.3706H78.8761V19.3493H83.2421V20.5036H77.6401V11.105H83.2421V12.2592Z" fill="black" stroke="black" stroke-width="0.16" stroke-miterlimit="10"/>
<path d="M88.4462 20.5036H87.2102V12.2592H84.5322V11.105H91.1262V12.2592H88.4462V20.5036Z" fill="black" stroke="black" stroke-width="0.16" stroke-miterlimit="10"/>
<path d="M95.8979 20.5036V11.105H97.132V20.5036H95.8979Z" fill="black" stroke="black" stroke-width="0.16" stroke-miterlimit="10"/>
<path d="M102.602 20.5036H101.376V12.2592H98.688V11.105H105.29V12.2592H102.602V20.5036Z" fill="black" stroke="black" stroke-width="0.16" stroke-miterlimit="10"/>
<path d="M117.774 19.2947C116.828 20.2451 115.656 20.7194 114.258 20.7194C112.852 20.7194 111.68 20.2451 110.734 19.2947C109.79 18.3462 109.32 17.1822 109.32 15.8045C109.32 14.4269 109.79 13.2628 110.734 12.3143C111.68 11.3639 112.852 10.8896 114.258 10.8896C115.648 10.8896 116.82 11.3639 117.766 12.3222C118.718 13.2785 119.188 14.4347 119.188 15.8045C119.188 17.1822 118.718 18.3462 117.774 19.2947ZM111.648 18.5069C112.36 19.2104 113.226 19.5632 114.258 19.5632C115.282 19.5632 116.156 19.2104 116.86 18.5069C117.57 17.8034 117.93 16.9 117.93 15.8045C117.93 14.7091 117.57 13.8056 116.86 13.1021C116.156 12.3986 115.282 12.0459 114.258 12.0459C113.226 12.0459 112.36 12.3986 111.648 13.1021C110.938 13.8056 110.578 14.7091 110.578 15.8045C110.578 16.9 110.938 17.8034 111.648 18.5069Z" fill="black" stroke="black" stroke-width="0.16" stroke-miterlimit="10"/>
<path d="M120.922 20.5036V11.105H122.422L127.086 18.4146H127.14L127.086 16.6078V11.105H128.32V20.5036H127.032L122.148 12.8334H122.094L122.148 14.6481V20.5036H120.922Z" fill="black" stroke="black" stroke-width="0.16" stroke-miterlimit="10"/>
<path d="M109.016 34.2289C105.258 34.2289 102.188 37.0312 102.188 40.8976C102.188 44.7327 105.258 47.5645 109.016 47.5645C112.782 47.5645 115.852 44.7327 115.852 40.8976C115.852 37.0312 112.782 34.2289 109.016 34.2289ZM109.016 44.9385C106.954 44.9385 105.18 43.2708 105.18 40.8976C105.18 38.4931 106.954 36.8548 109.016 36.8548C111.078 36.8548 112.86 38.4931 112.86 40.8976C112.86 43.2708 111.078 44.9385 109.016 44.9385ZM94.118 34.2289C90.352 34.2289 87.2901 37.0312 87.2901 40.8976C87.2901 44.7327 90.352 47.5645 94.118 47.5645C97.882 47.5645 100.946 44.7327 100.946 40.8976C100.946 37.0312 97.882 34.2289 94.118 34.2289ZM94.118 44.9385C92.054 44.9385 90.2741 43.2708 90.2741 40.8976C90.2741 38.4931 92.054 36.8548 94.118 36.8548C96.18 36.8548 97.9541 38.4931 97.9541 40.8976C97.9541 43.2708 96.18 44.9385 94.118 44.9385ZM76.3901 36.2728V39.1065H83.2961C83.0941 40.6899 82.5541 41.854 81.7261 42.6653C80.7181 43.6451 79.1481 44.7327 76.3901 44.7327C72.1401 44.7327 68.8121 41.3719 68.8121 37.2076C68.8121 33.0433 72.1401 29.6824 76.3901 29.6824C78.6881 29.6824 80.3601 30.5623 81.5941 31.7028L83.6321 29.7059C81.9061 28.0911 79.6101 26.8507 76.3901 26.8507C70.5621 26.8507 65.6641 31.4971 65.6641 37.2076C65.6641 42.9181 70.5621 47.5645 76.3901 47.5645C79.5401 47.5645 81.9061 46.5533 83.7661 44.6563C85.6721 42.7887 86.2661 40.1628 86.2661 38.0424C86.2661 37.3839 86.2101 36.7784 86.1101 36.2728H76.3901ZM148.882 38.4696C148.32 36.9783 146.586 34.2289 143.054 34.2289C139.554 34.2289 136.64 36.9312 136.64 40.8976C136.64 44.6328 139.524 47.5645 143.39 47.5645C146.516 47.5645 148.32 45.6969 149.062 44.6093L146.742 43.0944C145.968 44.2036 144.914 44.9385 143.39 44.9385C141.876 44.9385 140.79 44.2585 140.094 42.9181L149.196 39.228L148.882 38.4696ZM139.602 40.6899C139.524 38.1188 141.64 36.8019 143.156 36.8019C144.344 36.8019 145.352 37.3839 145.688 38.2168L139.602 40.6899ZM132.204 47.1588H135.196V27.562H132.204V47.1588ZM127.304 35.7143H127.204C126.532 34.9343 125.25 34.2289 123.626 34.2289C120.218 34.2289 117.102 37.1605 117.102 40.9192C117.102 44.6563 120.218 47.5645 123.626 47.5645C125.25 47.5645 126.532 46.8531 127.204 46.0496H127.304V47.006C127.304 49.5555 125.914 50.9253 123.672 50.9253C121.844 50.9253 120.71 49.6319 120.242 48.5443L117.64 49.6084C118.39 51.376 120.376 53.5513 123.672 53.5513C127.18 53.5513 130.14 51.5289 130.14 46.6081V34.6345H127.304V35.7143ZM123.882 44.9385C121.82 44.9385 120.094 43.2473 120.094 40.9192C120.094 38.5695 121.82 36.8548 123.882 36.8548C125.914 36.8548 127.516 38.5695 127.516 40.9192C127.516 43.2473 125.914 44.9385 123.882 44.9385ZM162.89 27.562H155.734V47.1588H158.718V39.7336H162.89C166.204 39.7336 169.454 37.3839 169.454 33.6468C169.454 29.9117 166.196 27.562 162.89 27.562ZM162.968 37.0077H158.718V30.2879H162.968C165.196 30.2879 166.468 32.1006 166.468 33.6468C166.468 35.1636 165.196 37.0077 162.968 37.0077ZM181.414 34.1916C179.258 34.1916 177.016 35.1244 176.094 37.1919L178.742 38.2795C179.312 37.1919 180.36 36.8391 181.468 36.8391C183.016 36.8391 184.586 37.7504 184.61 39.3593V39.5651C184.07 39.2593 182.914 38.8067 181.492 38.8067C178.64 38.8067 175.734 40.345 175.734 43.2159C175.734 45.8419 178.07 47.5331 180.696 47.5331C182.704 47.5331 183.812 46.6454 184.508 45.6126H184.61V47.1274H187.492V39.6101C187.492 36.1356 184.844 34.1916 181.414 34.1916ZM181.054 44.9307C180.078 44.9307 178.718 44.4564 178.718 43.2708C178.718 41.754 180.414 41.172 181.882 41.172C183.196 41.172 183.812 41.4561 184.61 41.8304C184.376 43.6451 182.782 44.9307 181.054 44.9307ZM197.992 34.6208L194.562 43.116H194.46L190.914 34.6208H187.696L193.024 46.4925L189.984 53.0986H193.102L201.312 34.6208H197.992ZM171.094 47.1588H174.086V27.562H171.094V47.1588Z" fill="black"/>
</svg>
