<svg width="238" height="64" viewBox="0 0 238 64" fill="none" xmlns="http://www.w3.org/2000/svg">
<path d="M236.678 56.5867C236.678 59.9954 233.648 62.7565 229.9 62.7565H8.10848C4.36272 62.7565 1.32227 59.9954 1.32227 56.5867V7.38485C1.32227 3.97779 4.36272 1.20703 8.10848 1.20703H229.899C233.648 1.20703 236.676 3.97779 236.676 7.38485L236.678 56.5867Z" fill="white"/>
<path d="M229.185 1.28149C233.266 1.28149 236.587 4.29375 236.587 7.99562V55.968C236.587 59.6699 233.266 62.6821 229.185 62.6821H8.81481C4.73356 62.6821 1.41257 59.6699 1.41257 55.968V7.99562C1.41257 4.29375 4.73356 1.28149 8.81481 1.28149H229.185ZM229.185 0.000225067H8.81481C3.96887 0.000225067 0 3.60015 0 7.99562V55.968C0 60.3635 3.96887 63.9634 8.81481 63.9634H229.185C234.031 63.9634 238 60.3635 238 55.968V7.99562C238 3.60015 234.031 0.000225067 229.185 0.000225067Z" fill="white"/>
<path d="M53.1147 31.6361C53.0635 26.4823 57.7671 23.9749 57.9822 23.8582C55.3184 20.3354 51.1895 19.8541 49.7386 19.8157C46.2708 19.4847 42.9071 21.6978 41.1406 21.6978C39.3389 21.6978 36.6186 19.8477 33.6868 19.9021C29.9141 19.9548 26.3846 21.9361 24.4489 25.0127C20.454 31.2859 23.4334 40.5046 27.2608 45.5753C29.1754 48.0586 31.4126 50.8314 34.3409 50.7339C37.2057 50.6268 38.2758 49.0773 41.733 49.0773C45.1584 49.0773 46.1633 50.7339 49.1498 50.6715C52.2244 50.6268 54.1601 48.177 56.0077 45.6712C58.2202 42.8249 59.1087 40.0217 59.144 39.8778C59.0717 39.8554 53.1728 37.8133 53.1147 31.6361Z" fill="black"/>
<path d="M47.4732 16.48C49.014 14.7322 50.0683 12.3544 49.7756 9.94141C47.5455 10.031 44.7564 11.3406 43.1504 13.05C41.7294 14.5563 40.4601 17.0253 40.788 19.3472C43.2932 19.5167 45.8654 18.2006 47.4732 16.48Z" fill="black"/>
<path d="M86.4732 16.0052C86.4732 17.8873 85.8509 19.3041 84.608 20.2555C83.4568 21.1334 81.8207 21.5731 79.7016 21.5731C78.6509 21.5731 77.7518 21.5316 76.999 21.4484V11.1647C77.981 11.0208 79.0388 10.9473 80.1812 10.9473C82.1998 10.9473 83.7212 11.3454 84.7472 12.1418C85.8967 13.0421 86.4732 14.3293 86.4732 16.0052ZM84.5251 16.0515C84.5251 14.8314 84.169 13.896 83.4568 13.2435C82.7445 12.5927 81.7044 12.2665 80.3346 12.2665C79.7528 12.2665 79.2574 12.3017 78.8466 12.3752V20.1931C79.074 20.2251 79.4901 20.2395 80.0948 20.2395C81.5087 20.2395 82.6 19.8829 83.3686 19.1697C84.1373 18.4565 84.5251 17.4171 84.5251 16.0515Z" fill="black"/>
<path d="M96.8022 17.6487C96.8022 18.8081 96.4373 19.7579 95.7074 20.5031C94.9423 21.2691 93.9286 21.6512 92.6628 21.6512C91.4428 21.6512 90.4714 21.2851 89.7468 20.5495C89.024 19.8155 88.6626 18.8896 88.6626 17.7735C88.6626 16.6061 89.0346 15.6483 89.7821 14.9047C90.5296 14.1612 91.5345 13.7886 92.8003 13.7886C94.0202 13.7886 95.0004 14.1548 95.7427 14.8887C96.4478 15.6019 96.8022 16.523 96.8022 17.6487ZM94.8859 17.7031C94.8859 17.0075 94.7201 16.4111 94.3905 15.9137C94.0026 15.3125 93.4508 15.0119 92.7333 15.0119C91.9911 15.0119 91.4269 15.3125 91.0391 15.9137C90.7076 16.4111 90.5437 17.0171 90.5437 17.7335C90.5437 18.4291 90.7094 19.0256 91.0391 19.5229C91.4393 20.1241 91.9964 20.4247 92.7157 20.4247C93.4208 20.4247 93.9744 20.1193 94.3728 19.5069C94.7148 19 94.8859 18.3987 94.8859 17.7031Z" fill="black"/>
<path d="M110.652 13.9424L108.052 21.4804H106.36L105.282 18.2071C105.009 17.39 104.787 16.5777 104.614 15.7717H104.581C104.42 16.6001 104.198 17.4108 103.913 18.2071L102.768 21.4804H101.057L98.6113 13.9424H100.51L101.45 17.5259C101.677 18.3734 101.864 19.181 102.014 19.9453H102.047C102.185 19.3153 102.412 18.5126 102.733 17.5419L103.913 13.944H105.418L106.548 17.4652C106.821 18.3239 107.044 19.1506 107.215 19.9469H107.266C107.391 19.1714 107.58 18.3446 107.83 17.4652L108.838 13.944H110.652V13.9424Z" fill="black"/>
<path d="M120.23 21.4801H118.383V17.1625C118.383 15.8321 117.826 15.1669 116.708 15.1669C116.16 15.1669 115.717 15.3492 115.373 15.7154C115.033 16.0816 114.86 16.5133 114.86 17.0074V21.4785H113.013V16.096C113.013 15.4339 112.99 14.716 112.946 13.9388H114.569L114.656 15.1173H114.707C114.922 14.7511 115.243 14.4489 115.664 14.2074C116.165 13.926 116.726 13.7837 117.339 13.7837C118.115 13.7837 118.76 14.0108 119.273 14.4665C119.911 15.0246 120.23 15.8577 120.23 16.9643V21.4801Z" fill="black"/>
<path d="M125.325 21.4803H123.479V10.4834H125.325V21.4803Z" fill="black"/>
<path d="M136.203 17.6487C136.203 18.8081 135.838 19.7579 135.108 20.5031C134.343 21.2691 133.328 21.6512 132.064 21.6512C130.842 21.6512 129.871 21.2851 129.148 20.5495C128.425 19.8155 128.063 18.8896 128.063 17.7735C128.063 16.6061 128.435 15.6483 129.183 14.9047C129.93 14.1612 130.935 13.7886 132.199 13.7886C133.421 13.7886 134.4 14.1548 135.144 14.8887C135.849 15.6019 136.203 16.523 136.203 17.6487ZM134.285 17.7031C134.285 17.0075 134.119 16.4111 133.79 15.9137C133.403 15.3125 132.85 15.0119 132.134 15.0119C131.39 15.0119 130.826 15.3125 130.44 15.9137C130.109 16.4111 129.945 17.0171 129.945 17.7335C129.945 18.4291 130.11 19.0256 130.44 19.5229C130.84 20.1241 131.397 20.4247 132.117 20.4247C132.822 20.4247 133.374 20.1193 133.772 19.5069C134.116 19 134.285 18.3987 134.285 17.7031Z" fill="black"/>
<path d="M145.144 21.4801H143.485L143.348 20.6118H143.297C142.729 21.3042 141.92 21.6512 140.869 21.6512C140.085 21.6512 139.45 21.4226 138.972 20.9684C138.539 20.5559 138.322 20.0426 138.322 19.4333C138.322 18.5123 138.745 17.8103 139.596 17.3241C140.446 16.838 141.641 16.5998 143.18 16.6109V16.4702C143.18 15.4772 142.606 14.9815 141.455 14.9815C140.635 14.9815 139.912 15.1686 139.288 15.5396L138.912 14.4394C139.685 14.006 140.638 13.7886 141.763 13.7886C143.935 13.7886 145.025 14.828 145.025 16.9068V19.6828C145.025 20.4359 145.065 21.0356 145.144 21.4801ZM143.226 18.8896V17.7271C141.188 17.6951 140.169 18.202 140.169 19.2462C140.169 19.6396 140.286 19.9338 140.524 20.1305C140.762 20.3272 141.065 20.4247 141.426 20.4247C141.832 20.4247 142.211 20.308 142.556 20.0762C142.904 19.8427 143.117 19.5469 143.196 19.1839C143.216 19.1023 143.226 19.0032 143.226 18.8896Z" fill="black"/>
<path d="M155.643 21.4803H154.004L153.917 20.2698H153.866C153.343 21.1908 152.451 21.6514 151.197 21.6514C150.196 21.6514 149.362 21.2948 148.701 20.5816C148.04 19.8684 147.71 18.9425 147.71 17.8056C147.71 16.5855 148.068 15.5973 148.787 14.8425C149.483 14.1389 150.337 13.7871 151.352 13.7871C152.468 13.7871 153.249 14.1277 153.693 14.8105H153.729V10.4834H155.578V19.4494C155.578 20.1834 155.599 20.8598 155.643 21.4803ZM153.729 18.3013V17.0444C153.729 16.8269 153.711 16.651 153.678 16.5167C153.574 16.1138 153.35 15.7748 153.009 15.5013C152.666 15.2279 152.251 15.0903 151.774 15.0903C151.084 15.0903 150.545 15.3382 150.148 15.8355C149.755 16.3328 149.556 16.9677 149.556 17.7432C149.556 18.4884 149.744 19.0928 150.123 19.5582C150.524 20.0539 151.063 20.3017 151.738 20.3017C152.345 20.3017 152.83 20.0955 153.198 19.6813C153.554 19.2991 153.729 18.8386 153.729 18.3013Z" fill="black"/>
<path d="M171.444 17.6487C171.444 18.8081 171.079 19.7579 170.349 20.5031C169.584 21.2691 168.572 21.6512 167.305 21.6512C166.087 21.6512 165.115 21.2851 164.389 20.5495C163.666 19.8155 163.305 18.8896 163.305 17.7735C163.305 16.6061 163.677 15.6483 164.424 14.9047C165.172 14.1612 166.177 13.7886 167.444 13.7886C168.662 13.7886 169.644 14.1548 170.385 14.8887C171.09 15.6019 171.444 16.523 171.444 17.6487ZM169.53 17.7031C169.53 17.0075 169.364 16.4111 169.034 15.9137C168.645 15.3125 168.095 15.0119 167.375 15.0119C166.635 15.0119 166.071 15.3125 165.681 15.9137C165.35 16.4111 165.186 17.0171 165.186 17.7335C165.186 18.4291 165.351 19.0256 165.681 19.5229C166.081 20.1241 166.638 20.4247 167.358 20.4247C168.063 20.4247 168.618 20.1193 169.017 19.5069C169.357 19 169.53 18.3987 169.53 17.7031Z" fill="black"/>
<path d="M181.379 21.4801H179.533V17.1625C179.533 15.8321 178.976 15.1669 177.857 15.1669C177.308 15.1669 176.866 15.3492 176.524 15.7154C176.182 16.0816 176.011 16.5133 176.011 17.0074V21.4785H174.161V16.096C174.161 15.4339 174.14 14.716 174.096 13.9388H175.718L175.805 15.1173H175.856C176.072 14.7511 176.393 14.4489 176.813 14.2074C177.315 13.926 177.874 13.7837 178.489 13.7837C179.263 13.7837 179.909 14.0108 180.422 14.4665C181.062 15.0246 181.379 15.8577 181.379 16.9643V21.4801Z" fill="black"/>
<path d="M193.813 15.1975H191.778V18.8594C191.778 19.7901 192.14 20.2554 192.856 20.2554C193.187 20.2554 193.462 20.2298 193.679 20.1771L193.727 21.4483C193.362 21.5731 192.882 21.6354 192.291 21.6354C191.562 21.6354 190.994 21.4339 190.583 21.031C190.171 20.628 189.966 19.95 189.966 18.9985V15.1975H188.751V13.9423H189.966V12.5607L191.777 12.0649V13.9407H193.811V15.1975H193.813Z" fill="black"/>
<path d="M203.594 21.4803H201.745V17.1947C201.745 15.8435 201.188 15.1671 200.072 15.1671C199.215 15.1671 198.63 15.5589 198.309 16.3424C198.254 16.5071 198.222 16.7086 198.222 16.9453V21.4787H196.376V10.4834H198.222V15.0264H198.258C198.839 14.1997 199.673 13.7871 200.754 13.7871C201.519 13.7871 202.152 14.0142 202.654 14.4699C203.28 15.0376 203.594 15.8819 203.594 16.998V21.4803Z" fill="black"/>
<path d="M213.683 17.3548C213.683 17.6554 213.659 17.908 213.615 18.1143H208.074C208.098 18.8595 208.363 19.4272 208.876 19.8205C209.345 20.1723 209.95 20.3482 210.69 20.3482C211.51 20.3482 212.257 20.2299 212.931 19.9916L213.22 21.1558C212.432 21.466 211.504 21.6211 210.431 21.6211C209.144 21.6211 208.13 21.2773 207.397 20.5897C206.66 19.9021 206.295 18.9794 206.295 17.8217C206.295 16.6847 206.635 15.7381 207.321 14.9833C208.037 14.1774 209.005 13.7744 210.226 13.7744C211.422 13.7744 212.33 14.1774 212.943 14.9833C213.438 15.6229 213.683 16.4145 213.683 17.3548ZM211.921 16.9214C211.935 16.4241 211.813 15.9955 211.563 15.6341C211.242 15.1688 210.753 14.9353 210.092 14.9353C209.489 14.9353 208.998 15.1624 208.622 15.6182C208.315 15.9811 208.134 16.4145 208.074 16.9214H211.921Z" fill="black"/>
<path d="M94.574 50.3777H90.5703L88.3772 44.1269H80.7541L78.665 50.3777H74.7671L82.3196 29.0972H86.9844L94.574 50.3777ZM87.7161 41.5044L85.7327 35.9476C85.5229 35.38 85.1298 34.0431 84.5498 31.9387H84.4792C84.2483 32.8438 83.8763 34.1806 83.3651 35.9476L81.417 41.5044H87.7161Z" fill="black"/>
<path d="M113.997 42.5165C113.997 45.1262 113.219 47.189 111.664 48.7033C110.271 50.0513 108.542 50.7246 106.478 50.7246C104.249 50.7246 102.648 49.9986 101.674 48.5466H101.603V56.63H97.8443V40.0843C97.8443 38.4436 97.7968 36.7598 97.7051 35.0328H101.011L101.22 37.465H101.291C102.544 35.6324 104.447 34.7178 106.999 34.7178C108.995 34.7178 110.661 35.4326 111.994 36.8637C113.33 38.2965 113.997 40.1802 113.997 42.5165ZM110.167 42.6412C110.167 41.1477 109.797 39.9164 109.053 38.9473C108.241 37.9367 107.149 37.4314 105.781 37.4314C104.854 37.4314 104.011 37.7128 103.258 38.2677C102.504 38.8274 102.01 39.5582 101.779 40.4633C101.663 40.8854 101.605 41.2308 101.605 41.5027V44.0612C101.605 45.1774 101.982 46.1192 102.737 46.8884C103.491 47.6575 104.471 48.0413 105.677 48.0413C107.093 48.0413 108.195 47.5456 108.983 46.5574C109.773 45.5675 110.167 44.2627 110.167 42.6412Z" fill="black"/>
<path d="M133.454 42.5165C133.454 45.1262 132.677 47.189 131.12 48.7033C129.729 50.0513 128 50.7246 125.935 50.7246C123.707 50.7246 122.106 49.9986 121.133 48.5466H121.062V56.63H117.304V40.0843C117.304 38.4436 117.256 36.7598 117.165 35.0328H120.47L120.68 37.465H120.75C122.002 35.6324 123.904 34.7178 126.459 34.7178C128.453 34.7178 130.119 35.4326 131.455 36.8637C132.786 38.2965 133.454 40.1802 133.454 42.5165ZM129.625 42.6412C129.625 41.1477 129.253 39.9164 128.509 38.9473C127.696 37.9367 126.609 37.4314 125.239 37.4314C124.31 37.4314 123.469 37.7128 122.714 38.2677C121.96 38.8274 121.468 39.5582 121.237 40.4633C121.122 40.8854 121.062 41.2308 121.062 41.5027V44.0612C121.062 45.1774 121.44 46.1192 122.191 46.8884C122.945 47.6559 123.926 48.0413 125.135 48.0413C126.551 48.0413 127.652 47.5456 128.44 46.5574C129.23 45.5675 129.625 44.2627 129.625 42.6412Z" fill="black"/>
<path d="M155.209 44.4098C155.209 46.2199 154.516 47.6927 153.125 48.8296C151.597 50.0721 149.469 50.6925 146.735 50.6925C144.21 50.6925 142.186 50.2512 140.654 49.3669L141.525 46.5253C143.175 47.4304 144.986 47.8846 146.959 47.8846C148.374 47.8846 149.476 47.5935 150.268 47.0147C151.056 46.4358 151.449 45.6586 151.449 44.6896C151.449 43.8261 151.125 43.0985 150.474 42.5085C149.827 41.9184 148.746 41.3699 147.237 40.863C143.129 39.4734 141.077 37.4378 141.077 34.7609C141.077 33.0115 141.797 31.5771 143.237 30.461C144.672 29.3432 146.587 28.7852 148.981 28.7852C151.116 28.7852 152.889 29.1226 154.305 29.7958L153.365 32.575C152.043 31.9226 150.548 31.5963 148.875 31.5963C147.553 31.5963 146.52 31.8922 145.779 32.4806C145.153 33.0067 144.84 33.648 144.84 34.4075C144.84 35.2486 145.197 35.9442 145.917 36.4911C146.543 36.9964 147.68 37.5433 149.33 38.1334C151.348 38.8706 152.831 39.7325 153.785 40.7207C154.735 41.7057 155.209 42.9386 155.209 44.4098Z" fill="black"/>
<path d="M167.636 37.5914H163.493V45.0415C163.493 46.9364 164.223 47.8831 165.686 47.8831C166.358 47.8831 166.915 47.8303 167.356 47.7248L167.46 50.3137C166.719 50.5647 165.745 50.6911 164.537 50.6911C163.053 50.6911 161.893 50.2801 161.055 49.4598C160.221 48.6378 159.802 47.2594 159.802 45.3229V37.5882H157.333V35.0297H159.802V32.2201L163.493 31.2095V35.0297H167.636V37.5914Z" fill="black"/>
<path d="M186.329 42.5787C186.329 44.9374 185.585 46.8738 184.101 48.3882C182.544 49.9473 180.478 50.7244 177.902 50.7244C175.42 50.7244 173.444 49.9776 171.97 48.4841C170.496 46.9906 169.759 45.1053 169.759 42.833C169.759 40.4551 170.517 38.5075 172.039 36.9931C173.557 35.4772 175.605 34.7192 178.181 34.7192C180.663 34.7192 182.661 35.466 184.168 36.9611C185.61 38.4115 186.329 40.284 186.329 42.5787ZM182.43 42.689C182.43 41.2739 182.096 40.0602 181.421 39.0479C180.633 37.8231 179.507 37.2122 178.047 37.2122C176.536 37.2122 175.388 37.8247 174.6 39.0479C173.925 40.0618 173.592 41.2947 173.592 42.753C173.592 44.1682 173.925 45.3819 174.6 46.3925C175.413 47.6174 176.548 48.2283 178.013 48.2283C179.449 48.2283 180.575 47.6046 181.388 46.3605C182.081 45.3291 182.43 44.1026 182.43 42.689Z" fill="black"/>
<path d="M198.547 38.0311C198.175 37.9687 197.778 37.9367 197.362 37.9367C196.04 37.9367 195.017 38.3893 194.298 39.2959C193.672 40.0955 193.358 41.1061 193.358 42.3262V50.3776H189.601L189.637 39.8652C189.637 38.0966 189.589 36.4864 189.496 35.0344H192.769L192.907 37.9703H193.011C193.408 36.9613 194.033 36.1489 194.89 35.5397C195.728 34.9912 196.632 34.7178 197.607 34.7178C197.954 34.7178 198.268 34.7402 198.547 34.7801V38.0311Z" fill="black"/>
<path d="M215.356 41.9792C215.356 42.59 215.312 43.1049 215.219 43.5255H203.943C203.987 45.0414 204.532 46.2007 205.579 47.0003C206.529 47.7151 207.758 48.0733 209.267 48.0733C210.937 48.0733 212.46 47.8318 213.83 47.3473L214.418 49.7139C212.818 50.3471 210.928 50.6622 208.747 50.6622C206.124 50.6622 204.065 49.9618 202.566 48.5626C201.071 47.1634 200.322 45.2845 200.322 42.9274C200.322 40.6135 201.018 38.6867 202.413 37.1499C203.872 35.5093 205.845 34.689 208.327 34.689C210.766 34.689 212.611 35.5093 213.865 37.1499C214.857 38.4532 215.356 40.0651 215.356 41.9792ZM211.772 41.0949C211.797 40.0843 211.552 39.2112 211.042 38.474C210.392 37.5257 209.392 37.0524 208.047 37.0524C206.818 37.0524 205.819 37.5145 205.055 38.442C204.429 39.1792 204.057 40.0635 203.943 41.0933H211.772V41.0949Z" fill="black"/>
</svg>
