<svg width="16" height="19" viewBox="0 0 16 19" fill="none" xmlns="http://www.w3.org/2000/svg">
<path d="M15.344 14.7765C15.0718 15.4054 14.7495 15.9842 14.3762 16.5164C13.8673 17.242 13.4507 17.7442 13.1296 18.0231C12.6318 18.4808 12.0985 18.7153 11.5274 18.7286C11.1174 18.7286 10.623 18.6119 10.0475 18.3753C9.47005 18.1397 8.9394 18.0231 8.45419 18.0231C7.94532 18.0231 7.39956 18.1397 6.8158 18.3753C6.23115 18.6119 5.76016 18.7353 5.40006 18.7475C4.85242 18.7708 4.30654 18.5297 3.76167 18.0231C3.41391 17.7197 2.97892 17.1998 2.45783 16.4631C1.89873 15.6765 1.43908 14.7643 1.07898 13.7243C0.693327 12.601 0.5 11.5133 0.5 10.4602C0.5 9.25388 0.760658 8.21347 1.28275 7.34161C1.69307 6.64129 2.23894 6.08886 2.92214 5.68332C3.60534 5.27778 4.34354 5.07112 5.13852 5.0579C5.5735 5.0579 6.14393 5.19245 6.8528 5.45688C7.55966 5.72221 8.01354 5.85676 8.21253 5.85676C8.3613 5.85676 8.86551 5.69943 9.72026 5.38578C10.5286 5.09489 11.2108 4.97445 11.7696 5.0219C13.284 5.14412 14.4218 5.7411 15.1784 6.81662C13.824 7.63726 13.154 8.78667 13.1674 10.2612C13.1796 11.4097 13.5962 12.3655 14.4151 13.1243C14.7862 13.4765 15.2006 13.7487 15.6617 13.9421C15.5617 14.2321 15.4562 14.5098 15.344 14.7765ZM11.8707 1.10913C11.8707 2.00933 11.5419 2.84985 10.8863 3.62783C10.0952 4.55269 9.13839 5.08712 8.10076 5.00279C8.08753 4.89479 8.07987 4.78113 8.07987 4.66169C8.07987 3.79749 8.45608 2.87263 9.12417 2.11643C9.45771 1.73355 9.88192 1.41519 10.3963 1.16124C10.9097 0.911065 11.3952 0.772715 11.8519 0.749023C11.8652 0.869367 11.8707 0.989718 11.8707 1.10911V1.10913Z" fill="#0B1729"/>
</svg>
