<svg width="146" height="21" viewBox="0 0 146 21" fill="none" xmlns="http://www.w3.org/2000/svg">
<g opacity="0.5">
<path d="M54.4894 0.588807C54.6314 0.377211 54.8821 0.146126 55.0465 0.0751297C55.2108 0.00552569 55.534 -0.0209238 55.7638 0.0180544C55.9936 0.0570326 56.3223 0.180928 56.495 0.293686C56.7053 0.43011 56.8599 0.736367 56.9644 1.22777C57.0702 1.72196 57.0981 3.35904 57.0507 6.27406C57.0076 8.98583 56.924 10.7315 56.8251 10.9723C56.7402 11.1825 56.4658 11.4582 56.2165 11.5848C55.8752 11.7575 55.6468 11.7825 55.2916 11.6892C55.0326 11.6196 54.7011 11.408 54.5562 11.2159C54.3097 10.8916 54.2902 10.5338 54.2623 5.92047C54.2331 1.3113 54.2498 0.947963 54.4894 0.588807Z" fill="#EA972F"/>
<path d="M48.8916 5.17153C49.3777 4.64115 49.9627 4.09406 50.1925 3.95346C50.4223 3.81425 50.7831 3.7001 50.9934 3.69871C51.2204 3.69871 51.5603 3.86437 51.8291 4.1052C52.194 4.43234 52.2818 4.61748 52.2818 5.06017C52.2818 5.546 52.1759 5.72001 51.3709 6.56779C50.8221 7.1455 50.2691 7.91254 49.978 8.4986C49.5114 9.43826 49.4961 9.52178 49.4961 11.0837C49.4961 12.6929 49.4975 12.7013 50.0728 13.8706C50.4558 14.6516 50.8555 15.2307 51.2678 15.601C51.609 15.9072 52.2581 16.3583 52.7121 16.6033C53.2581 16.8998 53.8877 17.1003 54.5799 17.2005C55.3237 17.3077 55.9059 17.3091 56.5995 17.2033C57.1357 17.1225 57.9505 16.8761 58.4101 16.6562C58.8698 16.4362 59.5592 15.9532 59.9436 15.5815C60.3266 15.2098 60.8406 14.5291 61.0843 14.0697C61.3364 13.595 61.5983 12.814 61.6916 12.26C61.7863 11.706 61.8183 10.8958 61.7668 10.3807C61.7083 9.79184 61.5147 9.13478 61.2153 8.50139C60.9297 7.90001 60.3977 7.13993 59.8252 6.51767C59.1985 5.83555 58.8976 5.39566 58.8976 5.1604C58.8976 4.96968 58.9756 4.64811 59.0717 4.44765C59.1678 4.24719 59.4185 3.99662 59.6288 3.89082C59.8392 3.78502 60.1525 3.69732 60.3253 3.69454C60.498 3.69314 60.9047 3.88107 61.2306 4.11216C61.5565 4.34464 62.1457 4.92513 62.5412 5.40401C62.9368 5.88288 63.4688 6.71256 63.7251 7.24851C63.9814 7.78446 64.2934 8.69349 64.4187 9.26703C64.5831 10.0188 64.6249 10.6814 64.5705 11.6336C64.5176 12.5704 64.3811 13.2818 64.1054 14.0697C63.8909 14.6822 63.4855 15.5272 63.2028 15.949C62.9215 16.3708 62.2251 17.1532 61.6554 17.6891C61.0607 18.2487 60.2389 18.8543 59.7236 19.1104C59.2319 19.3568 58.2945 19.6937 57.6441 19.8594C56.6984 20.1002 56.2081 20.1461 55.2067 20.0891C54.4225 20.0431 53.5353 19.883 52.8389 19.6603C52.226 19.464 51.3486 19.0617 50.8889 18.7666C50.4293 18.4715 49.6883 17.8589 49.2426 17.4037C48.7969 16.9485 48.2231 16.2622 47.9668 15.8794C47.7105 15.4966 47.3066 14.6043 47.0712 13.8957C46.7008 12.7876 46.6409 12.409 46.6436 11.1811C46.645 10.3501 46.737 9.40624 46.8623 8.91901C46.9821 8.45962 47.2885 7.64526 47.5434 7.10931C47.8206 6.53159 48.3679 5.74368 48.8916 5.17153Z" fill="#EA972F"/>
<path fill-rule="evenodd" clip-rule="evenodd" d="M99.8592 0.902344L101.866 0.984476L101.936 3.42062H99.8467L99.8592 0.902344ZM93.4523 2.01601L95.5986 2.09814L95.6683 5.78715L98.1057 5.85675L98.1489 6.41359C98.1725 6.71984 98.1572 7.11102 98.114 7.28364C98.0402 7.57736 97.9636 7.59685 95.6683 7.59685L95.7031 11.8622C95.7323 15.4858 95.7699 16.1442 95.9468 16.2403C96.0624 16.3029 96.5792 16.3878 98.0361 16.5062V18.3159L96.5388 18.2755C95.5763 18.249 94.8967 18.1627 94.6362 18.0319C94.4133 17.9205 94.1 17.6504 93.9398 17.4333C93.7072 17.1187 93.6292 16.7428 93.5526 15.554C93.501 14.7382 93.4537 12.6139 93.4398 7.59685H91.3505V5.78715H93.4398L93.4523 2.01601ZM129.104 2.02714H131.192L131.255 5.71615L133.692 5.78576V7.59546H131.185L131.202 10.0664C131.21 11.4251 131.257 13.3447 131.306 14.3331C131.374 15.7196 131.443 16.154 131.603 16.2403C131.718 16.3029 132.235 16.3864 133.692 16.5048V18.3145H132.404C131.696 18.3131 130.897 18.2532 130.628 18.1794C130.36 18.1071 129.972 17.8718 129.766 17.6588C129.56 17.4458 129.327 16.9892 129.248 16.644C129.165 16.289 129.101 14.1953 129.096 7.59546H127.007V5.78576L129.026 5.71615L129.104 2.02714ZM6.7385 5.45305C7.62015 5.49481 8.66894 5.63959 9.21075 5.7955C9.86537 5.98343 10.325 6.22287 10.7247 6.5862C11.0395 6.87297 11.4002 7.29616 11.5242 7.52586C11.715 7.87666 11.7652 8.68546 11.839 12.6069C11.8877 15.1725 11.9824 17.5085 12.1705 18.3284L10.4295 18.2866C8.68983 18.2449 8.68844 18.2449 8.64108 17.8968C8.61601 17.7061 8.5408 17.4862 8.47395 17.4096C8.39734 17.3205 8.1146 17.4291 7.68561 17.7103C7.31791 17.9525 6.67165 18.2532 6.25102 18.3771C5.81228 18.5066 4.97798 18.6054 4.30108 18.6068C3.464 18.6082 2.89294 18.5289 2.35114 18.3326C1.82048 18.1419 1.39149 17.8509 0.954146 17.386C0.483375 16.8848 0.274453 16.5187 0.133778 15.9479C0.0293174 15.5261 -0.0250023 14.8384 0.0112109 14.4166C0.0502096 13.9768 0.221526 13.3963 0.413734 13.051C0.597585 12.7211 0.968074 12.3021 1.23689 12.1183C1.50431 11.9346 1.95836 11.6882 2.24668 11.5698C2.5336 11.4515 3.84981 11.1675 5.17159 10.9392C6.49197 10.7109 7.71486 10.4283 7.88757 10.3128C8.05889 10.1959 8.24135 9.92859 8.2901 9.71838C8.33884 9.50818 8.32352 9.12257 8.25528 8.86225C8.18703 8.60193 7.95304 8.2567 7.73715 8.09661C7.40984 7.85439 7.14799 7.80567 6.20505 7.81123C5.39583 7.81541 4.96545 7.88223 4.71892 8.04371C4.52671 8.169 4.29272 8.41679 4.1994 8.59497C4.10469 8.77316 3.96402 9.09055 3.74395 9.68358H0.401199V9.33556C0.401199 9.14485 0.522374 8.65901 0.671405 8.2567C0.85247 7.76529 1.16028 7.32401 1.61155 6.90638C1.97926 6.56532 2.56285 6.1658 2.90826 6.01824C3.25229 5.86928 3.91109 5.66604 4.37072 5.56442C4.92227 5.44331 5.72593 5.40572 6.7385 5.45305V5.45305ZM7.01706 12.6821C6.48083 12.8046 5.77467 12.9633 5.45015 13.0343C5.12423 13.1053 4.68549 13.2501 4.47518 13.3545C4.26347 13.4589 3.98212 13.6468 3.84841 13.7721C3.6771 13.9322 3.60328 14.2176 3.60049 14.7299C3.59771 15.3382 3.6576 15.5192 3.96123 15.8087C4.25651 16.0927 4.49468 16.1665 5.25237 16.211C5.76353 16.2403 6.35269 16.2236 6.5644 16.1762C6.77471 16.1275 7.14381 15.9145 7.38337 15.7043C7.62294 15.4941 7.90568 15.1489 8.01014 14.9387C8.1146 14.7285 8.23578 14.0547 8.27895 13.4422C8.32352 12.8172 8.30402 12.3285 8.23299 12.3285C8.16474 12.3285 8.08117 12.3578 8.04914 12.394C8.0171 12.4302 7.5533 12.5596 7.01706 12.6821V12.6821ZM38.3554 5.38623C38.7384 5.37788 39.4585 5.43635 39.9571 5.51709C40.4543 5.59783 41.2329 5.8317 41.6856 6.03772C42.2079 6.27577 42.7065 6.64189 43.0478 7.03863C43.3444 7.38387 43.6801 7.94766 43.7929 8.2915C43.9057 8.63674 43.9991 9.02791 43.9977 9.16155C43.9963 9.38011 43.8222 9.40516 42.3249 9.40516C40.7454 9.40516 40.6535 9.38985 40.6535 9.12675C40.6535 8.97362 40.4961 8.6604 40.3053 8.43071C40.1117 8.19962 39.7231 7.95183 39.4348 7.87527C39.1465 7.7987 38.6451 7.73606 38.3206 7.73606C37.9946 7.73467 37.5085 7.82933 37.2411 7.94348C36.9723 8.05902 36.684 8.29289 36.5976 8.46551C36.5127 8.63813 36.482 8.95135 36.528 9.16155C36.5795 9.39124 36.7954 9.65295 37.067 9.81443C37.3149 9.96339 38.4278 10.3017 39.5393 10.5676C40.6493 10.8334 41.9029 11.2051 42.3249 11.3944C42.7455 11.5824 43.2901 11.9485 43.5352 12.2074C43.779 12.465 44.0506 12.8645 44.1383 13.0942C44.2247 13.3239 44.2943 13.9503 44.2915 14.4863C44.2888 15.231 44.2066 15.625 43.9461 16.1567C43.7581 16.5396 43.396 17.0338 43.1383 17.2537C42.882 17.4737 42.3904 17.7952 42.0463 17.9678C41.7009 18.1405 41.0741 18.359 40.6535 18.4537C40.1632 18.5637 39.2579 18.6026 38.1465 18.5609C36.769 18.5094 36.2299 18.4286 35.5697 18.1739C34.982 17.947 34.5029 17.6198 33.9569 17.0727C33.4234 16.5382 33.1073 16.0788 32.9457 15.5999C32.8162 15.2171 32.7117 14.7633 32.7131 14.5907C32.7145 14.2816 32.7368 14.2788 35.9778 14.347L36.1213 14.8204C36.2007 15.0807 36.4542 15.4607 36.684 15.6653C36.9194 15.8769 37.4347 16.1178 37.8679 16.2208C38.4584 16.3614 38.7927 16.367 39.3303 16.2472C39.7524 16.1526 40.18 15.9396 40.4153 15.7071C40.6856 15.4384 40.8012 15.1837 40.7984 14.8691C40.7942 14.6199 40.7454 14.3136 40.6883 14.1883C40.6298 14.0617 40.3638 13.8487 40.0964 13.7136C39.8276 13.5786 38.6994 13.2376 37.5893 12.9578C36.4779 12.6779 35.319 12.3383 35.0126 12.2046C34.7062 12.0696 34.2159 11.7452 33.9234 11.4835C33.6212 11.2107 33.2967 10.7374 33.1685 10.3796C33.0167 9.95504 32.9694 9.50679 33.0209 8.98754C33.0613 8.56713 33.2201 7.97132 33.3733 7.66507C33.5251 7.35881 33.9025 6.88968 34.2104 6.62101C34.5182 6.35373 35.1059 6.01406 35.5182 5.86789C35.9291 5.72172 36.5795 5.55606 36.9626 5.50177C37.3456 5.44748 37.9724 5.39598 38.3554 5.38623V5.38623ZM72.4793 5.51848C73.425 5.5143 74.3039 5.59087 74.7775 5.71894C75.1981 5.83309 75.7427 6.06696 75.985 6.23958C76.2288 6.4108 76.5575 6.73933 76.7176 6.96903C76.8778 7.19872 77.0686 7.63722 77.1424 7.94348C77.2177 8.24974 77.2789 10.3017 77.2803 12.5025C77.2845 16.3642 77.2943 16.5103 77.5631 16.644C77.7163 16.7205 77.9976 16.7832 78.1898 16.7832C78.5186 16.7832 78.5381 16.8249 78.5381 17.5488C78.5381 18.2365 78.5018 18.3284 78.1898 18.4537C77.9976 18.5302 77.5436 18.5929 77.1801 18.5915C76.8151 18.5901 76.3611 18.5121 76.1703 18.4175C75.9781 18.3228 75.68 17.947 75.1953 16.9224L74.5337 17.3985C74.1688 17.6602 73.5587 18.0124 73.1757 18.1808C72.6771 18.4008 72.1033 18.5066 71.1561 18.5553C70.0071 18.6124 69.7229 18.579 68.9973 18.2992C68.5376 18.1224 67.9805 17.8189 67.7591 17.624C67.5376 17.4305 67.227 17.0198 67.0696 16.7136C66.8496 16.2904 66.7799 15.8909 66.7771 15.0431C66.773 14.1118 66.8301 13.8278 67.1212 13.303C67.3343 12.9188 67.7368 12.4984 68.163 12.2158C68.5446 11.961 69.1714 11.6645 69.5544 11.5559C69.9374 11.446 71.1283 11.194 72.2007 10.9963C73.2732 10.7972 74.322 10.5453 74.5337 10.4381C74.744 10.3295 74.9836 10.0678 75.0672 9.85759C75.1493 9.64739 75.18 9.25621 75.1354 8.98754C75.0908 8.72026 74.9599 8.35971 74.8457 8.18709C74.7315 8.01448 74.3708 7.74998 74.0462 7.59824C73.6353 7.40753 73.1534 7.32261 72.4793 7.32122C71.9431 7.31983 71.269 7.38108 70.982 7.45765C70.6937 7.53282 70.2717 7.75277 70.0419 7.94348C69.7814 8.16065 69.553 8.54208 69.2466 9.61398L67.1866 9.70028L67.2758 9.03069C67.3245 8.66319 67.4721 8.14255 67.6045 7.87388C67.7368 7.6066 68.0404 7.17784 68.2814 6.92169C68.5223 6.66694 68.9694 6.32728 69.2758 6.16858C69.5823 6.00988 70.0837 5.79968 70.3901 5.70223C70.6965 5.60618 71.6367 5.52265 72.4793 5.51848V5.51848ZM73.4543 12.4009C72.8414 12.522 72.152 12.6487 71.9222 12.6821C71.6924 12.7141 71.2996 12.8046 71.0517 12.8826C70.8024 12.9605 70.599 12.9939 70.599 12.955C70.599 12.9174 70.3943 12.9884 70.1463 13.1151C69.897 13.2417 69.5516 13.5076 69.3803 13.7067C69.2076 13.9058 69.0293 14.2566 68.982 14.4863C68.936 14.7159 68.943 15.0612 68.9973 15.2519C69.0516 15.444 69.1825 15.7405 69.2898 15.9131C69.397 16.0858 69.6881 16.3308 69.9374 16.4574C70.2661 16.6259 70.6923 16.6816 71.5043 16.6593C72.301 16.6384 72.8122 16.5424 73.3011 16.3238C73.6757 16.1554 74.1939 15.7823 74.4501 15.4955C74.7064 15.2087 74.978 14.7382 75.0546 14.4515C75.1312 14.1647 75.1995 13.5104 75.2078 12.9981C75.2162 12.4858 75.1633 12.0376 75.0908 12C75.017 11.9638 74.8694 11.9889 74.7621 12.0557C74.6563 12.1239 74.0671 12.2784 73.4543 12.4009ZM85.5021 5.5505C86.8601 5.5853 87.2195 5.64516 87.8699 5.94028C88.2905 6.13239 88.9076 6.53609 89.239 6.83817C89.5719 7.14025 89.9926 7.69987 90.1764 8.08269C90.3589 8.46551 90.526 8.99868 90.5859 9.75318L88.5663 9.82279L88.1833 9.0293C87.9187 8.48361 87.6108 8.10357 87.1944 7.81123C86.6972 7.46182 86.4256 7.3783 85.6623 7.33793C85.1525 7.31148 84.4533 7.37134 84.1093 7.47017C83.6845 7.59128 83.2541 7.87666 82.775 8.35414C82.2819 8.84276 81.9867 9.28962 81.8028 9.82279C81.6092 10.3824 81.5382 10.9824 81.5354 12.0501C81.5326 13.1401 81.6008 13.7067 81.8 14.2774C81.9839 14.8036 82.2889 15.2658 82.775 15.753C83.3711 16.353 83.6121 16.4936 84.3182 16.6495C84.9812 16.7971 85.3113 16.8013 85.92 16.6704C86.3406 16.5799 86.9284 16.3335 87.225 16.1233C87.5231 15.9117 87.8824 15.5206 88.0259 15.2519C88.1694 14.9846 88.3811 14.5294 88.7056 13.7206L90.7252 13.7164L90.6207 14.2399C90.5636 14.5294 90.3394 15.1405 90.1235 15.5999C89.9062 16.0593 89.5148 16.6788 89.2516 16.9753C88.9897 17.2718 88.5245 17.663 88.2181 17.8439C87.9117 18.0249 87.3156 18.2671 86.8949 18.3813C86.4729 18.4954 85.6902 18.5915 85.1539 18.5943C84.5731 18.5971 83.8112 18.4885 83.2736 18.327C82.775 18.1767 82.0549 17.8412 81.6719 17.5808C81.2889 17.3205 80.7373 16.7693 80.4462 16.3544C80.1551 15.9396 79.7818 15.1614 79.6161 14.6255C79.3863 13.8765 79.3166 13.2974 79.318 12.1197C79.3194 11.0562 79.3974 10.3337 79.5701 9.75318C79.708 9.2938 79.9392 8.68268 80.0841 8.39591C80.2289 8.10914 80.6147 7.58432 80.9407 7.23213C81.2652 6.87854 81.8139 6.42611 82.1594 6.22844C82.5034 6.02937 83.0368 5.78715 83.3433 5.68831C83.7026 5.57277 84.4687 5.52405 85.5021 5.5505V5.5505ZM121.228 5.55189C122.714 5.58669 123.162 5.64933 123.735 5.89712C124.118 6.06417 124.6 6.37322 124.806 6.58481C125.013 6.79641 125.279 7.20429 125.398 7.49106C125.569 7.9045 125.633 8.88731 125.703 12.2241C125.761 14.9958 125.845 16.4964 125.947 16.6161C126.033 16.715 126.306 16.7929 126.555 16.7901C127.002 16.7832 127.008 16.7915 127.014 17.4444C127.018 17.8996 126.945 18.1711 126.782 18.3145C126.646 18.4356 126.186 18.5456 125.697 18.5748C124.926 18.6207 124.806 18.5887 124.387 18.2268C124.133 18.0068 123.867 17.624 123.795 17.3748C123.724 17.1256 123.633 16.9224 123.596 16.9224C123.557 16.9224 123.196 17.173 122.795 17.4778C122.392 17.7841 121.781 18.1335 121.437 18.256C121.091 18.3771 120.277 18.5121 119.626 18.5553C118.686 18.6179 118.272 18.579 117.619 18.3702C117.166 18.224 116.545 17.8871 116.237 17.6184C115.93 17.3512 115.565 16.8806 115.425 16.5744C115.261 16.2083 115.175 15.6834 115.175 15.0431C115.175 14.3972 115.261 13.8807 115.428 13.5118C115.567 13.2055 115.927 12.7322 116.226 12.4594C116.555 12.1601 117.129 11.8455 117.676 11.6631C118.173 11.4989 119.49 11.1996 120.601 11.0005C121.711 10.8 122.683 10.601 122.76 10.5578C122.836 10.5133 123.041 10.3462 123.215 10.1847C123.456 9.962 123.532 9.74344 123.529 9.26596C123.526 8.89009 123.413 8.45855 123.246 8.18709C123.068 7.89754 122.756 7.65532 122.377 7.51472C121.96 7.3602 121.434 7.30869 120.601 7.34071C119.76 7.37412 119.261 7.46739 118.881 7.66507C118.574 7.82515 118.237 8.1509 118.091 8.43071C117.952 8.69938 117.769 9.09055 117.687 9.30076C117.542 9.66966 117.498 9.68358 115.517 9.68915L115.623 9.09473C115.682 8.76759 115.902 8.15925 116.111 7.74302C116.352 7.26415 116.723 6.81033 117.119 6.51382C117.463 6.25489 118.122 5.92218 118.581 5.77462C119.268 5.55467 119.739 5.51569 121.228 5.55189V5.55189ZM121.297 12.5318C121.105 12.5624 120.51 12.6779 119.974 12.7879C119.438 12.8993 118.732 13.1234 118.407 13.2863C118.081 13.4492 117.783 13.7067 117.746 13.8598C117.707 14.0129 117.613 14.1382 117.537 14.1382C117.46 14.1382 117.398 14.4515 117.398 14.8343C117.398 15.4064 117.471 15.6166 117.815 16.0175C118.098 16.3489 118.4 16.5354 118.756 16.598C119.042 16.6495 119.591 16.6885 119.974 16.6843C120.357 16.6802 120.921 16.6092 121.228 16.5257C121.534 16.4435 122.059 16.1693 122.396 15.9173C122.732 15.6667 123.1 15.2728 123.214 15.0431C123.332 14.805 123.447 14.0742 123.48 13.3378C123.527 12.3355 123.501 12.0543 123.359 12.0654C123.259 12.0738 122.832 12.1698 122.412 12.2784C121.99 12.387 121.488 12.5011 121.297 12.5318ZM140.309 5.5143C141.284 5.5143 141.733 5.58251 142.329 5.82474C142.75 5.99596 143.346 6.33006 143.652 6.56671C143.959 6.80337 144.438 7.33514 144.716 7.74859C144.996 8.16204 145.357 8.89149 145.517 9.37036C145.679 9.84924 145.861 10.6942 145.922 11.2497C145.985 11.8051 146.016 12.3369 145.992 12.4329C145.96 12.568 144.894 12.6069 136.549 12.6042L136.635 13.406C136.682 13.8473 136.847 14.4584 137 14.7647C137.153 15.0709 137.522 15.5359 137.819 15.7976C138.116 16.0593 138.578 16.3683 138.847 16.4853C139.146 16.6161 139.762 16.6983 140.449 16.6997C141.315 16.7011 141.685 16.6356 142.12 16.4073C142.426 16.2458 142.811 15.9674 142.974 15.7878C143.138 15.6083 143.404 15.1948 143.861 14.2774L144.801 14.3122C145.684 14.3457 145.739 14.3665 145.706 14.6603C145.687 14.8329 145.518 15.302 145.33 15.7043C145.142 16.1066 144.688 16.7345 144.321 17.1006C143.953 17.4667 143.385 17.8899 143.06 18.0402C142.734 18.192 142.138 18.3855 141.737 18.4718C141.333 18.5595 140.506 18.5971 139.891 18.5567C139.279 18.5163 138.432 18.3562 138.011 18.2003C137.564 18.0347 136.925 17.631 136.479 17.23C136.057 16.8528 135.543 16.2375 135.336 15.863C135.129 15.4886 134.83 14.6811 134.673 14.0686C134.515 13.4561 134.387 12.5318 134.388 12.0153C134.388 11.4989 134.461 10.7471 134.549 10.3448C134.635 9.94251 134.827 9.33278 134.976 8.98754C135.124 8.6437 135.48 8.04789 135.77 7.66507C136.058 7.28224 136.54 6.7978 136.84 6.5876C137.139 6.37878 137.76 6.05025 138.22 5.86093C138.898 5.57973 139.29 5.5143 140.309 5.5143V5.5143ZM137.553 8.47108C137.416 8.64091 137.188 8.99868 137.045 9.26596C136.903 9.53463 136.748 9.98845 136.702 10.2752L136.618 10.7972H143.722C143.719 10.3114 143.57 9.85759 143.389 9.47477C143.208 9.09195 142.88 8.61029 142.659 8.40426C142.439 8.19684 141.977 7.9045 141.633 7.75137C141.287 7.59964 140.658 7.44512 140.234 7.40892C139.58 7.35185 139.336 7.40475 138.632 7.75277C138.176 7.97828 137.689 8.30264 137.553 8.47108ZM16.4186 5.78576L16.5648 6.30779C16.6456 6.59456 17.1317 8.35971 17.6442 10.2293C18.1568 12.1002 18.6401 13.651 18.7167 13.6761C18.7933 13.7011 19.2975 11.9527 20.8198 5.85536H24.2685L25.2532 9.74344C25.795 11.8831 26.3006 13.6538 26.3772 13.6802C26.4538 13.7067 26.9789 12.0501 27.5457 10.001C28.1126 7.95044 28.5973 6.16301 28.6252 6.02937C28.6697 5.8136 28.8703 5.78576 30.4163 5.78576C31.7144 5.78576 32.1574 5.8303 32.1601 5.95977C32.1615 6.05582 31.2994 8.87478 28.3271 18.3159L24.7754 18.3145L24.5874 17.6532C24.4843 17.2899 23.9996 15.5039 23.508 13.6858C23.0177 11.8664 22.5539 10.3782 22.4773 10.3782C22.4007 10.3782 21.8951 12.149 20.3741 18.2449L16.6971 18.3145L16.5648 17.862C16.4924 17.6129 15.6149 14.8259 14.6149 11.6673C13.6148 8.50867 12.7972 5.89434 12.7972 5.85536C12.7972 5.81778 13.612 5.78576 16.4186 5.78576V5.78576ZM99.8481 5.78576H101.937V18.3145H99.8481V5.78576ZM103.333 5.78576H105.698L107.305 10.6232C108.19 13.2835 108.97 15.5554 109.039 15.6695C109.108 15.7851 109.215 15.8254 109.276 15.76C109.337 15.696 110.112 13.4408 112.606 5.85536L113.679 5.82056C114.268 5.80107 114.75 5.83309 114.748 5.89016C114.748 5.94724 113.829 8.50031 112.707 11.5629C111.585 14.6255 110.552 17.3971 110.155 18.3145L107.996 18.3173L105.988 12.9216C104.883 9.95364 103.833 7.13468 103.656 6.65581L103.333 5.78576Z" fill="#2A2A29"/>
</g>
</svg>
