<svg width="20" height="20" viewBox="0 0 20 20" fill="none" xmlns="http://www.w3.org/2000/svg">
<path d="M18 2.61694L14.3418 4.44702L14.3408 4.448C13.9245 4.65597 13.4654 4.7644 13 4.7644C12.5346 4.7644 12.0755 4.65597 11.6592 4.448V4.44702L7.44727 2.34155C7.3433 2.2896 7.23107 2.25636 7.11622 2.24292L7.00001 2.23608C6.84491 2.23608 6.69149 2.27128 6.55274 2.34058L6.55372 2.34155L2.00001 4.61792V17.3835L5.65919 15.5535L5.81739 15.4802C6.19052 15.3202 6.59278 15.2371 7.00001 15.2371C7.46544 15.2371 7.92447 15.3454 8.34083 15.5535L12.5527 17.6599L12.6592 17.7048C12.7682 17.7444 12.8835 17.7654 13 17.7654C13.1549 17.7654 13.3077 17.729 13.4463 17.6599L18 15.3826V2.61694ZM20 15.3835C19.9998 15.7547 19.8964 16.1186 19.7012 16.4343C19.5058 16.7501 19.2257 17.0047 18.8936 17.1707L18.8945 17.1716L14.3408 19.448V19.449C13.9245 19.6569 13.4654 19.7654 13 19.7654C12.5346 19.7654 12.0755 19.6569 11.6592 19.449V19.448L7.44727 17.3425C7.30847 17.2732 7.15517 17.2371 7.00001 17.2371C6.84491 17.2371 6.69149 17.2723 6.55274 17.3416L6.55372 17.3425L2.89454 19.1726H2.89356C2.58837 19.325 2.249 19.3972 1.90821 19.3816C1.56746 19.3659 1.23624 19.2634 0.946295 19.0837C0.656215 18.9039 0.416608 18.6527 0.250982 18.3542C0.0853753 18.0559 -0.000816795 17.7199 5.83358e-06 17.3787V4.61792L0.00488865 4.47827C0.027569 4.15567 0.127981 3.84237 0.298834 3.56616C0.494059 3.25058 0.773587 2.99581 1.10547 2.82983L5.65919 0.55249L5.81739 0.479248C6.19052 0.319181 6.59278 0.236084 7.00001 0.236084L7.17383 0.240967C7.57932 0.264499 7.9764 0.370412 8.34083 0.55249L12.5527 2.65894L12.6592 2.70386C12.7682 2.74339 12.8835 2.7644 13 2.7644C13.1549 2.7644 13.3077 2.72805 13.4463 2.65894L17.1055 0.828857H17.1065L17.2217 0.775146C17.4957 0.659391 17.7926 0.606316 18.0908 0.619873C18.4315 0.635386 18.7628 0.737282 19.0527 0.916748C19.3427 1.09628 19.5823 1.34724 19.7481 1.64526C19.9136 1.94294 20.0002 2.27832 20 2.6189V15.3835Z" fill="white"/>
<path d="M12 18.7639V3.76392C12 3.21163 12.4477 2.76392 13 2.76392C13.5523 2.76392 14 3.21163 14 3.76392V18.7639C14 19.3162 13.5523 19.7639 13 19.7639C12.4477 19.7639 12 19.3162 12 18.7639Z" fill="white"/>
<path d="M6 16.2361V1.23608C6 0.683799 6.44772 0.236084 7 0.236084C7.55228 0.236084 8 0.683799 8 1.23608V16.2361C8 16.7884 7.55228 17.2361 7 17.2361C6.44772 17.2361 6 16.7884 6 16.2361Z" fill="white"/>
</svg>
