<svg width="18" height="18" viewBox="0 0 18 18" fill="none" xmlns="http://www.w3.org/2000/svg">
<path d="M14.444 5.94221C14.42 5.84904 14.3714 5.76401 14.3034 5.69598C14.2354 5.62794 14.1503 5.57937 14.0572 5.55534L12.4055 5.12942C12.3773 5.12143 12.3525 5.10445 12.3348 5.08108C12.3172 5.05771 12.3076 5.02922 12.3076 4.99993C12.3076 4.97064 12.3172 4.94214 12.3348 4.91877C12.3525 4.8954 12.3773 4.87843 12.4055 4.87043L14.0572 4.44425C14.1503 4.42024 14.2353 4.37171 14.3033 4.30372C14.3714 4.23574 14.42 4.15076 14.444 4.05764L14.87 2.40595C14.8779 2.37766 14.8948 2.35274 14.9182 2.33498C14.9416 2.31723 14.9702 2.30762 14.9996 2.30762C15.029 2.30762 15.0575 2.31723 15.0809 2.33498C15.1043 2.35274 15.1213 2.37766 15.1292 2.40595L15.5549 4.05764C15.5789 4.15081 15.6275 4.23584 15.6955 4.30388C15.7635 4.37192 15.8486 4.42048 15.9417 4.44452L17.5934 4.87016C17.6218 4.878 17.6469 4.89493 17.6647 4.91837C17.6826 4.94181 17.6922 4.97046 17.6922 4.99993C17.6922 5.02939 17.6826 5.05804 17.6647 5.08148C17.6469 5.10492 17.6218 5.12186 17.5934 5.12969L15.9417 5.55534C15.8486 5.57937 15.7635 5.62794 15.6955 5.69598C15.6275 5.76401 15.5789 5.84904 15.5549 5.94221L15.1289 7.5939C15.121 7.6222 15.1041 7.64712 15.0807 7.66487C15.0573 7.68263 15.0287 7.69224 14.9993 7.69224C14.9699 7.69224 14.9414 7.68263 14.918 7.66487C14.8946 7.64712 14.8776 7.6222 14.8697 7.5939L14.444 5.94221Z" fill="#6DA3FF"/>
<path fill-rule="evenodd" clip-rule="evenodd" d="M11.4108 1.60254C11.6409 1.60254 11.8275 1.78909 11.8275 2.01921V3.68587C11.8275 3.91599 11.6409 4.10254 11.4108 4.10254C11.1807 4.10254 10.9941 3.91599 10.9941 3.68587V2.01921C10.9941 1.78909 11.1807 1.60254 11.4108 1.60254Z" fill="#6DA3FF"/>
<path fill-rule="evenodd" clip-rule="evenodd" d="M10.1592 2.85221C10.1592 2.6221 10.3457 2.43555 10.5758 2.43555H12.2425C12.4726 2.43555 12.6592 2.6221 12.6592 2.85221C12.6592 3.08233 12.4726 3.26888 12.2425 3.26888H10.5758C10.3457 3.26888 10.1592 3.08233 10.1592 2.85221Z" fill="#6DA3FF"/>
<path d="M7.837 7.75203C7.99122 7.82909 8.16126 7.86921 8.33367 7.86921C8.50607 7.86921 8.67611 7.82909 8.83034 7.75203L10.8631 6.73536C10.9479 6.69301 11.0421 6.67303 11.1367 6.67734C11.2314 6.68166 11.3234 6.71011 11.4039 6.75999C11.4845 6.80987 11.551 6.87954 11.597 6.96235C11.643 7.04517 11.6671 7.13838 11.667 7.23314V14.3243C11.667 14.4274 11.6382 14.5285 11.5839 14.6162C11.5297 14.7039 11.4521 14.7748 11.3598 14.8209L8.83034 16.0859C8.67611 16.163 8.50607 16.2031 8.33367 16.2031C8.16126 16.2031 7.99122 16.163 7.837 16.0859L5.497 14.9159C5.34278 14.8389 5.17274 14.7987 5.00033 14.7987C4.82793 14.7987 4.65789 14.8389 4.50366 14.9159L2.47088 15.9326C2.38608 15.975 2.29184 15.9949 2.19714 15.9906C2.10243 15.9863 2.01041 15.9578 1.92984 15.9078C1.84926 15.8579 1.78281 15.7881 1.7368 15.7052C1.69079 15.6223 1.66676 15.5291 1.66699 15.4343V8.3437C1.66705 8.24055 1.69582 8.13946 1.75008 8.05174C1.80434 7.96402 1.88195 7.89314 1.97422 7.84703L4.50366 6.58203C4.65789 6.50496 4.82793 6.46484 5.00033 6.46484C5.17274 6.46484 5.34278 6.50496 5.497 6.58203L7.837 7.75203Z" stroke="url(#paint0_linear_2305_1827)" stroke-width="1.5" stroke-linecap="round" stroke-linejoin="round"/>
<path d="M8.33301 7.86914V16.2025" stroke="url(#paint1_linear_2305_1827)" stroke-width="1.5" stroke-linecap="round" stroke-linejoin="round"/>
<path d="M5 6.46484V14.7982" stroke="url(#paint2_linear_2305_1827)" stroke-width="1.5" stroke-linecap="round" stroke-linejoin="round"/>
<defs>
<linearGradient id="paint0_linear_2305_1827" x1="6.667" y1="6.46484" x2="6.667" y2="16.2031" gradientUnits="userSpaceOnUse">
<stop stop-color="#6DA3FF"/>
<stop offset="1" stop-color="#00C4CC"/>
</linearGradient>
<linearGradient id="paint1_linear_2305_1827" x1="8.83301" y1="7.86914" x2="8.83301" y2="16.2025" gradientUnits="userSpaceOnUse">
<stop stop-color="#6DA3FF"/>
<stop offset="1" stop-color="#00C4CC"/>
</linearGradient>
<linearGradient id="paint2_linear_2305_1827" x1="5.5" y1="6.46484" x2="5.5" y2="14.7982" gradientUnits="userSpaceOnUse">
<stop stop-color="#6DA3FF"/>
<stop offset="1" stop-color="#00C4CC"/>
</linearGradient>
</defs>
</svg>
