<svg width="23" height="23" viewBox="0 0 23 23" fill="none" xmlns="http://www.w3.org/2000/svg">
<path d="M18.0352 6.51991C18.0012 6.37994 17.9326 6.2522 17.8365 6.14999C17.7404 6.04777 17.6202 5.97481 17.4886 5.9387L15.1549 5.29884C15.115 5.28683 15.08 5.26133 15.0551 5.22622C15.0301 5.19111 15.0166 5.1483 15.0166 5.1043C15.0166 5.06029 15.0301 5.01748 15.0551 4.98237C15.08 4.94726 15.115 4.92177 15.1549 4.90975L17.4886 4.26949C17.6202 4.23341 17.7403 4.16051 17.8364 4.05837C17.9325 3.95623 18.0012 3.82858 18.0352 3.68868L18.637 1.2073C18.6482 1.1648 18.6721 1.12735 18.7052 1.10068C18.7383 1.07401 18.7786 1.05957 18.8201 1.05957C18.8616 1.05957 18.902 1.07401 18.9351 1.10068C18.9682 1.12735 18.9921 1.1648 19.0033 1.2073L19.6047 3.68868C19.6387 3.82865 19.7073 3.95639 19.8034 4.05861C19.8995 4.16082 20.0197 4.23378 20.1513 4.26989L22.485 4.90934C22.5252 4.92111 22.5606 4.94656 22.5858 4.98177C22.611 5.01699 22.6247 5.06003 22.6247 5.1043C22.6247 5.14856 22.611 5.1916 22.5858 5.22682C22.5606 5.26203 22.5252 5.28748 22.485 5.29925L20.1513 5.9387C20.0197 5.97481 19.8995 6.04777 19.8034 6.14999C19.7073 6.2522 19.6387 6.37994 19.6047 6.51991L19.0029 9.00129C18.9917 9.04379 18.9678 9.08124 18.9347 9.10791C18.9016 9.13458 18.8613 9.14902 18.8198 9.14902C18.7782 9.14902 18.7379 9.13458 18.7048 9.10791C18.6717 9.08124 18.6478 9.04379 18.6366 9.00129L18.0352 6.51991Z" fill="#01C4CC"/>
<path fill-rule="evenodd" clip-rule="evenodd" d="M13.7479 0C14.073 0 14.3366 0.280256 14.3366 0.625969V3.12985C14.3366 3.47556 14.073 3.75582 13.7479 3.75582C13.4228 3.75582 13.1592 3.47556 13.1592 3.12985V0.625969C13.1592 0.280256 13.4228 0 13.7479 0Z" fill="#01C4CC"/>
<path fill-rule="evenodd" clip-rule="evenodd" d="M11.9795 1.87792C11.9795 1.53221 12.2431 1.25195 12.5682 1.25195H14.9231C15.2482 1.25195 15.5118 1.53221 15.5118 1.87792C15.5118 2.22364 15.2482 2.50389 14.9231 2.50389H12.5682C12.2431 2.50389 11.9795 2.22364 11.9795 1.87792Z" fill="#01C4CC"/>
<path d="M9.79225 9.60084C10.012 9.71066 10.2543 9.76783 10.5 9.76783C10.7457 9.76783 10.988 9.71066 11.2078 9.60084L14.1045 8.15209C14.2252 8.09173 14.3595 8.06327 14.4944 8.06941C14.6292 8.07556 14.7603 8.1161 14.8751 8.18718C14.9899 8.25827 15.0846 8.35754 15.1502 8.47555C15.2159 8.59356 15.2502 8.7264 15.25 8.86142V18.9663C15.2499 19.1132 15.2089 19.2573 15.1316 19.3823C15.0543 19.5073 14.9437 19.6083 14.8122 19.674L11.2078 21.4766C10.988 21.5864 10.7457 21.6436 10.5 21.6436C10.2543 21.6436 10.012 21.5864 9.79225 21.4766L6.45775 19.8094C6.23799 19.6996 5.99568 19.6424 5.75 19.6424C5.50433 19.6424 5.26202 19.6996 5.04225 19.8094L2.14554 21.2581C2.0247 21.3185 1.89041 21.347 1.75546 21.3408C1.6205 21.3346 1.48938 21.294 1.37455 21.2228C1.25973 21.1517 1.16503 21.0523 1.09947 20.9342C1.03391 20.816 0.999669 20.6831 1 20.548V10.444C1.00008 10.297 1.04108 10.1529 1.1184 10.0279C1.19572 9.90292 1.30631 9.80192 1.43779 9.73621L5.04225 7.93359C5.26202 7.82377 5.50433 7.7666 5.75 7.7666C5.99568 7.7666 6.23799 7.82377 6.45775 7.93359L9.79225 9.60084Z" stroke="url(#paint0_linear_2293_1692)" stroke-width="1.5" stroke-linecap="round" stroke-linejoin="round"/>
<path d="M10.498 9.76758V21.6426" stroke="#1ABCD8" stroke-width="1.5" stroke-linecap="round" stroke-linejoin="round"/>
<path d="M5.74902 7.7666V19.6416" stroke="#31B6E3" stroke-width="1.5" stroke-linecap="round" stroke-linejoin="round"/>
<defs>
<linearGradient id="paint0_linear_2293_1692" x1="-8.10417" y1="7.57989" x2="14.1581" y2="5.96696" gradientUnits="userSpaceOnUse">
<stop stop-color="#6DA3FF"/>
<stop offset="1" stop-color="#00C4CC"/>
</linearGradient>
</defs>
</svg>
