<svg width="10" height="10" viewBox="0 0 10 10" fill="none" xmlns="http://www.w3.org/2000/svg">
<path d="M9 2.5H6.5V1C6.5 0.45 6.05 0 5.5 0H4.5C3.95 0 3.5 0.45 3.5 1V2.5H1C0.45 2.5 0 2.95 0 3.5V9C0 9.55 0.45 10 1 10H9C9.55 10 10 9.55 10 9V3.5C10 2.95 9.55 2.5 9 2.5ZM3.5 5C3.915 5 4.25 5.335 4.25 5.75C4.25 6.165 3.915 6.5 3.5 6.5C3.085 6.5 2.75 6.165 2.75 5.75C2.75 5.335 3.085 5 3.5 5ZM5 8H2V7.625C2 7.125 3 6.875 3.5 6.875C4 6.875 5 7.125 5 7.625V8ZM5.5 3.5H4.5V1H5.5V3.5ZM8 7.25H6V6.5H8V7.25ZM8 5.75H6V5H8V5.75Z" fill="black" fill-opacity="0.5"/>
</svg>
