<svg width="90" height="90" viewBox="0 0 90 90" fill="none" xmlns="http://www.w3.org/2000/svg">
<path fill-rule="evenodd" clip-rule="evenodd" d="M32.6889 0.749317C31.7428 1.6959 31.6614 3.05914 32.5013 3.89903C34.4653 5.86299 37.5508 3.02577 35.689 0.968265C34.5846 -0.251371 33.7513 -0.312555 32.6889 0.749317ZM47.3443 5.97878C47.1693 6.26195 47.4894 7.4027 48.0562 8.51362C49.0291 10.4209 49.5555 13.105 48.6893 11.7432C48.4795 11.4125 47.6856 10.9059 46.9256 10.6171C43.9706 9.49358 41.24 12.5568 42.4951 15.5867C43.1762 17.2311 45.4759 18.4275 47.1253 17.9961C48.1346 17.7322 48.1837 17.851 47.8833 19.8322C47.2912 23.7378 47.3023 23.9315 48.1381 24.1054C49.1874 24.3234 49.5585 23.3429 50.1972 18.6641C51.1008 12.0421 50.9926 8.80538 49.8144 7.22876C48.6312 5.64455 47.808 5.22839 47.3443 5.97878ZM15.7334 13.5712C14.6872 15.526 16.8033 17.6821 18.7476 16.6415C19.8691 16.0413 20.0921 14.1431 19.1521 13.203C18.2242 12.2752 16.3169 12.4805 15.7334 13.5712ZM47.2811 13.3906C48.3809 14.4909 48.2737 15.4603 47.0156 15.7895C45.4622 16.1955 44.5359 15.6752 44.5359 14.3964C44.5359 12.4572 45.8617 11.9718 47.2811 13.3906ZM69.3184 14.8651C68.9604 15.2965 68.8305 16.1591 69.013 16.8877C69.2633 17.8854 69.6527 18.1584 70.8217 18.1584C72.6638 18.1584 73.6711 16.6541 72.8524 15.1245C72.2148 13.9327 70.214 13.7861 69.3184 14.8651ZM63.5823 15.4618C63.3967 15.6469 63.241 16.5004 63.2364 17.358C63.2081 22.4636 59.4263 31.5021 54.8962 37.2919C51.8992 41.1222 51.5872 41.9241 53.0941 41.9241C54.3536 41.9241 59.8885 34.6508 61.7518 30.5469C64.3362 24.8553 66.1394 17.6781 65.4421 15.8608C65.1473 15.0927 64.1623 14.8813 63.5823 15.4618ZM28.6978 17.9845C27.868 18.8143 28.5031 19.6795 30.3493 20.2321C34.889 21.5923 37.9422 25.9769 39.0339 32.7046C39.362 34.7257 39.5157 36.4939 39.3757 36.6345C39.2356 36.7746 37.8931 36.3175 36.3923 35.6192C33.4307 34.2402 30.0747 33.9626 28.6816 34.981C28.1992 35.334 26.0998 40.2833 24.0165 45.979C15.211 70.0546 9.6458 85.744 9.6458 86.4944C9.6458 87.9886 11.6553 89.9612 13.1773 89.9612C13.9671 89.9612 18.1034 88.465 22.369 86.6355C26.6347 84.8066 37.1786 80.3411 45.8 76.7126C54.4214 73.0835 61.8732 69.7664 62.3601 69.3407C63.5651 68.2869 63.509 64.8808 62.2337 61.6446C61.6775 60.2333 61.2224 58.9738 61.2224 58.8448C61.2224 58.4251 63.6526 58.5986 65.0113 59.1148C66.2673 59.5927 66.2962 59.6797 65.5498 60.7446C64.4171 62.3621 64.5774 64.0343 66.0034 65.4598C68.1393 67.5962 71.8411 66.7411 71.8411 64.1117C71.8411 63.5616 71.5079 62.4668 71.1004 61.679C70.3727 60.2713 70.3864 60.2414 71.922 59.9345C72.7817 59.7626 74.5368 59.6185 75.8232 59.6144C78.627 59.6048 79.7005 59.0435 79.2348 57.83C78.939 57.0599 78.4242 56.987 75.1951 57.2601C73.1599 57.432 70.9557 57.7723 70.2969 58.0161C69.4408 58.3326 68.472 58.1819 66.9019 57.4871C65.5301 56.8804 63.8478 56.5679 62.4254 56.6553C60.3719 56.7818 60.017 56.6301 58.8388 55.1252C57.2627 53.1107 57.3729 53.0101 62.7657 51.5548C67.5744 50.2573 74.2132 50.186 78.7074 51.3834C81.088 52.018 82.0963 52.0974 82.5104 51.6833C83.3913 50.8024 81.1108 49.5974 76.8405 48.6878C70.9158 47.4257 62.3713 48.396 57.4856 50.8858C56.0248 51.6307 56.0238 51.6302 52.4291 47.8984C50.452 45.846 47.2184 42.8672 45.2433 41.2794L41.6526 38.3927L41.3563 34.1947C40.7344 25.3761 36.9723 19.952 30.0883 17.9471C29.5119 17.7792 28.8859 17.7959 28.6978 17.9845ZM85.9974 26.1225C85.0038 28.3711 82.2146 31.8111 81.3848 31.8111C81.1805 31.8111 81.1937 31.1831 81.4137 30.416C82.4315 26.8668 78.847 24.4427 75.6639 26.5285C73.9148 27.6743 73.618 29.5417 74.8533 31.6351C75.4217 32.5979 75.8864 33.461 75.8864 33.5531C75.8864 33.6446 74.4073 34.3485 72.5996 35.117C69.4843 36.4408 68.6272 37.3955 69.8661 38.1611C70.17 38.3492 72.275 37.5937 74.5434 36.4823C76.8117 35.3709 79.5341 34.3075 80.594 34.1189C81.7454 33.9141 83.3159 33.058 84.4976 31.9901C86.5981 30.0924 89.3479 25.144 88.7972 24.2531C88.0893 23.1073 87.0107 23.8273 85.9974 26.1225ZM27.7477 28.5456C26.8835 30.4418 28.713 32.2712 30.6092 31.4071C31.4486 31.0248 31.8945 30.4145 31.8945 29.6474C31.8945 27.1029 28.7817 26.2762 27.7477 28.5456ZM79.1908 28.3003C79.7733 29.2424 78.9496 31.3853 78.0713 31.2124C76.751 30.9525 76.0876 29.5002 76.8623 28.5668C77.6263 27.646 78.7099 27.5221 79.1908 28.3003ZM49.8017 33.5116C49.6425 33.9267 49.5873 34.7944 49.6789 35.4402C49.8169 36.4135 50.1481 36.6148 51.615 36.6148C53.3004 36.6148 53.3848 36.5303 53.3848 34.845C53.3848 33.2173 53.2528 33.0626 51.7379 32.9164C50.6335 32.8103 49.9959 33.0059 49.8017 33.5116ZM36.8247 38.3633C38.5631 39.186 39.9835 40.1528 39.9814 40.5124C39.9794 40.8714 39.6548 43.3187 39.2594 45.9502C38.5146 50.9116 38.5656 51.5316 39.7221 51.5316C40.4446 51.5316 40.6631 50.7837 41.4752 45.5234C41.7487 43.748 42.089 42.18 42.2301 42.0384C42.5805 41.6885 46.0432 44.5783 50.544 48.9765L54.2768 52.6243L52.6931 53.5875C51.8218 54.117 51.1094 54.7885 51.1094 55.0797C51.1094 56.043 52.6152 56.2063 53.8768 55.3796C55.6233 54.2348 55.8392 54.3152 57.1165 56.5881C57.7415 57.7005 58.0474 58.6107 57.7956 58.6107C57.5438 58.6107 56.3757 59.5537 55.2001 60.7066C53.2609 62.6074 53.1355 62.8759 53.8525 63.5929C54.5695 64.3104 54.8219 64.2093 56.5633 62.5088C57.6196 61.4772 58.7715 60.6333 59.123 60.6333C60.0149 60.6333 61.8252 64.9314 61.6335 66.5929C61.5005 67.7463 61.2007 67.9916 59.753 68.1296C53.4227 68.7339 36.4606 53.848 31.3323 43.1883C29.9336 40.2813 29.4912 37.9229 30.2092 37.2049C30.9641 36.4494 33.8464 36.9546 36.8247 38.3633ZM79.7147 39.6846C78.6528 40.747 78.714 41.5803 79.9336 42.6847C81.9911 44.5465 84.8283 41.461 82.8644 39.497C82.0245 38.6571 80.6612 38.7385 79.7147 39.6846ZM29.6712 44.5788C33.9257 53.05 47.2588 65.9588 55.1151 69.2132L56.7519 69.8908L52.287 71.7825C17.7373 86.4181 13.5823 88.0468 12.7975 87.262C12.0972 86.5617 12.4011 85.4326 15.837 75.9607C17.9365 70.1725 21.5549 60.1499 23.8779 53.6877C26.2014 47.2254 28.1552 41.9348 28.22 41.9312C28.2847 41.9272 28.938 43.1185 29.6712 44.5788ZM18.2475 43.6874C17.4733 44.6203 17.9557 46.7627 19.0327 47.1759C20.0188 47.5546 21.5565 46.7794 21.9731 45.6938C22.7796 43.5923 19.7017 41.9348 18.2475 43.6874ZM25.9278 56.1836C24.9878 57.1236 25.2108 59.0218 26.3324 59.622C27.5009 60.2475 29.0644 59.6215 29.5594 58.3306C29.9766 57.2439 29.9852 57.2793 29.0775 56.3712C28.131 55.4251 26.7677 55.3437 25.9278 56.1836ZM69.2952 62.6226C70.0117 63.9615 69.9515 64.6785 69.1217 64.6785C68.1231 64.6785 67.1259 63.3082 67.4708 62.4097C67.8743 61.3584 68.6682 61.451 69.2952 62.6226ZM86.2882 62.439C84.7611 63.9666 85.6399 66.1955 87.7692 66.1955C89.9683 66.1955 90.7743 63.9787 89.1198 62.4815C87.9654 61.4368 87.301 61.4267 86.2882 62.439ZM0.645172 64.274C-1.07101 65.9902 0.947047 68.8497 3.07231 67.7125C4.08058 67.1729 4.30256 66.6228 4.09322 65.1842C3.87933 63.7168 1.76165 63.1575 0.645172 64.274ZM74.8907 80.3245C74.1307 81.7443 75.048 83.3877 76.6009 83.3877C78.0961 83.3877 79.0467 82.2692 78.8328 80.7608C78.6012 79.1271 75.7033 78.8065 74.8907 80.3245ZM53.4692 80.6911C52.9196 81.2402 53.0844 83.1379 53.7388 83.7922C55.4549 85.5084 58.3144 83.4903 57.1772 81.3651C56.6493 80.3791 54.2222 79.9376 53.4692 80.6911Z" fill="#00c4cc"/>
</svg>
