<svg width="46" height="51" viewBox="0 0 46 51" fill="none" xmlns="http://www.w3.org/2000/svg">
<path d="M22.0961 1.03258C22.2839 0.998439 22.5145 0.960882 22.6084 0.950071C22.7023 0.93869 22.9585 0.926171 23.1776 0.922188C23.4053 0.917636 23.7833 0.963159 24.0599 1.0286C24.3258 1.09176 24.8768 1.23459 25.2838 1.34669C25.6908 1.45879 26.3437 1.65055 26.7353 1.77403C27.1264 1.89694 27.6899 2.0722 27.9876 2.16382C28.2853 2.25486 28.7464 2.39314 29.0122 2.46996C29.2781 2.54734 29.6879 2.66684 29.923 2.73569C30.1575 2.80398 30.6829 2.96217 31.0899 3.08679C31.4969 3.2114 32.176 3.42308 32.5984 3.55794C33.0207 3.69224 33.7254 3.90961 34.1637 4.03991C34.602 4.17022 35.255 4.36483 35.6153 4.47181C35.9756 4.57879 36.526 4.7421 36.8391 4.83485C37.1522 4.92704 37.7157 5.09604 38.0914 5.20928C38.4671 5.32308 39.3124 5.58427 39.9699 5.78912C40.6273 5.99454 41.4982 6.27564 41.9052 6.41335C42.3122 6.55105 42.8354 6.77184 43.067 6.90385C43.3124 7.0427 43.6704 7.32266 43.9209 7.57019C44.2038 7.84958 44.4258 8.13467 44.5635 8.39529C44.6797 8.61436 44.8237 8.98537 44.8834 9.22038C44.9432 9.45482 45.0098 9.92883 45.0309 10.2731C45.3127 14.8791 45.0092 24.1148 45.0092 24.1148C45.0092 24.1148 44.9842 25.3695 44.9518 25.8077C44.9187 26.2458 44.8533 26.9753 44.8055 27.4294C44.7576 27.8835 44.6654 28.5618 44.6011 28.9373C44.5368 29.3129 44.3985 29.9912 44.2943 30.4453C44.1896 30.8994 43.9727 31.7057 43.8122 32.2377C43.6516 32.7698 43.3676 33.5698 43.182 34.0159C42.9965 34.4621 42.643 35.2303 42.3959 35.723C42.1494 36.2158 41.813 36.8497 41.648 37.1314C41.4823 37.4131 41.1174 37.9895 40.8362 38.4117C40.555 38.8339 40.0757 39.5003 39.7712 39.8912C39.4667 40.2827 38.9361 40.9229 38.5923 41.3138C38.2491 41.7053 37.5603 42.4126 37.0617 42.8866C36.5636 43.36 35.913 43.9512 35.6153 44.2005C35.3176 44.4492 34.6903 44.9465 34.2207 45.305C33.7511 45.6635 33.2257 46.0493 33.0537 46.1619C32.8818 46.2746 32.5614 46.4914 32.3422 46.6439C32.1231 46.7964 31.6745 47.0906 31.3461 47.2983C31.0176 47.5054 30.3385 47.91 29.8376 48.1974C29.3367 48.4853 28.4914 48.9331 27.9592 49.1932C27.4269 49.4532 26.7484 49.7804 26.4507 49.9198C26.153 50.0592 25.5638 50.3039 25.1415 50.4632C24.7191 50.6231 24.1937 50.7961 23.9746 50.8479C23.6746 50.919 23.4218 50.935 22.9499 50.9122C22.5281 50.8917 22.1473 50.8326 21.783 50.7318C21.4853 50.6493 20.858 50.4274 20.3884 50.2385C19.9188 50.0501 19.0991 49.6848 18.5669 49.4276C18.0347 49.1704 17.2406 48.759 16.8023 48.5132C16.364 48.2679 15.5824 47.811 15.0661 47.498C14.5498 47.1851 13.7814 46.698 13.3584 46.4152C12.9355 46.1324 12.1927 45.6014 11.7077 45.235C11.2227 44.8685 10.5561 44.345 10.2277 44.0719C9.89924 43.7982 9.12282 43.0727 8.50236 42.4587C7.88247 41.8447 7.13792 41.0606 6.84818 40.7163C6.55844 40.372 6.17991 39.8986 6.00686 39.6636C5.83381 39.4291 5.54066 39.0189 5.35452 38.7531C5.16896 38.4874 4.84791 38.0003 4.64128 37.672C4.43465 37.3437 4.16313 36.8953 4.03733 36.6762C3.91153 36.4571 3.65538 35.9706 3.46753 35.595C3.27969 35.2195 3.02353 34.6692 2.89717 34.3716C2.77137 34.074 2.55051 33.5044 2.40649 33.1055C2.26248 32.7066 2.06951 32.1177 1.97729 31.7967C1.88508 31.4758 1.73196 30.8675 1.63632 30.4453C1.54126 30.0231 1.38757 29.2799 1.29479 28.7951C1.20257 28.3103 1.08816 27.5159 1.04091 27.0311C0.993666 26.5463 0.926497 25.7519 0.891205 25.2671C0.847374 24.6622 0.833713 22.06 0.846236 16.9877C0.863882 10.0836 0.871851 9.56749 0.966343 9.24883C1.01373 9.05181 1.1633 8.71679 1.27942 8.48349C1.41433 8.21206 1.63291 7.90876 1.88849 7.6379C2.10765 7.40574 2.46626 7.10415 2.68541 6.96815C2.90457 6.83215 3.30132 6.64096 3.56772 6.54366C3.83412 6.44635 4.37147 6.27735 4.7631 6.16809C5.15416 6.05884 5.83325 5.8574 6.27155 5.72084C6.70986 5.58427 7.54207 5.32763 8.12154 5.15123C8.70102 4.97427 9.50761 4.72674 9.91461 4.60155C10.3216 4.47579 10.8721 4.31134 11.1385 4.23566C11.4049 4.16055 11.9934 3.9813 12.4477 3.83791C12.9019 3.69508 13.4011 3.52892 13.5577 3.46918C13.7142 3.40943 14.0091 3.32521 14.2123 3.28139C14.4155 3.23758 15.1202 3.05549 15.7777 2.87681C16.4351 2.69871 16.9861 2.54393 17.0015 2.53369C17.0169 2.52344 17.7216 2.30607 18.5669 2.05001C19.4122 1.79395 20.2319 1.54983 20.3884 1.50772C20.545 1.46561 20.9161 1.35579 21.2138 1.26361C21.5115 1.17086 21.9083 1.06729 22.0961 1.03258Z" fill="url(#paint0_linear_2616_4236)"/>
<path d="M34.4439 10.6352C34.4268 10.6637 34.3357 10.9881 34.2332 11.3638C34.1365 11.7395 33.9771 12.212 33.8803 12.4169C33.7892 12.6219 33.6013 12.9406 33.4704 13.1285C33.3338 13.3163 33.0549 13.6294 32.8442 13.823C32.5937 14.0678 32.3148 14.2556 31.996 14.4093C31.7398 14.5288 31.2844 14.6996 30.9884 14.785C30.6924 14.8704 30.4135 14.9672 30.3736 15.0013C30.3338 15.0355 30.2996 15.1152 30.2996 15.1778C30.2996 15.2404 30.3338 15.3201 30.3736 15.3542C30.4135 15.3884 30.6924 15.4852 30.9884 15.5706C31.2844 15.6559 31.7228 15.8267 31.9562 15.952C32.1896 16.0715 32.5368 16.2935 32.7247 16.4472C32.9125 16.6009 33.1915 16.8855 33.3452 17.0904C33.4989 17.2897 33.7266 17.6711 33.8575 17.9386C33.9885 18.2119 34.1649 18.7242 34.2617 19.1056C34.4325 19.7773 34.4325 19.7887 34.6033 19.8058C34.6943 19.8114 34.7968 19.7944 34.831 19.7659C34.8594 19.7374 34.9505 19.4642 35.0245 19.1568C35.0985 18.8437 35.2408 18.3883 35.3376 18.1379C35.4401 17.8874 35.5995 17.5686 35.6963 17.4263C35.7873 17.284 36.0037 17.0164 36.1744 16.8343C36.3452 16.6521 36.6355 16.3903 36.8234 16.2537C37.0113 16.1227 37.3414 15.9349 37.5634 15.8438C37.7798 15.747 38.184 15.6047 38.4572 15.525C38.7912 15.4264 38.9695 15.3429 38.9923 15.2746C39.0151 15.2233 39.0151 15.1265 38.998 15.0639C38.9695 14.9729 38.8386 14.9159 38.3775 14.7907C38.053 14.7053 37.5862 14.5345 37.3357 14.4093C37.0853 14.2898 36.738 14.0678 36.5672 13.9254C36.3965 13.7774 36.1346 13.5099 35.9809 13.3334C35.8329 13.157 35.6222 12.8325 35.5198 12.6162C35.4116 12.3942 35.2465 11.9729 35.1498 11.6769C35.0587 11.3809 34.9619 11.0451 34.9448 10.9369C34.922 10.8287 34.8765 10.7035 34.8367 10.6637C34.8025 10.6238 34.7057 10.5897 34.6203 10.5953C34.5349 10.5953 34.4553 10.6124 34.4439 10.6352ZM21.3849 12.4226C21.3223 12.4454 21.2255 12.5251 21.1742 12.5991C21.0945 12.7129 21.0832 12.9065 21.0945 14.1076C21.1059 14.9729 21.0889 15.5023 21.0547 15.5364C21.0205 15.5649 20.7644 15.6161 20.4854 15.6503C20.2008 15.6901 19.8194 15.7584 19.6315 15.804C19.4437 15.8552 19.0452 15.9861 18.7492 16.1C18.4531 16.2138 18.0148 16.4017 17.7814 16.5155C17.548 16.6351 17.2008 16.8457 17.0129 16.988C16.825 17.1246 16.455 17.4718 16.1875 17.7508C15.8914 18.0696 15.6011 18.4453 15.4303 18.7413C15.2823 19.0031 15.1229 19.3617 15.0717 19.5325C15.0205 19.7033 14.9237 20.0107 14.8611 20.2156C14.77 20.4888 14.7358 20.7735 14.7188 21.3256C14.7017 21.8209 14.7244 22.2535 14.7871 22.6349C14.8326 22.948 14.9237 23.3465 14.9806 23.5172C15.0432 23.688 15.1514 23.9556 15.2311 24.1149C15.3108 24.2686 15.5271 24.5931 15.715 24.8265C15.8971 25.0599 16.1932 25.373 16.3639 25.5153C16.5347 25.6633 16.8137 25.8682 16.9844 25.9764C17.1552 26.0902 17.5252 26.2952 17.8099 26.4318C18.0888 26.5741 18.4987 26.7619 18.7207 26.8473C18.937 26.9327 19.5291 27.1263 20.03 27.28C20.531 27.428 21.5557 27.6955 22.3071 27.8777C23.0585 28.0541 24.0206 28.2989 24.4418 28.4241C24.8631 28.5494 25.4039 28.7372 25.6373 28.8454C25.8707 28.9592 26.1781 29.1414 26.3147 29.2552C26.457 29.3691 26.6392 29.5797 26.7303 29.722C26.8157 29.8643 26.9182 30.1433 26.9523 30.3482C26.9922 30.5531 27.0035 30.8833 26.9922 31.0882C26.9751 31.2931 26.9011 31.5835 26.8328 31.7428C26.7644 31.8965 26.6278 32.1413 26.5254 32.2836C26.4229 32.4259 26.161 32.6593 25.9447 32.8073C25.7284 32.9553 25.3868 33.1375 25.1819 33.2172C24.9769 33.2912 24.5158 33.3993 24.1572 33.4506C23.6676 33.5246 23.2976 33.5417 22.7056 33.5189C22.1932 33.4961 21.7435 33.4449 21.4532 33.3709C21.2027 33.3083 20.8668 33.2001 20.7131 33.1318C20.5537 33.0635 20.2976 32.9098 20.1439 32.7959C19.9845 32.6821 19.7511 32.4715 19.6258 32.3349C19.4949 32.1982 19.2957 31.9819 19.1875 31.8567C19.0736 31.7315 18.9939 31.6119 19.0053 31.5835C19.0224 31.5607 18.9712 31.407 18.8972 31.2419C18.8232 31.0825 18.7207 30.7979 18.6695 30.6157C18.6068 30.4051 18.5328 30.2628 18.4475 30.2173C18.3507 30.1546 17.9465 30.149 16.4436 30.1717C14.7814 30.2002 14.5423 30.2173 14.4057 30.3027C14.2747 30.388 14.252 30.445 14.252 30.6727C14.252 30.8264 14.3032 31.1508 14.3601 31.4013C14.4227 31.6518 14.5537 32.0616 14.6504 32.3121C14.7529 32.5626 14.9009 32.8927 14.9806 33.0521C15.0546 33.2058 15.2197 33.479 15.3336 33.6498C15.4474 33.8206 15.6808 34.1166 15.8516 34.2988C16.0224 34.4809 16.3639 34.7997 16.6144 34.9989C16.8649 35.1982 17.2634 35.46 17.4968 35.5796C17.7302 35.7048 18.1913 35.9097 18.5215 36.035C18.8516 36.1659 19.3754 36.331 19.6885 36.4107C20.0016 36.4847 20.383 36.5644 20.5424 36.5814C20.6961 36.5985 20.8839 36.627 20.9522 36.6441L21.0832 36.6668L21.1116 39.7294L21.3963 40.0197C24.4191 39.9798 24.6525 39.9628 24.7265 39.8831C24.7948 39.8091 24.8176 39.5131 24.8403 38.2152L24.8688 36.6384C25.7512 36.5359 26.1838 36.4619 26.4058 36.4107C26.6221 36.3594 26.9182 36.2627 27.0605 36.2C27.2028 36.1317 27.3679 36.0634 27.4305 36.035C27.4931 36.0065 27.7208 35.9211 27.9428 35.8414C28.1592 35.7617 28.5349 35.5739 28.7683 35.4316C29.0415 35.2608 29.4457 34.9135 29.884 34.4809C30.5387 33.8206 30.5842 33.7637 30.8916 33.1204C31.0681 32.7561 31.2844 32.2039 31.3698 31.8965C31.5064 31.4013 31.5235 31.2476 31.5235 30.3767C31.5235 29.6309 31.5064 29.3349 31.4324 29.0958C31.3812 28.9251 31.2901 28.6177 31.2332 28.4128C31.1763 28.2078 31.0624 27.9289 30.977 27.7866C30.8973 27.6443 30.7038 27.3653 30.5558 27.1661C30.4021 26.9612 30.1345 26.6709 29.9637 26.5172C29.793 26.3635 29.4855 26.1244 29.2806 25.9935C29.0757 25.8625 28.7797 25.6861 28.626 25.6064C28.4666 25.5267 27.9428 25.3217 27.459 25.151C26.9751 24.9802 26.0016 24.6956 25.2957 24.5248C24.5898 24.354 23.4627 24.0808 22.791 23.9157C22.1192 23.7506 21.2995 23.5229 20.9693 23.4091C20.6391 23.2952 20.2122 23.0903 20.0129 22.9594C19.8194 22.8284 19.5974 22.6349 19.5234 22.5324C19.4437 22.4357 19.3241 22.2194 19.2558 22.0657C19.159 21.838 19.1306 21.6672 19.1249 21.2118C19.1249 20.7165 19.142 20.6027 19.2672 20.3295C19.3526 20.1416 19.5348 19.9025 19.7112 19.7317C19.882 19.5724 20.1097 19.3788 20.2236 19.2934C20.3374 19.208 20.5936 19.0714 20.7985 18.986C21.0035 18.9006 21.3849 18.7982 21.6524 18.7583C21.92 18.7128 22.438 18.6786 22.8023 18.6786C23.1724 18.6786 23.6733 18.7071 23.9124 18.7356C24.1572 18.7697 24.4703 18.8323 24.6126 18.8779C24.7549 18.9234 25.0282 19.06 25.2217 19.1796C25.421 19.2934 25.7398 19.5496 25.9333 19.7374C26.1326 19.931 26.3603 20.227 26.4457 20.3921C26.5254 20.5628 26.6449 20.8645 26.7018 21.0638C26.7588 21.2801 26.8498 21.4623 26.9182 21.5078C27.0092 21.5704 27.2369 21.5704 28.1421 21.5249C28.7512 21.4964 29.5766 21.4679 29.9751 21.4679C30.5102 21.4679 30.7493 21.4452 30.8746 21.3826C30.9656 21.337 31.0681 21.2459 31.1023 21.1833C31.1402 21.1074 31.1402 20.9689 31.1023 20.7678C31.0681 20.6084 31.0055 20.3295 30.9543 20.1587C30.903 19.9879 30.7379 19.5894 30.5899 19.2764C30.4419 18.9633 30.2085 18.5648 30.0719 18.394C29.9353 18.2232 29.5937 17.8532 29.3091 17.58C29.0301 17.3011 28.6316 16.9652 28.4267 16.8286C28.2218 16.692 27.8916 16.5041 27.6867 16.413C27.4817 16.322 27.2142 16.2138 27.0889 16.174C26.9637 16.1341 26.81 16.0658 26.7474 16.026C26.6848 15.9861 26.3887 15.8893 26.0927 15.8153C25.7967 15.7356 25.4039 15.6616 25.2217 15.6389C25.0453 15.6218 24.8802 15.5706 24.8631 15.5307C24.8403 15.4966 24.8289 14.8192 24.8346 14.0393C24.8403 12.952 24.8289 12.5934 24.772 12.5137C24.7037 12.4169 24.5785 12.4056 23.1041 12.3885C22.2274 12.3828 21.4532 12.3942 21.3849 12.4226Z" fill="white"/>
<defs>
<linearGradient id="paint0_linear_2616_4236" x1="45.1783" y1="4.44284" x2="5.24094" y2="39.0677" gradientUnits="userSpaceOnUse">
<stop stop-color="#39F3E2"/>
<stop offset="0.84418" stop-color="#2AD6EC"/>
</linearGradient>
</defs>
</svg>
