<svg width="19" height="14" viewBox="0 0 19 14" fill="none" xmlns="http://www.w3.org/2000/svg">
<path d="M16.5092 4.93757H5.56971C5.52035 4.93716 5.47155 4.92702 5.42612 4.90771C5.38069 4.88841 5.33952 4.86032 5.30496 4.82507L4.13421 3.65732C3.99359 3.51666 3.80286 3.43761 3.60396 3.43757H1.36596C1.23786 3.43744 1.11186 3.47013 0.999978 3.53252C0.888094 3.59491 0.794054 3.68491 0.726824 3.79395C0.659593 3.903 0.621413 4.02744 0.615923 4.15543C0.610434 4.28341 0.637817 4.41067 0.695463 4.52507L2.57046 8.27506C2.63229 8.39996 2.72788 8.50502 2.8464 8.57833C2.96492 8.65164 3.10161 8.69026 3.24096 8.68981H7.65096C7.6881 8.68975 7.72441 8.70071 7.75531 8.72131C7.7862 8.7419 7.81029 8.77121 7.82451 8.80552C7.83873 8.83982 7.84244 8.87757 7.83518 8.91399C7.82791 8.9504 7.81 8.98384 7.78371 9.01007L4.88496 11.9066C4.77989 12.0114 4.70828 12.145 4.67918 12.2905C4.65008 12.436 4.66481 12.5869 4.7215 12.7241C4.77819 12.8612 4.87429 12.9785 4.99765 13.061C5.121 13.1435 5.26606 13.1875 5.41446 13.1876H8.10396C8.30286 13.1875 8.49359 13.1085 8.63421 12.9678L12.805 8.80006C12.8752 8.72996 12.9704 8.69059 13.0697 8.69056H16.5092C17.0065 8.69056 17.4834 8.49302 17.835 8.14139C18.1867 7.78976 18.3842 7.31285 18.3842 6.81557C18.3842 6.31828 18.1867 5.84137 17.835 5.48974C17.4834 5.13811 17.0065 4.94057 16.5092 4.94057V4.93757Z" fill="url(#paint0_linear_2305_1823)"/>
<path d="M8.36946 4.07507C8.43974 4.14517 8.53495 4.18455 8.63421 4.18457H12.0842C12.1213 4.18449 12.1575 4.17342 12.1883 4.15277C12.2191 4.13211 12.243 4.10279 12.2572 4.06852C12.2713 4.03425 12.2749 3.99656 12.2676 3.96021C12.2604 3.92387 12.2425 3.8905 12.2162 3.86432L9.38121 1.02932C9.24059 0.888658 9.04986 0.809613 8.85096 0.80957H6.91446C6.76615 0.809602 6.62118 0.853606 6.49787 0.936019C6.37456 1.01843 6.27846 1.13555 6.2217 1.27258C6.16495 1.4096 6.1501 1.56038 6.17902 1.70584C6.20795 1.85131 6.27936 1.98493 6.38421 2.08982L8.36946 4.07507Z" fill="url(#paint1_linear_2305_1823)"/>
<defs>
<linearGradient id="paint0_linear_2305_1823" x1="-3.62402" y1="1" x2="18.2669" y2="3.30093" gradientUnits="userSpaceOnUse">
<stop stop-color="#6DA3FF"/>
<stop offset="1" stop-color="#00C4CC"/>
</linearGradient>
<linearGradient id="paint1_linear_2305_1823" x1="-3.62402" y1="1" x2="18.2669" y2="3.30093" gradientUnits="userSpaceOnUse">
<stop stop-color="#6DA3FF"/>
<stop offset="1" stop-color="#00C4CC"/>
</linearGradient>
</defs>
</svg>
