<svg width="15" height="14" viewBox="0 0 15 14" fill="none" xmlns="http://www.w3.org/2000/svg">
<path d="M5.33155 13.5H4.49968C4.41609 13.5 4.33385 13.479 4.26046 13.439C4.18708 13.399 4.1249 13.3412 4.07961 13.2709C4.03432 13.2007 4.00736 13.1202 4.0012 13.0368C3.99505 12.9535 4.00989 12.8699 4.04437 12.7937L6.05874 8.34844L3.03405 8.28125L1.93093 9.61781C1.72062 9.88219 1.5528 10 1.12468 10H0.564679C0.476014 10.0029 0.387967 9.98429 0.308001 9.94588C0.228034 9.90748 0.158505 9.85036 0.105304 9.77937C0.0309288 9.67906 -0.0421961 9.50906 0.0290539 9.26656L0.648429 7.04781C0.653116 7.03125 0.658741 7.01469 0.664991 6.99844V6.99375C0.658538 6.97751 0.653008 6.96092 0.648429 6.94406L0.0284288 4.71125C-0.0387587 4.47344 0.0346788 4.30719 0.108429 4.20937C0.157953 4.14366 0.222204 4.09049 0.296018 4.05412C0.369831 4.01776 0.451148 3.99922 0.533429 4H1.12468C1.44437 4 1.75468 4.14344 1.93718 4.375L3.01749 5.68906L6.05874 5.64406L4.04499 1.20656C4.01046 1.13045 3.99557 1.0469 4.00166 0.963551C4.00775 0.880199 4.03464 0.799703 4.07987 0.729423C4.12509 0.659143 4.18721 0.601321 4.26055 0.561243C4.33389 0.521165 4.4161 0.500109 4.49968 0.5H5.34062C5.45794 0.502358 5.57322 0.531113 5.6779 0.584131C5.78259 0.637149 5.87398 0.713068 5.9453 0.80625L9.85312 5.55625L11.6584 5.50875C11.7906 5.50156 12.1569 5.49906 12.2416 5.49906C13.9684 5.5 14.9997 6.06062 14.9997 7C14.9997 7.29562 14.8816 7.84375 14.0912 8.1925C13.6247 8.39875 13.0022 8.50312 12.2409 8.50312C12.1572 8.50312 11.7919 8.50062 11.6578 8.49344L9.8528 8.44531L5.9353 13.1953C5.86392 13.2881 5.77261 13.3636 5.66811 13.4164C5.5636 13.4691 5.44859 13.4977 5.33155 13.5Z" fill="black" fill-opacity="0.5"/>
</svg>
