<svg width="22" height="16" viewBox="0 0 22 16" fill="none" xmlns="http://www.w3.org/2000/svg">
<path d="M11 0.250977C6 0.250977 1.73 3.36098 0 7.75098C1.73 12.141 6 15.251 11 15.251C16 15.251 20.27 12.141 22 7.75098C20.27 3.36098 16 0.250977 11 0.250977ZM11 12.751C8.24 12.751 6 10.511 6 7.75098C6 4.99098 8.24 2.75098 11 2.75098C13.76 2.75098 16 4.99098 16 7.75098C16 10.511 13.76 12.751 11 12.751ZM11 4.75098C9.34 4.75098 8 6.09098 8 7.75098C8 9.41098 9.34 10.751 11 10.751C12.66 10.751 14 9.41098 14 7.75098C14 6.09098 12.66 4.75098 11 4.75098Z" fill="#00C4CC"/>
</svg>
