<svg width="32" height="32" viewBox="0 0 32 32" fill="none" xmlns="http://www.w3.org/2000/svg">
<g clip-path="url(#clip0_1156_12882)">
<path d="M28 0H4C1.79086 0 0 1.79086 0 4V28C0 30.2091 1.79086 32 4 32H28C30.2091 32 32 30.2091 32 28V4C32 1.79086 30.2091 0 28 0Z" fill="#00C4CC"/>
<path fill-rule="evenodd" clip-rule="evenodd" d="M14.2728 13.0855L16.2562 17.7582C16.2684 17.7898 16.2816 17.8209 16.2958 17.8517L16.3134 17.893L16.3144 17.8906C16.479 18.2232 16.7582 18.5004 17.1257 18.6564C17.2127 18.6934 17.3013 18.7221 17.3904 18.7428L16.4218 21.0246C16.4146 21.0415 16.4068 21.0579 16.3984 21.0739C16.3806 21.1168 16.3583 21.1584 16.3314 21.1979L16.2454 21.3243C16.1747 21.455 16.0645 21.5953 15.9148 21.7452C15.8311 21.829 15.6857 21.9493 15.4379 22.1009C15.383 22.1345 15.0056 22.2883 14.7369 22.3162C14.7074 22.3203 14.6772 22.3224 14.6465 22.3224C14.2811 22.3224 13.9849 22.0261 13.9849 21.6607C13.9849 21.5505 14.0118 21.4465 14.0595 21.3551C14.0821 21.3085 14.1118 21.2645 14.1487 21.2249C14.2572 21.1009 14.4114 21.0179 14.5849 21.0019C14.687 20.973 14.7938 20.9379 14.9114 20.852C14.9515 20.8227 15.0008 20.7904 15.1026 20.6827C15.1382 20.6451 15.1651 20.5784 15.1988 20.5193C15.2004 20.5154 15.202 20.5114 15.2037 20.5075L15.5992 19.5756C15.5806 19.5461 15.5641 19.5146 15.55 19.4814L13.0546 13.6026C12.9118 13.2662 13.0688 12.8778 13.4052 12.735C13.7415 12.5922 14.13 12.7491 14.2728 13.0855ZM11.0787 13.1501C11.7454 13.6069 12.194 14.3588 12.2363 15.2175C12.2385 15.2393 12.2396 15.2614 12.2396 15.2838V19.1387C12.2396 19.5041 11.9434 19.8004 11.5779 19.8004C11.2125 19.8004 10.9163 19.5041 10.9163 19.1387L10.9163 17.6545L10.9163 17.6545V15.3509C10.9163 14.7777 10.5571 14.2884 10.0514 14.0958C10.1402 13.5898 10.5596 13.1976 11.0787 13.1501ZM9.57376 12.685C9.89409 12.685 10.2012 12.7415 10.4857 12.8451C10.0312 13.0657 9.69541 13.4946 9.60078 14.0087C9.59918 14.0086 9.59757 14.0086 9.59596 14.0085L9.57376 14.0084C8.83973 14.0084 8.24328 14.5975 8.23143 15.3287L8.23125 15.3509L8.23125 17.6545L8.23123 17.6545L8.23125 19.1387C8.23125 19.5041 7.93501 19.8004 7.56958 19.8004L7.55999 19.8003L7.5504 19.8004C7.18497 19.8004 6.88873 19.5041 6.88873 19.1387L6.88877 17.6545L6.88873 17.6545V15.3509C6.88873 14.6168 6.29963 14.0204 5.56842 14.0085L5.54622 14.0084C4.81219 14.0084 4.21574 14.5975 4.20389 15.3287L4.20371 15.3509L4.20371 17.6545L4.20369 17.6545L4.20371 19.1387C4.20371 19.5005 3.91336 19.7944 3.55298 19.8003L3.54204 19.8004C3.17661 19.8004 2.88037 19.5041 2.88037 19.1387V15.2838C2.88037 15.2614 2.88148 15.2393 2.88365 15.2175C2.95314 13.8072 4.11864 12.685 5.54622 12.685C6.35031 12.685 7.07126 13.041 7.56003 13.604C8.04873 13.041 8.76967 12.685 9.57376 12.685ZM20.544 18.8439C20.7306 18.9993 20.959 19.0907 21.2057 19.0907C21.4523 19.0907 21.6807 18.9993 21.8674 18.8439L21.8674 19.1387C21.8674 19.5041 21.5711 19.8004 21.2057 19.8004C20.8403 19.8004 20.544 19.5041 20.544 19.1387L20.544 18.8439ZM28.3383 12.8835C28.7038 12.8835 29 13.1797 29 13.5451C29 13.7167 28.9347 13.8729 28.8277 13.9905C28.8276 13.9905 28.8276 13.9906 28.8275 13.9907L24.9385 18.4645H28.3383C28.7038 18.4645 29 18.7607 29 19.1262C29 19.4916 28.7038 19.7878 28.3383 19.7878L23.5474 19.7878C23.3731 19.8046 23.1924 19.7526 23.0498 19.6286C22.7904 19.403 22.7491 19.0198 22.9448 18.7455C22.9621 18.721 22.981 18.6977 23.0013 18.6758L26.8862 14.2068H23.4861C23.1207 14.2068 22.8244 13.9106 22.8244 13.5451C22.8244 13.1797 23.1207 12.8835 23.4861 12.8835H28.3383ZM21.2057 10C21.5711 10 21.8674 10.2962 21.8674 10.6617L21.8674 18.2128C21.7454 18.4602 21.4906 18.6304 21.1961 18.6304C20.9162 18.6304 20.6722 18.4767 20.544 18.2491L20.544 10.6617C20.544 10.2962 20.8403 10 21.2057 10ZM19.1812 12.8305C19.5175 12.9733 19.6745 13.3617 19.5317 13.6981L17.574 18.3101C17.4836 18.2957 17.3936 18.2701 17.3055 18.2327C16.8783 18.0514 16.6176 17.6423 16.6046 17.207L18.3136 13.181C18.4563 12.8446 18.8448 12.6877 19.1812 12.8305Z" fill="white"/>
</g>
<defs>
<clipPath id="clip0_1156_12882">
<rect width="32" height="32" fill="white"/>
</clipPath>
</defs>
</svg>
