<svg width="32" height="32" viewBox="0 0 32 32" fill="none" xmlns="http://www.w3.org/2000/svg">
<g clip-path="url(#clip0_1156_12882)">
<path d="M28 0H4C1.79086 0 0 1.79086 0 4V28C0 30.2091 1.79086 32 4 32H28C30.2091 32 32 30.2091 32 28V4C32 1.79086 30.2091 0 28 0Z" fill="#00C4CC"/>
<path fill-rule="evenodd" clip-rule="evenodd" d="M14.0849 12.5439L16.3629 17.9108C16.377 17.9471 16.3922 17.9828 16.4085 18.0181L16.4287 18.0656L16.4298 18.0628C16.6188 18.4449 16.9395 18.7633 17.3616 18.9425C17.4616 18.9849 17.5633 19.0178 17.6656 19.0416L16.5532 21.6624C16.5449 21.6818 16.536 21.7007 16.5263 21.7191C16.5059 21.7684 16.4802 21.8161 16.4494 21.8614L16.3505 22.0067C16.2693 22.1567 16.1428 22.3179 15.9708 22.4901C15.8747 22.5863 15.7077 22.7245 15.4231 22.8986C15.36 22.9372 14.9266 23.1139 14.6179 23.146C14.584 23.1506 14.5494 23.153 14.5142 23.153C14.0945 23.153 13.7542 22.8127 13.7542 22.393C13.7542 22.2664 13.7852 22.147 13.8399 22.042C13.8659 21.9885 13.9 21.938 13.9423 21.8925C14.067 21.7501 14.2441 21.6547 14.4434 21.6363C14.5607 21.6031 14.6833 21.5628 14.8184 21.4641C14.8644 21.4305 14.921 21.3935 15.038 21.2697C15.0789 21.2265 15.1098 21.1499 15.1484 21.0821C15.1503 21.0775 15.1521 21.073 15.1541 21.0685L15.6083 19.9982C15.587 19.9642 15.5681 19.9281 15.5519 19.89L12.6857 13.1378C12.5217 12.7514 12.702 12.3053 13.0884 12.1413C13.4747 11.9773 13.9209 12.1576 14.0849 12.5439ZM10.4163 12.6181C11.182 13.1428 11.6973 14.0063 11.7459 14.9926C11.7484 15.0176 11.7497 15.043 11.7497 15.0687V19.4963C11.7497 19.9161 11.4094 20.2563 10.9897 20.2563C10.57 20.2563 10.2297 19.9161 10.2297 19.4963L10.2298 17.7917L10.2297 17.7917V15.1458C10.2297 14.4875 9.81714 13.9255 9.23642 13.7043C9.33834 13.1231 9.82005 12.6726 10.4163 12.6181ZM8.68777 12.0839C9.05569 12.0839 9.40845 12.1488 9.73523 12.2678C9.21318 12.5211 8.82749 13.0138 8.71881 13.6042C8.71696 13.6041 8.71512 13.6041 8.71327 13.6041L8.68777 13.6039C7.84469 13.6039 7.15964 14.2805 7.14602 15.1203L7.14581 15.1458L7.14581 17.7917L7.14579 17.7917L7.14581 19.4963C7.14581 19.9161 6.80556 20.2563 6.38585 20.2563L6.37483 20.2562L6.36382 20.2563C5.9441 20.2563 5.60385 19.9161 5.60385 19.4963L5.6039 17.7917L5.60385 17.7917V15.1458C5.60385 14.3027 4.92723 13.6177 4.08739 13.6041L4.06189 13.6039C3.21881 13.6039 2.53376 14.2805 2.52014 15.1203L2.51993 15.1458L2.51993 17.7917L2.51991 17.7917L2.51993 19.4963C2.51993 19.9119 2.18645 20.2495 1.77253 20.2562L1.75997 20.2563C1.34025 20.2563 1 19.9161 1 19.4963V15.0687C1 15.043 1.00127 15.0176 1.00376 14.9926C1.08359 13.3728 2.42223 12.0839 4.06189 12.0839C4.98544 12.0839 5.81349 12.4928 6.37488 13.1394C6.93618 12.4928 7.76422 12.0839 8.68777 12.0839ZM21.2878 19.1578C21.5021 19.3363 21.7644 19.4413 22.0478 19.4413C22.3311 19.4413 22.5934 19.3363 22.8077 19.1578L22.8077 19.4963C22.8077 19.9161 22.4675 20.2563 22.0478 20.2563C21.628 20.2563 21.2878 19.9161 21.2878 19.4963L21.2878 19.1578ZM30.24 12.3118C30.6598 12.3118 31 12.6521 31 13.0718C31 13.2688 30.925 13.4483 30.8021 13.5833C30.802 13.5834 30.802 13.5835 30.8019 13.5835L26.3351 18.722H30.24C30.6598 18.722 31 19.0622 31 19.4819C31 19.9017 30.6598 20.2419 30.24 20.2419L24.7374 20.2419C24.5371 20.2612 24.3297 20.2014 24.1659 20.059C23.8678 19.8 23.8205 19.3598 24.0452 19.0448C24.0651 19.0166 24.0868 18.9899 24.1101 18.9647L28.5722 13.8318H24.667C24.2472 13.8318 23.907 13.4915 23.907 13.0718C23.907 12.6521 24.2472 12.3118 24.667 12.3118H30.24ZM22.0478 9C22.4675 9 22.8077 9.34025 22.8077 9.75997L22.8077 18.4329C22.6676 18.7171 22.375 18.9126 22.0367 18.9126C21.7153 18.9126 21.435 18.736 21.2877 18.4746L21.2878 9.75997C21.2878 9.34025 21.628 9 22.0478 9ZM19.7225 12.251C20.1088 12.415 20.2891 12.8611 20.1251 13.2475L17.8765 18.5447C17.7728 18.5281 17.6693 18.4987 17.5682 18.4558C17.0775 18.2475 16.778 17.7776 16.7632 17.2776L18.726 12.6536C18.89 12.2672 19.3361 12.087 19.7225 12.251Z" fill="white"/>
</g>
<defs>
<clipPath id="clip0_1156_12882">
<rect width="32" height="32" fill="white"/>
</clipPath>
</defs>
</svg>
