<svg width="32" height="32" viewBox="0 0 32 32" fill="none" xmlns="http://www.w3.org/2000/svg">
<g clip-path="url(#clip0_408_19113)">
<path d="M28 0H4C1.79086 0 0 1.79086 0 4V28C0 30.2091 1.79086 32 4 32H28C30.2091 32 32 30.2091 32 28V4C32 1.79086 30.2091 0 28 0Z" fill="#00C4CC"/>
<path fill-rule="evenodd" clip-rule="evenodd" d="M27.9931 13.438C27.9975 13.4907 28 13.5435 28 13.597V23.3033C28 24.2404 27.2404 25 26.3033 25C25.3662 25 24.6066 24.2404 24.6066 23.3033L24.6069 19.5714L24.6059 19.572L24.6066 13.7903C24.6066 12.2444 23.5875 10.9364 22.1845 10.5015C22.4175 9.15847 23.5894 8.1362 25 8.1362L24.9639 8.13705C26.7144 9.29397 27.8931 11.2276 27.9931 13.438ZM21.1639 7C21.9302 7 22.667 7.12437 23.3547 7.35375C22.1263 7.90842 21.229 9.0649 21.0373 10.4469L21.053 10.35L20.975 10.3528C19.2241 10.4475 17.8211 11.8505 17.7264 13.6014L17.7213 13.7903V23.3033C17.7213 24.2404 16.9617 25 16.0246 25L16 24.998L15.9754 25C15.0383 25 14.2787 24.2404 14.2787 23.3033L14.279 19.5714L14.278 19.572L14.2787 13.7903C14.2787 11.9524 12.8384 10.4509 11.025 10.3528L10.8361 10.3477C8.99813 10.3477 7.4966 11.788 7.39854 13.6014L7.39344 13.7903V23.3033C7.39344 24.191 6.71165 24.9195 5.84312 24.9938L5.69672 25C4.75965 25 4 24.2404 4 23.3033V13.597C4 13.5435 4.00247 13.4907 4.00731 13.4385C4.16902 9.85544 7.16453 7 10.8361 7C12.8981 7 14.747 7.90071 16.0004 9.32509C17.253 7.90071 19.1019 7 21.1639 7Z" fill="white"/>
</g>
<defs>
<clipPath id="clip0_408_19113">
<rect width="32" height="32" fill="white"/>
</clipPath>
</defs>
</svg>
