<svg width="32" height="32" viewBox="0 0 32 32" fill="none" xmlns="http://www.w3.org/2000/svg">
<g clip-path="url(#clip0_1156_12882)">
<path d="M28 0H4C1.79086 0 0 1.79086 0 4V28C0 30.2091 1.79086 32 4 32H28C30.2091 32 32 30.2091 32 28V4C32 1.79086 30.2091 0 28 0Z" fill="#00C4CC"/>
<path fill-rule="evenodd" clip-rule="evenodd" d="M14.2125 12.3076L16.3387 17.3168C16.3519 17.3506 16.366 17.384 16.3812 17.4169L16.4001 17.4613L16.4012 17.4586C16.5776 17.8152 16.8769 18.1124 17.2708 18.2796C17.3642 18.3192 17.4591 18.35 17.5546 18.3722L16.5163 20.8182C16.5086 20.8364 16.5002 20.854 16.4912 20.8711C16.4722 20.9172 16.4482 20.9617 16.4194 21.004L16.3271 21.1396C16.2514 21.2796 16.1333 21.43 15.9728 21.5908C15.8831 21.6806 15.7272 21.8095 15.4616 21.972C15.4027 22.0081 14.9981 22.173 14.7101 22.2029C14.6784 22.2072 14.6461 22.2095 14.6132 22.2095C14.2215 22.2095 13.9039 21.8919 13.9039 21.5002C13.9039 21.382 13.9328 21.2706 13.9839 21.1726C14.0082 21.1226 14.04 21.0755 14.0795 21.033C14.1959 20.9001 14.3611 20.8111 14.5472 20.7939C14.6566 20.7629 14.7711 20.7253 14.8971 20.6332C14.9401 20.6018 14.9929 20.5672 15.1021 20.4518C15.1403 20.4114 15.1692 20.3399 15.2052 20.2766C15.2069 20.2724 15.2087 20.2681 15.2104 20.2639L15.6345 19.265C15.6145 19.2333 15.5969 19.1996 15.5818 19.164L12.9067 12.8619C12.7536 12.5013 12.9219 12.0849 13.2825 11.9319C13.6431 11.7788 14.0595 11.9471 14.2125 12.3076ZM10.7885 12.3769C11.5032 12.8666 11.9841 13.6726 12.0295 14.5931C12.0318 14.6165 12.033 14.6402 12.033 14.6641V18.7966C12.033 19.1883 11.7155 19.5059 11.3237 19.5059C10.932 19.5059 10.6144 19.1883 10.6144 18.7966L10.6145 17.2055L10.6144 17.2056V14.7361C10.6144 14.1216 10.2293 13.5971 9.68733 13.3907C9.78245 12.8482 10.232 12.4278 10.7885 12.3769ZM9.17525 11.8783C9.51864 11.8783 9.84788 11.9389 10.1529 12.0499C9.66563 12.2864 9.30565 12.7462 9.20422 13.2972C9.2025 13.2972 9.20078 13.2971 9.19905 13.2971L9.17525 13.2969C8.38837 13.2969 7.74899 13.9284 7.73628 14.7123L7.73609 14.7361L7.73609 17.2056L7.73607 17.2056L7.73609 18.7966C7.73609 19.1883 7.41853 19.5059 7.02679 19.5059L7.01651 19.5058L7.00623 19.5059C6.61449 19.5059 6.29693 19.1883 6.29693 18.7966L6.29697 17.2055L6.29693 17.2056V14.7361C6.29693 13.9492 5.66542 13.3098 4.88157 13.2971L4.85777 13.2969C4.07089 13.2969 3.4315 13.9284 3.4188 14.7123L3.4186 14.7361L3.4186 17.2056L3.41858 17.2056L3.4186 18.7966C3.4186 19.1844 3.10736 19.4995 2.72103 19.5058L2.7093 19.5059C2.31757 19.5059 2 19.1883 2 18.7966V14.6641C2 14.6402 2.00119 14.6165 2.00351 14.5931C2.07801 13.0812 3.32741 11.8783 4.85777 11.8783C5.71974 11.8783 6.49259 12.26 7.01655 12.8635C7.54043 12.26 8.31328 11.8783 9.17525 11.8783ZM20.9353 18.4806C21.1353 18.6472 21.3801 18.7452 21.6446 18.7452C21.909 18.7452 22.1538 18.6472 22.3539 18.4806L22.3539 18.7966C22.3539 19.1883 22.0363 19.5059 21.6446 19.5059C21.2528 19.5059 20.9353 19.1883 20.9353 18.7966L20.9353 18.4806ZM29.2907 12.091C29.6824 12.091 30 12.4086 30 12.8003C30 12.9842 29.93 13.1518 29.8153 13.2778C29.8152 13.2778 29.8152 13.2779 29.8151 13.278L25.6461 18.0738H29.2907C29.6824 18.0738 30 18.3914 30 18.7832C30 19.1749 29.6824 19.4925 29.2907 19.4925L24.1549 19.4925C23.968 19.5105 23.7744 19.4547 23.6215 19.3218C23.3433 19.08 23.2991 18.6691 23.5089 18.3751C23.5274 18.3489 23.5476 18.3239 23.5695 18.3004L27.734 13.5096H24.0892C23.6974 13.5096 23.3799 13.1921 23.3799 12.8003C23.3799 12.4086 23.6974 12.091 24.0892 12.091H29.2907ZM21.6446 9C22.0363 9 22.3539 9.31757 22.3539 9.7093L22.3539 17.804C22.2231 18.0693 21.95 18.2518 21.6343 18.2518C21.3343 18.2518 21.0727 18.087 20.9352 17.8429L20.9353 9.7093C20.9353 9.31757 21.2528 9 21.6446 9ZM19.4743 12.0343C19.8349 12.1873 20.0031 12.6037 19.8501 12.9643L17.7514 17.9084C17.6546 17.8929 17.558 17.8655 17.4636 17.8254C17.0057 17.631 16.7261 17.1925 16.7123 16.7258L18.5442 12.41C18.6973 12.0494 19.1137 11.8812 19.4743 12.0343Z" fill="white"/>
</g>
<defs>
<clipPath id="clip0_1156_12882">
<rect width="32" height="32" fill="white"/>
</clipPath>
</defs>
</svg>
