<svg width="14" height="12" viewBox="0 0 14 12" fill="none" xmlns="http://www.w3.org/2000/svg">
<path d="M0 12V10.5H2.13889L1.82778 10.2375C1.1537 9.6625 0.680556 9.00625 0.408333 8.26875C0.136111 7.53125 0 6.7875 0 6.0375C0 4.65 0.431019 3.41563 1.29306 2.33438C2.15509 1.25313 3.27963 0.5375 4.66667 0.1875V1.7625C3.73333 2.0875 2.98148 2.64063 2.41111 3.42188C1.84074 4.20313 1.55556 5.075 1.55556 6.0375C1.55556 6.6 1.66574 7.14688 1.88611 7.67813C2.10648 8.20938 2.45 8.7 2.91667 9.15L3.11111 9.3375V7.5H4.66667V12H0ZM7 9.75C6.77963 9.75 6.59491 9.67813 6.44583 9.53438C6.29676 9.39063 6.22222 9.2125 6.22222 9C6.22222 8.7875 6.29676 8.60938 6.44583 8.46563C6.59491 8.32188 6.77963 8.25 7 8.25C7.22037 8.25 7.40509 8.32188 7.55417 8.46563C7.70324 8.60938 7.77778 8.7875 7.77778 9C7.77778 9.2125 7.70324 9.39063 7.55417 9.53438C7.40509 9.67813 7.22037 9.75 7 9.75ZM6.22222 6.75V2.25H7.77778V6.75H6.22222ZM9.33333 11.8125V10.2375C10.2667 9.9125 11.0185 9.35938 11.5889 8.57812C12.1593 7.79687 12.4444 6.925 12.4444 5.9625C12.4444 5.4 12.3343 4.85313 12.1139 4.32188C11.8935 3.79063 11.55 3.3 11.0833 2.85L10.8889 2.6625V4.5H9.33333V0H14V1.5H11.8611L12.1722 1.7625C12.8074 2.375 13.2708 3.04063 13.5625 3.75938C13.8542 4.47813 14 5.2125 14 5.9625C14 7.35 13.569 8.58438 12.7069 9.66563C11.8449 10.7469 10.7204 11.4625 9.33333 11.8125Z" fill="#69707B" fill-opacity="0.5"/>
</svg>
