<svg width="13" height="12" viewBox="0 0 13 12" fill="none" xmlns="http://www.w3.org/2000/svg">
<path d="M0.833008 11.6667V10.25H2.78092L2.49759 10.0021C1.8837 9.45907 1.4528 8.83928 1.20488 8.14275C0.956966 7.44622 0.833008 6.74379 0.833008 6.03546C0.833008 4.72504 1.22554 3.55924 2.01061 2.53806C2.79568 1.51688 3.81981 0.841013 5.08301 0.510457V1.99796C4.23301 2.3049 3.54829 2.8273 3.02884 3.56514C2.5094 4.30299 2.24967 5.12643 2.24967 6.03546C2.24967 6.56671 2.35002 7.0832 2.55072 7.58494C2.75141 8.08667 3.06426 8.55004 3.48926 8.97504L3.66634 9.15212V7.41671H5.08301V11.6667H0.833008ZM7.91634 11.4896V10.0021C8.76634 9.69518 9.45106 9.17278 9.97051 8.43494C10.49 7.69709 10.7497 6.87365 10.7497 5.96462C10.7497 5.43337 10.6493 4.91688 10.4486 4.41514C10.2479 3.91341 9.93509 3.45004 9.51009 3.02504L9.33301 2.84796V4.58337H7.91634V0.333374H12.1663V1.75004H10.2184L10.5018 1.99796C11.0802 2.57643 11.5023 3.20508 11.7679 3.88389C12.0335 4.56271 12.1663 5.25629 12.1663 5.96462C12.1663 7.27504 11.7738 8.44084 10.9887 9.46202C10.2037 10.4832 9.17954 11.1591 7.91634 11.4896Z" fill="black" fill-opacity="0.5"/>
</svg>
