<svg width="15" height="15" viewBox="0 0 15 15" fill="none" xmlns="http://www.w3.org/2000/svg">
<path d="M13.4937 14.5L10.8632 11.8695C10.6396 11.9989 10.4071 12.1166 10.1658 12.2226C9.92455 12.3285 9.66856 12.4168 9.39786 12.4874V11.0044C9.46847 10.9809 9.53909 10.9544 9.60971 10.925C9.68033 10.8955 9.75095 10.8632 9.82156 10.8279L4.17213 5.17844C4.04266 5.47268 3.93968 5.77575 3.86318 6.08764C3.78668 6.39954 3.74842 6.72026 3.74842 7.04981C3.74842 7.57945 3.84847 8.09437 4.04855 8.59458C4.24863 9.09479 4.56053 9.55675 4.98424 9.98045L5.16078 10.157V8.42686H6.57314V12.6639H2.33607V11.2516H4.27806L3.99559 11.0044C3.41887 10.4277 2.99811 9.80097 2.73329 9.12421C2.46847 8.44746 2.33607 7.75599 2.33607 7.04981C2.33607 6.52018 2.40374 6.01114 2.53909 5.5227C2.67444 5.03426 2.87158 4.5723 3.13052 4.13682L0.5 1.50631L1.50631 0.5L14.5 13.4937L13.4937 14.5ZM12.8758 9.85687L11.8165 8.7976C11.946 8.51513 12.046 8.22089 12.1166 7.91488C12.1873 7.60887 12.2226 7.29697 12.2226 6.97919C12.2226 6.44956 12.1225 5.93464 11.9224 5.43443C11.7224 4.93422 11.4105 4.47226 10.9868 4.04855L10.8102 3.872V5.60214H9.39786V1.36507H13.6349V2.77743H11.6929L11.9754 3.02459C12.5521 3.6013 12.9729 4.22804 13.2377 4.90479C13.5025 5.58155 13.6349 6.27301 13.6349 6.97919C13.6349 7.50883 13.5673 8.01198 13.4319 8.48865C13.2966 8.96532 13.1112 9.4214 12.8758 9.85687ZM6.2024 3.18348L5.14313 2.12421C5.36675 1.99475 5.59626 1.88293 5.83165 1.78878C6.06705 1.69462 6.31421 1.61223 6.57314 1.54161V3.02459C6.51429 3.04813 6.4525 3.07167 6.38777 3.09521C6.32303 3.11875 6.26124 3.14817 6.2024 3.18348Z" fill="#69707B" fill-opacity="0.5"/>
</svg>
