<svg width="13" height="13" viewBox="0 0 13 13" fill="none" xmlns="http://www.w3.org/2000/svg">
<path d="M0.833496 12.1668V10.7502H2.78141L2.49808 10.5022C1.88419 9.95919 1.45329 9.3394 1.20537 8.64287C0.957454 7.94634 0.833496 7.24391 0.833496 6.53558C0.833496 5.22516 1.22603 4.05936 2.0111 3.03818C2.79617 2.017 3.8203 1.34113 5.0835 1.01058V2.49808C4.2335 2.80502 3.54877 3.32742 3.02933 4.06527C2.50988 4.80311 2.25016 5.62655 2.25016 6.53558C2.25016 7.06683 2.35051 7.58332 2.5512 8.08506C2.7519 8.58679 3.06475 9.05016 3.48975 9.47516L3.66683 9.65225V7.91683H5.0835V12.1668H0.833496ZM7.91683 11.9897V10.5022C8.76683 10.1953 9.45155 9.67291 9.971 8.93506C10.4904 8.19721 10.7502 7.37377 10.7502 6.46475C10.7502 5.9335 10.6498 5.417 10.4491 4.91527C10.2484 4.41353 9.93558 3.95016 9.51058 3.52516L9.3335 3.34808V5.0835H7.91683V0.833496H12.1668V2.25016H10.2189L10.5022 2.49808C11.0807 3.07655 11.5028 3.7052 11.7684 4.38402C12.034 5.06284 12.1668 5.75641 12.1668 6.46475C12.1668 7.77516 11.7743 8.94096 10.9892 9.96214C10.2042 10.9833 9.18002 11.6592 7.91683 11.9897Z" fill="#69707B" fill-opacity="0.5"/>
</svg>
