<svg width="197" height="81" viewBox="0 0 197 81" fill="none" xmlns="http://www.w3.org/2000/svg">
<path d="M108.712 46.0009C108.712 42.6586 104.653 40 99.5227 40C94.3928 40 90.334 42.659 90.334 46.0017C90.334 49.3436 94.3945 52 99.5233 52C104.653 52.0008 108.711 49.3436 108.711 46.0017L108.713 46.0009H108.712Z" fill="#F7F7F7"/>
<path d="M103.583 46.8673H103.066C102.549 46.8673 102.329 47.0469 102.254 47.3953C102.124 48.0331 101.35 48.4649 100.334 48.4649C99.1543 48.4649 98.3987 47.9004 98.3987 47.0819V45.1591C98.3987 45.0821 98.3814 45.0144 98.3526 44.9539C98.4633 44.9866 98.596 45.0035 98.7483 45.0035H101.46C101.978 45.0035 102.272 44.8107 102.272 44.4747V44.3187C102.272 43.9816 101.978 43.7896 101.46 43.7896H99.9307V42.706C99.9307 42.37 99.6342 42.1772 99.1186 42.1772H98.7483C98.2326 42.1772 97.9373 42.3704 97.9373 42.706V44.4743C97.9373 44.5503 97.9523 44.6183 97.9835 44.6792C97.8716 44.6469 97.7389 44.6303 97.5866 44.6303H94.8746C94.3584 44.6303 94.0625 44.8227 94.0625 45.1591V45.3158C94.0625 45.6526 94.3584 45.845 94.8746 45.845H96.4065V47.0815C96.4065 48.6326 97.9379 49.715 100.337 49.715C102.57 49.715 104.045 48.7885 104.322 47.3946C104.395 47.0458 104.044 46.8669 103.582 46.8669L103.583 46.8673Z" fill="#69707B"/>
<path d="M121.318 49.1813H123.475V46.1258C123.475 45.0208 124.4 44.6356 125.505 44.6356C126.147 44.6356 126.623 44.7604 127.06 45.0032L128.037 43.8817C127.446 43.5295 126.661 43.3555 125.892 43.3555C124.863 43.3555 123.861 43.6637 123.347 44.2669L123.205 43.4724H121.317V49.1824L121.318 49.1813ZM182.182 42.1156C182.182 41.5714 181.54 41.2944 180.896 41.2944C180.267 41.2944 179.625 41.5695 179.625 42.1153C179.625 42.6677 180.267 42.9353 180.896 42.9353C181.538 42.9353 182.182 42.6681 182.182 42.1156ZM117.374 41.8311L115.214 41.9815V43.4716H113.596V44.6856H115.214V47.2382C115.214 48.6108 116.422 49.2478 118.233 49.2478C119.005 49.2478 119.661 49.1302 120.122 48.9622L119.544 47.8234C119.236 47.9159 118.851 47.9839 118.49 47.9839C117.77 47.9839 117.372 47.7156 117.372 47.1721V44.6863H119.787V43.4724H117.372L117.374 41.8311ZM137.443 43.472H135.503L135.361 44.2677C134.872 43.74 133.908 43.3551 132.406 43.3551C130.002 43.3551 127.921 44.3331 127.921 46.3265C127.921 48.3199 130.002 49.2978 132.406 49.2978C133.908 49.2978 134.872 48.9145 135.362 48.3864L135.503 49.1824H137.441V43.4724L137.443 43.472ZM179.817 43.472V49.1809H181.977V43.4724L179.817 43.472ZM132.702 48.0764C131.225 48.0764 130.119 47.4326 130.119 46.3272C130.119 45.2215 131.224 44.577 132.702 44.577C134.18 44.577 135.286 45.2204 135.286 46.3268C135.286 47.4318 134.181 48.0764 132.702 48.0764ZM167.959 43.4724H166.018L165.875 44.268C165.388 43.7404 164.427 43.3555 162.922 43.3555C160.519 43.3555 158.438 44.3334 158.438 46.3268C158.438 48.3203 160.519 49.2982 162.922 49.2982C164.424 49.2982 165.388 48.9148 165.875 48.3868L166.019 49.1828H167.959V43.4724ZM163.217 48.0764C161.74 48.0764 160.634 47.4326 160.634 46.3272C160.634 45.2215 161.739 44.577 163.218 44.577C164.697 44.577 165.802 45.2204 165.802 46.3268C165.802 47.4318 164.696 48.0756 163.218 48.0756L163.217 48.0764ZM193.001 43.4724H191.06L190.918 44.268C190.431 43.7404 189.468 43.3555 187.965 43.3555C185.561 43.3555 183.48 44.3334 183.48 46.3268C183.48 48.3203 185.562 49.2982 187.965 49.2982C189.467 49.2982 190.431 48.9148 190.918 48.3868L191.06 49.1828H193.001V43.4724ZM188.259 48.0764C186.784 48.0764 185.677 47.4326 185.677 46.3272C185.677 45.2215 186.781 44.577 188.261 44.577C189.738 44.577 190.845 45.2204 190.845 46.3268C190.843 47.4318 189.737 48.0756 188.261 48.0756L188.259 48.0764ZM175.026 49.1813L178.765 43.4724H176.517L173.959 47.6825L171.399 43.4724H169.01L172.748 49.1813H175.026ZM139.499 49.1813H141.658V46.1183C141.658 45.1554 142.608 44.6104 143.867 44.6104C145.126 44.6104 145.987 45.1542 145.987 46.1175V49.1813H148.146V45.9089C148.146 44.2094 146.525 43.3563 144.457 43.3563C143.083 43.3563 142.067 43.7336 141.581 44.2688L141.439 43.4731H139.499V49.1839V49.1813ZM153.593 49.2978C156.305 49.2978 157.448 48.4958 157.448 47.4825C157.448 46.2009 155.598 45.8826 154.107 45.7575C153.248 45.6812 151.924 45.6319 151.924 45.0787C151.924 44.6679 152.669 44.4913 153.594 44.4913C154.429 44.4913 155.265 44.6341 155.946 45.0186L157.038 44.0805C156.076 43.5367 154.957 43.3521 153.697 43.3521C151.822 43.3521 149.74 43.7693 149.74 45.1422C149.74 46.4061 151.487 46.7414 153.081 46.8748C153.991 46.9511 155.265 47.0082 155.265 47.5539C155.265 47.9542 154.571 48.1395 153.671 48.1395C152.655 48.1395 151.32 47.8975 150.509 47.3439L149.418 48.2819C150.522 49.0795 152.181 49.2967 153.594 49.2967L153.593 49.2978Z" fill="#F7F7F7"/>
<g clip-path="url(#clip0_2111_7739)">
<path d="M143.291 75.0326H139.576C139.408 75.0326 139.331 75.1055 139.331 75.2368C139.331 75.5578 139.515 75.8642 139.883 76.156C140.252 76.4478 140.651 76.5937 141.081 76.5937C141.326 76.5937 141.618 76.55 141.925 76.4624C142.232 76.3749 142.493 76.2582 142.693 76.1268C142.877 76.0101 143.015 75.9518 143.122 75.9518C143.26 75.9518 143.399 76.0247 143.521 76.1852C143.66 76.3457 143.721 76.5062 143.721 76.6813C143.721 77.046 143.491 77.3816 143.015 77.7172C142.186 78.3154 141.219 78.6072 140.129 78.6072C139.024 78.6072 138.103 78.3008 137.351 77.688C136.982 77.3816 136.691 77.0314 136.46 76.6083C136.153 76.0393 136 75.4557 136 74.8283C136 73.9966 136.261 73.238 136.798 72.5668C137.259 71.9832 137.842 71.5601 138.563 71.2683C139.101 71.0494 139.684 70.9473 140.298 70.9473C141.296 70.9473 142.14 71.2099 142.846 71.7497C143.199 72.0124 143.475 72.3333 143.69 72.7127C143.936 73.1358 144.059 73.5443 144.059 73.9383C144.059 74.2593 143.982 74.5219 143.844 74.7408C143.69 74.9304 143.506 75.0326 143.291 75.0326ZM139.791 73.6319H140.59C140.927 73.6319 141.096 73.486 141.096 73.1942C141.096 72.9316 141.019 72.6981 140.851 72.5376C140.682 72.3625 140.482 72.2896 140.206 72.2896C139.914 72.2896 139.684 72.4063 139.515 72.6252C139.362 72.8294 139.285 73.0337 139.285 73.2525C139.285 73.3984 139.316 73.5006 139.392 73.5735C139.469 73.6027 139.592 73.6319 139.791 73.6319Z" fill="#EDEDED"/>
<path d="M149.062 70.918C149.983 70.918 150.751 71.1368 151.38 71.5745C151.718 71.808 151.948 72.0706 152.086 72.377C152.224 72.6834 152.286 73.0919 152.286 73.6172L152.27 74.7261C152.27 75.4993 152.332 75.9954 152.439 76.2289C152.501 76.3456 152.547 76.4039 152.608 76.4331C152.654 76.4623 152.777 76.4915 152.946 76.5207C153.115 76.5498 153.191 76.652 153.191 76.8417C153.191 77.0751 153.084 77.3377 152.884 77.5858C152.685 77.8484 152.424 78.0672 152.101 78.2423C151.702 78.4612 151.288 78.5779 150.858 78.5779C150.306 78.5779 149.876 78.4028 149.553 78.0381C149.446 77.9067 149.339 77.8484 149.246 77.8484C149.139 77.8484 149.001 77.9067 148.832 78.0381C148.31 78.4028 147.711 78.5779 147.051 78.5779C146.361 78.5779 145.808 78.432 145.378 78.1548C145.102 77.9651 144.887 77.7317 144.718 77.4253C144.549 77.1335 144.473 76.8125 144.473 76.4915C144.473 75.9662 144.688 75.5139 145.133 75.12C145.823 74.4926 146.852 74.1716 148.218 74.1716C148.525 74.1716 148.709 74.1424 148.786 74.0841C148.863 74.0257 148.909 73.8944 148.909 73.6901C148.909 73.1649 148.847 72.7709 148.74 72.5375C148.617 72.3041 148.433 72.1873 148.172 72.1873C148.018 72.1873 147.88 72.2311 147.758 72.3186C147.635 72.4062 147.481 72.5667 147.297 72.8147C146.837 73.4421 146.345 73.7631 145.839 73.7631C145.578 73.7631 145.378 73.6901 145.209 73.5442C145.041 73.3983 144.964 73.2087 144.964 72.9752C144.964 72.7418 145.071 72.4937 145.271 72.2603C145.47 72.0268 145.747 71.808 146.1 71.6329C147.036 71.1514 148.018 70.918 149.062 70.918ZM148.525 75.2513C148.295 75.2513 148.095 75.3388 147.926 75.5139C147.758 75.689 147.665 75.9079 147.665 76.1559C147.665 76.3894 147.727 76.5936 147.85 76.7395C147.972 76.8854 148.126 76.9584 148.325 76.9584C148.74 76.9584 148.955 76.6228 148.955 75.9516C148.955 75.6744 148.924 75.4993 148.863 75.3972C148.817 75.3097 148.694 75.2513 148.525 75.2513Z" fill="#EDEDED"/>
<path d="M156.86 70.9182C157.121 70.9182 157.551 70.9765 158.149 71.0786C158.272 71.0932 158.364 71.1078 158.441 71.1078C158.533 71.1078 158.702 71.0641 158.963 70.9765C159.086 70.9327 159.193 70.9036 159.27 70.9036C159.515 70.9036 159.761 71.0495 160.007 71.3413C160.206 71.5747 160.375 71.8373 160.498 72.1146C160.621 72.3918 160.682 72.6398 160.682 72.8441C160.682 73.0483 160.605 73.2088 160.467 73.3402C160.314 73.4715 160.129 73.5444 159.914 73.5444C159.73 73.5444 159.561 73.5006 159.423 73.4131C159.285 73.3256 159.04 73.1359 158.733 72.8587C158.395 72.5523 158.119 72.3918 157.904 72.3918C157.75 72.3918 157.627 72.4501 157.52 72.5523C157.412 72.6544 157.351 72.7711 157.351 72.917C157.351 73.1651 157.597 73.3839 158.088 73.6028C158.978 73.9821 159.654 74.3907 160.129 74.843C160.528 75.2223 160.728 75.6892 160.728 76.229C160.728 76.9294 160.406 77.4984 159.761 77.9653C159.208 78.3738 158.533 78.5781 157.735 78.5781C157.535 78.5781 157.152 78.5489 156.614 78.476C156.108 78.4176 155.816 78.3884 155.755 78.3884C155.693 78.3884 155.601 78.403 155.524 78.4176C155.371 78.4322 155.263 78.4468 155.187 78.4468C154.941 78.4468 154.742 78.3884 154.603 78.2717C154.389 78.082 154.189 77.7902 154.005 77.3963C153.821 77.0023 153.729 76.6522 153.729 76.3749C153.729 75.9226 153.913 75.6892 154.296 75.6892C154.45 75.6892 154.573 75.733 154.696 75.8205C154.818 75.9081 155.079 76.1561 155.478 76.5646C155.693 76.7835 155.877 76.9294 156.016 77.0169C156.154 77.1045 156.307 77.1336 156.476 77.1336C156.645 77.1336 156.783 77.0899 156.891 77.0023C156.998 76.9148 157.044 76.7981 157.044 76.6522C157.044 76.4333 156.845 76.229 156.43 76.0394C155.586 75.6454 154.972 75.2369 154.603 74.8138C154.235 74.3907 154.036 73.9092 154.036 73.3547C154.036 72.7565 154.22 72.2459 154.603 71.8228C155.156 71.2391 155.908 70.9182 156.86 70.9182Z" fill="#EDEDED"/>
<path d="M168.894 74.6094L167.85 77.3232C167.589 77.9943 167.328 78.5488 167.067 78.9719C166.807 79.395 166.515 79.7598 166.177 80.0662C165.502 80.679 164.673 80.9999 163.706 80.9999C162.923 80.9999 162.294 80.8103 161.818 80.4163C161.449 80.1099 161.265 79.7306 161.265 79.2783C161.265 78.8989 161.388 78.5779 161.649 78.3153C161.91 78.0527 162.232 77.9214 162.601 77.9214C162.984 77.9214 163.276 78.0381 163.522 78.2861C163.629 78.4029 163.706 78.4904 163.737 78.5779C163.767 78.6655 163.829 78.8552 163.905 79.1324C163.967 79.3512 164.09 79.468 164.305 79.468C164.473 79.468 164.596 79.395 164.719 79.2637C164.842 79.1324 164.888 78.9573 164.888 78.7676C164.888 78.5342 164.75 78.1402 164.473 77.5858L162.57 73.7485C162.37 73.3546 162.217 73.1066 162.125 73.0044C162.017 72.9023 161.802 72.7856 161.465 72.6397C161.357 72.5959 161.265 72.523 161.189 72.4062C161.112 72.2895 161.081 72.1728 161.081 72.0707C161.081 71.6329 161.542 71.3265 162.478 71.1661C163.092 71.0639 163.798 71.0056 164.596 71.0056C165.149 71.0056 165.594 71.0639 165.916 71.1661C166.346 71.312 166.561 71.56 166.561 71.9102C166.561 72.0415 166.5 72.1874 166.377 72.3479C166.254 72.5084 166.208 72.6543 166.208 72.771C166.208 72.8877 166.239 73.019 166.285 73.1503C166.346 73.2817 166.453 73.5005 166.638 73.8069C166.837 74.1571 167.006 74.3322 167.16 74.3322C167.328 74.3322 167.497 74.1717 167.666 73.8653C167.835 73.5589 167.927 73.2671 167.927 72.9753C167.927 72.7418 167.866 72.5521 167.728 72.4208C167.528 72.202 167.421 71.9977 167.421 71.8372C167.421 71.5892 167.605 71.3849 167.958 71.2244C168.311 71.0785 168.787 70.991 169.385 70.991C170.506 70.991 171.058 71.239 171.058 71.7497C171.058 71.9393 170.997 72.0852 170.89 72.202C170.782 72.3187 170.567 72.4208 170.276 72.523C170.03 72.6105 169.83 72.7564 169.677 72.9753C169.462 73.2817 169.201 73.8361 168.894 74.6094Z" fill="#EDEDED"/>
<path d="M177.89 68C178.473 68 179.072 68.0438 179.686 68.1459C180.177 68.2189 180.545 68.3356 180.76 68.4815C180.975 68.6274 181.083 68.8171 181.083 69.0651C181.083 69.2256 181.037 69.3423 180.96 69.4299C180.883 69.5174 180.714 69.6195 180.453 69.7508C180.146 69.8967 179.977 70.0718 179.931 70.2761C179.885 70.4804 179.839 71.2682 179.809 72.6251C179.793 73.9529 179.778 74.7407 179.762 75.0034C179.747 75.266 179.716 75.5286 179.67 75.7767C179.517 76.5062 179.21 77.0752 178.749 77.4983C178.366 77.8339 177.89 78.1111 177.291 78.3008C176.693 78.4905 176.079 78.5926 175.419 78.5926C174.835 78.5926 174.252 78.5196 173.669 78.3737C173.085 78.2278 172.579 78.0236 172.149 77.7755C171.796 77.5713 171.504 77.2795 171.305 76.9293C171.09 76.5791 170.982 76.1852 170.982 75.7912C170.982 75.2952 171.151 74.8721 171.474 74.5511C171.811 74.2301 172.226 74.055 172.717 74.055C173.208 74.055 173.623 74.1863 173.96 74.4635C174.298 74.7407 174.467 75.0909 174.467 75.4994C174.467 75.6016 174.436 75.7767 174.375 76.0247C174.359 76.0685 174.359 76.1268 174.359 76.1852C174.359 76.3457 174.421 76.477 174.544 76.5791C174.666 76.6813 174.82 76.725 175.019 76.725C175.372 76.725 175.649 76.5791 175.864 76.2727C176.079 75.9663 176.186 75.5724 176.186 75.0909L176.171 74.4052L176.155 72.5668C176.109 71.4579 176.079 70.8013 176.048 70.5971C176.017 70.3928 175.971 70.2323 175.864 70.1156C175.787 70.0135 175.71 69.9551 175.649 69.9259C175.587 69.8967 175.419 69.853 175.158 69.78C175.035 69.7508 174.927 69.6925 174.835 69.5758C174.743 69.459 174.697 69.3423 174.697 69.211C174.697 68.9484 174.805 68.7295 175.035 68.569C175.265 68.4085 175.618 68.2772 176.125 68.1751C176.708 68.0584 177.291 68 177.89 68Z" fill="#EDEDED"/>
<path d="M188.773 75.0326H185.074C184.905 75.0326 184.828 75.1055 184.828 75.2368C184.828 75.5578 185.012 75.8642 185.381 76.156C185.749 76.4478 186.148 76.5937 186.578 76.5937C186.823 76.5937 187.115 76.55 187.422 76.4624C187.729 76.3749 187.99 76.2582 188.19 76.1268C188.374 76.0101 188.512 75.9518 188.619 75.9518C188.758 75.9518 188.896 76.0247 189.018 76.1852C189.157 76.3457 189.218 76.5062 189.218 76.6813C189.218 77.046 188.988 77.3816 188.512 77.7172C187.683 78.3154 186.716 78.6072 185.626 78.6072C184.521 78.6072 183.6 78.3008 182.848 77.688C182.479 77.3816 182.188 77.0314 181.958 76.6083C181.651 76.0393 181.497 75.4557 181.497 74.8283C181.497 73.9966 181.758 73.238 182.295 72.5668C182.756 71.9832 183.339 71.5601 184.06 71.2683C184.598 71.0494 185.181 70.9473 185.795 70.9473C186.793 70.9473 187.637 71.2099 188.343 71.7497C188.696 72.0124 188.972 72.3333 189.187 72.7127C189.433 73.1358 189.556 73.5443 189.556 73.9383C189.556 74.2593 189.479 74.5219 189.341 74.7408C189.187 74.9304 189.003 75.0326 188.773 75.0326ZM185.273 73.6319H186.071C186.409 73.6319 186.578 73.486 186.578 73.1942C186.578 72.9316 186.501 72.6981 186.332 72.5376C186.163 72.3625 185.964 72.2896 185.688 72.2896C185.396 72.2896 185.166 72.4063 184.997 72.6252C184.843 72.8294 184.767 73.0337 184.767 73.2525C184.767 73.3984 184.797 73.5006 184.874 73.5735C184.951 73.6027 185.089 73.6319 185.273 73.6319Z" fill="#EDEDED"/>
<path d="M194.621 72.8877V75.4119C194.621 75.7183 194.698 75.9517 194.851 76.1414C195.005 76.3311 195.204 76.4332 195.45 76.4332C195.649 76.4332 195.926 76.3456 196.263 76.1706C196.34 76.1268 196.417 76.0976 196.493 76.0976C196.616 76.0976 196.739 76.1706 196.847 76.3165C196.954 76.4624 197 76.6229 197 76.7834C197 77.0897 196.816 77.3961 196.463 77.6734C195.711 78.2716 194.82 78.578 193.746 78.578C192.902 78.578 192.226 78.3591 191.72 77.9068C191.213 77.4545 190.952 76.8563 190.952 76.1268V72.6689C190.952 72.5522 190.937 72.4792 190.906 72.45C190.875 72.4208 190.799 72.4062 190.676 72.4062H189.893C189.74 72.4062 189.647 72.3771 189.601 72.3333C189.555 72.2895 189.54 72.1728 189.54 71.9977V71.6621C189.54 71.5162 189.601 71.3995 189.724 71.3266L193.331 69.1672C193.424 69.1234 193.531 69.0942 193.669 69.0942H194.314C194.452 69.0942 194.529 69.1234 194.575 69.1818C194.621 69.2401 194.636 69.3569 194.636 69.5174V70.5241C194.636 70.67 194.667 70.7721 194.713 70.8159C194.759 70.8597 194.866 70.8889 195.035 70.8889H196.493C196.693 70.8889 196.816 70.918 196.877 70.991C196.939 71.0639 196.969 71.1952 196.969 71.4287V71.8664C196.969 72.0999 196.939 72.2749 196.862 72.3625C196.785 72.45 196.647 72.4938 196.463 72.4938H195.035C194.882 72.4938 194.79 72.523 194.744 72.5667C194.652 72.6543 194.621 72.7418 194.621 72.8877Z" fill="#EDEDED"/>
</g>
<path d="M164.411 11.8386C164.377 10.9002 164.393 9.95926 164.403 9.02082C169.805 9.03678 175.207 9.0245 180.609 9.02696C180.61 9.96171 180.61 10.8952 180.609 11.8288C175.209 11.8349 169.809 11.8165 164.411 11.8386ZM171.734 0H173.083C173.094 0.458165 173.092 0.915102 173.09 1.37327C173.541 1.37204 173.993 1.3745 174.444 1.37081C174.448 1.82038 174.448 2.26994 174.434 2.71951C173.987 2.71951 173.538 2.72197 173.091 2.71951C173.091 3.16171 173.09 3.60513 173.094 4.04856C172.649 4.07681 172.204 4.07067 171.759 4.06698C171.757 3.61742 171.757 3.16662 171.755 2.71583C171.302 2.72197 170.852 2.71951 170.401 2.72074C170.393 2.2724 170.395 1.82283 170.393 1.3745C170.848 1.37327 171.302 1.37204 171.756 1.3745C171.746 0.91633 171.786 0.455708 171.734 0ZM182.949 6.09212C182.949 6.40062 182.888 6.7061 182.77 6.99111C182.652 7.27612 182.479 7.5351 182.261 7.75324C182.042 7.97138 181.783 8.14442 181.498 8.26247C181.213 8.38053 180.908 8.44129 180.599 8.44129C179.976 8.44129 179.378 8.19379 178.938 7.75324C178.497 7.31268 178.249 6.71516 178.249 6.09212C178.249 5.46908 178.497 4.87156 178.938 4.43101C179.378 3.99045 179.976 3.74295 180.599 3.74295C181.222 3.74295 181.82 3.99045 182.261 4.43101C182.701 4.87156 182.949 5.46908 182.949 6.09212ZM177.549 6.09212C177.549 6.40062 177.488 6.7061 177.37 6.99111C177.252 7.27612 177.079 7.5351 176.861 7.75324C176.643 7.97138 176.384 8.14442 176.099 8.26247C175.814 8.38053 175.508 8.44129 175.2 8.44129C174.576 8.44129 173.979 8.19379 173.538 7.75324C173.097 7.31268 172.85 6.71516 172.85 6.09212C172.85 5.46908 173.097 4.87156 173.538 4.43101C173.979 3.99045 174.576 3.74295 175.2 3.74295C175.823 3.74295 176.42 3.99045 176.861 4.43101C177.302 4.87156 177.549 5.46908 177.549 6.09212ZM172.15 6.09216C172.15 6.7152 171.902 7.31272 171.461 7.75328C171.021 8.19383 170.423 8.44133 169.8 8.44133C169.177 8.44133 168.579 8.19383 168.139 7.75328C167.698 7.31272 167.45 6.7152 167.45 6.09216C167.45 5.46912 167.698 4.8716 168.139 4.43105C168.579 3.99049 169.177 3.74299 169.8 3.74299C170.423 3.74299 171.021 3.99049 171.461 4.43105C171.902 4.8716 172.15 5.46912 172.15 6.09216ZM166.75 6.09216C166.75 6.7152 166.503 7.31272 166.062 7.75328C165.621 8.19383 165.024 8.44133 164.4 8.44133C163.777 8.44133 163.18 8.19383 162.739 7.75328C162.298 7.31272 162.051 6.7152 162.051 6.09216C162.051 5.46912 162.298 4.8716 162.739 4.43105C163.18 3.99049 163.777 3.74299 164.4 3.74299C165.024 3.74299 165.621 3.99049 166.062 4.43105C166.503 4.8716 166.75 5.46912 166.75 6.09216Z" fill="white"/>
<path d="M176.386 14.2178C178.632 14.2105 180.878 14.2326 183.123 14.2068C183.832 16.134 184.453 18.0944 185.122 20.0364C185.178 19.9492 185.256 19.8755 185.285 19.7736C185.925 17.92 186.579 16.0714 187.226 14.2191C189.484 14.2166 191.742 14.2154 194 14.2203V24.9878C192.618 25.005 191.234 24.9939 189.852 24.9939C189.85 22.5152 189.865 20.0352 189.845 17.5552C189.652 17.6633 189.632 17.9077 189.55 18.0907C188.748 20.3939 187.925 22.6896 187.122 24.9927C185.823 24.9927 184.522 25.0099 183.223 24.9841C182.408 22.6294 181.566 20.2858 180.744 17.9348C180.714 17.8033 180.641 17.7075 180.525 17.6461C180.521 20.0954 180.526 22.5459 180.524 24.9964C179.144 24.9964 177.764 24.9964 176.385 24.9952C176.387 21.4035 176.384 17.8107 176.386 14.2178ZM151 14.2178C152.364 14.2178 153.727 14.2166 155.092 14.2191C155.095 15.5236 155.09 16.8293 155.094 18.135C156.446 16.8403 157.768 15.515 159.121 14.2203C160.496 14.2166 161.87 14.2166 163.245 14.2203C161.66 15.8306 160.032 17.3992 158.46 19.0206C160.442 20.9417 162.356 22.934 164.355 24.8342C164.372 21.2967 164.357 17.7579 164.362 14.2191C165.756 14.2166 167.151 14.2166 168.545 14.2191C168.545 16.903 168.543 19.5868 168.545 22.2707C170.773 22.2646 172.999 22.2781 175.225 22.2634C175.256 23.1736 175.23 24.085 175.24 24.9952C169.827 24.9952 164.412 25.0001 158.999 24.9927C157.719 23.6968 156.422 22.4181 155.135 21.1284C155.117 22.4194 155.138 23.7091 155.124 25.0001C153.75 24.9902 152.375 25.0013 151 24.9939V14.2178Z" fill="white"/>
<path d="M123.519 8L118.084 15.9004C117.369 16.9391 116.208 17.9409 114.806 18.0473V18.2901H120.851C122.455 18.2901 123.626 17.2405 124.418 16.0846L130 8H123.519H123.519Z" fill="#EDEDED"/>
<path d="M23.4257 18.2899V8.86777H26.162V18.2899H23.4257ZM86.5336 18.2899L79.9586 12.695V18.2899H77.648V8.86777H79.6108L86.0982 14.3747V8.86777H88.4088V18.2899H86.5336ZM100.832 11.9074C99.596 11.2956 98.2031 10.8005 96.3568 10.8005C94.1518 10.8005 92.5077 11.9462 92.5077 13.5393C92.5077 15.1713 94.1814 16.3279 96.3368 16.3279C98.1168 16.3279 99.5271 15.871 100.919 15.0642V17.3959C99.6913 18.0076 98.0582 18.4639 96.2209 18.4639C92.4697 18.4639 89.5197 16.5413 89.5197 13.5393C89.5197 10.5864 92.5271 8.69189 96.2106 8.69189C97.9513 8.69189 99.5271 9.02198 100.832 9.55726V11.9074ZM41.3901 18.2899V8.86777H50.5365V10.8878H44.1264V13.229H50.3923V15.2497H44.1264V18.2905H41.3901V18.2899ZM102.487 18.2899V8.86777H111.981V10.8878H105.222V12.5204H111.875V14.5404H105.222V16.2699H111.952V18.2899H102.487ZM60.041 14.7539L63.8211 18.2905H60.9013C60.2535 18.2905 59.8285 18.0866 59.4897 17.7553L56.9177 15.249C56.8877 15.2224 56.8527 15.2018 56.8147 15.1886C56.7767 15.1754 56.7364 15.1697 56.6962 15.1719H54.9458V18.2899H52.2096V8.86777H58.1367C61.2111 8.86777 62.5068 10.2569 62.5068 11.7914C62.5068 13.5788 60.9207 14.4321 60.041 14.7539ZM57.8566 13.1997C58.9385 13.1997 59.4608 12.6466 59.4608 12.0246C59.4608 11.4027 58.9971 10.8878 57.8566 10.8878H54.9458V13.1997H57.8566ZM36.5551 14.7545L40.3353 18.2899H37.4161C36.7683 18.2899 36.3426 18.086 36.0045 17.7553L33.4325 15.249C33.4024 15.2223 33.3673 15.2018 33.3292 15.1885C33.2911 15.1753 33.2507 15.1697 33.2103 15.1719H31.4606V18.2899H28.7237V8.86777H34.6509C37.7252 8.86777 39.0216 10.2569 39.0216 11.7914C39.0216 13.5788 37.4355 14.4327 36.5551 14.7545ZM34.3708 13.1997C35.4539 13.1997 35.9762 12.6466 35.9762 12.0246C35.9762 11.4027 35.5119 10.8878 34.3708 10.8878H31.4606V13.1997H34.3708ZM19.142 18.2899L17.9436 16.2208H12.7035L11.6107 18.2899H9L14.2214 8.87733H16.6002L22.5177 18.2899H19.142ZM13.7474 14.2581H16.8031L15.217 11.3829L13.7474 14.2581ZM73.7802 18.2899L72.6101 16.2208H67.5066L66.4524 18.2899H63.9087L68.9942 8.87733H71.3048L77.0581 18.2899H73.7802ZM68.5305 14.2581H71.5083L69.9615 11.3829L68.5305 14.2581Z" fill="white"/>
<path d="M33.5488 35.1223L34.3218 34.3396L35.0272 35.0546L35.0948 35.1126L34.3218 35.8953L33.5488 35.1223Z" fill="#F7F7F7"/>
<path d="M35.1045 35.1223L35.8775 34.3396L36.5829 35.0546L36.6505 35.1223L35.8775 35.8953L35.1045 35.1223Z" fill="#F7F7F7"/>
<path d="M34.0509 42.8427C33.8384 42.8427 33.6934 42.7654 33.6838 42.7557C33.3842 42.6398 33.22 42.3113 33.22 41.8474C33.22 41.7701 33.22 41.7218 33.2296 41.6928V41.5672H26.6591V35.6537C26.6591 35.4025 26.4948 35.3349 26.3595 35.2576C26.2436 35.1996 26.1276 35.132 26.0986 34.9677C26.0986 34.9387 26.0986 34.929 26.0986 34.9097V34.8711C27.0069 34.2043 27.664 33.3347 27.664 33.3347V40.5623H33.2393V40.2821C33.2296 40.0309 33.2103 39.5188 31.9928 39.5091C31.9928 39.5091 31.4227 39.5188 30.8526 39.5188C30.5338 39.5188 30.2149 39.5188 30.0023 39.5091C29.6545 39.4801 29.4612 39.0936 29.4515 38.7458C29.4515 38.5042 29.5482 38.3109 29.7028 38.2047L29.7897 38.1467L29.838 38.2336C29.9443 38.4462 30.4081 38.5428 31.2778 38.5428H31.3647C31.7126 38.5428 32.1088 38.5332 32.5629 38.5235C32.5822 38.5235 32.6112 38.5235 32.6402 38.5235C34.1186 38.5235 34.2828 39.8086 34.2925 40.3594V40.456C34.2925 40.5044 34.2925 40.543 34.2925 40.572H35.7515V38.3882C35.7515 38.3882 35.7709 38.224 35.4713 38.0597C35.2684 37.9438 35.2201 37.7119 35.2201 37.7119C36.3989 36.8616 36.7275 36.1272 36.7275 36.1272V41.5672H34.2732V41.6445C34.2732 41.9731 34.3311 42.3982 34.5244 42.5432L34.6307 42.6301L34.5147 42.6978C34.3698 42.7944 34.2055 42.8427 34.0509 42.8427Z" fill="#F7F7F7"/>
<path d="M22.301 42.3884V41.5671H18.9287V40.5525H23.2189V41.886C23.2189 41.886 23.1706 42.3015 23.9822 42.3015C24.4944 42.3015 24.4944 41.8087 24.4944 41.7893V39.4123C24.4944 39.0838 24.2721 39.0355 24.1175 39.0355C24.0885 39.0355 24.0692 39.0355 24.0692 39.0355H18.9384V36.0691C18.9384 36.0691 19.5375 36.8131 20.1365 37.161C20.2332 37.2189 20.1848 37.3832 19.8853 37.5765C19.8273 37.6151 19.75 37.6441 19.75 37.7311V38.0982H24.8809C25.4799 38.1079 25.5379 38.736 25.5379 38.9292C25.5379 38.9582 25.5379 42.3304 25.5379 42.3304C25.5379 42.3401 25.4896 43.2484 24.0209 43.2484C22.1947 43.258 22.301 42.3884 22.301 42.3884Z" fill="#F7F7F7"/>
<path d="M42.6797 41.5671V33.2959L42.8536 33.5761C42.8536 33.5761 42.9792 33.7887 43.5107 34.2428C43.8199 34.5134 43.9938 34.6197 44.0808 34.6583C44.1677 34.697 44.245 34.726 44.245 34.8226V34.9095C44.2257 35.0835 44.1001 35.1511 43.9841 35.2091C43.8489 35.2864 43.7136 35.354 43.7039 35.6053C43.6846 35.7985 43.7039 41.5671 43.7039 41.5671H42.6797Z" fill="#F7F7F7"/>
<path d="M37.8482 42.6398L38.8821 41.5962L37.626 40.3594V33.296C37.626 33.296 38.1767 34.3396 38.9111 34.8614V34.9387C38.8918 35.1029 38.7951 35.1706 38.7082 35.2286C38.5922 35.3059 38.4859 35.3735 38.4763 35.6344C38.4666 35.818 38.4763 39.7603 38.4763 39.8279L39.5198 40.9101L40.5634 39.8279C40.5634 39.8279 40.5731 35.8276 40.5634 35.6344C40.5537 35.3735 40.4474 35.3059 40.3315 35.2286C40.2349 35.1706 40.1382 35.1029 40.1286 34.9387V34.8807C40.9499 34.3493 41.4137 33.2864 41.4137 33.2864V40.2531L40.1576 41.5769L41.2011 42.6204L39.5295 44.3017L37.8482 42.6398ZM39.5295 43.3355L40.2252 42.6301L39.5295 41.9344L38.8241 42.6301L39.5295 43.3355Z" fill="#F7F7F7"/>
<path d="M35.2012 52.138L36.9694 50.2345V46.4758C36.9694 46.4468 37.0081 46.4178 37.0081 46.4178L37.269 46.2922V46.0796H34.892V46.2922L35.1335 46.4468C35.2012 46.4854 35.2108 46.5144 35.2108 46.5434V48.6981H30.4568L29.3843 50.0606V46.5531L29.394 46.4854C29.394 46.4854 29.4133 46.4661 29.4519 46.4468L29.6742 46.3018L29.6935 46.2922V46.0796H27.3262V46.2922L27.5581 46.4468C27.5967 46.4661 27.6064 46.4854 27.616 46.4854V52.94L27.6064 53.027C27.5967 53.0463 27.5774 53.056 27.5581 53.0656L27.3262 53.2202V53.4328H29.6935V53.2202L29.4423 53.0656C29.4036 53.0463 29.3843 53.0366 29.3843 53.0366V50.0799L29.6355 50.1572L29.9641 49.9639C30.022 49.9253 30.08 49.906 30.109 49.8963C30.1283 49.8866 30.167 49.877 30.2443 49.877H35.2012V52.138Z" fill="#F7F7F7"/>
<path d="M60.4493 48.9493C60.169 48.07 59.5313 47.3453 58.5554 46.8042C57.6761 46.3114 56.42 46.0698 54.729 46.0698H48.2744V46.2824C48.2744 46.2824 48.545 46.466 48.5546 46.466V47.2293H54.7194C55.9658 47.2293 56.8741 47.3936 57.4345 47.7221C58.3138 48.2342 58.7486 48.901 58.7486 49.7609C58.7486 50.1957 58.6327 50.5822 58.4105 50.9301C58.1882 51.278 57.8404 51.5678 57.3862 51.8094C56.7871 52.1186 55.8789 52.2732 54.6807 52.2732H51.4631V47.7608H49.7045V52.9399L49.6948 53.0172C49.6851 53.0269 49.6658 53.0462 49.6465 53.0655L49.4339 53.2008L49.4146 53.2105V53.423H54.6904C55.7049 53.423 56.4973 53.3651 57.0577 53.2491C57.821 53.0849 58.5071 52.8143 59.0772 52.4181C59.6666 52.022 60.0821 51.5678 60.3236 51.0654C60.5072 50.6982 60.5942 50.2827 60.5942 49.8479C60.5749 49.5387 60.5362 49.2391 60.4493 48.9493Z" fill="#F7F7F7"/>
<path d="M37.2593 53.1429C37.211 53.1332 37.182 53.1235 37.1627 53.1139L41.5881 48.5145L40.5639 47.4226L34.834 53.4134H37.4719V53.1622H37.3752C37.3366 53.1525 37.2979 53.1525 37.2593 53.1429Z" fill="#F7F7F7"/>
<path d="M41.0369 47.1327L42.1674 48.3309L43.3366 49.5097H41.3654L40.2832 50.6402L40.5151 50.8045L40.7663 50.6692C40.7953 50.6595 40.8146 50.6499 40.834 50.6499C40.8533 50.6499 40.9209 50.6499 41.0176 50.6499H44.3995L46.7281 53.1428C46.7281 53.1428 46.6895 53.1815 46.4866 53.1815H46.3996V53.4327H49.0375L42.0515 46.0698L41.0369 47.1327Z" fill="#F7F7F7"/>
<path d="M24.1083 46.2921L24.3402 46.4467C24.3982 46.4853 24.4272 46.5143 24.4272 46.5433V52.9206L24.4078 53.0076C24.3885 53.0269 24.3595 53.0462 24.3402 53.0559L24.0986 53.2105V53.423H26.4563V53.2105L26.2437 53.0559C26.2147 53.0365 26.1954 53.0172 26.1954 53.0172C26.1858 53.0172 26.1857 53.0172 26.1857 53.0172V46.5433L26.1954 46.4757L26.2534 46.4273L26.466 46.2824V46.0698H24.1083V46.2921Z" fill="#F7F7F7"/>
<path d="M14.2331 52.0123L13.9239 52.1862C13.837 52.2345 13.7983 52.2539 13.7887 52.2539L8.52256 52.2635C7.31473 52.2635 6.40645 52.1089 5.79771 51.7997C4.88943 51.3263 4.44495 50.6595 4.44495 49.7416C4.44495 49.3358 4.5609 48.9396 4.7928 48.5821C5.24694 47.9154 5.904 47.4612 6.84127 47.2873C7.0925 47.239 7.33406 47.2293 7.48866 47.2293H10.2038C10.3681 47.2197 10.3391 47.2583 10.3488 47.2776L10.3198 47.4709H10.542L11.7015 46.0698H8.46458C7.7109 46.0698 7.13115 46.0988 6.72532 46.1471C6.51274 46.1761 6.30983 46.2148 6.10691 46.2534C5.57547 46.379 5.06335 46.5723 4.57056 46.8525C3.76857 47.3163 3.20814 47.8864 2.87961 48.5628C2.69602 48.9493 2.5994 49.3841 2.60906 49.8479C2.60906 51.0364 3.24679 51.9833 4.50292 52.6597C5.07302 52.9689 5.71075 53.1911 6.40645 53.2974C6.92823 53.3844 7.6336 53.423 8.52256 53.423H13.4215L14.5907 52.0026H14.494L14.2331 52.0123Z" fill="#F7F7F7"/>
<path d="M11.8946 50.2443L13.0348 48.8142H5.35308L4.58008 49.9641H11.5081C11.6338 49.9737 11.6821 50.0124 11.6917 50.0317L11.6627 50.2346H11.8946V50.2443Z" fill="#F7F7F7"/>
<path d="M11.4209 47.4227L11.6431 47.5L11.6721 47.5096L12.0103 47.3453C12.1069 47.2874 12.1939 47.2584 12.2905 47.2584H16.5227V52.9496L16.5034 53.0269C16.4841 53.0463 16.4648 53.0656 16.4551 53.0656L16.2135 53.2299V53.4424H18.5809V53.2299L18.3393 53.0753L18.2813 53.0173C18.2813 53.0076 18.2813 52.9786 18.2813 52.9593V47.2584H22.0497C22.1947 47.2777 22.214 47.3067 22.214 47.3164V47.5193H22.4266L23.5957 46.0989H12.4934L11.4209 47.4227Z" fill="#F7F7F7"/>
<path d="M13.2959 61.5205L15.0835 57.0081H15.6632L17.4315 61.5205H16.5135L16.156 60.5832H14.9868L14.7356 59.9455H15.9145L15.4507 58.699L15.325 58.3125L15.1994 58.699L14.1365 61.5205H13.2959Z" fill="#F7F7F7"/>
<path d="M20.5326 57.0081H19.6533V61.5205H20.5326V57.0081Z" fill="#F7F7F7"/>
<path d="M25.6158 61.5205L24.5819 60.0421H24.0795V61.5205H23.2002V57.0081H24.6496C25.181 57.0081 25.5869 57.124 25.8671 57.3656C26.1473 57.6071 26.2826 57.9647 26.2826 58.4381C26.2826 58.786 26.2053 59.0952 26.041 59.3464C25.8864 59.6073 25.6545 59.7909 25.3646 59.9068L26.5918 61.5012H25.6158V61.5205ZM24.0892 59.4237H24.6592C25.152 59.4237 25.4033 59.1242 25.4033 58.5347C25.4033 58.2642 25.3453 58.0613 25.2293 57.9163C25.1134 57.7714 24.9201 57.7038 24.6496 57.7038H24.0892V59.4237Z" fill="#F7F7F7"/>
<path d="M29.6743 61.5205L28.3408 57.0081H29.2491L30.0801 60.2257H30.1187L30.9207 57.7327L30.6888 57.0081H31.5488L32.5924 60.2257H32.6117L33.4523 57.0081H34.3123L32.9499 61.5205H32.2059L31.2976 58.728L30.3893 61.5205H29.6743Z" fill="#F7F7F7"/>
<path d="M35.7607 61.5205L37.5483 57.0081H38.1281L39.8963 61.5205H38.988L38.6305 60.5832H37.4517L37.2005 59.9455H38.389L37.9155 58.699L37.7899 58.3125L37.6643 58.699L36.6014 61.5205H35.7607Z" fill="#F7F7F7"/>
<path d="M42.6405 61.5205V59.6749L41.1621 57.0081H42.138L43.114 58.9116L44.1285 57.0081H44.9885L43.5101 59.6749V61.5205H42.6405Z" fill="#F7F7F7"/>
<path d="M48.1199 61.6266C47.6465 61.6266 47.26 61.53 46.9701 61.3271V60.4091C47.3179 60.7183 47.7044 60.8729 48.1393 60.8729C48.6804 60.8729 48.9509 60.6604 48.9509 60.2449C48.9509 60.0806 48.8929 59.955 48.7866 59.868C48.6804 59.7811 48.4871 59.7038 48.2166 59.6361L48.0523 59.5975C47.2889 59.4139 46.9121 58.9791 46.9121 58.3027C46.9121 57.8582 47.0474 57.52 47.3276 57.2688C47.6078 57.0272 48.004 56.9016 48.5161 56.9016C49.0089 56.9016 49.3954 56.9982 49.6659 57.1915V58.1094C49.5403 57.9935 49.3761 57.8872 49.1635 57.8002C48.9509 57.7036 48.719 57.665 48.4774 57.665C48.2166 57.665 48.033 57.7133 47.917 57.8002C47.8011 57.8872 47.7431 58.0225 47.7431 58.2157C47.7431 58.38 47.7914 58.5153 47.888 58.5926C47.9847 58.6795 48.1682 58.7568 48.4388 58.8245L48.6031 58.8631C49.0089 58.9597 49.3084 59.1047 49.5017 59.3076C49.6949 59.5008 49.7819 59.7811 49.7819 60.1386C49.7819 60.6024 49.637 60.9599 49.3567 61.2304C49.0959 61.4913 48.6804 61.6266 48.1199 61.6266Z" fill="#F7F7F7"/>
<defs>
<clipPath id="clip0_2111_7739">
<rect width="61" height="13" fill="white" transform="translate(136 68)"/>
</clipPath>
</defs>
</svg>
