<svg width="194" height="81" viewBox="0 0 194 81" fill="none" xmlns="http://www.w3.org/2000/svg">
<path d="M108.711 46C108.711 42.6578 104.651 39.9991 99.5215 39.9991C94.3916 39.9991 90.3328 42.6581 90.3328 46.0008C90.3328 49.3427 94.3933 51.9991 99.522 51.9991C104.652 51.9998 108.71 49.3427 108.71 46.0008L108.712 46H108.711Z" fill="#F7F7F7"/>
<path d="M103.584 46.8669H103.067C102.55 46.8669 102.33 47.0466 102.255 47.395C102.125 48.0328 101.351 48.4646 100.335 48.4646C99.1553 48.4646 98.3997 47.9001 98.3997 47.0815V45.1588C98.3997 45.0817 98.3824 45.0141 98.3536 44.9536C98.4643 44.9863 98.597 45.0032 98.7492 45.0032H101.461C101.979 45.0032 102.273 44.8104 102.273 44.4744V44.3184C102.273 43.9813 101.979 43.7892 101.461 43.7892H99.9316V42.7057C99.9316 42.3697 99.6352 42.1769 99.1195 42.1769H98.7492C98.2336 42.1769 97.9383 42.3701 97.9383 42.7057V44.474C97.9383 44.5499 97.9533 44.6179 97.9844 44.6788C97.8725 44.6465 97.7399 44.63 97.5876 44.63H94.8756C94.3594 44.63 94.0635 44.8224 94.0635 45.1588V45.3155C94.0635 45.6522 94.3594 45.8447 94.8756 45.8447H96.4075V47.0812C96.4075 48.6322 97.9389 49.7146 100.338 49.7146C102.571 49.7146 104.046 48.7882 104.323 47.3942C104.396 47.0455 104.045 46.8666 103.583 46.8666L103.584 46.8669Z" fill="#69707B"/>
<path d="M121.314 49.1799H123.472V46.1244C123.472 45.0194 124.397 44.6342 125.502 44.6342C126.144 44.6342 126.62 44.759 127.057 45.0018L128.034 43.8803C127.443 43.5281 126.658 43.3541 125.888 43.3541C124.859 43.3541 123.858 43.6623 123.344 44.2655L123.202 43.471H121.314V49.181V49.1795L121.314 49.1799ZM182.179 42.1143C182.179 41.57 181.537 41.2931 180.892 41.2931C180.264 41.2931 179.622 41.5682 179.622 42.1139C179.622 42.6664 180.264 42.9339 180.892 42.9339C181.534 42.9339 182.179 42.666 182.179 42.1135V42.1143ZM117.37 41.8298L115.21 41.9801V43.4703H113.593V44.6842H115.21V47.2369C115.21 48.6094 116.419 49.2464 118.23 49.2464C119.002 49.2464 119.657 49.1288 120.119 48.9608L119.541 47.822C119.233 47.9145 118.848 47.9825 118.487 47.9825C117.767 47.9825 117.369 47.7142 117.369 47.1707V44.685H119.784V43.471H117.369L117.37 41.8301L117.37 41.8298ZM137.44 43.4706H135.5L135.357 44.2663C134.869 43.7386 133.905 43.3538 132.402 43.3538C129.999 43.3538 127.918 44.3317 127.918 46.3251C127.918 48.3185 129.999 49.2964 132.402 49.2964C133.905 49.2964 134.869 48.9131 135.359 48.385L135.5 49.181H137.438V43.471H137.44V43.4706ZM179.814 43.4706V49.1795H181.973V43.471H179.814V43.4706ZM132.698 48.075C131.222 48.075 130.116 47.4312 130.116 46.3258C130.116 45.2201 131.221 44.5756 132.698 44.5756C134.177 44.5756 135.282 45.219 135.282 46.3255C135.282 47.4304 134.178 48.0742 132.698 48.0742V48.075ZM167.956 43.471H166.015L165.872 44.2667C165.385 43.739 164.424 43.3541 162.919 43.3541C160.515 43.3541 158.435 44.332 158.435 46.3255C158.435 48.3189 160.516 49.2968 162.919 49.2968C164.421 49.2968 165.385 48.9135 165.872 48.3854L166.016 49.1814H167.956V43.471ZM163.214 48.075C161.737 48.075 160.631 47.4312 160.631 46.3258C160.631 45.2201 161.735 44.5756 163.215 44.5756C164.694 44.5756 165.799 45.219 165.799 46.3255C165.799 47.4304 164.693 48.0742 163.215 48.0742L163.214 48.075ZM192.997 43.471H191.057L190.915 44.2667C190.428 43.739 189.465 43.3541 187.962 43.3541C185.558 43.3541 183.477 44.332 183.477 46.3255C183.477 48.3189 185.559 49.2968 187.961 49.2968C189.463 49.2968 190.428 48.9135 190.915 48.3854L191.057 49.1814H192.997V43.471ZM188.256 48.075C186.781 48.075 185.673 47.4312 185.673 46.3258C185.673 45.2201 186.778 44.5756 188.257 44.5756C189.735 44.5756 190.841 45.219 190.841 46.3255C190.84 47.4304 189.734 48.0742 188.257 48.0742L188.256 48.075ZM175.023 49.1799L178.762 43.471H176.514L173.955 47.6811L171.396 43.471H169.007L172.744 49.1799H175.024H175.023ZM139.496 49.1799H141.655V46.1169C141.655 45.154 142.605 44.609 143.864 44.609C145.123 44.609 145.984 45.1529 145.984 46.1161V49.1799H148.143V45.9075C148.143 44.208 146.522 43.3549 144.454 43.3549C143.079 43.3549 142.064 43.7322 141.577 44.2674L141.436 43.4718H139.496V49.1825V49.1799ZM153.59 49.2964C156.302 49.2964 157.445 48.4944 157.445 47.4812C157.445 46.1996 155.595 45.8812 154.104 45.7561C153.244 45.6798 151.921 45.6305 151.921 45.0773C151.921 44.6665 152.666 44.4899 153.591 44.4899C154.426 44.4899 155.262 44.6327 155.943 45.0172L157.034 44.0791C156.073 43.5353 154.954 43.3507 153.694 43.3507C151.819 43.3507 149.737 43.7679 149.737 45.1408C149.737 46.4048 151.484 46.74 153.078 46.8734C153.987 46.9497 155.261 47.0069 155.261 47.5526C155.261 47.9528 154.568 48.1381 153.668 48.1381C152.652 48.1381 151.317 47.8961 150.506 47.3425L149.415 48.2805C150.519 49.0781 152.177 49.2953 153.591 49.2953V49.2972L153.59 49.2964Z" fill="#F7F7F7"/>
<g clip-path="url(#clip0_2162_250)">
<path d="M88.9426 75.0325H85.228C85.0591 75.0325 84.9824 75.1055 84.9824 75.2368C84.9824 75.5578 85.1666 75.8642 85.535 76.156C85.9034 76.4478 86.3025 76.5937 86.7323 76.5937C86.9779 76.5937 87.2695 76.5499 87.5765 76.4624C87.8835 76.3748 88.1444 76.2581 88.344 76.1268C88.5282 76.0101 88.6663 75.9517 88.7738 75.9517C88.9119 75.9517 89.0501 76.0247 89.1729 76.1852C89.311 76.3457 89.3724 76.5061 89.3724 76.6812C89.3724 77.046 89.1422 77.3816 88.6663 77.7171C87.8374 78.3153 86.8704 78.6072 85.7806 78.6072C84.6754 78.6072 83.7544 78.3008 83.0023 77.688C82.6339 77.3816 82.3422 77.0314 82.112 76.6083C81.805 76.0393 81.6515 75.4556 81.6515 74.8283C81.6515 73.9966 81.9124 73.2379 82.4497 72.5668C82.9102 71.9831 83.4935 71.56 84.2149 71.2682C84.7521 71.0494 85.3354 70.9472 85.9494 70.9472C86.9472 70.9472 87.7914 71.2099 88.4975 71.7497C88.8505 72.0123 89.1268 72.3333 89.3417 72.7127C89.5873 73.1358 89.7101 73.5443 89.7101 73.9383C89.7101 74.2592 89.6334 74.5219 89.4952 74.7407C89.3417 74.9304 89.1575 75.0325 88.9426 75.0325ZM85.4429 73.6319H86.2411C86.5788 73.6319 86.7476 73.486 86.7476 73.1941C86.7476 72.9315 86.6709 72.6981 86.502 72.5376C86.3332 72.3625 86.1336 72.2895 85.8573 72.2895C85.5657 72.2895 85.3354 72.4063 85.1666 72.6251C85.0131 72.8294 84.9363 73.0337 84.9363 73.2525C84.9363 73.3984 84.967 73.5005 85.0438 73.5735C85.1205 73.6027 85.2433 73.6319 85.4429 73.6319Z" fill="#EDEDED"/>
<path d="M94.7141 70.9181C95.6351 70.9181 96.4026 71.1369 97.0319 71.5746C97.3696 71.8081 97.5998 72.0707 97.738 72.3771C97.8761 72.6835 97.9375 73.092 97.9375 73.6173L97.9222 74.7261C97.9222 75.4994 97.9836 75.9955 98.091 76.2289C98.1524 76.3457 98.1985 76.404 98.2599 76.4332C98.3059 76.4624 98.4287 76.4916 98.5976 76.5207C98.7664 76.5499 98.8432 76.6521 98.8432 76.8417C98.8432 77.0752 98.7357 77.3378 98.5362 77.5858C98.3366 77.8485 98.0757 78.0673 97.7533 78.2424C97.3542 78.4613 96.9398 78.578 96.51 78.578C95.9574 78.578 95.5276 78.4029 95.2053 78.0381C95.0978 77.9068 94.9904 77.8485 94.8983 77.8485C94.7908 77.8485 94.6527 77.9068 94.4838 78.0381C93.9619 78.4029 93.3633 78.578 92.7033 78.578C92.0125 78.578 91.4599 78.4321 91.0301 78.1549C90.7539 77.9652 90.539 77.7317 90.3701 77.4253C90.2013 77.1335 90.1245 76.8125 90.1245 76.4916C90.1245 75.9663 90.3394 75.514 90.7846 75.1201C91.4753 74.4927 92.5037 74.1717 93.8698 74.1717C94.1768 74.1717 94.361 74.1425 94.4378 74.0842C94.5145 74.0258 94.5606 73.8945 94.5606 73.6902C94.5606 73.165 94.4992 72.771 94.3917 72.5376C94.2689 72.3041 94.0847 72.1874 93.8238 72.1874C93.6703 72.1874 93.5322 72.2312 93.4094 72.3187C93.2866 72.4063 93.1331 72.5668 92.9489 72.8148C92.4884 73.4422 91.9972 73.7632 91.4906 73.7632C91.2297 73.7632 91.0301 73.6902 90.8613 73.5443C90.6925 73.3984 90.6157 73.2087 90.6157 72.9753C90.6157 72.7419 90.7232 72.4938 90.9227 72.2604C91.1222 72.0269 91.3985 71.8081 91.7516 71.633C92.6879 71.1515 93.6703 70.9181 94.7141 70.9181ZM94.1768 75.2514C93.9466 75.2514 93.7471 75.3389 93.5782 75.514C93.4094 75.6891 93.3173 75.908 93.3173 76.156C93.3173 76.3894 93.3787 76.5937 93.5015 76.7396C93.6243 76.8855 93.7778 76.9585 93.9773 76.9585C94.3917 76.9585 94.6066 76.6229 94.6066 75.9517C94.6066 75.6745 94.5759 75.4994 94.5145 75.3973C94.4685 75.3097 94.3457 75.2514 94.1768 75.2514Z" fill="#EDEDED"/>
<path d="M102.512 70.9181C102.773 70.9181 103.203 70.9764 103.801 71.0786C103.924 71.0931 104.016 71.1077 104.093 71.1077C104.185 71.1077 104.354 71.064 104.615 70.9764C104.738 70.9327 104.845 70.9035 104.922 70.9035C105.167 70.9035 105.413 71.0494 105.659 71.3412C105.858 71.5746 106.027 71.8373 106.15 72.1145C106.273 72.3917 106.334 72.6397 106.334 72.844C106.334 73.0482 106.257 73.2087 106.119 73.3401C105.966 73.4714 105.781 73.5443 105.566 73.5443C105.382 73.5443 105.213 73.5005 105.075 73.413C104.937 73.3255 104.692 73.1358 104.385 72.8586C104.047 72.5522 103.771 72.3917 103.556 72.3917C103.402 72.3917 103.279 72.45 103.172 72.5522C103.064 72.6543 103.003 72.771 103.003 72.9169C103.003 73.165 103.249 73.3838 103.74 73.6027C104.63 73.982 105.305 74.3906 105.781 74.8429C106.18 75.2222 106.38 75.6891 106.38 76.2289C106.38 76.9293 106.058 77.4983 105.413 77.9652C104.86 78.3737 104.185 78.578 103.387 78.578C103.187 78.578 102.803 78.5488 102.266 78.4758C101.76 78.4175 101.468 78.3883 101.407 78.3883C101.345 78.3883 101.253 78.4029 101.176 78.4175C101.023 78.4321 100.915 78.4467 100.839 78.4467C100.593 78.4467 100.394 78.3883 100.255 78.2716C100.041 78.0819 99.841 77.7901 99.6568 77.3962C99.4726 77.0022 99.3805 76.6521 99.3805 76.3748C99.3805 75.9225 99.5647 75.6891 99.9484 75.6891C100.102 75.6891 100.225 75.7329 100.348 75.8204C100.47 75.908 100.731 76.156 101.13 76.5645C101.345 76.7834 101.529 76.9293 101.668 77.0168C101.806 77.1044 101.959 77.1335 102.128 77.1335C102.297 77.1335 102.435 77.0898 102.543 77.0022C102.65 76.9147 102.696 76.798 102.696 76.6521C102.696 76.4332 102.496 76.2289 102.082 76.0393C101.238 75.6453 100.624 75.2368 100.255 74.8137C99.887 74.3906 99.6875 73.9091 99.6875 73.3546C99.6875 72.7564 99.8717 72.2458 100.255 71.8227C100.808 71.239 101.56 70.9181 102.512 70.9181Z" fill="#EDEDED"/>
<path d="M114.546 74.6094L113.502 77.3232C113.241 77.9944 112.98 78.5488 112.719 78.9719C112.458 79.3951 112.167 79.7598 111.829 80.0662C111.154 80.679 110.325 81 109.358 81C108.575 81 107.946 80.8103 107.47 80.4164C107.101 80.11 106.917 79.7306 106.917 79.2783C106.917 78.899 107.04 78.578 107.301 78.3154C107.562 78.0527 107.884 77.9214 108.253 77.9214C108.636 77.9214 108.928 78.0382 109.174 78.2862C109.281 78.4029 109.358 78.4905 109.389 78.578C109.419 78.6655 109.481 78.8552 109.557 79.1324C109.619 79.3513 109.742 79.468 109.956 79.468C110.125 79.468 110.248 79.3951 110.371 79.2637C110.494 79.1324 110.54 78.9573 110.54 78.7677C110.54 78.5342 110.402 78.1403 110.125 77.5859L108.222 73.7486C108.022 73.3547 107.869 73.1066 107.777 73.0045C107.669 72.9024 107.454 72.7856 107.117 72.6397C107.009 72.596 106.917 72.523 106.84 72.4063C106.764 72.2896 106.733 72.1728 106.733 72.0707C106.733 71.633 107.194 71.3266 108.13 71.1661C108.744 71.064 109.45 71.0056 110.248 71.0056C110.801 71.0056 111.246 71.064 111.568 71.1661C111.998 71.312 112.213 71.5601 112.213 71.9102C112.213 72.0415 112.151 72.1874 112.029 72.3479C111.906 72.5084 111.86 72.6543 111.86 72.771C111.86 72.8878 111.891 73.0191 111.937 73.1504C111.998 73.2817 112.105 73.5006 112.29 73.807C112.489 74.1571 112.658 74.3322 112.812 74.3322C112.98 74.3322 113.149 74.1717 113.318 73.8653C113.487 73.5589 113.579 73.2671 113.579 72.9753C113.579 72.7419 113.518 72.5522 113.379 72.4209C113.18 72.202 113.072 71.9978 113.072 71.8373C113.072 71.5892 113.257 71.385 113.61 71.2245C113.963 71.0786 114.439 70.991 115.037 70.991C116.158 70.991 116.71 71.2391 116.71 71.7497C116.71 71.9394 116.649 72.0853 116.542 72.202C116.434 72.3187 116.219 72.4209 115.928 72.523C115.682 72.6106 115.482 72.7565 115.329 72.9753C115.114 73.2817 114.853 73.8361 114.546 74.6094Z" fill="#EDEDED"/>
<path d="M123.541 68C124.124 68 124.723 68.0438 125.337 68.1459C125.828 68.2189 126.196 68.3356 126.411 68.4815C126.626 68.6274 126.734 68.8171 126.734 69.0651C126.734 69.2256 126.688 69.3423 126.611 69.4299C126.534 69.5174 126.365 69.6195 126.104 69.7508C125.797 69.8967 125.628 70.0718 125.582 70.2761C125.536 70.4804 125.49 71.2682 125.46 72.6251C125.444 73.9529 125.429 74.7407 125.414 75.0034C125.398 75.266 125.368 75.5286 125.321 75.7766C125.168 76.5062 124.861 77.0752 124.401 77.4983C124.017 77.8339 123.541 78.1111 122.942 78.3008C122.344 78.4904 121.73 78.5926 121.07 78.5926C120.486 78.5926 119.903 78.5196 119.32 78.3737C118.736 78.2278 118.23 78.0235 117.8 77.7755C117.447 77.5712 117.155 77.2794 116.956 76.9293C116.741 76.5791 116.634 76.1852 116.634 75.7912C116.634 75.2952 116.802 74.872 117.125 74.5511C117.462 74.2301 117.877 74.055 118.368 74.055C118.859 74.055 119.274 74.1863 119.611 74.4635C119.949 74.7407 120.118 75.0909 120.118 75.4994C120.118 75.6016 120.087 75.7766 120.026 76.0247C120.01 76.0684 120.01 76.1268 120.01 76.1852C120.01 76.3457 120.072 76.477 120.195 76.5791C120.317 76.6812 120.471 76.725 120.671 76.725C121.024 76.725 121.3 76.5791 121.515 76.2727C121.73 75.9663 121.837 75.5724 121.837 75.0909L121.822 74.4052L121.806 72.5668C121.76 71.4579 121.73 70.8013 121.699 70.5971C121.668 70.3928 121.622 70.2323 121.515 70.1156C121.438 70.0135 121.361 69.9551 121.3 69.9259C121.238 69.8967 121.07 69.853 120.809 69.78C120.686 69.7508 120.578 69.6925 120.486 69.5758C120.394 69.459 120.348 69.3423 120.348 69.211C120.348 68.9484 120.456 68.7295 120.686 68.569C120.916 68.4085 121.269 68.2772 121.776 68.1751C122.359 68.0584 122.942 68 123.541 68Z" fill="#EDEDED"/>
<path d="M134.424 75.0325H130.725C130.556 75.0325 130.479 75.1055 130.479 75.2368C130.479 75.5578 130.663 75.8642 131.032 76.156C131.4 76.4478 131.799 76.5937 132.229 76.5937C132.474 76.5937 132.766 76.5499 133.073 76.4624C133.38 76.3748 133.641 76.2581 133.841 76.1268C134.025 76.0101 134.163 75.9517 134.27 75.9517C134.409 75.9517 134.547 76.0247 134.669 76.1852C134.808 76.3457 134.869 76.5061 134.869 76.6812C134.869 77.046 134.639 77.3816 134.163 77.7171C133.334 78.3153 132.367 78.6072 131.277 78.6072C130.172 78.6072 129.251 78.3008 128.499 77.688C128.13 77.3816 127.839 77.0314 127.609 76.6083C127.302 76.0393 127.148 75.4556 127.148 74.8283C127.148 73.9966 127.409 73.2379 127.946 72.5668C128.407 71.9831 128.99 71.56 129.711 71.2682C130.249 71.0494 130.832 70.9472 131.446 70.9472C132.444 70.9472 133.288 71.2099 133.994 71.7497C134.347 72.0123 134.623 72.3333 134.838 72.7127C135.084 73.1358 135.207 73.5443 135.207 73.9383C135.207 74.2592 135.13 74.5219 134.992 74.7407C134.838 74.9304 134.654 75.0325 134.424 75.0325ZM130.924 73.6319H131.722C132.06 73.6319 132.229 73.486 132.229 73.1941C132.229 72.9315 132.152 72.6981 131.983 72.5376C131.814 72.3625 131.615 72.2895 131.339 72.2895C131.047 72.2895 130.817 72.4063 130.648 72.6251C130.494 72.8294 130.418 73.0337 130.418 73.2525C130.418 73.3984 130.448 73.5005 130.525 73.5735C130.602 73.6027 130.74 73.6319 130.924 73.6319Z" fill="#EDEDED"/>
<path d="M140.272 72.8878V75.4119C140.272 75.7183 140.349 75.9517 140.502 76.1414C140.656 76.3311 140.855 76.4332 141.101 76.4332C141.301 76.4332 141.577 76.3457 141.915 76.1706C141.991 76.1268 142.068 76.0976 142.145 76.0976C142.268 76.0976 142.39 76.1706 142.498 76.3165C142.605 76.4624 142.651 76.6229 142.651 76.7834C142.651 77.0898 142.467 77.3962 142.114 77.6734C141.362 78.2716 140.472 78.578 139.397 78.578C138.553 78.578 137.878 78.3591 137.371 77.9068C136.865 77.4545 136.604 76.8563 136.604 76.1268V72.6689C136.604 72.5522 136.588 72.4792 136.558 72.45C136.527 72.4209 136.45 72.4063 136.327 72.4063H135.544C135.391 72.4063 135.299 72.3771 135.253 72.3333C135.207 72.2895 135.191 72.1728 135.191 71.9977V71.6622C135.191 71.5163 135.253 71.3995 135.376 71.3266L138.983 69.1672C139.075 69.1234 139.182 69.0943 139.32 69.0943H139.965C140.103 69.0943 140.18 69.1235 140.226 69.1818C140.272 69.2402 140.288 69.3569 140.288 69.5174V70.5241C140.288 70.67 140.318 70.7722 140.364 70.8159C140.41 70.8597 140.518 70.8889 140.687 70.8889H142.145C142.344 70.8889 142.467 70.9181 142.529 70.991C142.59 71.064 142.621 71.1953 142.621 71.4287V71.8664C142.621 72.0999 142.59 72.275 142.513 72.3625C142.436 72.45 142.298 72.4938 142.114 72.4938H140.687C140.533 72.4938 140.441 72.523 140.395 72.5668C140.303 72.6543 140.272 72.7418 140.272 72.8878Z" fill="#EDEDED"/>
</g>
<path d="M164.412 11.8386C164.377 10.9001 164.393 9.95924 164.403 9.0208C169.805 9.03677 175.207 9.02448 180.609 9.02694C180.61 9.96169 180.61 10.8952 180.609 11.8287C175.21 11.8349 169.81 11.8165 164.412 11.8386ZM171.734 0H173.083C173.094 0.458164 173.093 0.9151 173.091 1.37326C173.541 1.37204 173.994 1.37449 174.444 1.37081C174.448 1.82037 174.448 2.26994 174.435 2.71951C173.987 2.71951 173.539 2.72196 173.092 2.71951C173.092 3.1617 173.091 3.60513 173.094 4.04855C172.65 4.0768 172.205 4.07066 171.76 4.06697C171.758 3.61741 171.758 3.16661 171.755 2.71582C171.303 2.72196 170.852 2.71951 170.401 2.72073C170.394 2.2724 170.395 1.82283 170.394 1.37449C170.848 1.37326 171.303 1.37204 171.756 1.37449C171.747 0.916328 171.787 0.455708 171.734 0ZM182.949 6.09211C182.949 6.40061 182.889 6.70608 182.77 6.9911C182.652 7.27611 182.479 7.53508 182.261 7.75322C182.043 7.97136 181.784 8.1444 181.499 8.26246C181.214 8.38051 180.908 8.44128 180.6 8.44128C179.977 8.44128 179.379 8.19378 178.938 7.75322C178.498 7.31267 178.25 6.71515 178.25 6.09211C178.25 5.46907 178.498 4.87155 178.938 4.431C179.379 3.99044 179.977 3.74294 180.6 3.74294C181.223 3.74294 181.821 3.99044 182.261 4.431C182.702 4.87155 182.949 5.46907 182.949 6.09211ZM177.55 6.09211C177.55 6.40061 177.489 6.70608 177.371 6.9911C177.253 7.27611 177.08 7.53508 176.862 7.75322C176.643 7.97136 176.384 8.1444 176.099 8.26246C175.814 8.38051 175.509 8.44128 175.2 8.44128C174.577 8.44128 173.979 8.19378 173.539 7.75322C173.098 7.31267 172.851 6.71515 172.851 6.09211C172.851 5.46907 173.098 4.87155 173.539 4.431C173.979 3.99044 174.577 3.74294 175.2 3.74294C175.823 3.74294 176.421 3.99044 176.862 4.431C177.302 4.87155 177.55 5.46907 177.55 6.09211ZM172.15 6.09215C172.15 6.71519 171.903 7.31271 171.462 7.75326C171.021 8.19382 170.424 8.44132 169.801 8.44132C169.177 8.44132 168.58 8.19382 168.139 7.75326C167.699 7.31271 167.451 6.71519 167.451 6.09215C167.451 5.46911 167.699 4.87159 168.139 4.43104C168.58 3.99049 169.177 3.74299 169.801 3.74299C170.424 3.74299 171.021 3.99049 171.462 4.43104C171.903 4.87159 172.15 5.46911 172.15 6.09215ZM166.751 6.09215C166.751 6.71519 166.503 7.31271 166.062 7.75326C165.622 8.19382 165.024 8.44132 164.401 8.44132C163.778 8.44132 163.18 8.19382 162.74 7.75326C162.299 7.31271 162.051 6.71519 162.051 6.09215C162.051 5.46911 162.299 4.87159 162.74 4.43104C163.18 3.99049 163.778 3.74299 164.401 3.74299C165.024 3.74299 165.622 3.99049 166.062 4.43104C166.503 4.87159 166.751 5.46911 166.751 6.09215Z" fill="white"/>
<path d="M176.387 14.2178C178.632 14.2104 180.878 14.2325 183.124 14.2067C183.833 16.1339 184.453 18.0943 185.123 20.0363C185.178 19.9491 185.257 19.8754 185.285 19.7735C185.925 17.9199 186.58 16.0713 187.226 14.219C189.484 14.2165 191.743 14.2153 194.001 14.2202V24.9877C192.619 25.0049 191.235 24.9938 189.853 24.9938C189.851 22.5151 189.865 20.0351 189.846 17.5551C189.653 17.6632 189.633 17.9076 189.551 18.0907C188.749 20.3938 187.925 22.6895 187.123 24.9926C185.823 24.9926 184.522 25.0098 183.224 24.984C182.409 22.6293 181.566 20.2857 180.744 17.9347C180.715 17.8032 180.641 17.7074 180.526 17.646C180.522 20.0953 180.527 22.5458 180.524 24.9963C179.145 24.9963 177.765 24.9963 176.385 24.9951C176.388 21.4034 176.384 17.8106 176.387 14.2178ZM151.001 14.2178C152.364 14.2178 153.728 14.2165 155.093 14.219C155.096 15.5235 155.091 16.8292 155.094 18.1349C156.447 16.8402 157.769 15.5149 159.122 14.2202C160.496 14.2165 161.871 14.2165 163.246 14.2202C161.661 15.8305 160.033 17.3991 158.461 19.0205C160.442 20.9416 162.356 22.9339 164.355 24.8341C164.372 21.2966 164.358 17.7578 164.363 14.219C165.757 14.2165 167.152 14.2165 168.546 14.219C168.546 16.9029 168.543 19.5867 168.546 22.2706C170.773 22.2645 172.999 22.278 175.226 22.2633C175.256 23.1734 175.231 24.0849 175.24 24.9951C169.827 24.9951 164.413 25 159 24.9926C157.72 23.6967 156.422 22.418 155.136 21.1283C155.118 22.4193 155.139 23.709 155.125 25C153.75 24.9901 152.376 25.0012 151.001 24.9938V14.2178Z" fill="white"/>
<path d="M123.516 7.99973L118.081 15.9001C117.366 16.9388 116.205 17.9406 114.803 18.047V18.2898H120.848C122.453 18.2898 123.624 17.2402 124.416 16.0843L129.997 7.99973H123.517H123.516Z" fill="#EDEDED"/>
<path d="M23.4247 18.2891V8.86698H26.161V18.2891H23.4247ZM86.5325 18.2891L79.9575 12.6942V18.2891H77.6469V8.86698H79.6097L86.0971 14.3739V8.86698H88.4077V18.2891H86.5325ZM100.831 11.9066C99.5949 11.2948 98.2019 10.7997 96.3557 10.7997C94.1507 10.7997 92.5066 11.9454 92.5066 13.5385C92.5066 15.1705 94.1803 16.3271 96.3357 16.3271C98.1156 16.3271 99.526 15.8702 100.918 15.0634V17.3951C99.6902 18.0068 98.057 18.4631 96.2198 18.4631C92.4686 18.4631 89.5186 16.5405 89.5186 13.5385C89.5186 10.5856 92.5259 8.6911 96.2095 8.6911C97.9501 8.6911 99.5259 9.02119 100.831 9.55646V11.9066ZM41.3891 18.2891V8.86698H50.5355V10.887H44.1253V13.2282H50.3912V15.2489H44.1253V18.2897H41.3891V18.2891ZM102.486 18.2891V8.86698H111.98V10.887H105.221V12.5196H111.874V14.5396H105.221V16.2691H111.951V18.2891H102.486ZM60.0399 14.7531L63.8201 18.2897H60.9003C60.2524 18.2897 59.8274 18.0858 59.4887 17.7545L56.9166 15.2482C56.8867 15.2216 56.8517 15.201 56.8136 15.1878C56.7756 15.1746 56.7353 15.1689 56.6951 15.1711H54.9448V18.2891H52.2085V8.86698H58.1357C61.21 8.86698 62.5057 10.2561 62.5057 11.7906C62.5057 13.578 60.9196 14.4313 60.0399 14.7531ZM57.8556 13.1989C58.9374 13.1989 59.4597 12.6458 59.4597 12.0238C59.4597 11.4019 58.996 10.887 57.8556 10.887H54.9448V13.1989H57.8556ZM36.5541 14.7537L40.3343 18.2891H37.4151C36.7673 18.2891 36.3416 18.0852 36.0035 17.7545L33.4315 15.2482C33.4014 15.2215 33.3663 15.201 33.3282 15.1877C33.29 15.1745 33.2496 15.1688 33.2093 15.1711H31.4596V18.2891H28.7227V8.86698H34.6499C37.7242 8.86698 39.0205 10.2561 39.0205 11.7906C39.0205 13.578 37.4344 14.4319 36.5541 14.7537ZM34.3697 13.1989C35.4529 13.1989 35.9752 12.6458 35.9752 12.0238C35.9752 11.4019 35.5109 10.887 34.3697 10.887H31.4596V13.1989H34.3697ZM19.141 18.2891L17.9426 16.22H12.7025L11.6097 18.2891H8.99902L14.2204 8.87654H16.5992L22.5167 18.2891H19.141ZM13.7464 14.2573H16.8021L15.216 11.3821L13.7464 14.2573ZM73.7791 18.2891L72.609 16.22H67.5055L66.4513 18.2891H63.9076L68.9931 8.87654H71.3037L77.057 18.2891H73.7791ZM68.5295 14.2573H71.5072L69.9604 11.3821L68.5295 14.2573Z" fill="white"/>
<path d="M33.5483 35.1219L34.3213 34.3392L35.0267 35.0543L35.0943 35.1122L34.3213 35.8949L33.5483 35.1219Z" fill="#F7F7F7"/>
<path d="M35.1041 35.1219L35.8771 34.3392L36.5825 35.0543L36.6501 35.1219L35.8771 35.8949L35.1041 35.1219Z" fill="#F7F7F7"/>
<path d="M34.0508 42.8423C33.8382 42.8423 33.6933 42.765 33.6836 42.7553C33.3841 42.6394 33.2198 42.3108 33.2198 41.847C33.2198 41.7697 33.2198 41.7214 33.2295 41.6924V41.5668H26.6589V35.6533C26.6589 35.4021 26.4947 35.3345 26.3594 35.2572C26.2434 35.1992 26.1275 35.1316 26.0985 34.9673C26.0985 34.9383 26.0985 34.9286 26.0985 34.9093V34.8707C27.0068 34.204 27.6638 33.3343 27.6638 33.3343V40.5619H33.2391V40.2817C33.2295 40.0305 33.2102 39.5184 31.9927 39.5087C31.9927 39.5087 31.4226 39.5184 30.8525 39.5184C30.5336 39.5184 30.2148 39.5184 30.0022 39.5087C29.6543 39.4797 29.4611 39.0932 29.4514 38.7454C29.4514 38.5038 29.548 38.3105 29.7026 38.2043L29.7896 38.1463L29.8379 38.2332C29.9442 38.4458 30.408 38.5424 31.2776 38.5424H31.3646C31.7125 38.5424 32.1086 38.5328 32.5628 38.5231C32.5821 38.5231 32.6111 38.5231 32.6401 38.5231C34.1184 38.5231 34.2827 39.8082 34.2924 40.359V40.4556C34.2924 40.5039 34.2924 40.5426 34.2924 40.5716H35.7514V38.3878C35.7514 38.3878 35.7707 38.2236 35.4712 38.0593C35.2683 37.9434 35.22 37.7115 35.22 37.7115C36.3988 36.8612 36.7273 36.1268 36.7273 36.1268V41.5668H34.273V41.6441C34.273 41.9726 34.331 42.3978 34.5243 42.5427L34.6305 42.6297L34.5146 42.6973C34.3697 42.794 34.2054 42.8423 34.0508 42.8423Z" fill="#F7F7F7"/>
<path d="M22.3012 42.3881V41.5668H18.929V40.5522H23.2191V41.8857C23.2191 41.8857 23.1708 42.3012 23.9825 42.3012C24.4946 42.3012 24.4946 41.8084 24.4946 41.7891V39.4121C24.4946 39.0835 24.2724 39.0352 24.1178 39.0352C24.0888 39.0352 24.0694 39.0352 24.0694 39.0352H18.9386V36.0688C18.9386 36.0688 19.5377 36.8128 20.1368 37.1607C20.2334 37.2187 20.1851 37.3829 19.8855 37.5762C19.8276 37.6148 19.7503 37.6438 19.7503 37.7308V38.098H24.8811C25.4802 38.1076 25.5381 38.7357 25.5381 38.9289C25.5381 38.9579 25.5381 42.3302 25.5381 42.3302C25.5381 42.3398 25.4898 43.2481 24.0211 43.2481C22.1949 43.2578 22.3012 42.3881 22.3012 42.3881Z" fill="#F7F7F7"/>
<path d="M42.6796 41.5668V33.2957L42.8535 33.5759C42.8535 33.5759 42.9791 33.7885 43.5105 34.2426C43.8197 34.5132 43.9937 34.6195 44.0806 34.6581C44.1676 34.6968 44.2449 34.7257 44.2449 34.8224V34.9093C44.2256 35.0833 44.1 35.1509 43.984 35.2089C43.8487 35.2862 43.7135 35.3538 43.7038 35.605C43.6845 35.7983 43.7038 41.5668 43.7038 41.5668H42.6796Z" fill="#F7F7F7"/>
<path d="M37.8482 42.6394L38.8821 41.5958L37.626 40.359V33.2957C37.626 33.2957 38.1767 34.3392 38.9111 34.861V34.9383C38.8918 35.1026 38.7951 35.1702 38.7082 35.2282C38.5922 35.3055 38.4859 35.3731 38.4763 35.634C38.4666 35.8176 38.4763 39.7599 38.4763 39.8276L39.5198 40.9098L40.5634 39.8276C40.5634 39.8276 40.5731 35.8273 40.5634 35.634C40.5537 35.3731 40.4474 35.3055 40.3315 35.2282C40.2349 35.1702 40.1382 35.1026 40.1286 34.9383V34.8803C40.9499 34.3489 41.4137 33.286 41.4137 33.286V40.2527L40.1576 41.5765L41.2011 42.62L39.5295 44.3013L37.8482 42.6394ZM39.5295 43.3351L40.2252 42.6297L39.5295 41.934L38.8241 42.6297L39.5295 43.3351Z" fill="#F7F7F7"/>
<path d="M35.2007 52.1376L36.9689 50.2341V46.4754C36.9689 46.4464 37.0076 46.4174 37.0076 46.4174L37.2685 46.2918V46.0792H34.8915V46.2918L35.133 46.4464C35.2007 46.4851 35.2103 46.514 35.2103 46.543V48.6978L30.2438 49.8766L29.3838 50.0602V46.5527L29.3935 46.4851C29.3935 46.4851 29.4128 46.4657 29.4514 46.4464L29.6737 46.3015L29.693 46.2918V46.0792H27.3257V46.2918L27.5576 46.4464C27.5962 46.4657 27.6059 46.4851 27.6156 46.4851V52.9396L27.6059 53.0266C27.5962 53.0459 27.5769 53.0556 27.5576 53.0653L27.3257 53.2199V53.4324H29.693V53.2199L29.4418 53.0653C29.4031 53.0459 29.3838 53.0363 29.3838 53.0363V50.0795L29.635 50.1568L29.9636 49.9636C30.0215 49.9249 30.0795 49.9056 30.1085 49.8959C30.1278 49.8863 30.1665 49.8766 30.2438 49.8766H35.2007V52.1376Z" fill="#F7F7F7"/>
<path d="M60.449 48.949C60.1688 48.0697 59.5311 47.345 58.5551 46.8039C57.6758 46.3111 56.4197 46.0696 54.7288 46.0696H48.2742V46.2822C48.2742 46.2822 48.5447 46.4657 48.5544 46.4657V47.2291H54.7191C55.9656 47.2291 56.8738 47.3933 57.4343 47.7219C58.3136 48.234 58.7484 48.9007 58.7484 49.7607C58.7484 50.1955 58.6324 50.582 58.4102 50.9298C58.188 51.2777 57.8401 51.5676 57.386 51.8091C56.7869 52.1183 55.8786 52.2729 54.6804 52.2729H51.4628V47.7605H49.7042V52.9397L49.6946 53.017C49.6849 53.0266 49.6656 53.0459 49.6463 53.0653L49.4337 53.2005L49.4144 53.2102V53.4228H54.6901C55.7047 53.4228 56.497 53.3648 57.0574 53.2489C57.8208 53.0846 58.5068 52.814 59.0769 52.4179C59.6663 52.0217 60.0818 51.5676 60.3234 51.0651C60.507 50.6979 60.5939 50.2825 60.5939 49.8476C60.5746 49.5384 60.536 49.2389 60.449 48.949Z" fill="#F7F7F7"/>
<path d="M37.2588 53.1426C37.2105 53.1329 37.1815 53.1232 37.1622 53.1136L41.5876 48.5142L40.5634 47.4223L34.8335 53.4131H37.4714V53.1619H37.3747C37.3361 53.1522 37.2974 53.1522 37.2588 53.1426Z" fill="#F7F7F7"/>
<path d="M41.0369 47.1325L42.1674 48.3306L43.3366 49.5094H41.3654L40.2832 50.64L40.5151 50.8042L40.7663 50.669C40.7953 50.6593 40.8146 50.6496 40.834 50.6496C40.8533 50.6496 40.9209 50.6496 41.0176 50.6496H44.3995L46.7281 53.1426C46.7281 53.1426 46.6895 53.1812 46.4866 53.1812H46.3996V53.4324H49.0375L42.0515 46.0696L41.0369 47.1325Z" fill="#F7F7F7"/>
<path d="M24.1081 46.2918L24.34 46.4464C24.3979 46.4851 24.4269 46.5141 24.4269 46.543V52.9203L24.4076 53.0073C24.3883 53.0266 24.3593 53.0459 24.34 53.0556L24.0984 53.2102V53.4228H26.4561V53.2102L26.2435 53.0556C26.2145 53.0363 26.1952 53.017 26.1952 53.017C26.1855 53.017 26.1855 53.017 26.1855 53.017V46.543L26.1952 46.4754L26.2531 46.4271L26.4657 46.2822V46.0696H24.1081V46.2918Z" fill="#F7F7F7"/>
<path d="M14.233 52.0121L13.9238 52.186C13.8368 52.2343 13.7982 52.2536 13.7885 52.2536L8.52242 52.2633C7.3146 52.2633 6.40632 52.1087 5.79758 51.7995C4.8893 51.326 4.44482 50.6593 4.44482 49.7414C4.44482 49.3355 4.56077 48.9394 4.79268 48.5818C5.24682 47.9151 5.90387 47.461 6.84114 47.2871C7.09236 47.2387 7.33393 47.2291 7.48853 47.2291H10.2037C10.368 47.2194 10.339 47.2581 10.3486 47.2774L10.3197 47.4707H10.5419L11.7014 46.0696H8.46445C7.71077 46.0696 7.13101 46.0986 6.72519 46.1469C6.51261 46.1759 6.3097 46.2145 6.10678 46.2532C5.57534 46.3788 5.06323 46.572 4.57044 46.8522C3.76844 47.316 3.20802 47.8861 2.87949 48.5625C2.6959 48.949 2.59927 49.3838 2.60894 49.8476C2.60894 51.0361 3.24667 51.9831 4.5028 52.6594C5.07289 52.9686 5.71062 53.1909 6.40632 53.2972C6.9281 53.3841 7.63347 53.4228 8.52242 53.4228H13.4213L14.5905 52.0024H14.4939L14.233 52.0121Z" fill="#F7F7F7"/>
<path d="M11.8946 50.2438L13.0348 48.8138H5.35308L4.58008 49.9636H11.5081C11.6337 49.9733 11.6821 50.0119 11.6917 50.0312L11.6627 50.2341H11.8946V50.2438Z" fill="#F7F7F7"/>
<path d="M11.4211 47.4223L11.6434 47.4996L11.6724 47.5093L12.0106 47.345C12.1072 47.2871 12.1941 47.2581 12.2908 47.2581H16.523V52.9493L16.5036 53.0266C16.4843 53.046 16.465 53.0653 16.4553 53.0653L16.2138 53.2295V53.4421H18.5811V53.2295L18.3395 53.0749L18.2816 53.017C18.2816 53.0073 18.2816 52.9783 18.2816 52.959V47.2581H22.05C22.1949 47.2774 22.2142 47.3064 22.2142 47.3161V47.519H22.4268L23.596 46.0986H12.4937L11.4211 47.4223Z" fill="#F7F7F7"/>
<path d="M13.2957 61.52L15.0832 57.0076H15.663L17.4312 61.52H16.5133L16.1558 60.5827H14.9866L14.7354 59.945H15.9142L15.4504 58.6985L15.3248 58.312L15.1992 58.6985L14.1363 61.52H13.2957Z" fill="#F7F7F7"/>
<path d="M20.533 57.0076H19.6537V61.52H20.533V57.0076Z" fill="#F7F7F7"/>
<path d="M25.6155 61.52L24.5816 60.0416H24.0791V61.52H23.1998V57.0076H24.6492C25.1807 57.0076 25.5865 57.1236 25.8667 57.3651C26.1469 57.6067 26.2822 57.9642 26.2822 58.4377C26.2822 58.7855 26.2049 59.0947 26.0406 59.3459C25.886 59.6068 25.6541 59.7904 25.3642 59.9064L26.5914 61.5007H25.6155V61.52ZM24.0888 59.4232H24.6589C25.1517 59.4232 25.4029 59.1237 25.4029 58.5343C25.4029 58.2637 25.3449 58.0608 25.229 57.9159C25.113 57.7709 24.9198 57.7033 24.6492 57.7033H24.0888V59.4232Z" fill="#F7F7F7"/>
<path d="M29.6738 61.52L28.3403 57.0076H29.2486L30.0796 60.2252H30.1182L30.9202 57.7323L30.6883 57.0076H31.5483L32.5919 60.2252H32.6112L33.4518 57.0076H34.3118L32.9494 61.52H32.2054L31.2971 58.7275L30.3888 61.52H29.6738Z" fill="#F7F7F7"/>
<path d="M35.7611 61.52L37.5487 57.0076H38.1284L39.8967 61.52H38.9884L38.6309 60.5827H37.4521L37.2008 59.945H38.3893L37.9159 58.6985L37.7902 58.312L37.6646 58.6985L36.6017 61.52H35.7611Z" fill="#F7F7F7"/>
<path d="M42.6408 61.52V59.6745L41.1625 57.0076H42.1384L43.1143 58.9111L44.1289 57.0076H44.9888L43.5105 59.6745V61.52H42.6408Z" fill="#F7F7F7"/>
<path d="M48.1196 61.6263C47.6461 61.6263 47.2596 61.5297 46.9697 61.3268V60.4088C47.3176 60.718 47.7041 60.8726 48.1389 60.8726C48.68 60.8726 48.9505 60.66 48.9505 60.2446C48.9505 60.0803 48.8926 59.9547 48.7863 59.8677C48.68 59.7807 48.4867 59.7034 48.2162 59.6358L48.0519 59.5972C47.2886 59.4136 46.9117 58.9788 46.9117 58.3024C46.9117 57.8579 47.047 57.5197 47.3272 57.2685C47.6074 57.0269 48.0036 56.9013 48.5157 56.9013C49.0085 56.9013 49.395 56.9979 49.6656 57.1912V58.1091C49.54 57.9932 49.3757 57.8869 49.1631 57.7999C48.9505 57.7033 48.7186 57.6647 48.4771 57.6647C48.2162 57.6647 48.0326 57.713 47.9166 57.7999C47.8007 57.8869 47.7427 58.0222 47.7427 58.2154C47.7427 58.3797 47.791 58.515 47.8877 58.5923C47.9843 58.6792 48.1679 58.7565 48.4384 58.8242L48.6027 58.8628C49.0085 58.9594 49.3081 59.1044 49.5013 59.3073C49.6946 59.5005 49.7815 59.7807 49.7815 60.1383C49.7815 60.6021 49.6366 60.9596 49.3564 61.2301C49.0955 61.491 48.68 61.6263 48.1196 61.6263Z" fill="#F7F7F7"/>
<defs>
<clipPath id="clip0_2162_250">
<rect width="60.9999" height="13" fill="white" transform="translate(81.6515 68)"/>
</clipPath>
</defs>
</svg>
