<svg width="88" height="70" viewBox="0 0 88 70" fill="none" xmlns="http://www.w3.org/2000/svg">
<path d="M21.0236 15.3183C21.091 15.1587 21.2595 14.7884 21.401 14.4963L21.6604 13.9596L21.7783 14.0513C21.8457 14.1023 21.9299 14.1702 21.967 14.2042C22.0041 14.2382 22.0445 14.2653 22.058 14.2653C22.0748 14.2653 22.0849 14.2891 22.0849 14.3163C22.0849 14.3435 22.0984 14.3604 22.1186 14.3503C22.1355 14.3401 22.2332 14.3978 22.3275 14.4759C22.4252 14.5541 22.5128 14.6288 22.5229 14.639C22.533 14.6492 22.6712 14.7545 22.8329 14.8768C22.9946 14.999 23.126 15.1179 23.1294 15.1383C23.1294 15.1621 23.1428 15.1791 23.1597 15.1723C23.1765 15.1689 23.3147 15.2572 23.4629 15.3693C23.6112 15.4814 23.7324 15.5935 23.7358 15.6139C23.7358 15.6376 23.7493 15.6546 23.7661 15.6478C23.7796 15.6444 23.8605 15.6886 23.9413 15.7463C24.0222 15.8075 24.1199 15.8822 24.1603 15.9162C24.2008 15.9535 24.2749 16.0113 24.3254 16.0486C24.376 16.086 24.4939 16.1777 24.5916 16.2524L24.5916 16.2525C24.6859 16.3272 24.7803 16.4019 24.8005 16.4223C24.8207 16.4393 24.878 16.4868 24.9285 16.5242C24.9824 16.5616 25.1003 16.6533 25.198 16.728C25.2924 16.8027 25.3766 16.8707 25.3867 16.8808C25.3968 16.891 25.5349 16.9963 25.6967 17.1186C25.8584 17.2409 25.9898 17.3598 25.9932 17.3802C25.9932 17.404 26.0033 17.4175 26.0167 17.4107C26.0336 17.4006 26.1347 17.4651 26.2492 17.5534C26.3604 17.6417 26.5019 17.7504 26.5625 17.798C26.6232 17.8455 26.7512 17.944 26.8455 18.0188C26.9433 18.0935 27.0376 18.1682 27.0578 18.1886C27.078 18.2056 27.1353 18.2531 27.1858 18.2905C27.2397 18.3279 27.3577 18.4196 27.4554 18.4943C27.5497 18.569 27.6339 18.637 27.644 18.6472C27.6541 18.6574 27.7923 18.7627 27.954 18.8849C28.1157 19.0072 28.2471 19.1261 28.2505 19.1465C28.2505 19.1703 28.2606 19.1839 28.2741 19.1771C28.2909 19.1669 28.392 19.2314 28.5065 19.3197C28.6177 19.408 28.7592 19.5167 28.8199 19.5643C28.8805 19.6119 29.0085 19.7104 29.1029 19.7851C29.2006 19.8598 29.2949 19.9345 29.3151 19.9549C29.3354 19.9719 29.3926 20.0195 29.4432 20.0568C29.4971 20.0942 29.615 20.1859 29.7127 20.2606C29.807 20.3354 29.9047 20.4135 29.925 20.4373C29.9485 20.461 29.989 20.4712 30.0092 20.4542C30.0384 20.4384 30.0463 20.4475 30.0328 20.4814C30.0199 20.5074 29.97 20.6701 29.9156 20.8476L29.9081 20.8721C29.8508 21.0589 29.7599 21.3884 29.7026 21.6024C29.6453 21.8164 29.5611 22.1934 29.5139 22.4346C29.4668 22.6757 29.3994 23.0969 29.3623 23.3687C29.3253 23.6404 29.2815 24.0752 29.2612 24.3368C29.2444 24.5983 29.2275 25.0331 29.2275 25.3048C29.2275 25.5766 29.2444 26.0046 29.2612 26.2559C29.2815 26.5073 29.3185 26.9047 29.3488 27.1391C29.3758 27.3735 29.4398 27.7641 29.4836 28.0053C29.5308 28.2464 29.6352 28.705 29.7161 29.0243C29.8003 29.3436 29.9047 29.7206 29.9519 29.8633C30.0159 30.0603 30.026 30.1316 29.9923 30.1418C29.9721 30.1486 28.1764 31.5413 26.01 33.2397C23.8436 34.9381 21.9771 36.4021 21.6638 36.6467L21.4212 36.1473C21.2898 35.8722 21.1011 35.4646 21.0068 35.2404C20.9091 35.0162 20.7642 34.6561 20.68 34.4422C20.5958 34.2282 20.461 33.8613 20.3768 33.6269C20.2959 33.3925 20.1477 32.934 20.0466 32.6079C19.9489 32.2818 19.8006 31.7383 19.7164 31.402C19.6322 31.0658 19.5109 30.5189 19.4435 30.186C19.3761 29.8565 19.2784 29.2689 19.2211 28.8782C19.1672 28.491 19.0999 27.9237 19.0695 27.6146C19.0426 27.3055 19.0021 26.6568 18.9853 26.171C18.9583 25.5596 18.9583 25.0195 18.9853 24.4217C19.0021 23.9461 19.0426 23.3109 19.0695 23.012C19.0965 22.7131 19.1504 22.2308 19.1908 21.942C19.2279 21.6533 19.3087 21.1336 19.3728 20.7871C19.4368 20.4407 19.5412 19.921 19.6086 19.6322C19.676 19.3435 19.8074 18.8306 19.9017 18.4943C19.9961 18.158 20.1712 17.5942 20.2892 17.2375C20.4105 16.8808 20.5958 16.3713 20.7036 16.0996C20.8114 15.8278 20.9563 15.478 21.0236 15.3183Z" fill="#FBBC04"/>
<path d="M68.1312 26.0555C68.1245 26.1574 68.1177 26.0793 68.1177 25.8857C68.1177 25.6887 68.1245 25.6038 68.1312 25.6989C68.138 25.7906 68.138 25.9502 68.1312 26.0555Z" fill="#FBBC04"/>
<path d="M21.7816 36.5481C21.8456 36.5006 23.7155 35.0366 25.9391 33.2974C28.1661 31.5549 29.999 30.1282 30.0158 30.1282C30.0327 30.1282 30.0596 30.1928 30.0765 30.2743C30.0967 30.3524 30.1944 30.631 30.2955 30.8925C30.3965 31.1541 30.5852 31.5888 30.7166 31.8606C30.8446 32.1323 31.0434 32.523 31.1546 32.7268C31.2691 32.934 31.4982 33.3144 31.6633 33.576C31.8284 33.8375 32.1114 34.2485 32.2934 34.4931C32.4753 34.7377 32.765 35.1045 32.9402 35.3083C33.1154 35.5155 33.4389 35.8654 33.6612 36.0896C33.8802 36.3171 34.2138 36.6364 34.3991 36.7995C34.5844 36.9659 34.8944 37.2275 35.0898 37.3803C35.2852 37.5332 35.6322 37.7913 35.8647 37.951C36.0971 38.1106 36.4678 38.3484 36.6901 38.4843C36.9125 38.6168 37.3808 38.8715 37.7346 39.0448C38.085 39.218 38.5499 39.4286 38.7622 39.5135C38.9744 39.595 39.3619 39.7343 39.6213 39.8192C39.8807 39.9041 40.3052 40.0298 40.5647 40.0944C40.8241 40.1623 41.2486 40.254 41.508 40.3016C41.7674 40.3491 42.1751 40.4103 42.4177 40.4408C42.7142 40.4782 43.2061 40.4986 43.9338 40.5054C44.6514 40.5156 45.1804 40.502 45.5173 40.4714C45.7936 40.4476 46.2046 40.4001 46.427 40.3695C46.6494 40.3389 47.0267 40.2778 47.2693 40.2302C47.5119 40.1827 47.9431 40.0842 48.2295 40.0094C48.5159 39.9347 48.9707 39.7988 49.2402 39.7071C49.5098 39.6154 49.9343 39.4558 50.1836 39.3505C50.4329 39.2418 50.8035 39.0719 51.009 38.97C51.2146 38.8647 51.5009 38.7119 51.6492 38.627C51.7974 38.542 52.0467 38.3892 52.2051 38.2873C52.4578 38.1242 52.4982 38.1072 52.5589 38.148C52.5959 38.1718 54.422 39.595 56.6187 41.3138C58.8154 43.0326 60.6179 44.4456 60.628 44.4524C60.6381 44.4626 60.5606 44.5475 60.4595 44.6392C60.3585 44.7343 60.0856 44.9687 59.8531 45.1657C59.6206 45.3627 59.2028 45.6956 58.9266 45.9062C58.6469 46.1168 58.155 46.4633 57.8316 46.6773C57.5082 46.8947 57.0365 47.1868 56.7872 47.3329C56.5378 47.4789 56.1369 47.6997 55.8943 47.8288C55.6517 47.9545 55.2373 48.1617 54.9678 48.2874C54.6983 48.4097 54.2064 48.6236 53.8728 48.7595C53.5393 48.8954 53.0373 49.0856 52.761 49.1807C52.4814 49.2792 52.0265 49.4253 51.7503 49.5068C51.4706 49.5883 51.0023 49.7174 50.7058 49.7921C50.4093 49.8669 49.9848 49.9654 49.7625 50.0129C49.5401 50.0605 49.0853 50.142 48.7517 50.1997C48.4182 50.2541 47.8959 50.3322 47.5893 50.3696C47.2828 50.407 46.8448 50.4545 46.6123 50.4749C46.3798 50.4953 46.1238 50.519 46.0395 50.5292C45.9553 50.536 45.2208 50.5496 44.4055 50.5598C43.5902 50.5666 42.7175 50.5564 42.4682 50.5394C42.2189 50.5224 41.7843 50.4851 41.508 50.4579C41.2284 50.4273 40.7365 50.3662 40.413 50.3186C40.0896 50.2711 39.5573 50.1828 39.2338 50.1182C38.9104 50.0537 38.3949 49.9382 38.0883 49.8635C37.7817 49.7853 37.3741 49.6766 37.1786 49.6223C36.9832 49.5646 36.5655 49.4321 36.2521 49.3302C35.9388 49.2249 35.4503 49.0516 35.174 48.9463C34.8944 48.841 34.4631 48.6644 34.2138 48.5557C33.9645 48.4504 33.4692 48.2194 33.1188 48.0462C32.765 47.8696 32.3338 47.6488 32.1586 47.5537C31.9834 47.4552 31.6195 47.248 31.35 47.0883C31.0805 46.9253 30.6021 46.6229 30.2887 46.4157C29.9754 46.2051 29.4734 45.8519 29.1769 45.6277C28.8804 45.4035 28.4559 45.0706 28.2335 44.8872C28.0112 44.7038 27.6338 44.3777 27.3912 44.1637C27.1487 43.9463 26.6736 43.4877 26.33 43.1413C25.9863 42.7914 25.5348 42.3091 25.3226 42.0679C25.1137 41.8233 24.8138 41.4734 24.6622 41.2866C24.5106 41.0998 24.2141 40.7194 24.0052 40.4374C23.7963 40.1589 23.4257 39.6222 23.1798 39.2486C22.9338 38.8749 22.6003 38.3416 22.4386 38.0597C22.2735 37.7812 22.0343 37.343 21.6704 36.633L21.7816 36.5481Z" fill="#35A853"/>
<path d="M42.7379 0.049865C42.9703 0.0396747 43.1657 0.0226908 43.1758 0.0125005C43.1826 0.00231022 43.6543 0.00570699 44.2203 0.0158973C44.7863 0.0260876 45.3456 0.0396747 45.4669 0.0464682C45.5882 0.0532618 45.8072 0.0702456 45.9554 0.0804359C46.1036 0.0906262 46.3159 0.10761 46.4271 0.1178C46.5302 0.130407 46.6682 0.143014 46.7468 0.150194L46.764 0.151768C46.8381 0.161958 46.9661 0.175545 47.0504 0.185736C47.1346 0.192529 47.2761 0.209513 47.3704 0.219703C47.4614 0.233291 47.576 0.246878 47.6231 0.253671C47.6703 0.260465 47.768 0.274052 47.8421 0.284242C47.9163 0.297829 48.0207 0.314813 48.078 0.321607C48.1352 0.331797 48.2228 0.345384 48.2801 0.355574C48.3374 0.362368 48.4183 0.379352 48.4654 0.386145C48.5126 0.396336 48.6036 0.413319 48.6676 0.42351C48.7316 0.4337 48.8158 0.450684 48.8529 0.457477C48.8899 0.464271 48.9641 0.477858 49.0213 0.488048C49.0786 0.498239 49.1595 0.515222 49.2066 0.525413C49.2538 0.535603 49.3279 0.54919 49.3751 0.562777C49.4223 0.572968 49.4896 0.586555 49.5267 0.593348C49.5638 0.600142 49.6312 0.617126 49.6783 0.627316C49.7255 0.640903 49.7929 0.65449 49.8299 0.661284C49.867 0.668077 49.931 0.681664 49.9714 0.691855C50.0152 0.705442 50.0793 0.719029 50.1163 0.729219C50.1534 0.739409 50.214 0.752996 50.2511 0.763187C50.2881 0.773377 50.3522 0.790361 50.3926 0.800551C50.4364 0.810741 50.4836 0.820932 50.5038 0.827725C50.524 0.834519 50.561 0.848106 50.588 0.858296C50.6149 0.871883 50.679 0.888867 50.7295 0.899058C50.7834 0.909248 50.8643 0.926232 50.9148 0.936422C50.9687 0.946612 51.0361 0.97039 51.0664 0.987374C51.1001 1.00436 51.1271 1.00775 51.1271 0.99077C51.1237 0.977183 51.1473 0.99077 51.1776 1.01794C51.2079 1.04512 51.2315 1.05871 51.2281 1.04172C51.2281 1.02813 51.282 1.04172 51.3461 1.0689C51.4101 1.09607 51.464 1.11305 51.464 1.10286C51.464 1.09267 51.4842 1.09607 51.5044 1.10966C51.528 1.12324 51.5617 1.13683 51.5819 1.14023C51.6021 1.14362 51.7436 1.19118 51.902 1.24892C52.0603 1.31007 52.2119 1.35762 52.2389 1.35762C52.2658 1.35762 52.3029 1.36781 52.3164 1.3814C52.3332 1.39499 52.3602 1.41197 52.377 1.41537C52.3939 1.42216 52.4141 1.42556 52.4242 1.42556C52.4343 1.42556 52.4545 1.43235 52.4747 1.44254C52.4949 1.45273 52.5152 1.45952 52.5253 1.45952C52.5354 1.45952 52.5522 1.46292 52.5657 1.46971C52.5825 1.47311 52.6263 1.49689 52.6668 1.52067C52.7106 1.54444 52.7443 1.55124 52.7443 1.53425C52.7409 1.52067 52.7645 1.53425 52.7948 1.56143C52.8251 1.5886 52.8487 1.60219 52.8453 1.58521C52.8453 1.57162 52.879 1.57841 52.9195 1.60219C52.9633 1.62597 53.0037 1.64635 53.0138 1.64974C53.0239 1.64974 53.061 1.66333 53.098 1.67692C53.1351 1.6905 53.2025 1.72108 53.2496 1.73806C53.2968 1.75844 53.3709 1.78901 53.4181 1.80939C53.4653 1.82638 53.5427 1.86374 53.5933 1.88752C53.6472 1.91469 53.6876 1.92828 53.6876 1.91809C53.6876 1.9079 53.7415 1.93168 53.8055 1.96904C53.8696 2.0064 53.9235 2.03018 53.9235 2.01999C53.9235 2.0098 53.9908 2.04037 54.0751 2.08793C54.1593 2.13548 54.2267 2.16605 54.2267 2.15586C54.2267 2.14567 54.3075 2.18304 54.4019 2.24078C54.4996 2.29513 54.5939 2.3291 54.6074 2.31551C54.6209 2.30192 54.631 2.31211 54.631 2.33249C54.631 2.35627 54.6445 2.36986 54.6647 2.35967C54.6849 2.34948 54.6984 2.36307 54.6984 2.38345C54.6984 2.40722 54.7085 2.41741 54.722 2.40383C54.7354 2.39024 54.9005 2.45817 55.0858 2.55328C55.2711 2.64839 55.4261 2.73671 55.4295 2.75369C55.4362 2.77068 55.4531 2.77747 55.4733 2.76728C55.4935 2.75709 55.507 2.76388 55.507 2.78426C55.507 2.80465 55.5912 2.8488 55.6923 2.88617C55.7933 2.92353 55.8776 2.96769 55.8776 2.98807C55.8776 3.00845 55.891 3.01525 55.9113 3.00505C55.9315 2.99486 55.945 3.00166 55.945 3.02204C55.945 3.04242 55.9989 3.06959 56.0629 3.08997C56.1269 3.11035 56.1808 3.13753 56.1808 3.15791C56.1808 3.17829 56.2347 3.20546 56.2987 3.22584C56.3627 3.24623 56.4166 3.2734 56.4166 3.29378C56.4166 3.31416 56.4571 3.34134 56.5076 3.36172C56.5615 3.3787 56.6323 3.41267 56.6693 3.43644C56.703 3.46022 56.7536 3.50098 56.7771 3.52136C56.8007 3.54514 56.8445 3.56552 56.8715 3.56552C56.8984 3.56552 56.922 3.57911 56.922 3.59949C56.922 3.61987 56.9591 3.64025 57.0062 3.65044C57.0534 3.66063 57.0905 3.68101 57.0905 3.70139C57.0905 3.72177 57.1141 3.73536 57.141 3.73536C57.168 3.73536 57.1915 3.74895 57.1915 3.76933C57.1915 3.78971 57.205 3.8033 57.2252 3.8033C57.2455 3.8033 57.2926 3.83387 57.3331 3.87123C57.3769 3.91199 57.4442 3.94936 57.4847 3.95615C57.5285 3.96634 57.5622 3.98672 57.5622 4.0071C57.5622 4.02748 57.5857 4.04107 57.6127 4.04107C57.6396 4.04107 57.6632 4.05466 57.6632 4.07504C57.6632 4.09542 57.6767 4.109 57.6969 4.109C57.7171 4.109 57.771 4.14637 57.8216 4.19392C57.8755 4.24148 57.9361 4.27884 57.9563 4.27884C57.9799 4.27884 58.0001 4.29243 58.0001 4.31281C58.0001 4.33319 58.0237 4.34678 58.0507 4.34678C58.0776 4.34678 58.1012 4.36037 58.1012 4.38075C58.1012 4.40113 58.1214 4.41471 58.1417 4.41471C58.1652 4.41471 58.2528 4.47586 58.3371 4.55059C58.4213 4.62531 58.4988 4.68646 58.5123 4.68646C58.5291 4.68646 58.5594 4.70344 58.5796 4.72042C58.6032 4.7408 58.6571 4.78157 58.6976 4.81553C58.7346 4.8461 58.802 4.89706 58.8458 4.92423C58.8862 4.9514 58.9435 5.00236 58.9738 5.03632C59.0042 5.06689 59.0412 5.09407 59.0614 5.09407C59.0816 5.09407 59.1221 5.12124 59.1524 5.15181C59.1827 5.18578 59.2501 5.24353 59.2973 5.28089C59.3478 5.31826 59.4253 5.3794 59.4725 5.41676C59.5163 5.45413 59.6005 5.52206 59.6544 5.56962C59.7083 5.61717 59.7993 5.6919 59.8532 5.73945C59.9105 5.78701 60.0082 5.86853 60.0722 5.92628C60.1362 5.98063 60.2743 6.10291 60.3788 6.19802C60.4832 6.28973 60.6247 6.4256 60.8134 6.62941L57.2353 10.2504C53.947 13.5792 53.6506 13.8713 53.5967 13.8272C53.5665 13.8028 53.4984 13.7376 53.4361 13.6778L53.4147 13.6573C53.3507 13.5894 53.2328 13.4807 53.1519 13.4162C53.0744 13.3516 52.9633 13.2531 52.9026 13.1988C52.842 13.1478 52.7577 13.0799 52.7106 13.0493C52.6634 13.0187 52.6162 12.9746 52.6028 12.9508C52.5859 12.927 52.5556 12.9066 52.5354 12.9066C52.5118 12.9066 52.4478 12.8591 52.3905 12.8013C52.3332 12.747 52.2692 12.7028 52.249 12.7028C52.2254 12.7028 52.2052 12.6892 52.2052 12.6689C52.2052 12.6485 52.1816 12.6349 52.1547 12.6349C52.1277 12.6349 52.0974 12.6111 52.0873 12.5839C52.0772 12.5568 52.0468 12.533 52.0199 12.533C51.9929 12.533 51.9693 12.5194 51.9693 12.499C51.9693 12.4786 51.9458 12.4651 51.9188 12.4651C51.8919 12.4651 51.8683 12.4515 51.8683 12.4311C51.8683 12.4107 51.8447 12.3971 51.8177 12.3971C51.7908 12.3971 51.7672 12.3835 51.7672 12.3632C51.7672 12.3428 51.7436 12.3292 51.7167 12.3292C51.6897 12.3292 51.6661 12.3156 51.6661 12.2952C51.6661 12.2748 51.6425 12.2613 51.6156 12.2613C51.5886 12.2613 51.5651 12.2477 51.5651 12.2273C51.5651 12.2069 51.5415 12.1933 51.5145 12.1933C51.4876 12.1933 51.4438 12.1729 51.4202 12.1526C51.3966 12.1288 51.3461 12.088 51.3124 12.0642C51.2753 12.0405 51.2046 12.0065 51.154 11.9895C51.1001 11.9691 51.0597 11.942 51.0597 11.9216C51.0597 11.9012 51.0058 11.874 50.9418 11.8536C50.8777 11.8333 50.8036 11.7993 50.7834 11.7755C50.7598 11.7517 50.5779 11.6532 50.3791 11.5547C50.177 11.4562 50.0051 11.3781 49.9917 11.3747C49.9748 11.3747 49.8973 11.3339 49.8131 11.2864C49.7289 11.2354 49.6547 11.1981 49.6446 11.2015C49.6345 11.2015 49.5941 11.1981 49.5537 11.1913C49.5099 11.1811 49.4762 11.1539 49.4762 11.1335C49.4762 11.1097 49.4661 11.0996 49.4526 11.1131C49.4357 11.1267 49.3953 11.1199 49.3583 11.0996C49.3212 11.0758 49.2841 11.0554 49.274 11.052C49.2639 11.052 49.2302 11.0384 49.1999 11.0282C49.1662 11.0146 49.1123 10.9943 49.082 10.9807C49.0483 10.9705 49.0146 10.9569 49.0045 10.9535C48.9944 10.9501 48.9438 10.9297 48.8866 10.9059C48.8315 10.8831 48.6829 10.8319 48.5487 10.7857L48.5328 10.7803C48.3947 10.7361 48.2431 10.6919 48.1959 10.6818C48.1487 10.6716 48.1049 10.658 48.0948 10.6478C48.0847 10.641 48.0342 10.6274 47.9769 10.6138C47.9196 10.6036 47.8623 10.59 47.8421 10.5832C47.8253 10.5765 47.7849 10.5629 47.7579 10.5527C47.7309 10.5391 47.613 10.5085 47.4985 10.4779C47.3806 10.4508 47.2862 10.4338 47.2862 10.444C47.2862 10.4542 47.2593 10.4474 47.2289 10.4304C47.1953 10.4134 47.1009 10.3896 47.0167 10.376C46.9325 10.3659 46.8348 10.3489 46.7977 10.3421C46.7606 10.3353 46.6764 10.3217 46.6124 10.3081C46.5484 10.2979 46.4574 10.2809 46.4102 10.2741C46.3631 10.2673 46.2654 10.2538 46.1912 10.2402C46.1171 10.23 45.9891 10.213 45.9049 10.2062C45.8206 10.196 45.6926 10.179 45.6185 10.1722C45.5444 10.162 45.349 10.1451 45.1805 10.1315C45.012 10.1213 44.4999 10.1077 44.035 10.1077C43.5734 10.1111 43.0647 10.1213 42.9063 10.1349C42.748 10.1485 42.566 10.1654 42.502 10.1722C42.438 10.1756 42.31 10.1926 42.2156 10.2062C42.1247 10.2164 42.0101 10.2334 41.9629 10.2402C41.9158 10.247 41.8349 10.264 41.7776 10.2741C41.7204 10.2843 41.6328 10.2979 41.5755 10.3081C41.5182 10.3149 41.434 10.3285 41.3835 10.3421C41.3295 10.3523 41.2554 10.3659 41.215 10.3726C41.1712 10.3828 41.1004 10.3964 41.0533 10.4066C41.0061 10.4202 40.9387 10.4338 40.9017 10.444C40.8646 10.4508 40.8006 10.4644 40.7602 10.4746C40.7164 10.4881 40.6523 10.5017 40.6153 10.5119C40.5782 10.5221 40.5176 10.5357 40.4805 10.5459C40.4435 10.5561 40.3794 10.5697 40.339 10.5799C40.2952 10.59 40.2548 10.607 40.2447 10.6138C40.2346 10.6206 40.1672 10.6376 40.0931 10.6478C40.0189 10.6614 39.9381 10.6885 39.9145 10.7089C39.8909 10.7327 39.8707 10.7361 39.8741 10.7157C39.8741 10.6953 39.8539 10.7055 39.8235 10.7327C39.7932 10.7599 39.773 10.7701 39.773 10.7497C39.773 10.7293 39.7528 10.7395 39.7225 10.7667C39.6921 10.7938 39.6686 10.8074 39.6719 10.7938C39.6719 10.7769 39.6079 10.7905 39.5304 10.8176C39.4496 10.8482 39.362 10.8788 39.335 10.8924C39.3081 10.9025 39.2744 10.9195 39.2609 10.9263C39.244 10.9297 39.2272 10.9365 39.2171 10.9365C39.207 10.9365 39.1901 10.9433 39.1767 10.9467C39.1598 10.9535 39.1227 10.9705 39.0924 10.9807C39.0587 10.9943 39.0048 11.0146 38.9745 11.0282C38.9408 11.0384 38.9071 11.052 38.897 11.052C38.8869 11.0554 38.8465 11.0758 38.806 11.0996C38.7622 11.1233 38.7286 11.1335 38.7286 11.1233C38.7286 11.1131 38.6915 11.1301 38.6443 11.1573C38.5972 11.1845 38.5601 11.2015 38.5601 11.1913C38.5601 11.1811 38.5062 11.2049 38.4422 11.2422C38.3782 11.2796 38.3243 11.3034 38.3243 11.2932C38.3243 11.283 38.2602 11.3136 38.1794 11.3611C38.1019 11.4087 38.0278 11.4358 38.0109 11.4223C37.9974 11.4053 37.9873 11.4189 37.9873 11.446C37.9873 11.4732 37.9772 11.4868 37.9638 11.4732C37.9469 11.4596 37.7852 11.5276 37.5999 11.6227C37.4146 11.7178 37.2428 11.8163 37.2225 11.8435C37.199 11.8672 37.1248 11.9012 37.0608 11.9216C36.9968 11.942 36.9429 11.9691 36.9429 11.9895C36.9429 12.0099 36.889 12.0371 36.825 12.0574C36.761 12.0778 36.7071 12.105 36.7071 12.1254C36.7071 12.1458 36.67 12.1661 36.6228 12.1763C36.5757 12.1865 36.5386 12.2069 36.5386 12.2273C36.5386 12.2477 36.515 12.2613 36.4881 12.2613C36.4611 12.2613 36.4375 12.2748 36.4375 12.2952C36.4375 12.3156 36.4207 12.3224 36.4038 12.3122C36.387 12.302 36.3701 12.3088 36.3701 12.3292C36.3701 12.3496 36.3466 12.3632 36.3196 12.3632C36.2927 12.3632 36.2691 12.3767 36.2691 12.3971C36.2691 12.4175 36.2522 12.4311 36.2354 12.4311C36.2185 12.4311 36.1309 12.4786 36.0433 12.5398C35.9524 12.5975 35.8782 12.6587 35.8749 12.6757C35.8681 12.6892 35.8479 12.7028 35.8311 12.7028C35.8142 12.7028 35.757 12.7402 35.7064 12.7878C35.6525 12.8353 35.5986 12.8727 35.5851 12.8727C35.5683 12.8727 35.538 12.8931 35.5144 12.9168C35.4874 12.9372 35.4335 12.9814 35.3931 13.0085C35.3527 13.0357 35.292 13.0833 35.2583 13.1104C35.2213 13.1376 35.1572 13.192 35.1101 13.2293L35.0991 13.238C35.0516 13.2756 34.9822 13.3306 34.9416 13.3652C34.8945 13.4026 34.8102 13.4705 34.7496 13.5181C34.6889 13.5656 34.6013 13.6403 34.5508 13.6879C34.4969 13.7355 34.3284 13.8883 34.1768 14.0276C34.0218 14.1668 33.8197 14.3605 33.7254 14.4522L33.7215 14.4562C33.6293 14.5526 33.4473 14.7429 33.3211 14.8836L33.3113 14.8944C33.1849 15.0352 33.0297 15.2082 32.9673 15.2844C32.9033 15.3625 32.8123 15.4712 32.7651 15.5222C32.718 15.5731 32.6506 15.658 32.6135 15.709C32.5765 15.7565 32.5192 15.8245 32.4855 15.855C32.4552 15.8856 32.4282 15.9298 32.4282 15.9467C32.4282 15.9637 32.4013 16.0079 32.371 16.0385C32.3373 16.069 32.2935 16.1166 32.2732 16.1404C32.2564 16.1641 32.2295 16.2117 32.216 16.2457C32.2025 16.2762 32.1755 16.3034 32.1587 16.3034C32.1419 16.3034 32.125 16.3204 32.125 16.3374C32.125 16.3544 32.1048 16.3951 32.0846 16.4223C32.061 16.4529 32.0206 16.497 32.0003 16.5242C31.9768 16.5514 31.9565 16.5921 31.9565 16.6091C31.9565 16.6261 31.9397 16.6431 31.9229 16.6431C31.906 16.6431 31.8892 16.6669 31.8892 16.694C31.8892 16.7212 31.8723 16.745 31.8555 16.745C31.8386 16.745 31.8218 16.7688 31.8218 16.7959C31.8218 16.8231 31.8049 16.8469 31.7881 16.8469C31.7712 16.8469 31.7544 16.8707 31.7544 16.8978C31.7544 16.925 31.7376 16.9488 31.7207 16.9488C31.7039 16.9488 31.687 16.9726 31.687 16.9997C31.687 17.0269 31.6702 17.0507 31.6533 17.0507C31.6365 17.0507 31.6129 17.0881 31.6028 17.1356C31.5927 17.1832 31.5691 17.2205 31.5522 17.2205C31.5354 17.2205 31.5186 17.2443 31.5186 17.2715C31.5186 17.2987 31.5017 17.3224 31.4849 17.3224C31.468 17.3224 31.4444 17.3598 31.4343 17.4074C31.4242 17.4549 31.4006 17.4923 31.3838 17.4923C31.3669 17.4923 31.3568 17.5093 31.3669 17.5262C31.3771 17.5432 31.3669 17.5602 31.3501 17.5602C31.3333 17.5602 31.3164 17.5806 31.3164 17.6044C31.3164 17.6248 31.2861 17.6825 31.249 17.7301C31.212 17.7776 31.1816 17.8354 31.1816 17.8591C31.1816 17.8795 31.1581 17.9237 31.1277 17.9508C31.1008 17.978 31.0873 18.0018 31.1042 18.0018C31.1176 18.0018 31.1143 18.0154 31.0974 18.029C31.0772 18.0426 30.966 18.2532 30.8447 18.4943C30.7268 18.7355 30.6325 18.9461 30.6358 18.9631C30.6392 18.9767 30.6224 18.9869 30.6021 18.9869C30.5786 18.9869 30.5685 18.997 30.5819 19.0106C30.5954 19.0276 30.5685 19.1023 30.5247 19.1839C30.4775 19.262 30.4472 19.3265 30.4573 19.3265C30.4674 19.3265 30.4505 19.3639 30.4236 19.4115C30.3966 19.459 30.3798 19.4964 30.3899 19.4964C30.4 19.4964 30.3865 19.5371 30.3596 19.5915C30.3326 19.6424 30.3023 19.7138 30.2888 19.7511C30.2787 19.7885 30.272 19.8191 30.2787 19.8191C30.2854 19.8225 30.2619 19.8632 30.2315 19.9142C30.1978 19.9651 30.181 20.0059 30.1978 20.0059C30.2113 20.0025 30.1978 20.0263 30.1709 20.0568C30.1439 20.0874 30.1372 20.1078 30.154 20.1078C30.1743 20.1044 30.1709 20.1214 30.1507 20.1486C30.1271 20.1723 30.1035 20.2403 30.09 20.2946C30.0799 20.349 30.0496 20.4169 30.0193 20.4407C29.9789 20.4746 29.962 20.4712 29.9283 20.4373C29.9047 20.4135 29.807 20.3354 29.7127 20.2606C29.615 20.1859 29.4971 20.0942 29.4432 20.0568C29.3926 20.0195 29.3353 19.9719 29.3151 19.9549C29.2949 19.9346 29.1938 19.8564 29.0928 19.7749C28.9917 19.6968 28.8906 19.6221 28.8738 19.6051C28.8569 19.5915 28.712 19.4794 28.5537 19.3605C28.3987 19.2382 28.2505 19.1227 28.2336 19.1057C28.2134 19.0888 28.0753 18.9801 27.927 18.868C27.7822 18.7559 27.6541 18.6574 27.644 18.6472C27.6339 18.637 27.5497 18.5691 27.4554 18.4943C27.3576 18.4196 27.2397 18.3279 27.1858 18.2905C27.1353 18.2532 27.078 18.2056 27.0578 18.1886C27.0376 18.1682 26.9365 18.0901 26.8354 18.0086C26.7344 17.9305 26.6333 17.8557 26.6164 17.8387C26.5996 17.8252 26.4547 17.7131 26.2964 17.5942C26.1414 17.4719 25.9931 17.3564 25.9763 17.3394C25.9561 17.3224 25.8179 17.2137 25.6697 17.1017C25.5248 16.9896 25.3968 16.8911 25.3867 16.8809C25.3766 16.8707 25.2924 16.8027 25.198 16.728C25.1003 16.6533 24.9824 16.5616 24.9285 16.5242C24.8779 16.4868 24.8207 16.4393 24.8005 16.4223C24.7802 16.4019 24.686 16.3272 24.5917 16.2525L24.5916 16.2525C24.4939 16.1777 24.3759 16.086 24.322 16.0487C24.2715 16.0113 24.2142 15.9637 24.194 15.9467C24.1738 15.9264 24.066 15.8414 23.9548 15.7599C23.8436 15.675 23.7358 15.5935 23.7156 15.5731C23.6954 15.5527 23.5606 15.4474 23.4124 15.3353C23.2675 15.2232 23.1294 15.1179 23.1091 15.0976C23.0889 15.0772 22.9542 14.9719 22.8059 14.8598C22.661 14.7477 22.533 14.6492 22.5229 14.639C22.5128 14.6288 22.4286 14.5609 22.3342 14.4861C22.2365 14.4114 22.1186 14.3197 22.0681 14.2823C22.0175 14.245 21.9434 14.1872 21.903 14.1533C21.8625 14.1159 21.7985 14.0649 21.6772 13.9766L21.8188 13.6709C21.8962 13.5045 21.9737 13.3618 21.9872 13.3584C22.0041 13.3516 22.0108 13.3346 22.0007 13.3143C21.9906 13.2939 22.0007 13.2803 22.0175 13.2803C22.0344 13.2803 22.0782 13.2123 22.1085 13.1274C22.1422 13.0425 22.1793 12.9712 22.1927 12.9746C22.2096 12.9746 22.2365 12.9202 22.2534 12.8557C22.2702 12.7911 22.3039 12.7368 22.3208 12.7368C22.3376 12.7368 22.3713 12.6825 22.3881 12.6179C22.405 12.5534 22.4387 12.499 22.4555 12.499C22.4724 12.499 22.496 12.4617 22.5061 12.4141C22.5162 12.3666 22.5398 12.3292 22.5566 12.3292C22.5734 12.3292 22.5903 12.3054 22.5903 12.2782C22.5903 12.2511 22.6105 12.2069 22.6341 12.1865C22.661 12.1627 22.6914 12.1084 22.7015 12.0676C22.7149 12.0235 22.7419 11.9895 22.7587 11.9895C22.7756 11.9895 22.7924 11.9657 22.7924 11.9386C22.7924 11.9114 22.8093 11.8876 22.8261 11.8876C22.843 11.8876 22.8666 11.8502 22.8767 11.8027C22.8868 11.7551 22.9104 11.7178 22.9272 11.7178C22.944 11.7178 22.9609 11.694 22.9609 11.6668C22.9609 11.6396 22.9777 11.6159 22.9946 11.6159C23.0114 11.6159 23.0283 11.5921 23.0283 11.5649C23.0283 11.5377 23.0451 11.514 23.062 11.514C23.0788 11.514 23.0957 11.4902 23.0957 11.463C23.0957 11.4358 23.1125 11.4121 23.1294 11.4121C23.1462 11.4121 23.163 11.3883 23.163 11.3611C23.163 11.3339 23.1799 11.3102 23.1967 11.3102C23.2136 11.3102 23.2304 11.2864 23.2304 11.2592C23.2304 11.232 23.2473 11.2083 23.2641 11.2083C23.281 11.2083 23.2978 11.1845 23.2978 11.1573C23.2978 11.1301 23.3147 11.1064 23.3315 11.1064C23.3483 11.1064 23.3652 11.0826 23.3652 11.0554C23.3652 11.0282 23.382 11.0044 23.3989 11.0044C23.4157 11.0044 23.4326 10.9909 23.4326 10.9705C23.4326 10.9501 23.4696 10.8958 23.5168 10.8448C23.564 10.7905 23.601 10.7293 23.601 10.7089C23.601 10.6852 23.6179 10.6648 23.6347 10.6648C23.6516 10.6648 23.6684 10.641 23.6684 10.6138C23.6684 10.5866 23.692 10.5561 23.719 10.5459C23.7459 10.5357 23.7695 10.5153 23.7695 10.4949C23.7695 10.4746 23.7897 10.4372 23.8099 10.41C23.8335 10.3794 23.8739 10.3353 23.8942 10.3081C23.9177 10.2809 23.938 10.2436 23.938 10.2232C23.938 10.2028 23.9615 10.1824 23.9885 10.1722C24.0154 10.162 24.039 10.1315 24.039 10.1043C24.039 10.0771 24.0626 10.0466 24.0896 10.0364C24.1165 10.0262 24.1401 9.999 24.1401 9.97862C24.1401 9.95485 24.1671 9.90729 24.2007 9.87332C24.2311 9.83936 24.285 9.7884 24.3187 9.75444C24.349 9.72387 24.3759 9.67631 24.3759 9.65593C24.3759 9.63215 24.4063 9.59818 24.4433 9.5778C24.4804 9.55742 24.5107 9.52006 24.5107 9.49289C24.5107 9.46571 24.541 9.42835 24.5781 9.40797C24.6152 9.38759 24.6455 9.35362 24.6455 9.33324C24.6488 9.30946 24.6792 9.25851 24.7162 9.22114C24.7533 9.18378 24.824 9.10565 24.8746 9.04451C24.9251 8.98677 25.0195 8.87467 25.0835 8.79655C25.1475 8.72182 25.2553 8.59953 25.3193 8.52481C25.3833 8.45349 25.5348 8.28373 25.6561 8.14788L25.6562 8.14776C25.7775 8.01529 26.0875 7.6892 26.3469 7.42425C26.6063 7.1627 26.9399 6.83321 27.0881 6.69734C27.2364 6.56147 27.4217 6.39503 27.4992 6.3237C27.58 6.25576 27.6946 6.15386 27.7586 6.09612C27.8226 6.03837 27.9237 5.95685 27.9809 5.90929C28.0348 5.86174 28.1258 5.78701 28.1797 5.73945C28.2336 5.6919 28.3179 5.62396 28.3617 5.5866C28.4088 5.54924 28.4863 5.48809 28.5369 5.45073C28.584 5.41336 28.6514 5.35562 28.6817 5.32165C28.712 5.29108 28.7558 5.26391 28.7727 5.26391C28.7895 5.26391 28.83 5.23673 28.8603 5.20616C28.8906 5.17219 28.9479 5.12124 28.9917 5.09407C29.0321 5.06689 29.086 5.02613 29.1062 5.00575C29.1265 4.98877 29.1703 4.96159 29.2006 4.94801C29.2343 4.93442 29.2612 4.91064 29.2612 4.89026C29.2612 4.86988 29.2781 4.85629 29.2949 4.85629C29.3118 4.85629 29.3488 4.83931 29.369 4.82233C29.3926 4.80195 29.4667 4.7408 29.5308 4.68646C29.5948 4.63211 29.6689 4.58455 29.6891 4.58455C29.7127 4.58455 29.7329 4.57097 29.7329 4.55059C29.7329 4.5302 29.7565 4.51662 29.7834 4.51662C29.8104 4.51662 29.834 4.50303 29.834 4.48265C29.834 4.46227 29.8508 4.44868 29.8744 4.44868C29.898 4.44868 29.9317 4.4317 29.9485 4.41471C29.9687 4.39433 30.0968 4.30262 30.2282 4.21091C30.3629 4.1158 30.491 4.04107 30.5078 4.04107C30.5247 4.04107 30.5415 4.02748 30.5415 4.0071C30.5415 3.98672 30.5651 3.97313 30.592 3.97313C30.619 3.97313 30.6426 3.95955 30.6426 3.93917C30.6426 3.91879 30.6662 3.9052 30.6931 3.9052C30.7201 3.9052 30.7437 3.89161 30.7437 3.87123C30.7437 3.85085 30.7807 3.83047 30.8279 3.82028C30.875 3.81009 30.9121 3.78971 30.9121 3.76933C30.9121 3.74895 30.9391 3.72857 30.9694 3.71838C31.0031 3.71158 31.0604 3.68441 31.0974 3.66063C31.1311 3.63685 31.1816 3.59609 31.2086 3.57571C31.2322 3.55193 31.276 3.53155 31.3029 3.53155C31.3299 3.53155 31.3501 3.51797 31.3501 3.49759C31.3501 3.47721 31.3669 3.47041 31.3838 3.4806C31.4006 3.49079 31.4175 3.484 31.4175 3.46362C31.4175 3.44324 31.4545 3.42286 31.5017 3.41267C31.5489 3.40248 31.5859 3.3821 31.5859 3.36172C31.5859 3.34134 31.6398 3.31416 31.7039 3.29378C31.7679 3.2734 31.8218 3.24623 31.8218 3.22584C31.8218 3.20546 31.8892 3.1647 31.9734 3.13413C32.0576 3.10016 32.1284 3.0628 32.125 3.04921C32.125 3.03223 32.1419 3.02883 32.1587 3.03902C32.1755 3.04921 32.1924 3.04582 32.1924 3.03223C32.1924 3.01525 32.3373 2.93712 32.5125 2.8522C32.691 2.76728 32.8359 2.68916 32.8325 2.67557C32.8325 2.65858 32.8494 2.65519 32.8662 2.66538C32.8831 2.67557 32.9235 2.65858 32.9505 2.63141C32.9774 2.60424 33.001 2.58725 33.001 2.59744C33.001 2.60763 33.1256 2.54649 33.2773 2.46157C33.4322 2.38005 33.567 2.3223 33.5839 2.33589C33.5973 2.34948 33.6074 2.33589 33.6074 2.30872C33.6074 2.28154 33.6175 2.26796 33.631 2.28494C33.6479 2.29853 33.722 2.27135 33.7995 2.2238C33.8803 2.17624 33.9444 2.14567 33.9444 2.15586C33.9444 2.16605 34.0117 2.13548 34.096 2.08793C34.1802 2.04037 34.2476 2.0098 34.2476 2.01999C34.2476 2.03018 34.2846 2.0132 34.3318 1.98602C34.379 1.95885 34.416 1.94187 34.416 1.95206C34.416 1.96225 34.4699 1.93847 34.534 1.9011C34.598 1.86374 34.6519 1.83996 34.6519 1.85015C34.6519 1.86034 34.6889 1.84336 34.7361 1.81619C34.7833 1.78901 34.8203 1.77203 34.8203 1.78222C34.8203 1.79241 34.8574 1.77542 34.9046 1.74825C34.9517 1.72108 34.9888 1.70749 34.9888 1.72447C34.9854 1.73806 35.009 1.72447 35.0393 1.6973C35.0697 1.67012 35.0932 1.65654 35.0899 1.67352C35.0899 1.68711 35.1269 1.67352 35.1741 1.64635L35.1824 1.64154C35.226 1.61644 35.2621 1.5956 35.2684 1.59879C35.2718 1.59879 35.3021 1.592 35.3324 1.58181C35.3661 1.57162 35.42 1.55124 35.4504 1.53765C35.4841 1.52746 35.5211 1.51048 35.5346 1.50368C35.5514 1.50029 35.5683 1.49349 35.5784 1.49349C35.5885 1.49349 35.6121 1.4867 35.6289 1.47651C35.6458 1.46632 35.6694 1.45952 35.6795 1.45952C35.6896 1.45952 35.7064 1.45273 35.7199 1.44933C35.7367 1.44254 35.7873 1.41876 35.8378 1.39838C35.8917 1.37461 35.9557 1.35762 35.9827 1.35762C36.0096 1.35762 36.04 1.34064 36.0501 1.32365C36.0602 1.30667 36.104 1.28969 36.1512 1.28969C36.1983 1.28969 36.2421 1.2795 36.2489 1.26591C36.2556 1.24892 36.3263 1.22515 36.4072 1.21156C36.4881 1.19458 36.5757 1.16401 36.5992 1.14363C36.6228 1.11985 36.6397 1.11645 36.6397 1.13683C36.6397 1.15382 36.6599 1.14702 36.6902 1.11985C36.7205 1.09267 36.7441 1.07909 36.7408 1.09607C36.7408 1.10966 36.7947 1.09607 36.8587 1.0689C36.9227 1.04172 36.9766 1.02474 36.9766 1.03493C36.9766 1.04512 36.9968 1.04172 37.017 1.02813C37.0406 1.01455 37.081 0.997564 37.1013 0.994167C37.1248 0.987374 37.172 0.977183 37.2023 0.97039C37.236 0.960199 37.263 0.953406 37.263 0.950009C37.263 0.946612 37.2866 0.939819 37.3135 0.933025C37.3405 0.926232 37.4011 0.912645 37.4483 0.902454C37.4954 0.892264 37.5763 0.871883 37.6336 0.861693C37.6909 0.851503 37.7515 0.831122 37.7683 0.820932C37.7852 0.807345 37.8189 0.797154 37.8357 0.790361C37.8526 0.786964 37.9031 0.776774 37.9435 0.766584C37.9873 0.756395 38.0547 0.739416 38.0951 0.729225L38.0952 0.729219C38.1369 0.716285 38.2182 0.703351 38.2812 0.693347L38.2906 0.691855C38.3546 0.681664 38.4152 0.668077 38.4253 0.661284C38.4354 0.65449 38.4792 0.637506 38.5264 0.627316C38.5736 0.617126 38.6443 0.600142 38.6848 0.589951C38.7286 0.583158 38.7959 0.569571 38.8364 0.562777C38.8802 0.552587 38.9509 0.539 38.9981 0.525413C39.0453 0.511826 39.1126 0.498239 39.1497 0.491445C39.1868 0.484652 39.2609 0.471064 39.3182 0.460874C39.3754 0.450684 39.4731 0.4337 39.5372 0.42351C39.6012 0.413319 39.6921 0.396336 39.7393 0.386145C39.7865 0.379352 39.8606 0.362368 39.9078 0.355574C39.9549 0.348781 40.0459 0.331797 40.1099 0.325003C40.1739 0.314813 40.2851 0.297829 40.3525 0.287639C40.4232 0.277449 40.5378 0.263862 40.6052 0.253671C40.6759 0.240084 40.7703 0.226497 40.8174 0.219703C40.8646 0.21291 40.9859 0.199323 41.087 0.185736C41.188 0.172149 41.3262 0.155165 41.3902 0.151768C41.4542 0.144975 41.6159 0.131387 41.744 0.1178C41.872 0.10761 42.0539 0.0906262 42.1483 0.0838327C42.2392 0.0770392 42.5054 0.0634521 42.7379 0.049865Z" fill="#EA4335"/>
<path d="M44.0518 30.5019V25.5936V20.6852H67.6696L67.7066 20.9128C67.7242 21.0251 67.7647 21.3017 67.8038 21.5685L67.8212 21.6873C67.8683 21.9862 67.9324 22.5297 67.9694 22.8931C68.0065 23.2566 68.0536 23.8612 68.0772 24.2349C68.1008 24.6663 68.1109 25.4305 68.0974 26.3239C68.0873 27.1731 68.057 27.9849 68.0267 28.3619C67.9964 28.7084 67.9391 29.2485 67.902 29.5678C67.865 29.8871 67.7807 30.451 67.7201 30.8246C67.6561 31.1982 67.5651 31.6942 67.518 31.9286C67.4674 32.1629 67.3697 32.5977 67.2956 32.8966C67.2215 33.1955 67.0934 33.6677 67.0126 33.9496C66.9317 34.2282 66.7801 34.7037 66.679 35.0026C66.578 35.3015 66.4297 35.7227 66.3455 35.9367C66.2646 36.1507 66.1299 36.4802 66.0524 36.667C65.9749 36.8539 65.8064 37.2309 65.6784 37.506C65.5504 37.7846 65.3213 38.2431 65.1696 38.5251C65.0214 38.8104 64.7755 39.252 64.6272 39.5033C64.479 39.7547 64.196 40.2065 63.9972 40.5054C63.7984 40.8043 63.4783 41.2629 63.2829 41.5244C63.0875 41.786 62.7877 42.1698 62.6158 42.3736C62.4474 42.5774 62.1374 42.9375 61.9251 43.1719C61.7163 43.4062 61.3456 43.7901 61.1031 44.0278C60.8201 44.3064 60.6482 44.4524 60.6213 44.4389C60.5977 44.4253 58.7817 43.0088 56.585 41.2901C54.3883 39.5747 52.5724 38.1514 52.5521 38.1311C52.5185 38.1039 52.5993 38.0292 52.8891 37.8186C53.0946 37.6657 53.418 37.4143 53.6033 37.2581C53.7886 37.1018 54.139 36.7757 54.3782 36.5312C54.6208 36.29 54.9746 35.8926 55.1666 35.648C55.362 35.4034 55.6652 34.9856 55.8404 34.7139C56.019 34.4422 56.2885 33.9768 56.4402 33.6779C56.5918 33.379 56.7838 32.9646 56.8647 32.7608C56.9489 32.557 57.0803 32.1867 57.1578 31.9455C57.2353 31.7044 57.3431 31.3137 57.397 31.0794C57.4509 30.845 57.5048 30.6208 57.5284 30.5019H44.0518Z" fill="#4285F4"/>
<path d="M5.5524 60.5701C5.80845 59.7719 6.16221 58.6713 6.33741 58.1278C6.51598 57.5809 6.67433 57.1326 6.69117 57.1326C6.71139 57.1326 7.00113 57.9987 7.33468 59.0619C7.6716 60.1217 8.01862 61.2223 8.27131 62.0239H10.815C12.2132 62.0239 13.3655 62.0341 13.3756 62.0511C13.3823 62.0647 12.4659 62.7542 11.3339 63.5864C10.2052 64.4186 9.27869 65.1048 9.27869 65.115C9.28206 65.1252 9.63582 66.2223 10.0637 67.5505C10.495 68.882 10.8386 69.9825 10.8251 69.9961C10.8117 70.0131 10.2086 69.5885 9.4842 69.0552C8.75984 68.5219 8.086 68.026 7.98493 67.9513L7.61769 67.6795C7.51325 67.6048 7.34479 67.4825 7.24371 67.4078C7.14264 67.3331 6.99777 67.2244 6.91691 67.1632C6.83605 67.1055 6.74508 67.0477 6.71139 67.0375C6.67096 67.024 6.04429 67.4655 4.61577 68.5117C3.49384 69.3338 2.57069 70.0063 2.56058 70.0063C2.55048 70.0063 2.54374 69.9825 2.54374 69.9554C2.54374 69.9282 2.89076 68.8243 3.31864 67.5029C3.74316 66.1782 4.08007 65.0878 4.0666 65.0776C4.05312 65.0674 3.12997 64.3881 2.01141 63.5728C0.896219 62.7576 -0.0100848 62.0749 2.26935e-05 62.0579C0.0101302 62.0341 0.896219 62.0239 5.08745 62.0239L5.5524 60.5701Z" fill="#FED800"/>
<path d="M24.0828 60.4682C24.359 59.6156 24.7128 58.5151 24.8712 58.0259C25.0295 57.5334 25.171 57.1326 25.1912 57.1326C25.2081 57.1326 25.5214 58.0701 25.8853 59.2148C26.2458 60.3561 26.5995 61.4567 26.7848 62.0273L29.3184 62.0239C30.7133 62.0239 31.8622 62.0341 31.8723 62.0511C31.879 62.0647 30.9828 62.7372 29.8744 63.5491C28.7693 64.3609 27.8428 65.0402 27.8192 65.0606C27.7821 65.0912 27.9202 65.5566 28.5604 67.5335C28.9916 68.8752 29.3353 69.9792 29.3184 69.9893C29.305 69.9995 28.3818 69.3372 27.2666 68.5219C26.1481 67.7033 25.2182 67.0308 25.1946 67.0274C25.171 67.0206 24.2344 67.6897 23.1125 68.5117C21.9905 69.3338 21.0674 70.0063 21.0573 70.0063C21.0472 70.0063 21.0404 69.9859 21.0404 69.9656C21.0404 69.9418 21.3874 68.8378 21.8153 67.5097C22.5296 65.2814 22.5835 65.0946 22.5296 65.0538C22.4993 65.0301 22.3881 64.9519 22.287 64.8772C22.1859 64.8025 22.0175 64.6836 21.9164 64.6055C21.8153 64.5307 21.6772 64.4322 21.6132 64.3847C21.5492 64.3371 21.4178 64.242 21.3234 64.1741C21.2291 64.1027 20.5485 63.6068 19.814 63.0701C19.0796 62.53 18.4866 62.0749 18.4967 62.0579C18.5068 62.0341 19.3929 62.0239 23.5841 62.0239L24.0828 60.4682Z" fill="#FED800"/>
<path d="M79.0226 61.3841C79.1516 60.9791 79.4622 60.0044 79.7649 59.0619C80.1051 57.9987 80.3949 57.1326 80.4117 57.1326C80.4252 57.1326 80.5802 57.5809 80.7554 58.1278C80.9306 58.6713 81.2843 59.7719 82.0053 62.0239H84.5423C86.1966 62.0239 87.0827 62.0341 87.0928 62.0579C87.1029 62.0749 86.1966 62.7576 85.0814 63.5762C83.9628 64.3915 83.0397 65.0674 83.0262 65.0776C83.0127 65.0878 83.3496 66.1782 83.7742 67.5029C84.202 68.8243 84.5491 69.9282 84.5491 69.9554C84.5491 69.9825 84.5356 70.0029 84.5221 69.9995C84.5053 69.9927 83.5821 69.3202 82.4669 68.505C81.3517 67.6863 80.4286 67.0172 80.4151 67.0172C80.3983 67.0138 79.4717 67.6863 78.3498 68.5084C77.2279 69.3304 76.3014 69.9893 76.2845 69.9792C76.271 69.9656 76.608 68.8718 77.0358 67.5437C77.4604 66.2189 77.8107 65.1252 77.8107 65.115C77.8141 65.1048 77.6692 64.9893 77.4907 64.8602C77.3121 64.7311 77.0864 64.5613 76.9853 64.4866L76.9617 64.4691C76.8599 64.3939 76.7113 64.284 76.6147 64.2148C76.5136 64.1401 76.3789 64.0416 76.3148 63.994C76.2508 63.9465 76.1666 63.8853 76.1262 63.8582C76.0857 63.831 75.9948 63.7665 75.9274 63.7121C75.86 63.6612 75.7791 63.6 75.7488 63.5762C75.7151 63.5559 75.6343 63.4981 75.5703 63.4506C75.5029 63.403 75.3647 63.3045 75.2637 63.2298L74.8964 62.958C74.792 62.8833 74.6269 62.761 74.5292 62.6863C74.4281 62.6116 74.2024 62.4417 74.0272 62.3126C73.8486 62.1836 73.7105 62.0647 73.7206 62.0511C73.7273 62.0341 74.8796 62.0239 78.8215 62.0239L78.9832 61.5076L79.0226 61.3841Z" fill="#FED800"/>
<path d="M42.3975 60.7773C42.6199 60.0878 42.9703 58.9974 43.1792 58.3486C43.4521 57.4994 43.5734 57.1665 43.607 57.1665C43.6441 57.1665 43.8631 57.8221 45.1838 62.0069L47.7174 62.0239C49.3683 62.0341 50.2544 62.0511 50.2578 62.0749C50.2611 62.0919 49.4761 62.6863 48.5125 63.3928C47.5523 64.0959 46.6326 64.7685 46.1811 65.098L46.7168 66.7624C47.0133 67.6795 47.367 68.7733 47.5052 69.2013C47.6433 69.6259 47.7477 69.9792 47.7343 69.9893C47.7174 69.9961 47.4411 69.8093 47.1177 69.5749C46.7943 69.3372 45.8678 68.6612 43.5969 66.9968L41.5418 68.5016C40.4131 69.327 39.4765 69.9927 39.463 69.9792C39.4495 69.9656 39.7864 68.8786 40.2109 67.5607C40.6354 66.2427 40.9858 65.1455 40.9858 65.1252C40.9858 65.1014 40.9488 65.0538 40.9016 65.0233C40.8544 64.9893 40.7635 64.9248 40.7028 64.8772C40.6388 64.8296 40.5546 64.7685 40.5142 64.7413C40.4737 64.7142 40.3828 64.6496 40.3154 64.5953L40.3146 64.5947C40.2474 64.5439 40.167 64.4831 40.1368 64.4594C40.1031 64.439 40.0223 64.3813 39.9582 64.3337C39.8909 64.2862 39.7561 64.1877 39.655 64.1129L39.6316 64.0956C39.5299 64.0204 39.3811 63.9104 39.2844 63.8412L38.9172 63.5694L38.9167 63.5691C38.8153 63.4941 38.5631 63.3077 38.3545 63.1516C38.1423 62.9988 37.738 62.6999 37.4516 62.4893C37.1652 62.2821 36.926 62.0885 36.9193 62.0681C36.9125 62.0341 37.4347 62.0239 41.9966 62.0239L42.3975 60.7773Z" fill="#FED800"/>
<path d="M61.1637 59.67C61.5781 58.3792 61.9319 57.2854 61.9454 57.2447C61.9622 57.2005 61.9892 57.1665 62.0094 57.1665C62.0262 57.1665 62.097 57.3296 62.1576 57.5334C62.2216 57.7338 62.572 58.8174 62.9325 59.9451C63.2964 61.0694 63.5929 61.9967 63.5929 62.0069C63.5929 62.0171 64.7384 62.0239 66.1366 62.0239C67.5348 62.0239 68.6871 62.0341 68.6972 62.0511C68.7039 62.0647 67.8077 62.7372 66.6993 63.5491C65.5942 64.3609 64.6677 65.0402 64.6441 65.0606C64.607 65.0912 64.7451 65.5566 65.3853 67.5335C65.8165 68.8752 66.1602 69.9792 66.1467 69.9893C66.1299 69.9995 65.2067 69.3372 64.0915 68.5219C62.973 67.7033 62.0431 67.0308 62.0195 67.0274C61.9959 67.0206 61.0593 67.6897 59.9374 68.5117C58.8154 69.3338 57.8923 70.0063 57.8822 70.0063C57.8721 70.0063 57.8687 69.9859 57.8721 69.9588C57.8754 69.935 58.2225 68.831 58.647 67.5063C59.0681 66.1816 59.4118 65.098 59.405 65.0946C59.4017 65.0946 59.3511 65.0572 59.2938 65.0097C59.2366 64.9655 59.1557 64.9044 59.1119 64.8772C59.0681 64.85 58.994 64.7957 58.9468 64.7583C58.8997 64.721 58.7986 64.6462 58.7245 64.5953C58.6503 64.5409 58.5223 64.4458 58.4381 64.3847C58.3539 64.3201 58.2123 64.2148 58.118 64.1469C58.027 64.0824 57.8721 63.9703 57.7777 63.8989C57.6834 63.831 57.0871 63.3962 56.4537 62.9343C55.8236 62.4689 55.3115 62.0749 55.3216 62.0579C55.3317 62.0341 56.2178 62.0239 60.409 62.0239L61.1637 59.67Z" fill="#FED800"/>
</svg>
