<svg width="12" height="11" viewBox="0 0 12 11" fill="none" xmlns="http://www.w3.org/2000/svg">
<path d="M6.84648 9.3C6.31315 9.3 5.85898 9.1375 5.48398 8.8125C5.10898 8.4875 4.87565 8.075 4.78398 7.575L5.30898 7.075C5.48398 6.90833 5.65482 6.73333 5.82148 6.55C5.76315 6.64167 5.7194 6.74167 5.69023 6.85C5.66107 6.95833 5.64648 7.07083 5.64648 7.1875C5.64648 7.52917 5.75898 7.81667 5.98398 8.05C6.20898 8.28333 6.49648 8.4 6.84648 8.4C7.19648 8.4 7.48398 8.28279 7.70898 8.04838C7.93398 7.81396 8.04648 7.527 8.04648 7.1875C8.04648 6.85167 7.93398 6.56979 7.70898 6.34188C7.48398 6.11396 7.19648 6 6.84648 6C6.69648 6 6.5569 6.02083 6.42773 6.0625C6.29857 6.10417 6.18398 6.16667 6.08398 6.25C6.24282 6.06458 6.39503 5.87654 6.54061 5.68588C6.68619 5.49529 6.81732 5.3 6.93398 5.1C7.50898 5.125 7.98815 5.33958 8.37148 5.74375C8.75482 6.14792 8.94648 6.63333 8.94648 7.2C8.94648 7.78333 8.74648 8.27917 8.34648 8.6875C7.94648 9.09583 7.44648 9.3 6.84648 9.3ZM8.34648 2.4H7.55898C7.57565 2.49167 7.58607 2.58804 7.59023 2.68913C7.5944 2.79021 7.59648 2.89383 7.59648 3V3.15C7.59648 3.2 7.59232 3.25 7.58398 3.3H7.89648L8.79648 4.5H10.7465V9.9H2.94648V7.7375C2.79648 7.605 2.64648 7.467 2.49648 7.3235C2.34648 7.18 2.19648 7.03467 2.04648 6.8875V9.9C2.04648 10.1417 2.13461 10.3521 2.31086 10.5313C2.48711 10.7104 2.69898 10.8 2.94648 10.8H10.7465C10.9882 10.8 11.1986 10.7104 11.3777 10.5313C11.5569 10.3521 11.6465 10.1417 11.6465 9.9V4.5C11.6465 4.25833 11.5569 4.04792 11.3777 3.86875C11.1986 3.68958 10.9882 3.6 10.7465 3.6H9.24648L8.34648 2.4ZM3.77148 7.275C2.78815 6.43333 2.05273 5.66042 1.56523 4.95625C1.07773 4.25208 0.833983 3.59625 0.833983 2.98875C0.833983 2.0735 1.12977 1.34658 1.72136 0.808C2.31286 0.269334 2.99619 0 3.77136 0C4.54644 0 5.22773 0.266667 5.81523 0.8C6.40273 1.33333 6.69648 2.06667 6.69648 3C6.69648 3.60008 6.45482 4.25221 5.97148 4.95638C5.48815 5.66046 4.75482 6.43333 3.77148 7.275ZM3.77186 6.075C4.65494 5.25833 5.21315 4.59921 5.44648 4.09763C5.67982 3.59604 5.79648 3.22404 5.79648 2.98163C5.79648 2.30446 5.58436 1.78821 5.16011 1.43288C4.73578 1.07763 4.27328 0.9 3.77261 0.9C3.27186 0.9 2.8069 1.078 2.37773 1.434C1.94857 1.79 1.73398 2.30721 1.73398 2.98562C1.73398 3.22854 1.85286 3.6 2.09061 4.1C2.32836 4.6 2.88878 5.25833 3.77186 6.075ZM4.57148 4.2125L4.25898 3.2125L5.08398 2.55H4.09648L3.77148 1.575L3.44648 2.55H2.45898L3.28398 3.2125L2.97148 4.2125L3.77148 3.6L4.57148 4.2125Z" fill="white" fill-opacity="0.6"/>
</svg>
