<svg width="91" height="57" viewBox="0 0 91 57" fill="none" xmlns="http://www.w3.org/2000/svg">
<path fill-rule="evenodd" clip-rule="evenodd" d="M43.4547 0.164601C43.2487 0.202216 42.4811 0.409095 41.7695 0.615974C41.058 0.841662 40.0844 1.18019 39.6163 1.38707C39.1482 1.59395 38.3244 2.06413 37.7814 2.40266C37.2571 2.75999 36.8077 3.17376 36.8077 3.32421C36.8077 3.47467 37.1635 3.86962 37.6129 4.18934C38.0435 4.50907 38.7176 4.92283 39.1107 5.12971C39.4852 5.31778 39.9346 5.48705 40.0844 5.48705C40.2342 5.48705 40.7397 4.92283 41.1891 4.20815C41.6572 3.51228 42.4623 2.44028 43.024 1.83845C43.567 1.2178 44.0164 0.57836 44.0351 0.37148C44.0351 0.183409 43.9976 0.0517578 43.9414 0.0517578C43.8853 0.0705651 43.6606 0.108179 43.4547 0.164601ZM47.6862 0.352673C47.6862 0.540745 48.1731 1.199 48.7534 1.81963C49.3339 2.44028 50.1952 3.53109 50.6633 4.22696C51.1314 4.92283 51.6369 5.50585 51.7867 5.48705C51.9364 5.48705 52.5356 5.22374 53.0973 4.90402C53.6591 4.58429 54.3144 4.13293 54.5578 3.90723C54.7824 3.70036 54.9697 3.39944 54.9697 3.2678C54.9697 3.15494 54.6139 2.79762 54.1646 2.4967C53.7339 2.21459 53.0411 1.80083 52.6293 1.59395C52.2173 1.38707 51.2437 0.992119 50.4761 0.728818C49.7084 0.484324 48.7534 0.202216 48.3789 0.145794C47.7986 0.0329506 47.6862 0.0705651 47.6862 0.352673ZM46.4504 0.916889C46.3568 0.973311 46.3006 2.28981 46.3194 3.83201C46.3568 6.12648 46.413 6.63429 46.6377 6.70952C46.7874 6.76593 47.4428 6.70952 48.0794 6.61548C48.7347 6.50263 49.5211 6.33337 49.8207 6.23934C50.1203 6.1453 50.4386 5.95723 50.5134 5.82557C50.5696 5.69392 50.3824 5.12971 50.0828 4.60311C49.7833 4.0577 48.9219 2.96687 48.1731 2.19578C47.4428 1.40588 46.7687 0.766433 46.7126 0.78524C46.6564 0.78524 46.5441 0.841662 46.4504 0.916889ZM43.9789 1.78202C43.567 2.21459 42.8742 3.0421 42.4249 3.60632C41.9942 4.17054 41.5074 4.8664 41.3764 5.16732C41.1704 5.58108 41.1517 5.71273 41.3576 5.91961C41.4887 6.03245 42.1066 6.23934 42.7057 6.37098C43.3236 6.50263 44.11 6.65309 44.4283 6.70952C44.8402 6.77221 45.1398 6.70952 45.3271 6.52145C45.5517 6.29575 45.6079 5.71273 45.6079 3.85082C45.6079 2.15817 45.5517 1.36827 45.3832 1.199C45.2521 1.06735 45.0462 0.973311 44.9526 0.973311C44.8402 0.973311 44.4096 1.33064 43.9789 1.78202ZM34.9915 4.8664C34.5984 5.37421 34.0367 6.10768 33.7745 6.52145C33.4937 6.9352 33.0443 7.78153 32.7634 8.40216C32.5013 9.0228 32.1269 10.2829 31.9396 11.2232C31.7524 12.1636 31.6213 13.0288 31.6775 13.1603C31.7337 13.3296 32.5575 13.3861 34.9354 13.3861C37.5942 13.3861 38.1372 13.3485 38.212 13.104C38.2682 12.9535 38.3057 12.5774 38.3057 12.2577C38.3057 11.938 38.4367 11.1292 38.5865 10.4145C38.755 9.71867 39.1107 8.55262 39.3916 7.80033C39.841 6.59667 39.8597 6.40859 39.6163 6.1453C39.4665 5.97603 39.2606 5.84439 39.1482 5.86319C39.0359 5.86319 38.3057 5.44943 37.5005 4.92283C36.7142 4.41504 35.9839 3.98247 35.8903 3.98247C35.7967 3.98247 35.3847 4.37742 34.9915 4.88522V4.8664ZM54.0336 5.01687C53.1535 5.56228 52.3296 6.10768 52.1986 6.22052C52.0301 6.37098 52.0863 6.74713 52.5356 7.9696C52.8352 8.81593 53.1723 10.1136 53.2846 10.8283C53.3969 11.543 53.528 12.4269 53.5841 12.7655L53.6591 13.3673C59.7068 13.3673 60.0438 13.3296 60.1188 13.0476C60.1749 12.8594 60.0813 12.0319 59.9128 11.2044C59.7443 10.3769 59.4634 9.32372 59.2761 8.85354C59.0889 8.38336 58.677 7.53703 58.34 6.97281C58.0029 6.40859 57.3663 5.48705 56.9169 4.96044C56.4676 4.41504 55.9808 3.96366 55.8498 3.98247C55.7374 4.00127 54.9136 4.45265 54.0336 5.01687ZM40.6274 6.72832C40.4964 6.82236 40.2716 7.21731 40.0844 7.63107C39.9159 8.04483 39.6164 9.06041 39.4104 9.88794C39.2231 10.7154 39.0546 11.8439 39.0546 12.3892V13.3673C44.8964 13.3673 45.4394 13.3296 45.5142 13.0852C45.5704 12.9347 45.6079 11.7122 45.6079 10.3581C45.6079 8.43978 45.5517 7.85676 45.3271 7.63107C45.1772 7.48061 44.8214 7.34896 44.5219 7.34896C44.2411 7.34896 43.4734 7.21731 42.7994 7.06685C42.1252 6.9164 41.4137 6.74713 41.2079 6.6907C41.0019 6.63429 40.7397 6.65309 40.6274 6.72832ZM50.1016 6.80355C49.8394 6.89759 49.0904 7.06685 48.4164 7.17969C47.7424 7.27373 47.0309 7.40538 46.8062 7.4618C46.4504 7.53703 46.4317 7.68749 46.3943 10.4522L46.3568 13.3673C51.9178 13.3673 52.7416 13.3108 52.7978 13.1416C52.8352 13.0099 52.7978 12.2953 52.7041 11.5805C52.6293 10.8659 52.4046 9.7939 52.2361 9.22968C52.0676 8.66546 51.7679 7.83794 51.5807 7.40538C51.3561 6.87878 51.1126 6.59667 50.8879 6.61548C50.7194 6.61548 50.3637 6.70952 50.1016 6.80355ZM31.6962 14.3453C31.64 14.4769 31.7149 15.2292 31.846 16.0002C31.9957 16.7713 32.2392 17.787 32.4077 18.2572C32.5762 18.7273 33.0069 19.6489 33.3439 20.3259C33.6997 21.003 34.3737 21.9998 34.8417 22.5264C35.3099 23.0717 35.8154 23.5231 35.9652 23.5231C36.115 23.5231 36.6392 23.2599 37.1261 22.9402C37.6316 22.6205 38.418 22.1503 38.9049 21.9057C39.4104 21.6612 39.8036 21.3415 39.8036 21.2099C39.8036 21.097 39.635 20.5328 39.4291 19.9874C39.2231 19.4608 38.8861 18.2948 38.6801 17.4108C38.4742 16.5269 38.3057 15.5677 38.3057 15.248C38.3057 14.9283 38.2682 14.5521 38.212 14.4016C38.1372 14.1572 37.5942 14.1196 34.9541 14.1196C32.5949 14.1196 31.7524 14.176 31.6962 14.3453ZM39.0546 15.0976C39.0546 15.6429 39.2231 16.7901 39.4291 17.6365C39.635 18.5016 39.9346 19.5172 40.0844 19.8933C40.2529 20.2884 40.5151 20.702 40.7022 20.8337C40.9457 21.003 41.1704 21.003 41.6759 20.8149C42.0317 20.6645 43.0053 20.4576 43.8291 20.3447C44.6529 20.2131 45.3832 20.025 45.4581 19.8933C45.5329 19.7617 45.6079 18.5393 45.6079 17.1663C45.6079 15.8122 45.5704 14.5521 45.5142 14.4016C45.4394 14.1572 44.8964 14.1196 42.2376 14.1196H39.0546V15.0976ZM46.3568 17.11V20.1379C48.0232 20.2884 48.9594 20.4576 49.4837 20.6081C50.0266 20.7585 50.6446 20.8713 50.8504 20.8713C51.0939 20.8713 51.3373 20.6457 51.5807 20.1755C51.7679 19.7806 52.0676 19.0095 52.2173 18.4264C52.3858 17.8622 52.6106 16.7901 52.7229 16.0379C52.8165 15.2856 52.8726 14.5521 52.8164 14.3828C52.7416 14.1572 52.1986 14.1007 49.5399 14.1007H46.3568V17.11ZM53.5841 14.7214C53.5467 15.0599 53.4156 15.9626 53.2846 16.7337C53.1723 17.5236 52.8726 18.7461 52.6293 19.4608C52.3671 20.1943 52.1611 20.909 52.1611 21.0595C52.1611 21.2287 52.9288 21.8306 53.8838 22.4323C54.8386 23.0342 55.7374 23.5231 55.8498 23.5231C55.9808 23.5231 56.2991 23.2787 56.5799 22.9966C56.8421 22.7144 57.4413 21.8869 57.9093 21.1534C58.3961 20.4388 58.9766 19.3668 59.22 18.7649C59.4634 18.1631 59.7816 17.0723 59.9315 16.3201C60.1 15.5677 60.1749 14.759 60.1188 14.5333C60.0251 14.1195 59.9876 14.1007 56.8421 14.1007H53.6778L53.5841 14.7214ZM0.914507 18.5769C0.839613 18.8025 1.0643 19.1975 1.55111 19.7617C1.94431 20.2319 2.69326 20.8902 3.19879 21.2287L4.11626 21.8494C20.3683 21.8306 25.2178 21.9057 25.3677 21.9998C25.5362 22.0938 25.5923 22.2631 25.5174 22.3759C25.4238 22.5264 22.5778 22.5828 15.5938 22.5828C6.98097 22.564 5.78266 22.6016 5.5767 22.8649C5.38946 23.0906 5.40818 23.2599 5.68905 23.7489C5.895 24.0874 6.41927 24.708 6.86863 25.1029C7.318 25.5167 7.9546 25.9681 8.29162 26.0998C8.75972 26.2878 10.9504 26.3442 18.2526 26.3442C24.9182 26.3442 27.6707 26.4007 27.7642 26.5512C27.8392 26.6639 27.783 26.8332 27.6145 26.9273C27.4647 27.0214 23.3642 27.0965 18.496 27.0965C9.7708 27.0965 9.63973 27.0965 9.63973 27.4726C9.63973 27.6796 10.0891 28.3002 10.6321 28.8644C11.1751 29.4286 12.0363 30.0869 12.5419 30.3314C13.4781 30.7639 13.5155 30.7639 21.7727 30.8016C28.2885 30.8392 30.0485 30.9144 29.9924 31.0836C29.9362 31.2718 28.1574 31.347 22.0348 31.3658C14.6577 31.4222 14.1335 31.441 14.1335 31.742C14.1335 31.93 14.3768 32.419 14.6764 32.8328C14.976 33.2465 15.6313 33.8671 16.1181 34.2056C16.6237 34.5442 17.3352 34.9016 17.691 34.9955C18.0841 35.1084 21.8663 35.1648 27.0527 35.146L35.7592 35.0896C37.5005 34.2621 38.3431 33.7543 38.755 33.4157C39.1669 33.0772 39.7849 32.3814 40.1219 31.8735C40.4589 31.3658 40.7397 30.8016 40.7397 30.6134C40.721 30.3878 40.178 30.0305 38.9049 29.4286C37.8937 28.9585 36.5644 28.2249 35.9465 27.8113C35.3286 27.3787 34.28 26.57 33.6247 25.9869C32.9694 25.4039 32.052 24.4259 31.5839 23.8053C31.1345 23.1846 30.5167 22.1691 30.217 21.5484C29.9362 20.9278 29.543 19.9309 29.3557 19.3292L29.0187 18.2572C1.85069 18.2572 1.02685 18.276 0.914507 18.5769ZM62.7213 18.4828C62.6838 18.6145 62.5153 19.141 62.3468 19.6677C62.1783 20.1755 61.7851 21.1158 61.4668 21.7365C61.1673 22.3571 60.5493 23.3351 60.1188 23.8993C59.6881 24.4635 58.7893 25.4227 58.1153 26.0245C57.4599 26.6451 56.2804 27.5291 55.5127 27.9993C54.7263 28.4883 53.4531 29.1841 52.6667 29.5415C51.8803 29.8988 51.1876 30.3126 51.1314 30.4254C51.0752 30.5571 51.1876 31.0084 51.3934 31.4222C51.5994 31.8359 52.1611 32.5507 52.6106 33.0208C53.0786 33.491 54.0336 34.1493 54.7263 34.469L55.9808 35.0896C70.0423 35.1837 73.4874 35.146 73.9555 35.0143C74.3674 34.9204 75.1351 34.5442 75.6407 34.2056C76.1462 33.8671 76.8577 33.2089 77.1947 32.7387C77.5317 32.2685 77.7938 31.7983 77.7564 31.7043C77.7002 31.5915 74.7793 31.4786 69.7427 31.4222C63.6388 31.347 61.8038 31.2718 61.7664 31.0836C61.7103 30.9144 63.489 30.8392 70.0797 30.8016L78.4492 30.7639C80.022 29.88 80.8458 29.2406 81.2952 28.7327C81.7445 28.2437 82.1003 27.6796 82.1003 27.4726C82.1003 27.0965 81.988 27.0965 73.2627 27.0965C68.3946 27.0965 64.2941 27.0214 64.1256 26.9273C63.9758 26.8332 63.9196 26.6639 63.9945 26.5512C64.0881 26.4007 66.8592 26.3442 73.581 26.3442C81.8943 26.3442 83.1114 26.3066 83.6544 26.0433C83.9914 25.874 84.628 25.3851 85.0774 24.9525C85.5267 24.5388 85.9948 23.9557 86.1446 23.6548C86.3692 23.2411 86.3692 23.0906 86.182 22.8649C85.9761 22.6016 84.7777 22.564 76.3522 22.5828C71.072 22.5828 66.6345 22.5452 66.466 22.4888C66.2413 22.4135 66.2413 22.3383 66.4286 22.1126C66.6345 21.8494 67.9078 21.8117 77.101 21.8306C86.6689 21.8306 87.5864 21.8117 88.2229 21.4919C88.5974 21.3227 89.3651 20.6833 89.908 20.0814C90.451 19.4985 90.9004 18.8402 90.9004 18.6333C90.9004 18.2572 90.788 18.2572 76.8577 18.2572C65.792 18.2572 62.7962 18.3135 62.7213 18.4828ZM42.7806 21.1534C42.2189 21.2663 41.6572 21.4356 41.5261 21.5108C41.3951 21.586 41.2827 21.7929 41.2827 21.9621C41.2827 22.1503 41.6197 22.8085 42.0129 23.4292C42.4249 24.0498 43.2674 25.0653 43.8853 25.686C44.8964 26.7016 45.0462 26.7768 45.3083 26.5323C45.5517 26.3066 45.6079 25.8177 45.6079 23.8429C45.6079 22.5264 45.5517 21.3227 45.4956 21.1722C45.4394 20.9842 45.1585 20.8902 44.6156 20.909C44.1849 20.909 43.3611 21.0218 42.7806 21.1534ZM46.3756 23.6924C46.3568 25.4227 46.413 26.57 46.5254 26.6264C46.6377 26.6827 46.9372 26.5888 47.1807 26.4383C47.4428 26.2878 48.1169 25.5919 48.6973 24.8773C49.2589 24.1815 49.9331 23.2599 50.1951 22.8085C50.4386 22.3759 50.6071 21.8869 50.5509 21.7365C50.4948 21.5672 50.0454 21.3792 49.4837 21.2663C48.9407 21.1534 48.0232 21.003 47.4428 20.9466L46.413 20.8337L46.3756 23.6924ZM39.1857 22.47C38.755 22.6956 38.0622 23.0906 37.6877 23.3539C37.2946 23.5984 36.9389 23.9369 36.8827 24.1062C36.8077 24.2754 36.995 24.5764 37.3882 24.8961C37.7252 25.197 38.5116 25.6672 39.1295 25.9869C39.7474 26.2878 40.7584 26.6827 41.3764 26.8897C41.9942 27.0777 42.8555 27.3034 43.2861 27.3599C43.7542 27.435 44.1287 27.3975 44.1849 27.3034C44.2411 27.1906 43.6794 26.4571 42.9491 25.6484C42.2189 24.8397 41.3576 23.7489 41.0206 23.2034C40.7022 22.6768 40.3465 22.1879 40.2154 22.1503C40.1031 22.1126 39.635 22.2443 39.1857 22.47ZM51.6181 22.1691C51.5058 22.2067 51.0564 22.7709 50.6258 23.4104C50.1952 24.0498 49.3901 25.1029 48.8471 25.7424C48.2479 26.4195 47.8734 27.0402 47.9296 27.2094C47.9858 27.3599 48.0794 27.4915 48.1543 27.4915C48.2479 27.4915 48.8846 27.3222 49.6147 27.1153C50.3263 26.9273 51.3373 26.57 51.8616 26.363C52.3671 26.1374 53.2846 25.6484 53.865 25.2534C54.5016 24.8585 54.951 24.4259 54.951 24.2379C54.951 24.0498 54.5953 23.6736 54.1459 23.3727C53.7152 23.0717 53.0224 22.6581 52.5918 22.4512C52.1611 22.2443 51.7306 22.1126 51.6181 22.1691ZM17.1292 38.4938C17.1292 38.5313 16.6985 40.6377 16.1743 43.1391C15.6688 45.6405 14.5078 51.1886 14.5078 51.1886C14.5078 51.1886 13.6236 55.0441 13.251 56.4349L19.6007 56.3982C20.2317 54.3859 20.6303 52.2996 21.0425 50.3423C21.4357 48.3675 22.1284 45.0198 22.559 42.9134C22.9897 40.7882 23.3455 39.0015 23.3455 38.9639C23.3455 38.9075 23.3455 38.757 23.3267 38.6253C23.308 38.4561 22.559 38.3997 20.2186 38.3997C18.5148 38.3997 17.1292 38.4373 17.1292 38.4938ZM32.1643 38.6253C32.0707 38.757 31.6025 39.6222 31.1345 40.5625C30.6664 41.4841 28.7192 45.3583 26.7907 49.1574C23.8697 54.95 23.404 56.4349 23.404 56.4349H29.4005C29.4005 56.4349 29.7302 55.7399 29.8987 55.2697L30.2357 54.3858L35.9465 54.3671C36.1899 55.9844 36.3412 56.6427 36.3412 56.6427C36.3412 56.6427 38.0061 56.6427 39.2606 56.6239C40.5337 56.6239 42.248 56.5628 42.248 56.5628C42.248 56.5628 42.0129 55.7587 41.3202 52.3547C40.8707 50.2106 40.2154 47.051 39.8597 45.3583C39.5039 43.6469 39.0734 41.5781 38.9049 40.7506C38.755 39.9231 38.5491 39.0391 38.4554 38.8135C38.2869 38.3997 38.2307 38.3997 35.3099 38.3997C33.1567 38.3997 32.2954 38.4561 32.1643 38.6253ZM34.4112 44.7001L34.5609 45.5464C34.6359 45.9978 34.8417 47.2766 35.0102 48.3675C35.1601 49.4395 35.2724 50.3611 35.2537 50.3799C35.2162 50.3987 34.4673 50.3987 31.9396 50.3423L32.8758 48.1794C33.4 46.9758 33.9617 45.7157 34.1115 45.3583L34.4112 44.7001ZM44.7841 39.8478C44.6156 40.6565 44.4096 41.7097 44.3347 42.1987L44.1849 43.1015C48.6973 43.1015 49.3339 43.1579 49.3339 43.3271C49.3339 43.4588 49.2589 44.0794 49.1466 44.7001C49.0531 45.3207 48.7534 47.2203 48.4913 48.9317C48.2292 50.6244 47.8922 52.7873 47.7424 53.7275C47.5926 54.6491 47.2651 56.6239 47.2651 56.6239C47.2651 56.6239 52.5381 56.6077 53.5639 56.5486C53.5639 56.5486 53.7152 55.5519 53.9024 54.2918C54.0709 53.2573 54.3518 51.3014 54.5578 49.9662C54.7638 48.612 55.0821 46.5244 55.2693 45.3019L55.6063 43.1015H60.5681C60.8489 41.7097 61.0175 40.8635 61.1298 40.318C61.2421 39.7726 61.317 39.1144 61.317 38.8699V38.3997H45.0836L44.7841 39.8478ZM68.1137 38.6065C68.0201 38.7382 65.9792 42.7254 63.6013 47.4648C59.9689 54.6679 59.5008 56.3606 59.5008 56.3606C59.5008 56.3606 63.6013 56.4734 65.3051 56.3982C65.3051 56.3982 65.7171 55.7587 65.923 55.2509L66.2975 54.3482L71.9146 54.3671C72.1393 55.8904 72.4388 56.4734 72.4388 56.4734C73.2107 56.4817 77.9998 56.0596 77.9998 56.0596C77.9998 56.0596 77.3257 52.4486 76.4832 48.4991C75.6593 44.5308 74.8355 40.6565 74.6483 39.8854L74.33 38.4749C70.8661 38.4749 69.0971 38.6065 68.1137 38.6065ZM70.0797 45.3395C70.2482 44.9446 70.398 44.7942 70.4355 44.9634C70.4728 45.1139 70.6601 46.3928 70.8661 47.7845C71.072 49.1763 71.2218 50.3423 71.2031 50.3799C71.1843 50.3987 70.4355 50.3987 67.9078 50.3235L68.844 48.1606C69.3682 46.9758 69.9112 45.6968 70.0797 45.3395Z" fill="#B5B5B5"/>
</svg>
