<svg width="175" height="56" viewBox="0 0 175 56" fill="none" xmlns="http://www.w3.org/2000/svg">
<path fill-rule="evenodd" clip-rule="evenodd" d="M39.6236 0.105072C39.4318 0.140096 38.717 0.332727 38.0545 0.525359C37.392 0.735503 36.4854 1.05072 36.0495 1.24335C35.6137 1.43598 34.8466 1.87378 34.341 2.189C33.8528 2.52172 33.4344 2.90699 33.4344 3.04708C33.4344 3.18718 33.7657 3.55493 34.1841 3.85263C34.5851 4.15034 35.2127 4.5356 35.5788 4.72823C35.9275 4.90335 36.3459 5.06096 36.4854 5.06096C36.6249 5.06096 37.0956 4.5356 37.514 3.87014C37.9499 3.2222 38.6995 2.22402 39.2226 1.66364C39.7282 1.08574 40.1466 0.490335 40.164 0.297703C40.164 0.122584 40.1291 0 40.0768 0C40.0245 0.017512 39.8153 0.0525359 39.6236 0.105072ZM43.5637 0.280191C43.5637 0.455311 44.017 1.06823 44.5574 1.64612C45.0979 2.22402 45.8999 3.23971 46.3357 3.88766C46.7716 4.5356 47.2423 5.07847 47.3818 5.06096C47.5212 5.06096 48.0791 4.81579 48.6021 4.51809C49.1252 4.22038 49.7354 3.8001 49.962 3.58995C50.1712 3.39732 50.3456 3.11713 50.3456 2.99455C50.3456 2.88947 50.0143 2.55675 49.5959 2.27656C49.1949 2.01388 48.5498 1.62861 48.1663 1.43598C47.7827 1.24335 46.8762 0.875598 46.1614 0.630431C45.4466 0.402775 44.5574 0.140096 44.2087 0.0875598C43.6683 -0.017512 43.5637 0.017512 43.5637 0.280191ZM173.535 17.4069C173.483 17.547 173.431 18.6853 173.431 19.9461V22.2227C172.664 21.7499 172.106 21.6273 171.548 21.6098C170.676 21.6098 170.572 21.6623 169.926 22.3628L169.247 23.0983C169.264 30.9962 169.281 31.469 169.578 31.9418C169.77 32.2395 170.223 32.6073 170.659 32.7824C171.112 32.975 171.635 33.0626 171.949 33.0101C172.228 32.9575 172.681 32.7649 172.943 32.5547C173.361 32.257 173.448 32.2395 173.518 32.4672C173.57 32.6073 173.762 32.7649 173.954 32.8174C174.146 32.87 174.424 32.7999 174.564 32.6948C174.808 32.5022 174.843 31.539 174.825 25.0771C174.825 20.9968 174.791 17.547 174.738 17.4069C174.686 17.2493 174.442 17.1442 174.146 17.1442C173.849 17.1442 173.588 17.2493 173.535 17.4069ZM170.903 23.1858C171.164 22.9056 171.513 22.748 171.862 22.748C172.193 22.748 172.542 22.9056 172.821 23.1858C173.065 23.431 173.309 23.8863 173.361 24.2015C173.413 24.4992 173.431 26.1629 173.344 31.0137L172.855 31.434C172.594 31.6791 172.158 31.8543 171.862 31.8543C171.53 31.8543 171.182 31.6967 170.467 30.9787V27.3012C170.484 23.6412 170.484 23.6061 170.903 23.1858ZM121.738 41.4683C121.442 41.661 121.076 41.9937 120.902 42.2213C120.64 42.5716 120.605 43.1145 120.605 46.7745C120.605 49.9441 120.658 51.0649 120.849 51.4151C120.971 51.6953 121.372 52.0456 121.721 52.2032C122.07 52.3783 122.645 52.5184 122.994 52.5184C123.36 52.5184 123.918 52.3608 124.214 52.1681L124.789 51.8179C124.789 52.9737 124.72 53.5516 124.615 53.8318C124.528 54.112 124.249 54.4622 124.005 54.5673C123.761 54.6899 123.29 54.7949 122.959 54.7949C122.575 54.7949 122.209 54.6548 122 54.4447C121.808 54.2521 121.651 53.9719 121.651 53.8318C121.651 53.6917 121.529 53.5341 121.39 53.4815C121.25 53.429 121.006 53.429 120.867 53.4815C120.727 53.5341 120.57 53.7267 120.518 53.9193C120.466 54.112 120.535 54.4797 120.64 54.7424C120.762 54.9876 121.093 55.3728 121.355 55.5655C121.686 55.8106 122.174 55.9507 122.837 55.9858C123.604 56.0383 124.005 55.9507 124.598 55.6355C125.086 55.3903 125.487 55.0051 125.696 54.6198C125.992 54.0594 126.01 53.464 126.01 47.6501C126.01 41.4333 126.01 41.3107 125.661 41.2232C125.469 41.1706 125.19 41.1706 125.051 41.2232C124.911 41.2757 124.789 41.4333 124.789 41.5734C124.789 41.7835 124.685 41.766 124.214 41.4858C123.9 41.2932 123.342 41.1356 122.959 41.1356C122.575 41.1356 122.017 41.2932 121.738 41.4683ZM122.174 42.7117C122.401 42.484 122.767 42.3614 123.168 42.3614C123.656 42.3614 123.953 42.4665 124.266 42.8168C124.702 43.2546 124.702 43.3246 124.755 46.5293C124.789 48.9284 124.737 49.9441 124.58 50.3119C124.458 50.5921 124.197 50.9248 124.005 51.0649C123.813 51.1875 123.36 51.2925 122.994 51.2925C122.523 51.2925 122.279 51.1875 122.087 50.8898C121.878 50.5746 121.826 49.804 121.826 46.7745C121.826 43.2896 121.843 43.0444 122.174 42.7117ZM42.413 0.80555C42.3258 0.858086 42.2735 2.08392 42.291 3.51991C42.3258 5.65636 42.3782 6.12919 42.5874 6.19924C42.7268 6.25177 43.337 6.19924 43.9298 6.11168C44.54 6.0066 45.2722 5.849 45.5512 5.76144C45.8301 5.67388 46.1265 5.49876 46.1962 5.37617C46.2485 5.25359 46.0742 4.72823 45.7952 4.2379C45.5163 3.73005 44.7143 2.71435 44.017 1.99636C43.337 1.26086 42.7094 0.665455 42.6571 0.682967C42.6048 0.682967 42.5002 0.735503 42.413 0.80555ZM40.1117 1.6111C39.7282 2.01388 39.0831 2.7844 38.6647 3.30976C38.2637 3.83512 37.8104 4.48306 37.6884 4.76325C37.4966 5.14852 37.4792 5.2711 37.6709 5.46373C37.793 5.5688 38.3683 5.76144 38.9262 5.88402C39.5015 6.0066 40.2338 6.1467 40.5301 6.19924C40.9137 6.25761 41.1926 6.19924 41.367 6.02412C41.5762 5.81397 41.6285 5.2711 41.6285 3.53742C41.6285 1.96134 41.5762 1.22584 41.4193 1.06823C41.2972 0.945646 41.1055 0.858086 41.0183 0.858086C40.9137 0.858086 40.5127 1.19081 40.1117 1.6111ZM31.7433 4.48306C31.3772 4.95589 30.8542 5.63885 30.6101 6.02412C30.3486 6.40938 29.9302 7.19742 29.6686 7.77531C29.4246 8.35321 29.0759 9.52651 28.9015 10.4021C28.7272 11.2777 28.6052 12.0833 28.6575 12.2058C28.7098 12.3634 29.4769 12.416 31.691 12.416C34.1667 12.416 34.6723 12.381 34.742 12.1533C34.7943 12.0132 34.8292 11.663 34.8292 11.3653C34.8292 11.0676 34.9512 10.3145 35.0907 9.64909C35.2476 9.00115 35.5788 7.91541 35.8403 7.21493C36.2588 6.09416 36.2762 5.91904 36.0495 5.67388C35.9101 5.51627 35.7183 5.39369 35.6137 5.4112C35.5091 5.4112 34.8292 5.02593 34.0795 4.5356C33.3473 4.06278 32.6673 3.66 32.5802 3.66C32.493 3.66 32.1094 4.02775 31.7433 4.50058V4.48306ZM49.4739 4.62316C48.6544 5.13101 47.8873 5.63885 47.7653 5.74392C47.6084 5.88402 47.6607 6.23426 48.0791 7.37254C48.3581 8.16058 48.6719 9.3689 48.7765 10.0344C48.8811 10.6998 49.0031 11.5229 49.0554 11.8381L49.1252 12.3985C54.7564 12.3985 55.0702 12.3634 55.14 12.1008C55.1923 11.9256 55.1051 11.1551 54.9482 10.3846C54.7913 9.61407 54.5298 8.6334 54.3554 8.1956C54.1811 7.7578 53.7975 6.96976 53.4837 6.4444C53.1699 5.91904 52.5771 5.06096 52.1587 4.57062C51.7403 4.06278 51.287 3.64249 51.165 3.66C51.0604 3.67751 50.2933 4.0978 49.4739 4.62316ZM36.991 6.21675C36.869 6.30431 36.6597 6.67206 36.4854 7.05732C36.3285 7.44259 36.0496 8.38823 35.8578 9.15876C35.6834 9.92928 35.5265 10.98 35.5265 11.4878V12.3985C40.966 12.3985 41.4716 12.3634 41.5413 12.1358C41.5936 11.9957 41.6285 10.8574 41.6285 9.59656C41.6285 7.81034 41.5762 7.26747 41.367 7.05732C41.2275 6.91723 40.8962 6.79464 40.6173 6.79464C40.3558 6.79464 39.641 6.67206 39.0134 6.53196C38.3857 6.39187 37.7232 6.23426 37.5315 6.18172C37.3397 6.12919 37.0956 6.1467 36.991 6.21675ZM45.8127 6.2868C45.5686 6.37436 44.8712 6.53196 44.2436 6.63703C43.616 6.72459 42.9535 6.84718 42.7443 6.89971C42.413 6.96976 42.3956 7.10986 42.3607 9.68412L42.3258 12.3985C47.5038 12.3985 48.2709 12.3459 48.3232 12.1883C48.3581 12.0657 48.3232 11.4003 48.236 10.7348C48.1663 10.0694 47.9571 9.0712 47.8002 8.54584C47.6433 8.02048 47.3643 7.24995 47.19 6.84718C46.9808 6.35684 46.7541 6.09416 46.5449 6.11168C46.388 6.11168 46.0568 6.19924 45.8127 6.2868ZM28.6749 13.3091C28.6226 13.4317 28.6923 14.1322 28.8144 14.8501C28.9538 15.5681 29.1805 16.5138 29.3374 16.9516C29.4943 17.3894 29.8953 18.2475 30.2091 18.8779C30.5404 19.5083 31.168 20.4365 31.6038 20.9268C32.0397 21.4346 32.5104 21.8549 32.6499 21.8549C32.7894 21.8549 33.2775 21.6098 33.7308 21.3121C34.2015 21.0144 34.9338 20.5766 35.3871 20.3489C35.8578 20.1212 36.2239 19.8235 36.2239 19.701C36.2239 19.5959 36.067 19.0705 35.8752 18.5627C35.6834 18.0723 35.3696 16.9866 35.1778 16.1635C34.9861 15.3405 34.8292 14.4474 34.8292 14.1497C34.8292 13.852 34.7943 13.5017 34.742 13.3616C34.6723 13.134 34.1667 13.099 31.7084 13.099C29.5117 13.099 28.7272 13.1515 28.6749 13.3091ZM35.5265 14.0096C35.5265 14.5174 35.6834 15.5856 35.8752 16.3737C36.067 17.1792 36.3459 18.1249 36.4854 18.4751C36.6423 18.8429 36.8864 19.2281 37.0607 19.3507C37.2874 19.5083 37.4966 19.5083 37.9673 19.3332C38.2986 19.1931 39.2051 19.0005 39.9722 18.8954C40.7393 18.7728 41.4193 18.5977 41.489 18.4751C41.5587 18.3525 41.6285 17.2143 41.6285 15.9359C41.6285 14.675 41.5936 13.5017 41.5413 13.3616C41.4716 13.134 40.966 13.099 38.4903 13.099H35.5265V14.0096ZM42.3258 15.8834V18.7028C43.8775 18.8429 44.7492 19.0005 45.2374 19.1406C45.7429 19.2807 46.3183 19.3857 46.51 19.3857C46.7367 19.3857 46.9633 19.1756 47.19 18.7378C47.3643 18.3701 47.6433 17.6521 47.7827 17.1092C47.9396 16.5838 48.1489 15.5856 48.2535 14.8852C48.3406 14.1847 48.3929 13.5017 48.3406 13.3441C48.2709 13.134 47.7653 13.0814 45.2897 13.0814H42.3258V15.8834ZM49.0554 13.6593C49.0206 13.9745 48.8985 14.8151 48.7765 15.5331C48.6719 16.2686 48.3929 17.4069 48.1663 18.0723C47.9222 18.7553 47.7304 19.4208 47.7304 19.5609C47.7304 19.7185 48.4452 20.2789 49.3344 20.8392C50.2235 21.3996 51.0604 21.8549 51.165 21.8549C51.287 21.8549 51.5834 21.6273 51.8449 21.3646C52.089 21.1019 52.6469 20.3314 53.0827 19.6484C53.536 18.983 54.0765 17.9848 54.3031 17.4244C54.5298 16.864 54.8261 15.8483 54.9656 15.1479C55.1225 14.4474 55.1923 13.6944 55.14 13.4842C55.0528 13.0989 55.0179 13.0814 52.089 13.0814H49.1426L49.0554 13.6593ZM97.4178 16.899C97.1911 16.9691 97.1737 19.3682 97.1911 34.7437C97.226 50.3469 97.2609 52.5184 97.4875 52.5884C97.6444 52.641 97.8711 52.5534 98.0106 52.4133C98.2546 52.1857 98.2721 49.9791 98.2721 34.7262C98.2721 19.4733 98.2546 17.2668 98.0106 17.0391C97.8711 16.899 97.7316 16.7765 97.7142 16.794C97.6967 16.794 97.5573 16.8465 97.4178 16.899ZM0.0131445 17.2493C-0.0565921 17.4594 0.152618 17.8272 0.605906 18.3525C0.972023 18.7903 1.66939 19.4033 2.14011 19.7185L2.99439 20.2964C18.1272 20.2789 22.6427 20.3489 22.7822 20.4365C22.9391 20.524 22.9914 20.6816 22.9216 20.7867C22.8345 20.9268 20.1845 20.9793 13.6815 20.9793C5.66181 20.9618 4.54603 20.9968 4.35425 21.242C4.17991 21.4522 4.19734 21.6098 4.45886 22.0651C4.65063 22.3803 5.13879 22.9582 5.55721 23.3259C5.97563 23.7112 6.56839 24.1315 6.8822 24.2541C7.31806 24.4292 9.35785 24.4817 16.1572 24.4817C22.3637 24.4817 24.9266 24.5343 25.0137 24.6744C25.0835 24.7794 25.0312 24.937 24.8743 25.0246C24.7348 25.1122 20.9167 25.1822 16.3838 25.1822C8.2595 25.1822 8.13746 25.1822 8.13746 25.5324C8.13746 25.7251 8.55588 26.303 9.06147 26.8283C9.56706 27.3537 10.369 27.9666 10.8398 28.1943C11.7115 28.597 11.7463 28.597 19.4348 28.6321C25.5019 28.6671 27.1407 28.7371 27.0884 28.8947C27.0361 29.0699 25.3798 29.1399 19.6789 29.1574C12.8098 29.21 12.3217 29.2275 12.3217 29.5077C12.3217 29.6828 12.5483 30.1381 12.8273 30.5234C13.1062 30.9086 13.7164 31.4865 14.1697 31.8017C14.6404 32.1169 15.3029 32.4497 15.6342 32.5372C16.0003 32.6423 19.522 32.6948 24.3512 32.6773L32.4581 32.6248C34.0795 31.8543 34.864 31.3814 35.2476 31.0662C35.6311 30.751 36.2065 30.1031 36.5203 29.6302C36.8341 29.1574 37.0956 28.6321 37.0956 28.4569C37.0782 28.2468 36.5726 27.9141 35.3871 27.3537C34.4456 26.9159 33.2078 26.2329 32.6325 25.8477C32.0571 25.4449 31.0808 24.6919 30.4706 24.149C29.8604 23.6061 29.0062 22.6955 28.5703 22.1176C28.1519 21.5397 27.5766 20.5941 27.2976 20.0162C27.0361 19.4383 26.67 18.5101 26.4956 17.9498L26.1818 16.9516C0.884851 16.9516 0.117749 16.9691 0.0131445 17.2493ZM57.5633 17.1617C57.5284 17.2843 57.3715 17.7746 57.2146 18.265C57.0577 18.7378 56.6916 19.6134 56.3952 20.1913C56.1163 20.7692 55.5409 21.6798 55.14 22.2052C54.739 22.7305 53.9021 23.6236 53.2745 24.184C52.6643 24.7619 51.566 25.585 50.8512 26.0228C50.1189 26.4781 48.9334 27.126 48.2012 27.4588C47.4689 27.7915 46.8239 28.1768 46.7716 28.2818C46.7193 28.4044 46.8239 28.8247 47.0156 29.21C47.2074 29.5952 47.7304 30.2607 48.1489 30.6985C48.5847 31.1363 49.4739 31.7492 50.1189 32.0469L51.287 32.6248C64.3801 32.7124 67.5879 32.6773 68.0238 32.5547C68.4073 32.4672 69.1222 32.1169 69.5929 31.8017C70.0636 31.4865 70.7261 30.8736 71.0399 30.4358C71.3537 29.998 71.5978 29.5602 71.5629 29.4726C71.5106 29.3676 68.7909 29.2625 64.1011 29.21C58.4176 29.1399 56.709 29.0699 56.6742 28.8947C56.6219 28.7371 58.2781 28.6671 64.4149 28.6321L72.208 28.597C73.6725 27.774 74.4396 27.1786 74.858 26.7057C75.2764 26.2504 75.6077 25.7251 75.6077 25.5324C75.6077 25.1822 75.5031 25.1822 67.3787 25.1822C62.8459 25.1822 59.0278 25.1122 58.8709 25.0246C58.7314 24.937 58.6791 24.7794 58.7488 24.6744C58.836 24.5343 61.4162 24.4817 67.6751 24.4817C75.4159 24.4817 76.5491 24.4467 77.0547 24.2015C77.3685 24.0439 77.9613 23.5886 78.3797 23.1858C78.7981 22.8006 79.234 22.2577 79.3734 21.9775C79.5826 21.5923 79.5826 21.4522 79.4083 21.242C79.2165 20.9968 78.1007 20.9618 70.2554 20.9793C65.3389 20.9793 61.207 20.9443 61.0501 20.8918C60.8409 20.8217 60.8409 20.7517 61.0153 20.5415C61.207 20.2964 62.3926 20.2613 70.9527 20.2789C79.8616 20.2789 80.7159 20.2613 81.3086 19.9636C81.6573 19.806 82.3721 19.2106 82.8777 18.6502C83.3833 18.1074 83.8017 17.4945 83.8017 17.3018C83.8017 16.9516 83.6971 16.9516 70.7261 16.9516C60.4225 16.9516 57.633 17.0041 57.5633 17.1617ZM114.468 17.1617C114.294 17.3018 114.067 18.0198 113.893 19.053C113.719 19.9636 113.492 21.2595 113.353 21.9425C113.231 22.6079 113.004 23.7988 112.847 24.5693C112.708 25.3398 112.394 27.0735 112.15 28.4219C111.888 29.7703 111.609 31.2063 111.522 31.6091C111.383 32.2045 111.4 32.4146 111.609 32.6248C111.766 32.7649 111.958 32.8875 112.045 32.8875C112.15 32.8875 112.376 32.7999 112.568 32.7124C112.83 32.5898 112.952 32.2921 113.039 31.6091C113.091 31.1188 113.248 30.1906 113.37 29.5602C113.51 28.9298 113.614 28.3694 113.614 28.2818C113.614 28.2118 114.311 28.1592 115.148 28.1592H116.665C116.874 29.315 117.084 30.3307 117.24 31.1888C117.467 32.3446 117.624 32.7474 117.851 32.7999C118.025 32.8524 118.339 32.8349 118.548 32.7824C118.897 32.6773 118.932 32.5898 118.827 31.9418C118.757 31.5566 118.496 30.1206 118.252 28.7722C117.99 27.4237 117.519 24.867 117.188 23.0808C116.857 21.2946 116.473 19.2457 116.334 18.5277C116.194 17.8097 115.968 17.1617 115.846 17.0917C115.724 17.0216 115.427 16.9516 115.183 16.9516C114.939 16.9516 114.625 17.0567 114.468 17.1617ZM114.608 22.7831C114.887 21.2245 115.148 20.0512 115.218 20.1563C115.288 20.2789 115.427 20.9093 115.532 21.5923C115.636 22.2577 115.828 23.4135 115.968 24.1315C116.107 24.8495 116.264 25.7426 116.404 26.7583H113.788L113.963 26.1804C114.05 25.8827 114.329 24.3416 114.608 22.7831ZM151.028 17.3894C150.976 17.5295 150.923 18.6678 150.923 19.9286V22.2052C150.33 21.8199 149.912 21.6623 149.616 21.5923C149.337 21.5222 148.831 21.5572 148.482 21.6623C148.151 21.7674 147.646 22.0826 147.349 22.3803L146.826 22.9232V31.6441C147.646 32.4847 148.151 32.8174 148.482 32.9225C148.918 33.0451 149.267 33.0451 149.703 32.9225C150.052 32.8174 150.435 32.6073 150.575 32.4497C150.731 32.2921 150.906 32.1695 150.976 32.187C151.045 32.187 151.098 32.3096 151.098 32.4497C151.098 32.5898 151.22 32.7474 151.359 32.7999C151.516 32.8524 151.655 32.8875 151.708 32.8875C151.743 32.8875 151.9 32.7649 152.056 32.6248C152.283 32.3971 152.318 31.469 152.318 25.0071C152.318 20.9618 152.283 17.5295 152.231 17.3894C152.178 17.2318 151.934 17.1267 151.638 17.1267C151.359 17.1267 151.098 17.2318 151.028 17.3894ZM148.395 23.1683C148.639 22.9232 149.023 22.7305 149.267 22.7305C149.511 22.7305 149.86 22.8006 150.052 22.9057C150.243 23.0107 150.522 23.3084 150.662 23.6061C150.871 24.0264 150.923 24.8495 150.923 30.786L150.418 31.3114C150.069 31.6616 149.738 31.8368 149.372 31.8368C149.04 31.8368 148.674 31.6791 147.959 30.9612L147.977 27.2836C147.977 23.6236 147.994 23.5886 148.395 23.1683ZM154.602 18.6502C154.41 18.7028 154.358 18.983 154.375 19.5959C154.41 20.2438 154.497 20.4715 154.724 20.5415C154.898 20.5941 155.16 20.5941 155.334 20.5415C155.578 20.4715 155.63 20.2613 155.63 19.5784C155.63 18.9479 155.561 18.6853 155.369 18.6152C155.229 18.5627 155.055 18.5277 154.985 18.5452C154.916 18.5452 154.741 18.5977 154.602 18.6502ZM158.158 18.983C157.949 19.1756 157.879 19.5434 157.897 20.3314C157.914 21.3996 157.897 21.4171 157.391 21.5397C156.938 21.6623 156.851 21.7674 156.851 22.2052C156.851 22.678 156.921 22.7305 157.374 22.7305H157.897L157.984 32.222C158.751 32.8174 159.135 32.905 159.867 32.8875C160.599 32.8875 160.896 32.8174 160.948 32.6248C161 32.4847 161 32.2395 160.948 32.0994C160.913 31.9593 160.669 31.8368 160.425 31.8368C160.198 31.8368 159.832 31.7492 159.64 31.6616C159.309 31.4865 159.292 31.3114 159.292 27.1085V22.7305C160.634 22.7305 160.896 22.643 160.948 22.4679C161 22.3278 161.035 22.1701 161.035 22.1176C161.035 22.0651 160.93 21.9075 160.774 21.7674C160.634 21.6273 160.251 21.5047 159.902 21.5047H159.292C159.292 19.5959 159.222 19.1406 159.03 18.9655C158.891 18.8254 158.699 18.7028 158.612 18.7028C158.525 18.7028 158.315 18.8254 158.158 18.983ZM38.9959 19.6484C38.4729 19.7535 37.9499 19.9111 37.8278 19.9812C37.7058 20.0512 37.6012 20.2438 37.6012 20.4014C37.6012 20.5766 37.915 21.1895 38.2811 21.7674C38.6647 22.3453 39.4492 23.2909 40.0245 23.8688C40.966 24.8145 41.1055 24.8845 41.3495 24.6568C41.5762 24.4467 41.6285 23.9914 41.6285 22.1526C41.6285 20.9268 41.5762 19.806 41.5239 19.6659C41.4716 19.4908 41.2101 19.4033 40.7045 19.4208C40.3035 19.4208 39.5364 19.5258 38.9959 19.6484ZM42.3433 22.0125C42.3258 23.6236 42.3782 24.6919 42.4828 24.7444C42.5874 24.7969 42.8663 24.7094 43.093 24.5693C43.337 24.4292 43.9647 23.7812 44.5051 23.1158C45.0281 22.4679 45.6558 21.6098 45.8998 21.1895C46.1265 20.7867 46.2834 20.3314 46.2311 20.1913C46.1788 20.0337 45.7604 19.8586 45.2374 19.7535C44.7318 19.6484 43.8775 19.5083 43.337 19.4558L42.3782 19.3507L42.3433 22.0125ZM35.6486 20.8743C35.2476 21.0844 34.6025 21.4522 34.2538 21.6973C33.8877 21.925 33.5565 22.2402 33.5042 22.3978C33.4344 22.5554 33.6088 22.8356 33.9749 23.1333C34.2887 23.4135 35.0209 23.8513 35.5963 24.149C36.1716 24.4292 37.113 24.7969 37.6884 24.9896C38.2637 25.1647 39.0657 25.3748 39.4666 25.4274C39.9025 25.4974 40.2512 25.4624 40.3035 25.3748C40.3558 25.2698 39.8328 24.5868 39.1528 23.8338C38.4729 23.0808 37.6709 22.0651 37.3571 21.5572C37.0607 21.0669 36.7295 20.6116 36.6074 20.5766C36.5028 20.5415 36.067 20.6641 35.6486 20.8743ZM47.2248 20.5941C47.1202 20.6291 46.7018 21.1545 46.3008 21.7499C45.8999 22.3453 45.1502 23.3259 44.6446 23.9213C44.0867 24.5518 43.738 25.1297 43.7903 25.2873C43.8426 25.4274 43.9298 25.55 43.9995 25.55C44.0867 25.55 44.6795 25.3923 45.3594 25.1997C46.0219 25.0246 46.9633 24.6919 47.4515 24.4992C47.9222 24.2891 48.7765 23.8338 49.3169 23.466C49.9097 23.0983 50.3281 22.6955 50.3281 22.5204C50.3281 22.3453 49.9969 21.995 49.5785 21.7148C49.1775 21.4346 48.5324 21.0494 48.1314 20.8568C47.7304 20.6641 47.3295 20.5415 47.2248 20.5941ZM122.157 21.6798C121.913 21.7499 121.547 21.9075 121.32 22.0125C121.111 22.1176 120.78 22.5379 120.588 22.9232C120.274 23.5536 120.239 23.9213 120.274 27.4588C120.326 31.0487 120.344 31.3289 120.692 31.7842C120.902 32.0644 121.32 32.4322 121.651 32.6248C122.017 32.8349 122.558 32.975 123.029 32.9575C123.464 32.9575 124.109 32.7999 124.493 32.6248C124.877 32.4322 125.295 32.0294 125.487 31.6791C125.731 31.2238 125.818 30.6985 125.818 29.7879C125.818 28.7371 125.766 28.5095 125.504 28.4219C125.347 28.3694 125.068 28.3694 124.894 28.4219C124.65 28.5095 124.598 28.7196 124.598 29.6653C124.598 30.681 124.545 30.8561 124.092 31.3289C123.813 31.6091 123.412 31.8543 123.22 31.8543C123.011 31.8543 122.61 31.7317 122.331 31.5916C121.965 31.399 121.756 31.1188 121.634 30.6635C121.547 30.2957 121.459 28.6846 121.459 27.0735C121.459 24.6393 121.512 24.0439 121.756 23.5186C121.93 23.1683 122.227 22.8531 122.418 22.8006C122.61 22.748 122.994 22.748 123.273 22.7656C123.569 22.8006 123.918 23.0107 124.109 23.2734C124.284 23.5011 124.476 24.1315 124.545 24.6744C124.598 25.1997 124.737 25.6901 124.842 25.7601C124.946 25.8301 125.086 25.8827 125.156 25.8827C125.225 25.9002 125.4 25.7776 125.539 25.6375C125.696 25.4799 125.818 25.0771 125.818 24.7094C125.818 24.3416 125.731 23.7812 125.626 23.4485C125.504 23.0983 125.225 22.6079 124.964 22.3453C124.72 22.0651 124.232 21.7849 123.9 21.6798C123.569 21.5923 123.133 21.5222 122.941 21.5222C122.75 21.5397 122.401 21.6098 122.157 21.6798ZM129.131 21.7323C128.782 21.8549 128.363 22.0651 128.189 22.2227C128.032 22.3628 127.771 22.8006 127.631 23.1858C127.422 23.7287 127.387 24.6218 127.422 27.5813C127.474 31.0487 127.492 31.3289 127.84 31.7842C128.05 32.0644 128.468 32.4322 128.799 32.6248C129.165 32.8349 129.688 32.9575 130.177 32.9575C130.612 32.9575 131.275 32.7824 131.658 32.5898C132.112 32.3621 132.46 32.0294 132.652 31.6091C132.861 31.1888 132.966 30.5584 132.966 29.7528C132.966 28.7371 132.914 28.5095 132.652 28.4219C132.495 28.3694 132.216 28.3694 132.042 28.4219C131.798 28.5095 131.746 28.7196 131.746 29.5777C131.746 30.1556 131.658 30.8035 131.571 31.0137C131.467 31.2238 131.205 31.504 130.961 31.6266C130.717 31.7492 130.403 31.8543 130.264 31.8543C130.124 31.8543 129.758 31.7317 129.479 31.5916C129.113 31.399 128.904 31.1188 128.782 30.6635C128.695 30.2957 128.607 28.6846 128.607 27.0735C128.607 24.6393 128.66 24.0439 128.904 23.5186C129.078 23.1683 129.375 22.8531 129.566 22.8006C129.758 22.748 130.142 22.748 130.421 22.7656C130.717 22.8006 131.066 23.0107 131.257 23.2734C131.432 23.5011 131.641 24.149 131.711 24.7094C131.781 25.2698 131.937 25.7601 132.042 25.8126C132.164 25.8477 132.391 25.8477 132.53 25.8126C132.67 25.7601 132.844 25.4974 132.896 25.2347C132.966 24.9721 132.966 24.3942 132.896 23.9739C132.844 23.5361 132.652 22.9932 132.478 22.7656C132.321 22.5379 131.99 22.2052 131.746 22.0125C131.502 21.8374 130.961 21.6448 130.525 21.6098C130.089 21.5572 129.462 21.6098 129.131 21.7323ZM135.058 21.6273C134.849 21.6973 134.814 22.5554 134.849 27.2136C134.884 31.9418 134.919 32.7299 135.145 32.8174C135.285 32.8524 135.442 32.905 135.477 32.905C135.529 32.905 135.686 32.7824 135.825 32.6423C136.069 32.4146 136.104 31.8017 136.104 28.6496V24.937C136.889 23.6587 137.325 23.2384 137.726 23.0457C138.283 22.7831 138.371 22.6605 138.371 22.1351C138.371 21.6623 138.301 21.5047 138.057 21.5047C137.9 21.5047 137.516 21.6798 137.237 21.9075C136.941 22.1176 136.575 22.4503 136.418 22.643C136.122 22.9932 136.122 22.9932 136.104 22.5204C136.104 22.2577 135.982 21.925 135.843 21.7849C135.703 21.6273 135.529 21.5222 135.442 21.5222C135.372 21.5397 135.198 21.5747 135.058 21.6273ZM140.62 21.9075C140.288 22.1351 139.887 22.5904 139.73 22.9232C139.469 23.4485 139.417 24.0614 139.417 27.2136C139.417 30.3657 139.469 30.9787 139.73 31.4865C139.887 31.8368 140.306 32.2921 140.637 32.5022C141.055 32.7824 141.491 32.905 142.067 32.905C142.537 32.905 143.2 32.7474 143.601 32.5547C143.984 32.3446 144.42 31.9593 144.56 31.6791C144.717 31.3639 144.821 30.6634 144.821 30.0155C144.821 29.1574 144.752 28.8422 144.56 28.7897C144.42 28.7371 144.263 28.7021 144.229 28.7021C144.176 28.7021 144.019 28.8072 143.88 28.9648C143.705 29.1224 143.601 29.5252 143.601 30.0155C143.601 30.4358 143.514 30.9612 143.427 31.1538C143.322 31.3464 142.973 31.5741 142.642 31.6791C142.206 31.8017 141.91 31.7842 141.561 31.6266C141.3 31.504 140.986 31.2063 140.864 30.9787C140.742 30.716 140.637 29.8754 140.637 28.9998V27.4763H144.821C144.821 23.7988 144.752 23.2209 144.507 22.748C144.351 22.4328 143.932 22.0125 143.601 21.8374C143.235 21.6448 142.625 21.5222 142.102 21.5222C141.474 21.5222 141.055 21.6273 140.62 21.9075ZM141.073 23.0983C141.282 22.8531 141.596 22.748 142.102 22.748C142.503 22.748 142.904 22.8006 143.008 22.8706C143.113 22.9407 143.287 23.1858 143.392 23.396C143.514 23.6061 143.601 24.3767 143.601 26.4256H140.55L140.655 24.937C140.724 23.8513 140.846 23.361 141.073 23.0983ZM154.584 21.6273C154.375 21.6973 154.34 22.5554 154.375 27.2136C154.41 31.9418 154.445 32.7299 154.672 32.8174C154.811 32.8524 154.968 32.905 155.003 32.905C155.055 32.905 155.212 32.7824 155.352 32.6423C155.596 32.4146 155.63 31.6791 155.63 27.2136C155.63 22.8531 155.596 21.995 155.369 21.7849C155.229 21.6273 155.055 21.5222 154.968 21.5222C154.898 21.5397 154.724 21.5747 154.584 21.6273ZM163.476 21.6623C163.319 21.7323 163.04 21.89 162.848 22.0476C162.639 22.1877 162.36 22.5554 162.186 22.8706C161.942 23.361 161.907 24.0089 161.942 27.4588C161.994 31.469 161.994 31.469 162.43 31.9418C162.674 32.187 163.075 32.5197 163.336 32.6598C163.615 32.7824 164.173 32.905 164.609 32.905C165.045 32.905 165.69 32.7474 166.039 32.5723C166.405 32.3796 166.841 31.9944 166.998 31.6967C167.207 31.3347 167.311 30.7744 167.311 30.0155C167.311 29.0699 167.259 28.8597 166.998 28.7722C166.841 28.7196 166.562 28.7196 166.387 28.7722C166.161 28.8422 166.091 29.0699 166.091 29.7528C166.091 30.2257 166.004 30.8211 165.917 31.0662C165.812 31.3289 165.516 31.5741 165.167 31.6791C164.795 31.7959 164.435 31.7959 164.086 31.6791C163.79 31.5741 163.458 31.3114 163.336 31.0662C163.214 30.8035 163.127 29.9455 163.127 29.0523V27.4763H167.311C167.224 23.0633 167.207 22.9232 166.788 22.4679C166.544 22.2227 166.143 21.89 165.864 21.7674C165.603 21.6273 165.027 21.5222 164.557 21.5222C164.103 21.5397 163.615 21.5923 163.476 21.6623ZM163.546 23.1158C163.79 22.8356 164.086 22.748 164.626 22.748C165.254 22.748 165.463 22.8181 165.742 23.2209C166.039 23.6061 166.108 23.9564 166.091 26.4256H163.127L163.162 24.9545C163.197 23.7988 163.284 23.396 163.546 23.1158ZM15.1111 35.7945C15.1111 35.8295 14.7101 37.7908 14.222 40.1199C13.7513 42.449 12.6703 47.615 12.6703 47.615C12.6703 47.615 11.847 51.205 11.5 52.5L17.4124 52.4659C18 50.5921 18.3711 48.6495 18.7549 46.827C19.121 44.9882 19.766 41.8711 20.167 39.9098C20.568 37.9309 20.8993 36.2673 20.8993 36.2323C20.8993 36.1797 20.8993 36.0396 20.8818 35.917C20.8644 35.7594 20.167 35.7069 17.9878 35.7069C16.4013 35.7069 15.1111 35.7419 15.1111 35.7945ZM29.1108 35.917C29.0236 36.0396 28.5877 36.8452 28.1519 37.7208C27.716 38.5789 25.9029 42.1863 24.1072 45.7237C21.3874 51.1174 20.9538 52.5 20.9538 52.5H26.5373C26.5373 52.5 26.8443 51.8529 27.0012 51.4151L27.315 50.5921L32.6325 50.5746C32.8591 52.0806 33 52.6935 33 52.6935C33 52.6935 34.5502 52.6935 35.7183 52.676C36.9038 52.676 38.5 52.6191 38.5 52.6191C38.5 52.6191 38.2811 51.8704 37.6361 48.7008C37.2176 46.7044 36.6074 43.7624 36.2762 42.1863C35.9449 40.5927 35.544 38.6664 35.3871 37.8959C35.2476 37.1254 35.0558 36.3023 34.9686 36.0922C34.8117 35.7069 34.7594 35.7069 32.0397 35.7069C30.0348 35.7069 29.2328 35.7594 29.1108 35.917ZM31.2029 41.5734L31.3423 42.3614C31.4121 42.7817 31.6038 43.9725 31.7607 44.9882C31.9002 45.9864 32.0048 46.8445 31.9874 46.862C31.9525 46.8795 31.2552 46.8795 28.9015 46.827L29.7733 44.8131C30.2614 43.6924 30.7844 42.5191 30.9239 42.1863L31.2029 41.5734ZM40.8614 37.0553C40.7045 37.8083 40.5127 38.789 40.443 39.2443L40.3035 40.0849C44.5051 40.0849 45.0979 40.1374 45.0979 40.295C45.0979 40.4176 45.0281 40.9955 44.9235 41.5734C44.8364 42.1513 44.5574 43.92 44.3133 45.5136C44.0693 47.0897 43.7555 49.1036 43.616 49.9791C43.4765 50.8372 43.1716 52.676 43.1716 52.676C43.1716 52.676 48.0814 52.6609 49.0366 52.6059C49.0366 52.6059 49.1775 51.6778 49.3518 50.5045C49.5087 49.5413 49.7702 47.7201 49.962 46.4768C50.1538 45.2159 50.4502 43.2721 50.6245 42.1338L50.9383 40.0849H55.5584C55.8199 38.789 55.9768 38.001 56.0814 37.4931C56.186 36.9853 56.2557 36.3724 56.2557 36.1447V35.7069H41.1403L40.8614 37.0553ZM62.5843 35.8995C62.4972 36.0221 60.5968 39.7347 58.3827 44.1477C55.0005 50.8547 54.5646 52.4308 54.5646 52.4308C54.5646 52.4308 58.3827 52.5359 59.9692 52.4659C59.9692 52.4659 60.3528 51.8704 60.5445 51.3976L60.8932 50.557L66.1235 50.5746C66.3327 51.993 66.6116 52.5359 66.6116 52.5359C67.3303 52.5436 71.7896 52.1506 71.7896 52.1506C71.7896 52.1506 71.1619 48.7883 70.3774 45.1108C69.6103 41.4158 68.8432 37.8083 68.6689 37.0903L68.3725 35.7769C65.1472 35.7769 63.5 35.8995 62.5843 35.8995ZM64.4149 42.1688C64.5718 41.8011 64.7113 41.661 64.7462 41.8186C64.781 41.9587 64.9554 43.1495 65.1472 44.4454C65.3389 45.7413 65.4784 46.827 65.461 46.862C65.4435 46.8795 64.7462 46.8795 62.3926 46.8095L63.2643 44.7956C63.7524 43.6924 64.258 42.5015 64.4149 42.1688ZM114.172 37.4056C114.067 37.7558 113.876 38.719 113.736 39.542C113.579 40.3651 113.3 41.8536 113.126 42.8693C112.934 43.885 112.603 45.6187 112.394 46.7219C112.185 47.8252 111.871 49.4888 111.714 50.3994C111.539 51.3101 111.435 52.1681 111.47 52.2907C111.505 52.3958 111.801 52.5009 112.15 52.5009C112.586 52.5009 112.777 52.4133 112.83 52.2032C112.864 52.0281 113.074 50.9598 113.265 49.8391L113.632 47.7726H116.683L117.554 52.5009C118.757 52.5009 118.862 52.4483 118.862 52.1156C118.862 51.888 118.775 51.275 118.67 50.7497C118.583 50.2243 118.269 48.5607 117.99 47.0722C117.711 45.5836 117.206 42.8168 116.857 40.943C116.526 39.0692 116.194 37.353 116.16 37.1429C116.072 36.7926 115.95 36.7401 115.201 36.7401C114.346 36.7401 114.329 36.7576 114.172 37.4056ZM114.887 40.8204C115.009 40.1199 115.148 39.6121 115.218 39.6821C115.27 39.7522 115.532 41.1006 115.793 42.6942C116.055 44.2878 116.334 45.8113 116.508 46.5643L113.893 46.5468L114.277 44.3053C114.486 43.0794 114.765 41.5209 114.887 40.8204ZM143.357 38.5964C143.148 38.789 143.06 39.1568 143.078 39.9448C143.095 40.9955 143.078 41.0305 142.607 41.1356C142.346 41.2057 142.067 41.3808 141.997 41.5384C141.927 41.696 141.91 41.9412 141.962 42.0813C142.014 42.2389 142.258 42.3439 142.572 42.3439H143.095C143.078 51.17 143.095 51.5727 143.409 51.9755C143.601 52.2382 144.002 52.4658 144.42 52.5534C144.786 52.641 145.309 52.6585 145.571 52.6059C145.972 52.5184 146.059 52.4133 146.059 51.9755C146.059 51.4852 146.007 51.4502 145.309 51.4151L144.577 51.3626L144.49 42.3439C146.024 42.3439 146.059 42.3264 146.059 41.8186C146.059 41.5034 145.954 41.2582 145.798 41.2057C145.641 41.1531 145.292 41.1181 145.013 41.1181H144.49C144.49 39.2093 144.403 38.754 144.229 38.5789C144.072 38.4388 143.88 38.3162 143.793 38.3162C143.705 38.3162 143.514 38.4388 143.357 38.5964ZM129.322 41.5034C128.852 41.766 128.433 42.1338 128.241 42.5191C127.962 43.0619 127.928 43.5873 127.928 46.862C127.928 49.6464 127.98 50.6971 128.154 51.0649C128.294 51.3276 128.66 51.7654 128.991 52.0456C129.532 52.5009 129.654 52.5359 130.822 52.4834C131.937 52.4133 132.147 52.3608 132.617 51.888C132.914 51.6078 133.245 51.0824 133.332 50.7497C133.419 50.4169 133.507 49.8741 133.507 49.5764C133.507 49.2612 133.454 48.8759 133.419 48.7358C133.367 48.5782 133.106 48.4731 132.809 48.4731C132.495 48.4731 132.251 48.5782 132.199 48.7358C132.147 48.8759 132.112 49.3312 132.112 49.7515C132.112 50.2068 132.007 50.6446 131.815 50.8898C131.641 51.0999 131.223 51.3276 130.891 51.3976C130.403 51.4677 130.177 51.3976 129.758 51.0474C129.253 50.6271 129.235 50.557 129.183 48.9284L129.148 47.2473C132.495 47.2473 133.018 47.1947 133.228 46.9846C133.437 46.792 133.507 46.3717 133.489 45.3735C133.489 44.6205 133.419 43.6573 133.315 43.2195C133.21 42.7817 132.966 42.2389 132.757 42.0112C132.548 41.7835 132.112 41.4858 131.798 41.3633C131.484 41.2232 130.979 41.1181 130.665 41.1181C130.351 41.1181 129.758 41.2932 129.322 41.5034ZM129.793 42.5716C129.967 42.449 130.386 42.3439 130.752 42.3439C131.257 42.3439 131.484 42.449 131.763 42.8343C132.042 43.2195 132.112 43.5698 132.112 46.0214H129.148V44.8832C129.148 44.2527 129.218 43.5347 129.322 43.2721C129.427 42.9919 129.636 42.6767 129.793 42.5716ZM135.599 41.2407C135.389 41.3107 135.355 42.1688 135.389 46.9146L135.424 52.5009C136.244 52.5009 136.505 52.3958 136.557 52.2382C136.592 52.0981 136.645 50.0492 136.645 47.6851C136.645 45.1809 136.714 43.2546 136.819 43.0444C136.906 42.8518 137.22 42.5716 137.516 42.4315C137.795 42.2914 138.179 42.1688 138.336 42.1688C138.51 42.1513 138.841 42.3089 139.085 42.5015L139.521 42.8343L139.696 52.4133L140.829 52.5009C140.829 43.5172 140.777 42.6066 140.55 42.2213C140.41 41.9412 140.062 41.5909 139.765 41.4333C139.486 41.2582 138.929 41.1181 138.51 41.1181C138.092 41.1181 137.551 41.2582 137.255 41.4508C136.732 41.7835 136.714 41.7835 136.418 41.4508C136.261 41.2757 136.052 41.1181 135.982 41.1356C135.912 41.1356 135.738 41.1881 135.599 41.2407Z" fill="#B5B5B5"/>
</svg>
