<svg width="12" height="16" viewBox="0 0 12 16" fill="none" xmlns="http://www.w3.org/2000/svg">
<path d="M1.5 15.5C1.0875 15.5 0.734375 15.3531 0.440625 15.0594C0.146875 14.7656 0 14.4125 0 14V5C0 4.3 0.2125 3.6875 0.6375 3.1625C1.0625 2.6375 1.6 2.2875 2.25 2.1125V0.5H4.5V2H7.5V0.5H9.75V2.1125C10.4 2.2875 10.9375 2.6375 11.3625 3.1625C11.7875 3.6875 12 4.3 12 5V14C12 14.4125 11.8531 14.7656 11.5594 15.0594C11.2656 15.3531 10.9125 15.5 10.5 15.5H1.5ZM7.875 11H9.375V8H2.625V9.5H7.875V11Z" fill="black"/>
</svg>
