<svg width="107" height="58" viewBox="0 0 107 58" fill="none" xmlns="http://www.w3.org/2000/svg">
<circle cx="77.7124" cy="29.0005" r="28.7876" fill="url(#paint0_linear_2571_4903)"/>
<path d="M71.9023 40.9727H70.332L69.9551 39.5645H67.9873L67.6914 41.1494H66.1953L67.8115 34.458H70.1562L71.9023 40.9727ZM62.3945 39.916H65.3877V40.9727H61.0732C60.8629 40.9637 60.9853 36.6274 61.0732 34.458H62.3945V39.916ZM75.8633 34.458C76.3035 34.458 77.2725 34.9161 77.2725 36.043C77.2723 37.1692 76.451 37.5095 76.04 37.5391V37.9795C76.451 38.0091 77.2725 38.4734 77.2725 39.3887C77.272 40.3039 76.3915 40.9727 75.7754 40.9727H72.3418V39.916H73.0469V35.6025H72.3418V34.458H75.8633ZM74.1025 39.8281H75.335C75.5697 39.7988 76.0398 39.5992 76.04 39.0361C76.04 38.4727 75.5697 38.332 75.335 38.332H74.1025V39.8281ZM67.9775 38.4199H69.7188L68.8486 35.0742L67.9775 38.4199ZM74.1025 37.1875H75.335C75.5697 37.1582 76.0399 36.9577 76.04 36.3945C76.0398 35.8315 75.5697 35.6904 75.335 35.6904H74.1025V37.1875ZM85.0195 29.8809C85.0493 30.1452 85.3199 30.6728 86.1641 30.6729C87.0082 30.6727 87.3374 30.1452 87.3965 29.8809V25.0381H88.6289V30.1445C88.4527 30.7609 87.7306 31.9931 86.252 31.9932C84.7733 31.993 83.9927 30.7608 83.7871 30.1445V25.0381H85.0195V29.8809ZM63.0986 30.9365H63.4502L64.4189 25.0381H65.916L64.4189 31.6416H61.9541L60.3691 25.0381H61.9541L63.0986 30.9365ZM71.1094 26.2705H68.1162V27.7676H71.1094V28.9121H68.1162V30.585H71.1094V31.6416H66.7959V25.0381H71.1094V26.2705ZM75.5996 30.9365H75.8633V25.0381H77.0078V31.6416H74.6309L73.8389 25.8311H73.6631V31.6416H72.4307V25.0381H74.8955L75.5996 30.9365ZM82.8184 26.0947H81.0576V31.6416H79.8252V26.0947H78.0645V25.0381H82.8184V26.0947ZM92.9424 25.0381C93.4705 25.1555 94.4393 25.4786 94.4395 26.7988C94.4393 27.7542 93.8386 28.4814 93.4844 28.3877C93.6946 28.4531 94.1058 28.6941 94.1748 29.1758C94.2452 29.669 94.2041 31.0255 94.1748 31.6416H92.9424V29.0879H91.0059V31.6416H89.7734V25.0381H92.9424ZM99.8535 26.2705H96.9043V27.7676H99.8535V28.9121H96.9043V30.4971H99.8535V31.6416H95.584V25.0381H99.8535V26.2705ZM91.0293 26.2705V27.9434H92.4219C92.6539 27.9138 93.0302 27.6908 93.0303 27.1279C93.0303 26.5649 92.654 26.2709 92.4219 26.2705H91.0293ZM66.165 22.2217H64.5947L64.2178 20.8125H62.25L61.9541 22.3975H60.457L62.0742 15.707H64.4189L66.165 22.2217ZM71.1973 16.9395H69.6133V20.9893H71.1973V22.2217H66.7959V20.9893H68.3809V16.9395H66.7959V15.707H71.1973V16.9395ZM62.3066 19.668H64.0469L63.1768 16.3232L62.3066 19.668Z" fill="white"/>
<circle cx="28.4137" cy="28.1266" r="27.9137" fill="white"/>
<path d="M17.2305 34.1953C26.3754 34.2105 26.4963 34.2116 26.8164 34.3203C26.9948 34.3808 27.2623 34.5075 27.4111 34.6016C27.5599 34.6951 27.7593 34.8533 27.8545 34.9512C27.9491 35.0496 28.1137 35.2766 28.2197 35.4551C28.3256 35.6333 28.4247 35.846 28.4395 35.9277C28.4545 36.0091 28.496 36.0766 28.5332 36.0771C28.5705 36.0777 28.6444 35.9558 28.6963 35.8066C28.7482 35.6579 28.9067 35.3856 29.0479 35.2012C29.189 35.0174 29.4383 34.7777 29.6016 34.6689C29.7654 34.5597 30.009 34.424 30.1426 34.3672C30.3784 34.2677 30.6841 34.2648 49.0723 34.2383V34.6162H39.9453C31.8534 34.6162 30.7819 34.6256 30.4941 34.7002C30.3158 34.7467 30.0609 34.854 29.9268 34.9395C29.7932 35.0244 29.5797 35.2055 29.4531 35.3418C29.3266 35.4786 29.1624 35.7177 29.0889 35.874C29.0148 36.0304 28.9055 36.3831 28.7363 37.1582H28.3848L28.2852 36.7119C28.23 36.4665 28.1061 36.0959 28.0088 35.8877C27.9012 35.6562 27.7296 35.4067 27.5674 35.2461C27.4218 35.1023 27.1455 34.9077 26.6025 34.6436L7.94043 34.5898L7.92383 34.4541C7.91468 34.3797 7.92085 34.2881 7.9375 34.25C7.96184 34.1943 9.74556 34.1829 17.2305 34.1953ZM22.8408 22.9346C23.0339 22.9335 23.3269 22.9724 23.4902 23.0205C23.6536 23.0686 23.9038 23.1665 24.0449 23.2373C24.1858 23.3085 24.3556 23.3669 24.4229 23.3682C24.5001 23.3692 24.5696 23.3197 24.6123 23.2334C24.6507 23.155 24.7265 23.0968 24.7881 23.0967C24.8919 23.0967 24.8965 23.1327 24.8965 24.043C24.8965 24.9876 24.8961 24.9896 24.7744 24.9912C24.673 24.9922 24.6327 24.9344 24.5312 24.6396C24.4642 24.4455 24.3251 24.1522 24.2207 23.9883C24.1163 23.8244 23.9273 23.6172 23.8008 23.5264C23.6744 23.4362 23.4744 23.3357 23.3555 23.3037C23.2365 23.2723 22.968 23.257 22.7598 23.2705C22.5257 23.2857 22.2991 23.3376 22.165 23.4062C22.0461 23.4679 21.895 23.5757 21.8301 23.6455C21.7647 23.7154 21.6738 23.8643 21.6279 23.9756C21.5815 24.087 21.5434 24.2695 21.5439 24.3809C21.5445 24.4923 21.59 24.6809 21.6436 24.7998C21.6971 24.9188 21.8241 25.0873 21.9258 25.1738C22.0275 25.2609 22.2571 25.3984 22.4355 25.4795C22.6141 25.5606 23.0034 25.7117 23.3008 25.8145C23.5982 25.9177 24.0242 26.0858 24.2471 26.1875C24.4872 26.2968 24.7705 26.4816 24.9414 26.6406C25.0993 26.7883 25.2884 27.031 25.3604 27.1797C25.4322 27.3284 25.506 27.596 25.5244 27.7744C25.5477 27.9983 25.5304 28.2089 25.4688 28.4512C25.4195 28.6442 25.3007 28.9323 25.2051 29.0918C25.1099 29.2513 24.9222 29.4801 24.7881 29.5996C24.654 29.7196 24.363 29.906 24.1396 30.0137C23.7394 30.2062 23.7249 30.2087 23.0576 30.207C22.438 30.2049 22.3523 30.1921 22.0303 30.0527C21.8373 29.9689 21.577 29.8598 21.4531 29.8105C21.2368 29.7251 21.2225 29.7262 21.1133 29.8301C21.0506 29.8896 20.9999 29.9685 21.001 30.0059C21.0018 30.0431 20.9409 30.0732 20.7314 30.0732V27.8555H20.8809C21.0185 27.855 21.0365 27.8818 21.1289 28.2207C21.1836 28.4219 21.2923 28.72 21.3701 28.8838C21.448 29.0476 21.6218 29.2933 21.7568 29.4307C21.919 29.5955 22.1081 29.7196 22.3135 29.7959C22.5325 29.877 22.7492 29.9107 23.0439 29.9102C23.2744 29.9102 23.5546 29.8862 23.666 29.8564C23.7774 29.8273 23.9695 29.7237 24.0928 29.627C24.2161 29.5301 24.3872 29.3294 24.4727 29.1807C24.5965 28.9649 24.6294 28.8393 24.6348 28.5586C24.6385 28.3521 24.6081 28.1289 24.5605 28.0176C24.5161 27.9132 24.3969 27.7478 24.2959 27.6484C24.1948 27.5489 23.9778 27.4001 23.8145 27.3174C23.6511 27.2346 23.2129 27.0526 22.8408 26.9131C22.4695 26.7736 22.0194 26.579 21.8408 26.4795C21.6625 26.3806 21.425 26.1994 21.3135 26.0771C21.2021 25.9549 21.0737 25.7816 21.0293 25.6924C20.9849 25.6031 20.9295 25.3897 20.9062 25.2188C20.8836 25.0478 20.8835 24.7675 20.9062 24.5967C20.9296 24.4258 21.0059 24.1704 21.0762 24.0293C21.147 23.8882 21.2657 23.6997 21.3398 23.6104C21.4139 23.5211 21.5797 23.3744 21.709 23.2852C21.8377 23.196 22.0656 23.0816 22.2158 23.0303C22.3661 22.9795 22.6477 22.9362 22.8408 22.9346ZM14.751 23.123L15.1934 23.8262C15.4368 24.2129 16.1066 25.28 16.6826 26.1973C17.2586 27.1146 17.7544 27.8631 17.7842 27.8604C17.8188 27.8564 17.8431 27.0661 17.8652 23.4209L17.3652 23.4072C16.8714 23.3937 16.8643 23.3919 16.8643 23.123H19.1904L19.2178 23.4209L18.2168 23.4482L18.1895 30.127H18.0273C17.8853 30.1269 17.8376 30.0818 17.6416 29.7627C17.5188 29.562 16.7851 28.3866 16.0117 27.1523C15.2383 25.9176 14.4811 24.7179 14.3291 24.4854C14.1772 24.2535 14.035 24.0839 14.0127 24.1074C13.9905 24.1318 13.978 25.404 13.998 29.7217L14.999 29.749V30.0732H12.6729V29.749H13.6465V23.4209H12.6729L12.6738 23.2578L12.6748 23.0938L14.751 23.123ZM11.0234 23.123L11.0508 23.4209H10.0225V29.749L10.5234 29.7627C11.0168 29.7762 11.0234 29.7775 11.0234 30.0459L7.91309 30.0732V29.749H8.94141V23.4209H8.42773C7.92826 23.4209 7.91349 23.4175 7.9043 23.2949C7.89945 23.2255 7.9162 23.1528 7.94141 23.1318C7.96629 23.1118 8.67019 23.1009 11.0234 23.123ZM32.7119 23.123L32.7393 24.9355H32.5762C32.4284 24.9355 32.4101 24.9135 32.3604 24.6914C32.3305 24.5572 32.2477 24.3325 32.1758 24.1914C32.1044 24.0502 31.9765 23.8681 31.8916 23.7881C31.8071 23.7081 31.6403 23.5997 31.5215 23.5479C31.3485 23.4717 31.1177 23.4495 29.4395 23.4209V26.3418H29.7637C29.9422 26.3418 30.2167 26.3125 30.373 26.2773C30.5606 26.2351 30.7131 26.1566 30.8223 26.0469C30.9384 25.9306 31.0187 25.7653 31.0928 25.4893C31.1836 25.1492 31.2136 25.0972 31.4404 25.0977V27.9102H31.3193C31.2144 27.9107 31.1847 27.86 31.1025 27.5449C31.0501 27.3443 30.9584 27.1007 30.8994 27.0039C30.8394 26.9055 30.6902 26.7807 30.5615 26.7207C30.3924 26.6419 30.2144 26.6135 29.4395 26.6113V29.749L30.4541 29.7354C31.2888 29.724 31.5015 29.7052 31.6572 29.6279C31.7616 29.5766 31.9413 29.442 32.0576 29.3301C32.1733 29.2182 32.3248 29.0052 32.3936 28.8564C32.4622 28.7077 32.5505 28.4206 32.5889 28.2178C32.6537 27.8723 32.6658 27.8504 32.9277 27.8828V30.0459L27.3301 30.0732V29.749L28.3311 29.7217V23.4482L27.3301 23.4209L27.3311 23.2578V23.0947L32.7119 23.123ZM38.0117 23.0146L38.8125 25.2051C39.2533 26.4101 39.803 27.9195 40.458 29.7217L41.2842 29.749V30.0732L38.3369 30.0459V29.9111C38.3369 29.7797 38.3496 29.7755 38.7969 29.749C39.1665 29.7274 39.2531 29.706 39.2412 29.6406C39.2331 29.5962 39.0733 29.1332 38.5449 27.666H36.292L36.2236 27.8555C36.1863 27.9599 36.0196 28.4288 35.5518 29.749L36.0244 29.7627C36.4894 29.7762 36.498 29.778 36.498 30.0459H34.3887L34.3613 29.749L35.1963 29.7217L35.3467 29.3164C35.4294 29.0936 35.717 28.3022 35.9863 27.5586C36.2551 26.8149 36.5223 26.0843 36.5791 25.9355C36.636 25.7864 36.8756 25.1296 37.1123 24.4756C37.349 23.8216 37.5707 23.2178 37.6045 23.1338C37.6564 23.0051 37.6926 22.9833 38.0117 23.0146ZM44.4658 23.1084C46.2493 23.1273 46.3596 23.1345 46.7197 23.2529C46.928 23.3216 47.2693 23.4652 47.4775 23.5723C47.7268 23.701 47.9963 23.9071 48.2666 24.1758C48.5694 24.4764 48.7286 24.6902 48.874 24.9893C48.9827 25.212 49.1114 25.5524 49.1602 25.7461C49.2267 26.0122 49.2413 26.2554 49.2207 26.7471C49.2002 27.2477 49.1642 27.4825 49.0615 27.7744C48.9886 27.9825 48.8392 28.2929 48.7305 28.4639C48.6212 28.6348 48.4405 28.8767 48.3291 29C48.2176 29.1233 47.9562 29.3433 47.748 29.4893C47.5209 29.6482 47.1959 29.8111 46.5039 30.042L42.582 30.0732V29.749H43.5557V23.4209H42.582L42.5898 23.0889L44.4658 23.1084ZM45.2559 23.4209C44.9562 23.4209 44.6906 23.4371 44.665 23.457C44.6402 23.4765 44.624 24.9006 44.6289 26.6211L44.6377 29.749C44.8264 29.7896 45.0883 29.8022 45.3408 29.8027C45.5934 29.8033 45.9465 29.7761 46.125 29.7432C46.3034 29.7102 46.5648 29.6251 46.7061 29.5537C46.8472 29.4824 47.062 29.3209 47.1826 29.1943C47.3037 29.0679 47.4984 28.7701 47.6152 28.5322C47.732 28.2944 47.8709 27.9412 47.9229 27.748C47.9932 27.4846 48.0145 27.1987 48.0107 26.6113C48.0064 26.0091 47.9798 25.7333 47.8965 25.4219C47.8364 25.1985 47.7142 24.8699 47.625 24.6914C47.5352 24.5131 47.3444 24.2559 47.2002 24.1191C47.0552 23.9828 46.802 23.8026 46.6387 23.7188C46.4754 23.6355 46.22 23.5342 46.0713 23.4941C45.9226 23.4547 45.5554 23.4215 45.2559 23.4209ZM37.4326 24.6797C37.4115 24.6656 37.3792 24.6987 37.3613 24.7539C37.3434 24.8094 37.1279 25.3897 36.8818 26.0439C36.6363 26.6984 36.4434 27.2522 36.4531 27.2744C36.4645 27.2965 36.9099 27.3145 37.4443 27.3145C38.346 27.3145 38.4155 27.3079 38.3867 27.2207C38.3694 27.1688 38.1974 26.6877 38.0049 26.1523C37.8123 25.6169 37.6143 25.0718 37.5635 24.9414C37.5134 24.8122 37.4545 24.6946 37.4326 24.6797Z" fill="#457066"/>
<defs>
<linearGradient id="paint0_linear_2571_4903" x1="55.2478" y1="0.212891" x2="77.7124" y2="57.7881" gradientUnits="userSpaceOnUse">
<stop stop-color="#146950"/>
<stop offset="1" stop-color="#50776C"/>
</linearGradient>
</defs>
</svg>
