<svg height="30" viewBox="0 0 118 22" fill="none" xmlns="http://www.w3.org/2000/svg">
<g clip-path="url(#clip0_262_9009)">
<path d="M1.8 5.89971C2 5.89971 2 5.99971 2.1 6.19971L2.3 7.29971C2.9 6.29971 3.9 5.69971 5.3 5.69971C6.7 5.69971 7.8 6.39971 8.4 7.69971C9.1 6.39971 10.2 5.69971 11.7 5.69971C13.9 5.69971 15.4 7.39971 15.4 10.2998V15.9998C15.4 16.1331 15.3333 16.1998 15.2 16.1998H13.1C12.9667 16.1998 12.9 16.1331 12.9 15.9998V10.7998C12.9 8.99971 12.3 8.19971 11.1 8.19971C9.3 8.19971 8.9 9.99971 8.9 11.3998V15.9998C8.9 16.1331 8.83333 16.1998 8.7 16.1998H6.6C6.5 16.1998 6.4 16.0998 6.4 15.9998V10.7998C6.4 8.99971 5.8 8.19971 4.6 8.19971C3 8.19971 2.5 9.89971 2.5 11.1998V15.9998C2.5 16.1331 2.4 16.1998 2.2 16.1998H0.200001C0.0666674 16.1998 0 16.1331 0 15.9998V6.19971C0 6.06638 0.0666674 5.96638 0.200001 5.89971H1.8Z" fill="#004AAD"/>
<path d="M19.1 0.800293C20.1 0.800293 20.7 1.50029 20.7 2.40029C20.7 3.40029 20.1 4.10029 19.1 4.10029C18.2 4.10029 17.5 3.40029 17.5 2.40029C17.5 1.50029 18.2 0.800293 19.1 0.800293ZM20.4 16.0002C20.4 16.1336 20.3333 16.2002 20.2 16.2002H18.1C17.9667 16.2002 17.9 16.1336 17.9 16.0002V6.20029C17.9 6.00029 18 5.90029 18.1 5.90029H20.2C20.3333 5.90029 20.4 5.96696 20.4 6.10029V16.0002Z" fill="#004AAD"/>
<path d="M25.5 15.9999C25.5 16.1999 25.4 16.1999 25.3 16.1999H23.2C23.1 16.1999 23 16.1999 23 15.9999V0.599903C23 0.46657 23.0667 0.399902 23.2 0.399902H25.3C25.4333 0.399902 25.5 0.46657 25.5 0.599903V15.9999Z" fill="#004AAD"/>
<path fill-rule="evenodd" clip-rule="evenodd" d="M33.1 14.0998C34.2 14.0998 35 13.7998 35.5 13.2998C35.5667 13.2331 35.6333 13.1998 35.7 13.1998C35.7667 13.1998 35.8 13.2331 35.8 13.2998L37.1 14.5998C37.2 14.6998 37.2 14.8998 37.2 14.9998C36.2 15.9998 34.8 16.4998 33 16.4998C29.7 16.4998 27.5 14.2998 27.5 11.0998C27.5 7.89971 29.7 5.69971 32.9 5.69971C36.1 5.69971 38.2 7.69971 38.2 11.8998C38.2 12.0331 38.1333 12.0998 38 12.0998H30.2C30.5 13.2998 31.5 14.0998 33.1 14.0998ZM35.6 10.1998C35.3 8.99971 34.4 8.09971 32.9 8.09971C31.3 8.09971 30.4 8.99971 30.1 10.1998H35.6Z" fill="#004AAD"/>
<path d="M39.6016 14.9998L40.5016 13.3998C40.5016 13.3331 40.5349 13.2998 40.6016 13.2998C40.6683 13.2998 40.7349 13.2998 40.8016 13.2998C41.2016 13.5998 42.1016 14.0998 43.3016 14.0998C43.8016 14.0998 45.2016 14.0998 45.2016 13.2998C45.2016 12.6998 44.3016 12.3998 42.8016 11.9998C40.7016 11.3998 39.7016 10.4998 39.7016 8.89971C39.6016 6.89971 41.5016 5.69971 43.8016 5.69971C45.6016 5.69971 46.9016 6.49971 47.2016 6.79971C47.3016 6.89971 47.4016 6.99971 47.3016 7.09971L46.5016 8.69971C46.4016 8.79971 46.3016 8.79971 46.3016 8.79971C46.2349 8.79971 46.1683 8.79971 46.1016 8.79971C45.8016 8.59971 45.1016 8.19971 44.1016 8.09971C43.9683 8.03305 43.8349 7.99971 43.7016 7.99971C42.8016 7.99971 42.1016 8.39971 42.1016 8.79971C42.2016 9.39971 42.8016 9.69971 44.1016 9.99971C46.4016 10.5998 47.6016 11.2998 47.7016 13.1998C47.7016 15.1998 46.1016 16.4998 43.7016 16.3998C41.6016 16.3998 40.1016 15.5998 39.7016 15.2998C39.6016 15.2998 39.6016 15.0998 39.6016 14.9998Z" fill="#004AAD"/>
<path d="M52.7016 16.0001C52.7016 16.1334 52.6349 16.2001 52.5016 16.2001H50.4016C50.2683 16.2001 50.2016 16.1334 50.2016 16.0001V8.3001H48.8016C48.7016 8.3001 48.6016 8.2001 48.6016 8.0001V6.2001C48.6016 6.06676 48.6683 5.96676 48.8016 5.9001H50.2016V4.2001C50.2016 1.3001 51.5016 0.100098 53.5016 0.100098C54.9016 0.100098 55.9016 0.800097 56.2016 1.0001C56.3016 1.1001 56.3016 1.2001 56.2016 1.3001L55.4016 3.0001L55.3016 3.1001C55.2349 3.1001 55.1683 3.06676 55.1016 3.0001C54.8016 2.9001 54.4016 2.6001 53.9016 2.6001C53.2016 2.6001 52.7016 3.1001 52.7016 4.4001V5.9001H55.0016C55.2016 5.96676 55.3016 6.06676 55.3016 6.2001V8.0001C55.3016 8.13343 55.2016 8.23343 55.0016 8.3001H52.7016V16.0001Z" fill="#0B1729"/>
<path fill-rule="evenodd" clip-rule="evenodd" d="M65.3 6.09971C65.3667 5.96638 65.4667 5.89971 65.6 5.89971H67.3C67.4333 5.89971 67.5 5.96638 67.5 6.09971V15.9998C67.5 16.0998 67.4 16.1998 67.3 16.1998H65.6C65.4667 16.1998 65.3667 16.1331 65.3 15.9998L65 14.8998C64.3 15.8998 63.2 16.4998 61.7 16.4998C58.6 16.4998 56.5 14.2998 56.5 11.0998C56.5 7.89971 58.6 5.69971 61.7 5.69971C63.2 5.69971 64.3 6.29971 65 7.29971L65.3 6.09971ZM61.8 13.9998C63.6 13.9998 64.8 12.7998 64.8 11.0998C64.8 9.39971 63.6 8.19971 61.8 8.19971C60.1 8.19971 59 9.39971 59 11.0998C59 12.7998 60.2 13.9998 61.8 13.9998Z" fill="#0B1729"/>
<path d="M74.7984 16.4998C71.5984 16.4998 69.3984 14.2998 69.3984 11.0998C69.3984 7.49971 72.0984 5.79971 74.6984 5.69971C76.5984 5.69971 78.1984 6.39971 79.2984 7.99971C79.3984 8.09971 79.3984 8.29971 79.2984 8.29971L77.6984 9.59971C77.6984 9.66638 77.6651 9.69971 77.5984 9.69971C77.4984 9.69971 77.3984 9.69971 77.3984 9.59971C76.7984 8.69971 75.8984 8.19971 74.7984 8.19971C73.0984 8.19971 71.8984 9.39971 71.8984 11.0998C71.8984 12.7998 73.0984 13.9998 74.7984 13.9998C76.0984 13.9998 76.8984 13.2998 77.2984 12.7998C77.4317 12.6664 77.5317 12.5998 77.5984 12.5998C77.6651 12.5998 77.6984 12.6331 77.6984 12.6998L79.0984 13.9998C79.1984 14.0998 79.2984 14.1998 79.1984 14.2998C78.2984 15.6998 76.7984 16.4998 74.7984 16.4998Z" fill="#0B1729"/>
<path d="M85.2008 13.9C85.6008 13.9 86.0008 13.7 86.1008 13.5C86.1675 13.5 86.2008 13.5 86.2008 13.5C86.3008 13.5 86.4008 13.6 86.4008 13.6L87.1008 15.4C87.1675 15.5333 87.1342 15.6333 87.0008 15.7C86.4008 16.2 85.6008 16.4 84.8008 16.4C82.9008 16.4 81.9008 15.1 81.9008 12.9V8.3H80.5008C80.3675 8.23333 80.3008 8.13333 80.3008 8V6.1C80.3008 6 80.4008 5.9 80.5008 5.9H81.9008V2.7C81.9008 2.56667 81.9675 2.5 82.1008 2.5H84.2008C84.3341 2.5 84.4008 2.56667 84.4008 2.7V5.9H86.5008C86.6008 5.9 86.7008 6 86.7008 6.1V8C86.7008 8.13333 86.6342 8.23333 86.5008 8.3H84.4008V11.6C84.4008 13.4 84.6008 13.9 85.2008 13.9Z" fill="#0B1729"/>
<path fill-rule="evenodd" clip-rule="evenodd" d="M93.1984 5.69971C96.3984 5.69971 98.5984 7.89971 98.5984 11.0998C98.5984 14.2998 96.3984 16.4998 93.1984 16.4998C89.9984 16.4998 87.8984 14.2998 87.8984 11.0998C87.8984 7.89971 89.9984 5.69971 93.1984 5.69971ZM93.1984 13.9998C94.9984 13.9998 96.0984 12.7998 96.0984 11.0998C96.0984 9.29971 94.9984 8.19971 93.1984 8.19971C91.4984 8.19971 90.3984 9.29971 90.3984 11.0998C90.3984 12.7998 91.4984 13.9998 93.1984 13.9998Z" fill="#0B1729"/>
<path d="M104.902 8.29971C104.102 8.29971 103.402 8.69971 103.102 9.49971V15.9998C103.102 16.1331 103.035 16.1998 102.902 16.1998H100.802C100.669 16.1998 100.602 16.1331 100.602 15.9998V6.19971C100.602 6.06638 100.669 5.96638 100.802 5.89971H102.202C102.402 5.89971 102.502 6.09971 102.502 6.19971L102.702 6.79971C103.402 6.19971 104.302 5.69971 105.302 5.69971C106.002 5.69971 106.602 5.89971 106.902 5.99971C107.002 5.99971 107.102 6.09971 107.102 6.29971L106.502 8.39971C106.502 8.53304 106.435 8.59971 106.302 8.59971C106.302 8.59971 106.269 8.59971 106.202 8.59971C106.002 8.39971 105.402 8.29971 104.902 8.29971Z" fill="#0B1729"/>
<path d="M117.901 6.1999L112.001 21.0999C112.001 21.1999 111.901 21.2999 111.701 21.2999H109.601C109.401 21.2999 109.401 21.0999 109.401 20.9999L111.301 16.1999L107.301 6.1999C107.301 6.0999 107.401 5.8999 107.501 5.8999H109.701C109.834 5.8999 109.934 5.96657 110.001 6.0999L112.501 13.0999L115.301 6.0999C115.367 5.96657 115.467 5.8999 115.601 5.8999H117.701C117.901 5.96657 117.967 6.06657 117.901 6.1999Z" fill="#0B1729"/>
</g>
<defs>
<clipPath id="clip0_262_9009">
<rect width="118" height="22" fill="white"/>
</clipPath>
</defs>
</svg>
