<svg width="76" height="35" viewBox="0 0 76 35" fill="none" xmlns="http://www.w3.org/2000/svg">
<g clip-path="url(#clip0_2012_7466)">
<path fill-rule="evenodd" clip-rule="evenodd" d="M33.265 8.75719L38.8942 22.0191C38.929 22.1086 38.9665 22.1971 39.0068 22.2842L39.0568 22.4016L39.0596 22.3946C39.5266 23.3388 40.319 24.1256 41.362 24.5683C41.6092 24.6732 41.8604 24.7546 42.1132 24.8134L39.3643 31.2894C39.3439 31.3374 39.3218 31.3841 39.298 31.4295C39.2475 31.5513 39.1841 31.6693 39.1078 31.7813L38.8635 32.1402C38.663 32.511 38.3502 32.9092 37.9253 33.3347C37.6879 33.5725 37.2752 33.9139 36.572 34.3441C36.416 34.4396 35.3449 34.8762 34.5823 34.9554C34.4985 34.9669 34.4129 34.9728 34.3259 34.9728C33.2887 34.9728 32.448 34.132 32.448 33.0949C32.448 32.782 32.5245 32.487 32.6598 32.2275C32.7239 32.0953 32.8083 31.9705 32.9128 31.8579C33.221 31.5062 33.6584 31.2705 34.1509 31.225C34.4408 31.143 34.7439 31.0434 35.0775 30.7996C35.1914 30.7164 35.3312 30.6249 35.6203 30.3192C35.7213 30.2124 35.7977 30.0231 35.8932 29.8554C35.8977 29.8442 35.9023 29.8331 35.907 29.8219L37.0296 27.1771C36.9769 27.0932 36.9301 27.0039 36.8901 26.9097L29.8077 10.2247C29.4025 9.26999 29.8479 8.16757 30.8026 7.76232C31.7573 7.35708 32.8598 7.8025 33.265 8.75719ZM24.1997 8.94062C26.092 10.237 27.3652 12.3709 27.4853 14.808C27.4915 14.8699 27.4946 14.9326 27.4946 14.9961V25.937C27.4946 26.9742 26.6539 27.8149 25.6167 27.8149C24.5796 27.8149 23.7388 26.9742 23.7388 25.937L23.7389 21.7247H23.7388V15.1866C23.7388 13.5598 22.7193 12.1711 21.2843 11.6246C21.5361 10.1884 22.7265 9.07529 24.1997 8.94062ZM19.9285 7.62053C20.8377 7.62053 21.7093 7.78089 22.5168 8.07482C21.2268 8.70096 20.2738 9.91823 20.0052 11.3772C20.0007 11.377 19.9961 11.377 19.9916 11.3769L19.9285 11.3764C17.8452 11.3764 16.1524 13.0483 16.1188 15.1236L16.1183 15.1866V21.7247L16.1182 21.7247L16.1183 25.937C16.1183 26.9742 15.2775 27.8149 14.2403 27.8149L14.2131 27.8147L14.1859 27.8149C13.1488 27.8149 12.308 26.9742 12.308 25.937L12.3081 21.7247H12.308V15.1866C12.308 13.1033 10.6361 11.4105 8.56077 11.3769L8.49774 11.3764C6.41445 11.3764 4.72163 13.0483 4.68798 15.1236L4.68747 15.1866V21.7247L4.68742 21.7247L4.68747 25.937C4.68747 26.9638 3.86343 27.7981 2.84061 27.8147L2.80956 27.8149C1.77241 27.8149 0.931641 26.9742 0.931641 25.937V14.9961C0.931641 14.9326 0.934788 14.8699 0.940936 14.8081C1.13818 10.8053 4.44604 7.62053 8.49774 7.62053C10.7799 7.62053 12.826 8.6309 14.2132 10.2288C15.6002 8.6309 17.6464 7.62053 19.9285 7.62053ZM51.0638 25.1004C51.5935 25.5415 52.2417 25.8009 52.9417 25.8009C53.6418 25.8009 54.29 25.5415 54.8197 25.1004V25.937C54.8197 26.9742 53.9789 27.8149 52.9417 27.8149C51.9046 27.8149 51.0638 26.9742 51.0638 25.937L51.0638 25.1004ZM73.1851 8.18374C74.2226 8.18374 75.0631 9.0245 75.0631 10.0617C75.0631 10.5484 74.878 10.992 74.5743 11.3257C74.5743 11.3258 74.5737 11.326 74.5737 11.3262L63.5359 24.0236H73.1851C74.2226 24.0236 75.0631 24.8643 75.0631 25.9015C75.0631 26.9386 74.2226 27.7794 73.1851 27.7794L59.5879 27.7794C59.0931 27.8271 58.5804 27.6793 58.176 27.3274C57.4395 26.6873 57.3225 25.5995 57.8777 24.8212C57.9267 24.7516 57.98 24.6856 58.0377 24.6234L69.0641 11.9396H59.4138C58.3768 11.9396 57.5358 11.0988 57.5358 10.0617C57.5358 9.0245 58.3768 8.18374 59.4138 8.18374H73.1851ZM52.9417 0C53.9789 0 54.8197 0.840773 54.8197 1.87792L54.8197 23.3091C54.4735 24.0114 53.7504 24.4946 52.9145 24.4946C52.1201 24.4946 51.4277 24.0582 51.0637 23.4122L51.0638 1.87792C51.0638 0.840773 51.9046 0 52.9417 0ZM47.1958 8.03334C48.1505 8.43859 48.5959 9.54107 48.1907 10.4958L42.6345 23.5855C42.378 23.5444 42.1223 23.4719 41.8725 23.3658C40.6601 22.8512 39.92 21.69 39.8832 20.4545L44.7335 9.0282C45.1387 8.07351 46.2411 7.62809 47.1958 8.03334Z" fill="#00C4CC"/>
</g>
<defs>
<clipPath id="clip0_2012_7466">
<rect width="74.1369" height="35" fill="white" transform="translate(0.931641)"/>
</clipPath>
</defs>
</svg>
