<svg width="12" height="17" viewBox="0 0 12 17" fill="none" xmlns="http://www.w3.org/2000/svg">
<path d="M5.99935 10.6667C5.3049 10.6667 4.71463 10.4237 4.22852 9.93758C3.7424 9.45147 3.49935 8.86119 3.49935 8.16675V3.16675C3.49935 2.4723 3.7424 1.88203 4.22852 1.39591C4.71463 0.909804 5.3049 0.666748 5.99935 0.666748C6.69379 0.666748 7.28407 0.909804 7.77018 1.39591C8.25629 1.88203 8.49935 2.4723 8.49935 3.16675V8.16675C8.49935 8.86119 8.25629 9.45147 7.77018 9.93758C7.28407 10.4237 6.69379 10.6667 5.99935 10.6667ZM5.16602 16.5001V13.9376C3.72157 13.7431 2.52713 13.0973 1.58268 12.0001C0.638238 10.9029 0.166016 9.62508 0.166016 8.16675H1.83268C1.83268 9.31953 2.23893 10.3022 3.05143 11.1147C3.86393 11.9272 4.84657 12.3334 5.99935 12.3334C7.15213 12.3334 8.13477 11.9272 8.94727 11.1147C9.75977 10.3022 10.166 9.31953 10.166 8.16675H11.8327C11.8327 9.62508 11.3605 10.9029 10.416 12.0001C9.47157 13.0973 8.27713 13.7431 6.83268 13.9376V16.5001H5.16602ZM5.99935 9.00008C6.23546 9.00008 6.43338 8.92022 6.5931 8.7605C6.75282 8.60078 6.83268 8.40286 6.83268 8.16675V3.16675C6.83268 2.93064 6.75282 2.73272 6.5931 2.573C6.43338 2.41328 6.23546 2.33341 5.99935 2.33341C5.76324 2.33341 5.56532 2.41328 5.4056 2.573C5.24588 2.73272 5.16602 2.93064 5.16602 3.16675V8.16675C5.16602 8.40286 5.24588 8.60078 5.4056 8.7605C5.56532 8.92022 5.76324 9.00008 5.99935 9.00008Z" fill="#69707B"/>
</svg>
