<svg width="12" height="17" viewBox="0 0 12 17" fill="none" xmlns="http://www.w3.org/2000/svg">
<path d="M5.99935 10.6665C5.3049 10.6665 4.71463 10.4234 4.22852 9.93734C3.7424 9.45123 3.49935 8.86095 3.49935 8.1665V3.1665C3.49935 2.47206 3.7424 1.88178 4.22852 1.39567C4.71463 0.909559 5.3049 0.666504 5.99935 0.666504C6.69379 0.666504 7.28407 0.909559 7.77018 1.39567C8.25629 1.88178 8.49935 2.47206 8.49935 3.1665V8.1665C8.49935 8.86095 8.25629 9.45123 7.77018 9.93734C7.28407 10.4234 6.69379 10.6665 5.99935 10.6665ZM5.16602 16.4998V13.9373C3.72157 13.7429 2.52713 13.0971 1.58268 11.9998C0.638238 10.9026 0.166016 9.62484 0.166016 8.1665H1.83268C1.83268 9.31928 2.23893 10.3019 3.05143 11.1144C3.86393 11.9269 4.84657 12.3332 5.99935 12.3332C7.15213 12.3332 8.13477 11.9269 8.94727 11.1144C9.75977 10.3019 10.166 9.31928 10.166 8.1665H11.8327C11.8327 9.62484 11.3605 10.9026 10.416 11.9998C9.47157 13.0971 8.27713 13.7429 6.83268 13.9373V16.4998H5.16602ZM5.99935 8.99984C6.23546 8.99984 6.43338 8.91998 6.5931 8.76025C6.75282 8.60053 6.83268 8.40262 6.83268 8.1665V3.1665C6.83268 2.93039 6.75282 2.73248 6.5931 2.57275C6.43338 2.41303 6.23546 2.33317 5.99935 2.33317C5.76324 2.33317 5.56532 2.41303 5.4056 2.57275C5.24588 2.73248 5.16602 2.93039 5.16602 3.1665V8.1665C5.16602 8.40262 5.24588 8.60053 5.4056 8.76025C5.56532 8.91998 5.76324 8.99984 5.99935 8.99984Z" fill="#69707B"/>
</svg>
