<svg width="11" height="15" viewBox="0 0 11 15" fill="none" xmlns="http://www.w3.org/2000/svg">
<path d="M5.45878 9.83126C6.07789 9.83126 6.67165 9.58532 7.10943 9.14754C7.54721 8.70976 7.79315 8.116 7.79315 7.49689V2.83437C7.79315 2.21526 7.54721 1.6215 7.10943 1.18372C6.67165 0.745942 6.07789 0.5 5.45878 0.5C4.83967 0.5 4.24591 0.745942 3.80813 1.18372C3.37035 1.6215 3.12441 2.21526 3.12441 2.83437V7.49689C3.12441 8.116 3.37035 8.70976 3.80813 9.14754C4.24591 9.58532 4.83967 9.83126 5.45878 9.83126ZM4.2916 2.83437C4.2916 2.52481 4.41457 2.22794 4.63346 2.00905C4.85235 1.79016 5.14922 1.66719 5.45878 1.66719C5.76834 1.66719 6.06521 1.79016 6.2841 2.00905C6.50299 2.22794 6.62597 2.52481 6.62597 2.83437V7.49689C6.62597 7.80645 6.50299 8.10332 6.2841 8.32221C6.06521 8.5411 5.76834 8.66407 5.45878 8.66407C5.14922 8.66407 4.85235 8.5411 4.63346 8.32221C4.41457 8.10332 4.2916 7.80645 4.2916 7.49689V2.83437ZM10.1275 7.49689C10.1275 7.34211 10.066 7.19367 9.95659 7.08423C9.84715 6.97478 9.69871 6.9133 9.54393 6.9133C9.38915 6.9133 9.24071 6.97478 9.13127 7.08423C9.02182 7.19367 8.96034 7.34211 8.96034 7.49689C8.96034 8.42556 8.59142 9.31619 7.93475 9.97286C7.27809 10.6295 6.38745 10.9984 5.45878 10.9984C4.53011 10.9984 3.63948 10.6295 2.98281 9.97286C2.32614 9.31619 1.95722 8.42556 1.95722 7.49689C1.95722 7.34211 1.89574 7.19367 1.78629 7.08423C1.67685 6.97478 1.52841 6.9133 1.37363 6.9133C1.21885 6.9133 1.07041 6.97478 0.96097 7.08423C0.851525 7.19367 0.790039 7.34211 0.790039 7.49689C0.79107 8.63331 1.20656 9.73035 1.95862 10.5823C2.71069 11.4343 3.74767 11.9827 4.87519 12.1248V13.3328H3.15516C3.00039 13.3328 2.85195 13.3943 2.7425 13.5037C2.63306 13.6132 2.57157 13.7616 2.57157 13.9164C2.57157 14.0712 2.63306 14.2196 2.7425 14.3291C2.85195 14.4385 3.00039 14.5 3.15516 14.5H7.7624C7.91718 14.5 8.06561 14.4385 8.17506 14.3291C8.2845 14.2196 8.34599 14.0712 8.34599 13.9164C8.34599 13.7616 8.2845 13.6132 8.17506 13.5037C8.06561 13.3943 7.91718 13.3328 7.7624 13.3328H6.04237V12.1248C7.16989 11.9827 8.20688 11.4343 8.95894 10.5823C9.711 9.73035 10.1265 8.63331 10.1275 7.49689Z" fill="white"/>
</svg>
