<svg width="236" height="478" viewBox="0 0 236 478" fill="none" xmlns="http://www.w3.org/2000/svg">
<g clip-path="url(#clip0_2139_550)">
<path d="M234.326 133.706H235.163C235.625 133.706 236 134.08 236 134.542V184.682C236 185.143 235.625 185.517 235.163 185.517H234.326V133.706Z" fill="#213744"/>
<path d="M1.67383 196.66L0.836945 196.66C0.37475 196.66 6.63131e-05 196.286 6.63535e-05 195.824L6.90849e-05 164.626C6.91253e-05 164.164 0.374753 163.79 0.836949 163.79L1.67383 163.79L1.67383 196.66Z" fill="#213744"/>
<path d="M1.67383 154.876L0.836945 154.876C0.37475 154.876 6.63131e-05 154.502 6.63535e-05 154.041L6.90849e-05 122.843C6.91253e-05 122.381 0.374753 122.007 0.836949 122.007L1.67383 122.007L1.67383 154.876Z" fill="#213744"/>
<path d="M1.67383 107.522L0.836948 107.522C0.374752 107.522 6.79821e-05 107.148 6.80225e-05 106.687L6.92418e-05 92.7588C6.92822e-05 92.2973 0.374753 91.9231 0.836949 91.9231L1.67383 91.9231L1.67383 107.522Z" fill="#213744"/>
<path d="M1.67383 50.697C1.67383 37.2168 1.67383 30.4767 3.44875 25.022C7.03599 13.9976 15.6918 5.35437 26.7322 1.77235C32.1948 0 38.9447 0 52.4445 0H183.556C197.055 0 203.805 0 209.268 1.77235C220.308 5.35437 228.964 13.9976 232.551 25.022C234.326 30.4767 234.326 37.2168 234.326 50.697V427.303C234.326 440.783 234.326 447.523 232.551 452.978C228.964 464.002 220.308 472.646 209.268 476.228C203.805 478 197.055 478 183.556 478H52.4445C38.9447 478 32.1948 478 26.7322 476.228C15.6918 472.646 7.03599 464.002 3.44875 452.978C1.67383 447.523 1.67383 440.783 1.67383 427.303V50.697Z" fill="#213744"/>
<path fill-rule="evenodd" clip-rule="evenodd" d="M183.779 1.11424H52.2213C38.8858 1.11424 32.3503 1.12111 27.0769 2.83205C16.3763 6.30386 7.98678 14.6812 4.50992 25.3663C2.79649 30.632 2.78961 37.158 2.78961 50.4741V427.526C2.78961 440.842 2.79649 447.368 4.50992 452.634C7.98678 463.319 16.3763 471.696 27.0769 475.168C32.3503 476.879 38.8858 476.886 52.2213 476.886H183.779C197.114 476.886 203.65 476.879 208.923 475.168C219.624 471.696 228.013 463.319 231.49 452.634C233.204 447.368 233.21 440.842 233.21 427.526V50.4741C233.21 37.158 233.204 30.632 231.49 25.3663C228.013 14.6812 219.624 6.30386 208.923 2.83205C203.65 1.12111 197.114 1.11424 183.779 1.11424ZM3.97931 25.1941C2.23169 30.5649 2.23169 37.2013 2.23169 50.4741V427.526C2.23169 440.799 2.23169 447.435 3.97931 452.806C7.51135 463.661 16.034 472.171 26.9045 475.698C32.2831 477.443 38.9292 477.443 52.2213 477.443H183.779C197.071 477.443 203.717 477.443 209.096 475.698C219.966 472.171 228.489 463.661 232.021 452.806C233.768 447.435 233.768 440.799 233.768 427.526V50.4741C233.768 37.2013 233.768 30.5649 232.021 25.1941C228.489 14.3394 219.966 5.82913 209.096 2.30221C203.717 0.557129 197.071 0.557129 183.779 0.557129H52.2213C38.9292 0.557129 32.2831 0.557129 26.9045 2.30221C16.034 5.82913 7.51135 14.3394 3.97931 25.1941Z" fill="#8EADC1"/>
<path d="M4.46338 49.5827C4.46338 37.1395 4.46338 30.9178 6.10177 25.8827C9.41306 15.7064 17.403 7.72802 27.5942 4.42154C32.6366 2.78552 38.8673 2.78552 51.3286 2.78552H184.671C197.133 2.78552 203.363 2.78552 208.406 4.42154C218.597 7.72802 226.587 15.7064 229.898 25.8827C231.537 30.9178 231.537 37.1395 231.537 49.5827V428.417C231.537 440.86 231.537 447.082 229.898 452.117C226.587 462.294 218.597 470.272 208.406 473.578C203.363 475.214 197.133 475.214 184.671 475.214H51.3286C38.8673 475.214 32.6366 475.214 27.5942 473.578C17.403 470.272 9.41306 462.294 6.10177 452.117C4.46338 447.082 4.46338 440.86 4.46338 428.417V49.5827Z" fill="#121515"/>
<path d="M184.671 0H188.019V2.78555H184.671V0Z" fill="#36454C"/>
<path d="M231.537 47.9114H234.326V51.254H231.537V47.9114Z" fill="#36454C"/>
<path d="M1.67383 47.9114H4.46343V51.254H1.67383V47.9114Z" fill="#36454C"/>
<path d="M1.67383 426.746H4.46343V430.089H1.67383V426.746Z" fill="#36454C"/>
<path d="M231.537 426.746H234.326V430.089H231.537V426.746Z" fill="#36454C"/>
<path d="M47.9812 475.214H51.3287V478H47.9812V475.214Z" fill="#36454C"/>
<path d="M66.3924 16.3233C66.3924 22.077 71.1886 26.7413 76.9928 26.7413H159.007C164.811 26.7413 169.607 22.077 169.607 16.3233V13.4821C169.607 11.9129 170.814 10.5851 172.397 10.5851H185.179C196.659 10.5851 202.399 10.5851 206.965 12.3489C213.851 15.0092 219.295 20.4453 221.959 27.3217C223.726 31.8808 223.726 37.6125 223.726 49.0758V428.924C223.726 440.388 223.726 446.119 221.959 450.678C219.295 457.555 213.851 462.991 206.965 465.651C202.399 467.415 196.659 467.415 185.179 467.415H50.8208C39.3409 467.415 33.6009 467.415 29.0351 465.651C22.1487 462.991 16.7047 457.555 14.0405 450.678C12.2742 446.119 12.2742 440.388 12.2742 428.924V49.0758C12.2742 37.6125 12.2742 31.8808 14.0405 27.3217C16.7047 20.4453 22.1487 15.0092 29.0351 12.3489C33.6009 10.5851 39.3409 10.5851 50.8208 10.5851H63.6028C65.1858 10.5851 66.3924 11.9129 66.3924 13.4821V16.3233Z" fill="#00C4CC"/>
<path fill-rule="evenodd" clip-rule="evenodd" d="M107.674 220.893L119.33 248.312C119.402 248.497 119.479 248.68 119.563 248.86L119.666 249.103L119.672 249.089C120.639 251.041 122.28 252.667 124.439 253.583C124.951 253.8 125.471 253.968 125.995 254.09L120.303 267.479C120.261 267.578 120.215 267.674 120.166 267.768C120.061 268.02 119.93 268.264 119.772 268.496L119.266 269.238C118.851 270.004 118.203 270.828 117.324 271.707C116.832 272.199 115.978 272.905 114.522 273.794C114.199 273.992 111.981 274.894 110.402 275.058C110.228 275.082 110.051 275.094 109.871 275.094C107.724 275.094 105.983 273.356 105.983 271.211C105.983 270.565 106.141 269.955 106.421 269.418C106.554 269.145 106.729 268.887 106.945 268.654C107.583 267.927 108.489 267.44 109.509 267.345C110.109 267.176 110.736 266.97 111.427 266.466C111.663 266.294 111.952 266.105 112.551 265.473C112.76 265.252 112.918 264.861 113.116 264.514C113.125 264.491 113.135 264.468 113.145 264.445L115.469 258.977C115.36 258.803 115.263 258.618 115.18 258.424L100.516 223.927C99.6771 221.954 100.599 219.674 102.576 218.836C104.553 217.999 106.835 218.919 107.674 220.893ZM88.9047 221.273C92.8227 223.953 95.4589 228.365 95.7076 233.403C95.7203 233.531 95.7268 233.661 95.7268 233.792V256.413C95.7268 258.557 93.986 260.295 91.8386 260.295C89.6912 260.295 87.9504 258.557 87.9504 256.413L87.9506 247.703L87.9504 247.704V234.186C87.9504 230.823 85.8394 227.952 82.8683 226.822C83.3897 223.852 85.8543 221.551 88.9047 221.273ZM80.0612 218.543C81.9436 218.543 83.7484 218.875 85.4203 219.483C82.7493 220.777 80.776 223.294 80.22 226.31C80.2105 226.31 80.2011 226.31 80.1916 226.31L80.0612 226.308C75.7477 226.308 72.2427 229.765 72.1731 234.056L72.172 234.186L72.172 247.704L72.1719 247.704L72.172 256.413C72.172 258.557 70.4312 260.295 68.2838 260.295L68.2274 260.295L68.1711 260.295C66.0237 260.295 64.2828 258.557 64.2828 256.413L64.2831 247.703L64.2828 247.704V234.186C64.2828 229.879 60.821 226.379 56.5241 226.31L56.3937 226.308C52.0802 226.308 48.5752 229.765 48.5056 234.056L48.5045 234.186L48.5045 247.704L48.5044 247.704L48.5045 256.413C48.5045 258.535 46.7983 260.26 44.6806 260.295L44.6163 260.295C42.4688 260.295 40.728 258.557 40.728 256.413V233.792C40.728 233.661 40.7345 233.531 40.7473 233.404C41.1557 225.128 48.0046 218.543 56.3937 218.543C61.1188 218.543 65.3554 220.632 68.2277 223.936C71.0994 220.632 75.336 218.543 80.0612 218.543ZM144.527 254.683C145.624 255.595 146.966 256.131 148.415 256.131C149.865 256.131 151.207 255.595 152.303 254.683L152.303 256.413C152.303 258.557 150.563 260.295 148.415 260.295C146.268 260.295 144.527 258.557 144.527 256.413L144.527 254.683ZM190.33 219.708C192.477 219.708 194.218 221.446 194.218 223.59C194.218 224.597 193.834 225.514 193.205 226.204C193.205 226.204 193.205 226.204 193.204 226.205L170.351 252.456H190.33C192.477 252.456 194.218 254.195 194.218 256.339C194.218 258.483 192.477 260.222 190.33 260.222L162.176 260.222C161.152 260.32 160.09 260.015 159.252 259.287C157.727 257.964 157.485 255.715 158.635 254.106C158.736 253.962 158.847 253.825 158.967 253.697L181.796 227.473H161.816C159.668 227.473 157.928 225.735 157.928 223.59C157.928 221.446 159.668 219.708 161.816 219.708H190.33ZM148.415 202.788C150.563 202.788 152.303 204.526 152.303 206.67L152.304 250.979C151.587 252.431 150.09 253.43 148.359 253.43C146.714 253.43 145.28 252.528 144.527 251.193L144.527 206.67C144.527 204.526 146.268 202.788 148.415 202.788ZM136.518 219.397C138.495 220.235 139.417 222.514 138.578 224.488L127.074 251.551C126.543 251.466 126.014 251.316 125.496 251.097C122.986 250.033 121.453 247.632 121.377 245.077L131.42 221.454C132.259 219.48 134.542 218.559 136.518 219.397Z" fill="white"/>
<path fill-rule="evenodd" clip-rule="evenodd" d="M139.48 20.613C141.637 20.613 143.385 18.867 143.385 16.7132C143.385 14.5595 141.637 12.8135 139.48 12.8135C137.323 12.8135 135.574 14.5595 135.574 16.7132C135.574 18.867 137.323 20.613 139.48 20.613Z" fill="#262C2D"/>
<path fill-rule="evenodd" clip-rule="evenodd" d="M139.48 19.1506C140.828 19.1506 141.921 18.0593 141.921 16.7132C141.921 15.3671 140.828 14.2759 139.48 14.2759C138.132 14.2759 137.039 15.3671 137.039 16.7132C137.039 18.0593 138.132 19.1506 139.48 19.1506Z" fill="#121515"/>
<path opacity="0.4" fill-rule="evenodd" clip-rule="evenodd" d="M139.48 16.2258C139.749 16.2258 139.968 16.0075 139.968 15.7383C139.968 15.4691 139.749 15.2509 139.48 15.2509C139.21 15.2509 138.992 15.4691 138.992 15.7383C138.992 16.0075 139.21 16.2258 139.48 16.2258Z" fill="#636F73"/>
<path fill-rule="evenodd" clip-rule="evenodd" d="M106.005 16.7133C106.005 15.7903 106.753 15.042 107.676 15.042H128.324C129.247 15.042 129.995 15.7903 129.995 16.7133C129.995 17.6364 129.247 18.3846 128.324 18.3846H107.676C106.753 18.3846 106.005 17.6364 106.005 16.7133Z" fill="#262C2D"/>
</g>
<defs>
<clipPath id="clip0_2139_550">
<rect width="236" height="478" fill="white"/>
</clipPath>
</defs>
</svg>
