<svg width="68" height="35" viewBox="0 0 68 35" fill="none" xmlns="http://www.w3.org/2000/svg">
<path fill-rule="evenodd" clip-rule="evenodd" d="M29.659 8.71391L34.8226 21.9103C34.8545 21.9994 34.889 22.0874 34.9259 22.1741L34.9717 22.291L34.9743 22.284C35.4027 23.2235 36.1296 24.0064 37.0863 24.447C37.313 24.5513 37.5434 24.6323 37.7754 24.6908L35.2538 31.1348C35.2351 31.1826 35.2148 31.2291 35.193 31.2742C35.1467 31.3955 35.0885 31.5128 35.0186 31.6243L34.7945 31.9814C34.6105 32.3504 34.3236 32.7466 33.9338 33.1701C33.7161 33.4066 33.3376 33.7463 32.6924 34.1744C32.5494 34.2694 31.5669 34.7039 30.8673 34.7827C30.7905 34.7941 30.7119 34.8 30.6321 34.8C29.6808 34.8 28.9095 33.9634 28.9095 32.9314C28.9095 32.62 28.9797 32.3265 29.1039 32.0683C29.1627 31.9367 29.2401 31.8126 29.3359 31.7006C29.6186 31.3505 30.0199 31.116 30.4717 31.0707C30.7375 30.9891 31.0156 30.8901 31.3216 30.6474C31.426 30.5646 31.5543 30.4736 31.8195 30.1694C31.9121 30.0631 31.9823 29.8748 32.0698 29.7079C32.0739 29.6968 32.0782 29.6857 32.0825 29.6746L33.1122 27.0429C33.0639 26.9593 33.021 26.8705 32.9843 26.7768L26.4877 10.1742C26.116 9.2242 26.5245 8.1272 27.4003 7.72396C28.276 7.32071 29.2873 7.76393 29.659 8.71391ZM21.3435 8.89643C23.0793 10.1865 24.2472 12.3098 24.3574 14.7349C24.363 14.7965 24.3659 14.8589 24.3659 14.922V25.8089C24.3659 26.8409 23.5947 27.6775 22.6433 27.6775C21.692 27.6775 20.9207 26.8409 20.9207 25.8089L20.9208 21.6173L20.9207 21.6173V15.1116C20.9207 13.4928 19.9855 12.111 18.6692 11.5672C18.9002 10.1381 19.9921 9.03045 21.3435 8.89643ZM17.4256 7.58288C18.2596 7.58288 19.0591 7.74243 19.7999 8.03494C18.6165 8.65795 17.7423 9.86924 17.496 11.321C17.4918 11.3208 17.4876 11.3207 17.4834 11.3207L17.4256 11.3202C15.5146 11.3202 13.9618 12.9839 13.931 15.0489L13.9305 15.1116L13.9305 21.6174L13.9305 21.6173L13.9305 25.8089C13.9305 26.8409 13.1593 27.6775 12.2079 27.6775L12.183 27.6773L12.158 27.6775C11.2066 27.6775 10.4354 26.8409 10.4354 25.8089L10.4355 21.6173L10.4354 21.6173V15.1116C10.4354 13.0386 8.90172 11.3541 6.99809 11.3207L6.94029 11.3202C5.0293 11.3202 3.47651 12.9839 3.44565 15.0489L3.44518 15.1116L3.44518 21.6174L3.44513 21.6173L3.44518 25.8089C3.44518 26.8306 2.6893 27.6608 1.75108 27.6773L1.72259 27.6775C0.77123 27.6775 0 26.8409 0 25.8089V14.922C0 14.8589 0.00288737 14.7965 0.00852671 14.7349C0.18946 10.7519 3.22372 7.58288 6.94029 7.58288C9.03367 7.58288 10.9106 8.58827 12.1831 10.1782C13.4553 8.58827 15.3322 7.58288 17.4256 7.58288ZM45.9856 24.9764C46.4715 25.4153 47.0661 25.6735 47.7082 25.6735C48.3504 25.6735 48.945 25.4153 49.4308 24.9764L49.4308 25.8089C49.4308 26.8409 48.6596 27.6775 47.7082 27.6775C46.7569 27.6775 45.9857 26.8409 45.9857 25.8089L45.9856 24.9764ZM66.2774 8.14328C67.2288 8.14328 68 8.9799 68 10.0119C68 10.4963 67.8301 10.9377 67.5514 11.2697C67.5512 11.2698 67.5511 11.27 67.5509 11.2702L57.4262 23.9048H66.2774C67.2288 23.9048 68 24.7415 68 25.7735C68 26.8055 67.2288 27.6421 66.2774 27.6421L53.8047 27.6422C53.3508 27.6896 52.8806 27.5426 52.5093 27.1924C51.8338 26.5555 51.7265 25.4731 52.2359 24.6986C52.2808 24.6293 52.33 24.5636 52.383 24.5018L62.4969 11.8806H53.6451C52.6937 11.8806 51.9225 11.0439 51.9225 10.0119C51.9225 8.9799 52.6937 8.14328 53.6451 8.14328H66.2774ZM47.7082 0C48.6596 0 49.4308 0.836618 49.4308 1.86864L49.4309 23.194C49.1133 23.8928 48.4501 24.3735 47.6833 24.3735C46.9546 24.3735 46.3194 23.9394 45.9856 23.2965L45.9857 1.86864C45.9857 0.836618 46.7569 0 47.7082 0ZM42.4376 7.99367C43.3133 8.39691 43.7219 9.49391 43.3502 10.4439L38.2535 23.469C38.0182 23.4281 37.7837 23.3559 37.5545 23.2504C36.4424 22.7383 35.7635 21.5828 35.7298 20.3534L40.1789 8.98362C40.5506 8.03364 41.5619 7.59043 42.4376 7.99367Z" fill="white"/>
</svg>
