<svg width="19" height="18" viewBox="0 0 19 18" fill="none" xmlns="http://www.w3.org/2000/svg">
<path d="M9.23191 17.5H8.40004C8.31645 17.5 8.23421 17.479 8.16082 17.439C8.08744 17.399 8.02526 17.3412 7.97997 17.2709C7.93468 17.2007 7.90772 17.1202 7.90156 17.0368C7.89541 16.9535 7.91025 16.8699 7.94473 16.7937L9.9591 12.3484L6.93441 12.2812L5.83129 13.6178C5.62098 13.8822 5.45316 14 5.02504 14C5.58504 14 5.84172 13.4513 5.02504 13.6178C5.07824 13.6888 5.84172 13.6719 5.02504 13.6178C4.95066 13.5175 4.95382 13.2425 5.02507 13L5.83129 11C5.83598 10.9834 5.8416 10.9669 5.84785 10.9506L6 10C5.99355 9.98376 5.83587 10.9131 5.83129 10.8962L5.65152 9.64406L3.92879 8.71125C3.8616 8.47344 3.93504 8.30719 4.00879 8.20937C4.05831 8.14366 4.12256 8.09049 4.19638 8.05412C4.27019 8.01776 4.35151 7.99922 4.43379 8H5.02504C5.34473 8 5.65504 8.14344 5.83754 8.375L6.91785 9.68906L9.9591 9.64406L7.94535 5.20656C7.91082 5.13045 7.89593 5.0469 7.90202 4.96355C7.90811 4.8802 7.935 4.7997 7.98023 4.72942C8.02545 4.65914 8.08757 4.60132 8.16091 4.56124C8.23425 4.52116 8.31646 4.50011 8.40004 4.5H9.24098C9.3583 4.50236 9.47358 4.53111 9.57826 4.58413C9.68295 4.63715 9.42865 5.40682 9.49997 5.5L13.7535 9.55625L15.5588 9.50875C15.691 9.50156 16.0572 9.49906 16.1419 9.49906C17.8688 9.5 18.9 10.0606 18.9 11C18.9 11.2956 18.7819 11.8437 17.9916 12.1925C17.525 12.3987 16.9025 12.5031 16.1413 12.5031C16.0575 12.5031 15.6922 12.5006 15.5582 12.4934L13.7532 12.4453L9.83566 17.1953C9.76428 17.2881 9.67297 17.3636 9.56847 17.4164C9.46396 17.4691 9.34895 17.4977 9.23191 17.5Z" fill="#7C7C7C" fill-opacity="0.7"/>
<path d="M6.33155 15.0001V15H5.49968H5.49951C5.33234 14.9999 5.16785 14.958 5.02108 14.8779C4.87431 14.7979 4.74995 14.6824 4.65937 14.5418C4.56879 14.4013 4.51487 14.2404 4.50256 14.0737C4.49025 13.9069 4.51993 13.7398 4.58889 13.5875L4.58894 13.5874L6.2909 9.8315L4.26534 9.78651L3.31931 10.9327C3.20012 11.0822 3.05286 11.2425 2.83782 11.3529C2.61911 11.4651 2.38209 11.5 2.12468 11.5H1.57145C1.40561 11.5039 1.24115 11.4685 1.09154 11.3966C0.93912 11.3234 0.806596 11.2145 0.705195 11.0792L0.703653 11.0772C0.554447 10.8759 0.426717 10.5474 0.54827 10.1292L1.14385 7.99572L0.547263 5.84719C0.547151 5.84679 0.547039 5.8464 0.546927 5.846C0.429999 5.43063 0.560252 5.10594 0.709127 4.90845L6.33155 15.0001ZM6.33155 15.0001L6.34143 14.9999M6.33155 15.0001L6.34143 14.9999M6.34143 14.9999C6.53336 14.9961 6.72199 14.9492 6.89337 14.8627C7.06192 14.7777 7.20956 14.6564 7.32574 14.5077L11.0833 9.95164L12.6382 9.99309C12.7926 10.0008 13.1612 10.0031 13.2409 10.0031C14.0405 10.0031 14.7397 9.89459 15.2934 9.64981C15.7731 9.43808 16.0853 9.14775 16.2725 8.83033C16.457 8.51747 16.4997 8.21316 16.4997 8C16.4997 7.30734 16.1034 6.78281 15.5071 6.45841C14.9313 6.14513 14.148 5.99955 13.2418 5.99906H13.2416C13.1612 5.99906 12.792 6.00135 12.6388 6.00909L11.0841 6.05L7.33632 1.49454C7.22025 1.34528 7.07256 1.22354 6.90381 1.13808C6.73213 1.05113 6.54307 1.00397 6.35066 1.0001L6.35066 1H6.34062L5.49968 1L5.49903 1C5.33188 1.00022 5.16745 1.04233 5.02078 1.12249C4.8741 1.20264 4.74986 1.31829 4.6594 1.45885C4.56895 1.59941 4.51517 1.7604 4.50299 1.9271C4.4908 2.09381 4.5206 2.26091 4.58965 2.41313L4.58968 2.41318M6.34143 14.9999L4.58968 2.41318M4.58968 2.41318L6.28792 6.15541M4.58968 2.41318L6.28792 6.15541M1.53541 4.5C1.37585 4.49892 1.21822 4.53507 1.07505 4.6056C0.9311 4.67651 0.805791 4.78021 0.709195 4.90836L1.53343 5M1.53541 4.5C1.53633 4.50001 1.53725 4.50001 1.53817 4.50002L1.53343 5M1.53541 4.5H1.53343V5M1.53541 4.5H2.12468C2.5812 4.5 3.04016 4.70107 3.32631 5.061M1.53343 5H2.12468C2.44437 5 2.75468 5.14344 2.93718 5.375M3.32631 5.061L3.32341 5.05747L2.93718 5.375M3.32631 5.061L4.25083 6.18555L6.28792 6.15541M3.32631 5.061C3.3275 5.0625 3.32869 5.064 3.32988 5.0655L2.93718 5.375M2.93718 5.375L4.01749 6.68906L6.28792 6.15541" fill="#7C7C7C" stroke="#F9F9F9"/>
</svg>
