<svg width="22" height="16" viewBox="0 0 22 16" fill="none" xmlns="http://www.w3.org/2000/svg">
<path d="M19.5666 5.47892H6.1961C6.13577 5.47843 6.07613 5.46603 6.0206 5.44243C5.96507 5.41884 5.91475 5.38451 5.87252 5.34142L4.4416 3.91417C4.26973 3.74225 4.03661 3.64564 3.79352 3.64559H1.05818C0.901613 3.64544 0.747614 3.68539 0.610867 3.76164C0.47412 3.83789 0.359182 3.9479 0.277012 4.08117C0.194841 4.21445 0.148177 4.36655 0.141467 4.52297C0.134758 4.6794 0.168226 4.83494 0.238682 4.97476L2.53035 9.55809C2.60592 9.71073 2.72275 9.83914 2.86761 9.92874C3.01246 10.0183 3.17953 10.0655 3.34985 10.065H8.73985C8.78523 10.0649 8.82962 10.0783 8.86738 10.1035C8.90514 10.1287 8.93458 10.1645 8.95196 10.2064C8.96934 10.2483 8.97388 10.2945 8.965 10.339C8.95612 10.3835 8.93423 10.4244 8.9021 10.4564L5.35918 13.9966C5.23076 14.1247 5.14323 14.288 5.10767 14.4659C5.07211 14.6437 5.09011 14.8281 5.1594 14.9958C5.22868 15.1634 5.34614 15.3067 5.49691 15.4075C5.64767 15.5084 5.82497 15.5622 6.00635 15.5623H9.29352C9.53661 15.5622 9.76973 15.4656 9.9416 15.2937L15.0392 10.1998C15.1251 10.1141 15.2414 10.0659 15.3628 10.0659H19.5666C20.1744 10.0659 20.7573 9.82448 21.1871 9.39471C21.6168 8.96494 21.8583 8.38204 21.8583 7.77425C21.8583 7.16647 21.6168 6.58357 21.1871 6.1538C20.7573 5.72403 20.1744 5.48259 19.5666 5.48259V5.47892Z" fill="url(#paint0_linear_1948_6092)"/>
<path d="M9.61802 4.42476C9.70391 4.51044 9.82028 4.55857 9.9416 4.55859H14.1583C14.2036 4.55849 14.2478 4.54497 14.2855 4.51972C14.3231 4.49448 14.3524 4.45864 14.3696 4.41676C14.3869 4.37487 14.3914 4.3288 14.3825 4.28438C14.3736 4.23996 14.3517 4.19917 14.3196 4.16718L10.8546 0.702177C10.6827 0.530257 10.4496 0.433646 10.2065 0.433594H7.83968C7.65841 0.433632 7.48122 0.487415 7.33051 0.588142C7.1798 0.68887 7.06234 0.832019 6.99298 0.999494C6.92361 1.16697 6.90546 1.35125 6.94081 1.52904C6.97617 1.70683 7.06344 1.87015 7.1916 1.99834L9.61802 4.42476Z" fill="url(#paint1_linear_1948_6092)"/>
<defs>
<linearGradient id="paint0_linear_1948_6092" x1="-5.04069" y1="0.666341" x2="21.7148" y2="3.47859" gradientUnits="userSpaceOnUse">
<stop stop-color="#6DA3FF"/>
<stop offset="1" stop-color="#00C4CC"/>
</linearGradient>
<linearGradient id="paint1_linear_1948_6092" x1="-5.04069" y1="0.666341" x2="21.7148" y2="3.47859" gradientUnits="userSpaceOnUse">
<stop stop-color="#6DA3FF"/>
<stop offset="1" stop-color="#00C4CC"/>
</linearGradient>
</defs>
</svg>
