<svg width="94" height="48" viewBox="0 0 94 48" fill="none" xmlns="http://www.w3.org/2000/svg">
<g clip-path="url(#clip0_2055_7112)">
<path d="M27.6529 33.6875C23.8445 33.6875 20.7461 36.7927 20.7461 40.6094C20.7461 44.4261 23.8445 47.5314 27.6529 47.5314C31.4612 47.5314 34.5597 44.4261 34.5597 40.6094C34.5597 36.7927 31.4612 33.6875 27.6529 33.6875Z" fill="#FCB615"/>
<path d="M8.34821 33.6875C4.53986 33.6875 1.44141 36.7927 1.44141 40.6094C1.44141 44.4261 4.53986 47.5314 8.34821 47.5314C12.1566 47.5314 15.255 44.4261 15.255 40.6094C15.255 36.7927 12.1566 33.6875 8.34821 33.6875Z" fill="#ED353F"/>
<path d="M46.9537 33.6875C43.1453 33.6875 40.0469 36.7927 40.0469 40.6094C40.0469 44.4261 43.1453 47.5314 46.9537 47.5314C50.762 47.5314 53.8605 44.4261 53.8605 40.6094C53.8605 36.7927 50.762 33.6875 46.9537 33.6875Z" fill="#02AF56"/>
<path d="M85.5591 33.6875C81.7508 33.6875 78.6523 36.7927 78.6523 40.6094C78.6523 44.4261 81.7508 47.5314 85.5591 47.5314C89.3675 47.5314 92.4659 44.4261 92.4659 40.6094C92.4659 36.7927 89.3675 33.6875 85.5591 33.6875Z" fill="#00A8DF"/>
<path d="M66.256 33.6875C62.4477 33.6875 59.3477 36.7927 59.3477 40.6094C59.3477 44.4261 62.4461 47.5314 66.2545 47.5314C70.0628 47.5314 73.1613 44.4261 73.1613 40.6094C73.1628 36.7927 70.0659 33.6875 66.256 33.6875Z" fill="#A14699"/>
<path d="M14.1082 14.0726C14.1082 10.8353 11.6716 8.39337 8.44139 8.39337C5.21119 8.39337 2.77459 10.8353 2.77459 14.0726C2.77459 17.3083 5.21119 19.7518 8.44139 19.7518C11.67 19.7518 14.1082 17.3083 14.1082 14.0726ZM0.398438 14.0726C0.398438 9.58483 3.99289 6.19531 8.44139 6.19531C12.9193 6.19531 16.4843 9.55376 16.4843 14.0415V20.9417C16.4843 21.6439 15.9961 22.1316 15.266 22.1316C14.505 22.1316 14.0477 21.6439 14.0477 20.9417V18.927H13.9253C12.9813 20.5456 11.0919 21.9499 8.28949 21.9499C3.96344 21.9499 0.398438 18.5914 0.398438 14.0726Z" fill="white"/>
<path d="M33.3621 14.0741C33.3621 10.8369 30.9255 8.39492 27.6953 8.39492C24.4651 8.39492 22.0285 10.8369 22.0285 14.0741C22.0285 17.3099 24.4651 19.7534 27.6953 19.7534C30.9255 19.7534 33.3621 17.3099 33.3621 14.0741ZM22.7601 27.0497C22.1199 26.7437 21.8161 26.1938 22.0595 25.5538C22.3028 24.8811 22.912 24.6077 23.5521 24.9122C24.6495 25.431 26.0197 25.7976 27.4814 25.7976C31.1068 25.7976 33.3001 23.6291 33.3001 19.9351V18.927H33.1776C32.2337 20.5456 30.3442 21.9499 27.5418 21.9499C23.2158 21.9499 19.6523 18.5914 19.6523 14.0726C19.6523 9.58483 23.2468 6.19531 27.6953 6.19531C32.1732 6.19531 35.7382 9.55376 35.7382 14.0415V19.7813C35.7382 24.7274 32.57 28.0547 27.3915 28.0547C25.8074 28.0563 24.2233 27.7518 22.7601 27.0497Z" fill="white"/>
<path d="M52.6145 14.0726C52.6145 10.8353 50.1779 8.39337 46.9477 8.39337C43.7175 8.39337 41.2809 10.8353 41.2809 14.0726C41.2809 17.3083 43.7175 19.7518 46.9477 19.7518C50.1779 19.7518 52.6145 17.3083 52.6145 14.0726ZM38.9062 14.0726C38.9062 9.58483 42.4712 6.19531 46.9492 6.19531C51.4271 6.19531 54.9921 9.58327 54.9921 14.0726C54.9921 18.5604 51.4271 21.9499 46.9492 21.9499C42.4697 21.9499 38.9062 18.5604 38.9062 14.0726Z" fill="white"/>
<path d="M71.8723 14.0753C71.8723 10.8381 69.4357 8.39612 66.2055 8.39612C62.9753 8.39612 60.5387 10.8381 60.5387 14.0753C60.5387 17.3111 62.9753 19.7546 66.2055 19.7546C69.4357 19.7546 71.8723 17.3111 71.8723 14.0753ZM58.1641 14.0753C58.1641 9.58757 61.6981 6.19806 66.0551 6.19806C68.8575 6.19806 70.747 7.60233 71.6909 9.22097H71.8134V1.19146C71.8134 0.48932 72.3016 0 73.0317 0C73.7927 0 74.25 0.48932 74.25 1.19146V14.1049C74.25 18.5926 70.685 21.9511 66.207 21.9511C61.7585 21.9526 58.1641 18.5631 58.1641 14.0753Z" fill="white"/>
<path d="M91.1277 14.0726C91.1277 10.8353 88.6911 8.39337 85.4609 8.39337C82.2307 8.39337 79.7941 10.8353 79.7941 14.0726C79.7941 17.3083 82.2307 19.7518 85.4609 19.7518C88.6896 19.7518 91.1277 17.3083 91.1277 14.0726ZM77.418 14.0726C77.418 9.58483 81.0124 6.19531 85.4609 6.19531C89.9389 6.19531 93.5039 9.55376 93.5039 14.0415V20.9417C93.5039 21.6439 93.0156 22.1316 92.2856 22.1316C91.5245 22.1316 91.0673 21.6439 91.0673 20.9417V18.927H90.9448C90.0009 20.5456 88.1114 21.9499 85.309 21.9499C80.983 21.9499 77.418 18.5914 77.418 14.0726Z" fill="white"/>
</g>
<defs>
<clipPath id="clip0_2055_7112">
<rect width="93" height="48" fill="white" transform="translate(0.394531)"/>
</clipPath>
</defs>
</svg>
