<svg width="120" height="22" viewBox="0 0 120 22" fill="none" xmlns="http://www.w3.org/2000/svg">
<g clip-path="url(#clip0_2055_7067)">
<mask id="mask0_2055_7067" style="mask-type:luminance" maskUnits="userSpaceOnUse" x="1" y="0" width="119" height="21">
<path d="M1.04688 0.793025H119.172V20.8359H1.04688V0.793025Z" fill="white"/>
</mask>
<g mask="url(#mask0_2055_7067)">
<mask id="mask1_2055_7067" style="mask-type:luminance" maskUnits="userSpaceOnUse" x="1" y="0" width="119" height="21">
<path d="M1.04688 20.8359H119.172V0.793027H1.04688V20.8359Z" fill="white"/>
</mask>
<g mask="url(#mask1_2055_7067)">
<path d="M47.3672 2.98209C47.3672 1.98719 48.1702 1.18249 49.1587 1.18249C50.1506 1.18249 50.9567 1.98719 50.9567 2.98209C50.9567 3.9757 50.1506 4.78125 49.1587 4.78125C48.1702 4.78125 47.3672 3.9757 47.3672 2.98209Z" fill="white"/>
<path d="M75.6875 14.9586C75.6875 13.9633 76.4901 13.1578 77.4786 13.1578C78.4701 13.1578 79.2761 13.9633 79.2761 14.9586C79.2761 15.9514 78.4701 16.7578 77.4786 16.7578C76.4901 16.7578 75.6875 15.9514 75.6875 14.9586Z" fill="white"/>
<path d="M17.9096 14.1777C16.3637 14.1777 15.2895 12.9499 15.2895 11.1955C15.2895 9.44156 16.3637 8.21467 17.9096 8.21467C19.4644 8.21467 20.5505 9.44156 20.5505 11.1955C20.5505 12.9776 19.487 14.1777 17.9096 14.1777ZM17.9096 5.59375C14.6391 5.59375 12.2656 7.95027 12.2656 11.1955C12.2656 14.4408 14.6391 16.7969 17.9096 16.7969C21.1924 16.7969 23.5757 14.4408 23.5757 11.1955C23.5757 7.95027 21.1924 5.59375 17.9096 5.59375Z" fill="white"/>
<path d="M43.8932 11.4767C43.7661 11.2374 43.6203 11.0349 43.465 10.8741L43.3661 10.7692L43.4702 10.6694C43.6203 10.5112 43.7738 10.3236 43.9218 10.1061L46.8079 5.81561H43.3043L41.1358 9.17172C41.013 9.35169 40.7652 9.44253 40.3942 9.44253H39.9V3.09745C39.9 1.82835 39.1093 1.65564 38.2552 1.65564H36.793L36.7954 16.6328H39.9V12.1402H40.1908C40.5447 12.1402 40.7857 12.1811 40.8962 12.3735L42.6088 15.6059C43.0872 16.4831 43.5639 16.6328 44.4608 16.6328H46.84L45.068 13.7018L43.8932 11.4767Z" fill="white"/>
<path d="M58.9617 5.56685C57.3826 5.56685 56.375 6.26835 55.8104 6.86154L55.6219 7.05216L55.5553 6.79289C55.3895 6.15748 54.8304 5.80779 53.989 5.80779H52.5977L52.6064 16.625H55.6898V11.6394C55.6898 11.152 55.7532 10.729 55.882 10.343C56.2253 9.175 57.1827 8.44876 58.3793 8.44876C59.3418 8.44876 59.7179 8.95666 59.7179 10.2693V14.9806C59.7179 16.1009 60.236 16.625 61.3571 16.625H62.8245L62.8195 9.74516C62.8195 7.01165 61.4855 5.56685 58.9617 5.56685Z" fill="white"/>
<path d="M49.1998 5.81563H47.7383L47.7483 14.1795L47.7473 16.6307H49.3073C49.3269 16.6307 49.3426 16.6328 49.3623 16.6328L50.0889 16.6307H50.8122V16.6264H50.8172L50.8235 7.45788C50.8235 6.35168 50.2935 5.81563 49.1998 5.81563Z" fill="white"/>
<path d="M30.0227 14.1777C28.477 14.1777 27.4006 12.9499 27.4006 11.1955C27.4006 9.44156 28.477 8.21467 30.0227 8.21467C31.5742 8.21467 32.6633 9.44156 32.6633 11.1955C32.6633 12.9776 31.6002 14.1777 30.0227 14.1777ZM30.0227 5.59375C26.749 5.59375 24.375 7.95027 24.375 11.1955C24.375 14.4408 26.749 16.7969 30.0227 16.7969C33.3021 16.7969 35.6894 14.4408 35.6894 11.1955C35.6894 7.95027 33.3021 5.59375 30.0227 5.59375Z" fill="white"/>
</g>
</g>
<mask id="mask2_2055_7067" style="mask-type:luminance" maskUnits="userSpaceOnUse" x="1" y="0" width="119" height="21">
<path d="M1.04688 0.793025H119.172V20.8359H1.04688V0.793025Z" fill="white"/>
</mask>
<g mask="url(#mask2_2055_7067)">
<mask id="mask3_2055_7067" style="mask-type:luminance" maskUnits="userSpaceOnUse" x="1" y="1" width="119" height="20">
<path d="M1.04688 1.18964H119.147V20.8125H1.04688V1.18964Z" fill="white"/>
</mask>
<g mask="url(#mask3_2055_7067)">
<mask id="mask4_2055_7067" style="mask-type:luminance" maskUnits="userSpaceOnUse" x="1" y="0" width="119" height="21">
<path d="M1.04688 20.8359H119.172V0.793027H1.04688V20.8359Z" fill="white"/>
</mask>
<g mask="url(#mask4_2055_7067)">
<path d="M96.1158 14.1777C94.5707 14.1777 93.4935 12.9499 93.4935 11.1955C93.4935 9.44156 94.5707 8.21467 96.1158 8.21467C97.6675 8.21467 98.7572 9.44156 98.7572 11.1955C98.7572 12.9776 97.6935 14.1777 96.1158 14.1777ZM96.1158 5.59375C92.8428 5.59375 90.4688 7.95027 90.4688 11.1955C90.4688 14.4408 92.8428 16.7969 96.1158 16.7969C99.3955 16.7969 101.782 14.4408 101.782 11.1955C101.782 7.95027 99.3955 5.59375 96.1158 5.59375Z" fill="white"/>
<path d="M69.3244 13.7036C67.6386 13.7036 67.0386 12.2328 67.0386 10.8546C67.0386 10.2473 67.1921 8.26818 69.1624 8.26818C70.1415 8.26818 71.4464 8.54878 71.4464 10.9565C71.4464 13.2273 70.2916 13.7036 69.3244 13.7036ZM73.0473 5.7884C72.4622 5.7884 72.0118 6.02166 71.7862 6.44769L71.701 6.61314L71.5581 6.48905C71.0604 6.05834 70.168 5.54746 68.7189 5.54746C65.8357 5.54746 63.8945 7.71295 63.8945 10.9356C63.8945 14.1544 65.903 16.4039 68.7769 16.4039C69.7585 16.4039 70.5343 16.1749 71.1492 15.7092L71.3871 15.5305V15.8312C71.3871 17.276 70.4528 18.073 68.759 18.073C67.9359 18.073 67.1867 17.8726 66.6857 17.6909C66.0314 17.4935 65.648 17.6568 65.3828 18.3131L65.138 18.9186L64.7917 19.8031L65.0063 19.9174C66.0903 20.4927 67.5014 20.8359 68.7769 20.8359C71.4029 20.8359 74.469 19.4918 74.469 15.7092L74.4802 5.7884H73.0473Z" fill="white"/>
</g>
</g>
</g>
<mask id="mask5_2055_7067" style="mask-type:luminance" maskUnits="userSpaceOnUse" x="1" y="0" width="119" height="21">
<path d="M1.04688 0.793025H119.172V20.8359H1.04688V0.793025Z" fill="white"/>
</mask>
<g mask="url(#mask5_2055_7067)">
<mask id="mask6_2055_7067" style="mask-type:luminance" maskUnits="userSpaceOnUse" x="1" y="0" width="119" height="21">
<path d="M1.04688 20.8359H119.172V0.793027H1.04688V20.8359Z" fill="white"/>
</mask>
<g mask="url(#mask6_2055_7067)">
<path d="M6.42812 14.0614L3.91812 14.0589V11.058C3.91812 10.4166 4.16676 10.0831 4.71638 10.0064H6.42812C7.64987 10.0064 8.43926 10.777 8.44014 12.0235C8.43926 13.3028 7.66949 14.0605 6.42812 14.0614ZM3.91812 5.96618V5.1764C3.91812 4.48514 4.21062 4.15635 4.85249 4.11413H6.13683C7.23833 4.11413 7.89807 4.77341 7.89807 5.8762C7.89807 6.71715 7.44646 7.6984 6.17734 7.6984H3.91812V5.96618ZM9.63376 8.9611L9.17996 8.70609L9.57608 8.36749C10.0367 7.97132 10.809 7.08091 10.809 5.5423C10.809 3.18831 8.98302 1.66889 6.15689 1.66889H2.93172L2.56451 1.66804C1.72664 1.69875 1.05625 2.3802 1.04688 3.22329V16.5851H2.52698C2.53073 16.5859 2.53198 16.5851 2.53323 16.5859L6.2206 16.5851C9.36222 16.5851 11.39 14.875 11.39 12.2264C11.39 10.8004 10.7353 9.58115 9.63376 8.9611Z" fill="white"/>
<path d="M115.555 5.61135C114.276 5.61135 113.039 6.2105 112.245 7.2152L112.022 7.49836L111.847 7.18151C111.276 6.14014 110.293 5.61135 108.926 5.61135C107.493 5.61135 106.531 6.41093 106.085 6.88641L105.793 7.20284L105.68 6.78663C105.517 6.18748 104.984 5.8574 104.176 5.8574H102.88L102.867 16.6328H105.812V11.8762C105.812 11.4596 105.863 11.0472 105.968 10.6161C106.249 9.46684 107.022 8.23058 108.32 8.35424C109.121 8.431 109.512 9.04977 109.512 10.2451V16.6328H112.478V11.8762C112.478 11.3556 112.526 10.9658 112.644 10.5747C112.882 9.4775 113.689 8.35254 114.942 8.35254C115.848 8.35254 116.183 8.86597 116.183 10.2451V15.0575C116.183 16.1462 116.669 16.6328 117.757 16.6328H119.143L119.145 9.75384C119.145 7.00583 117.936 5.61135 115.555 5.61135Z" fill="white"/>
<path d="M88.7653 12.8898C88.7566 12.9004 87.4894 14.2365 85.8212 14.2365C84.3013 14.2365 82.7657 13.3039 82.7657 11.222C82.7657 9.42454 83.9563 8.16823 85.6604 8.16823C86.2139 8.16823 86.8433 8.36652 86.9418 8.7L86.9563 8.7563C87.1832 9.51239 87.8703 9.5529 88.0054 9.5529L89.6187 9.55465V8.1444C89.6187 6.28425 87.2527 5.60961 85.6604 5.60961C82.2557 5.60961 79.7852 7.98021 79.7852 11.2446C79.7852 14.5078 82.2288 16.875 85.5981 16.875C88.5214 16.875 90.1112 14.9534 90.126 14.9342L90.211 14.8302L88.9333 12.7108L88.7653 12.8898Z" fill="white"/>
</g>
</g>
</g>
<defs>
<clipPath id="clip0_2055_7067">
<rect width="118.6" height="20.1229" fill="white" transform="translate(0.796875 0.9375)"/>
</clipPath>
</defs>
</svg>
