<svg width="72" height="42" viewBox="0 0 72 42" fill="none" xmlns="http://www.w3.org/2000/svg">
<g clip-path="url(#clip0_2055_7042)">
<path d="M22.4561 19.8888C22.3985 18.3122 22.4252 16.7315 22.4417 15.1549C31.4869 15.1817 40.5322 15.1611 49.5775 15.1652C49.5795 16.7356 49.5795 18.3039 49.5775 19.8723C40.5363 19.8826 31.4952 19.8516 22.4561 19.8888ZM34.7171 0H36.9758C36.9943 0.769715 36.9923 1.53737 36.9882 2.30708C37.7431 2.30502 38.5002 2.30914 39.2551 2.30295C39.2613 3.05822 39.2613 3.81349 39.2387 4.56876C38.4899 4.56876 37.739 4.57289 36.9902 4.56876C36.9902 5.31165 36.9882 6.0566 36.9943 6.80155C36.2496 6.84901 35.505 6.8387 34.7603 6.83251C34.7562 6.07724 34.7562 5.3199 34.752 4.56257C33.995 4.57289 33.24 4.56876 32.4851 4.57083C32.4727 3.81762 32.4748 3.06235 32.4727 2.30914C33.2339 2.30708 33.995 2.30502 34.7541 2.30914C34.7376 1.53943 34.8055 0.765587 34.7171 0ZM53.4959 10.2347C53.4959 10.753 53.3941 11.2662 53.1964 11.745C52.9987 12.2238 52.7089 12.6589 52.3436 13.0254C51.9782 13.3919 51.5445 13.6826 51.0672 13.8809C50.5899 14.0792 50.0783 14.1813 49.5616 14.1813C48.5182 14.1813 47.5175 13.7655 46.7797 13.0254C46.0418 12.2853 45.6273 11.2814 45.6273 10.2347C45.6273 9.18803 46.0418 8.18419 46.7797 7.44406C47.5175 6.70393 48.5182 6.28813 49.5616 6.28813C50.6051 6.28813 51.6058 6.70393 52.3436 7.44406C53.0814 8.18419 53.4959 9.18803 53.4959 10.2347ZM44.4548 10.2347C44.4548 10.753 44.353 11.2662 44.1553 11.745C43.9576 12.2238 43.6678 12.6589 43.3024 13.0254C42.9371 13.3919 42.5034 13.6826 42.0261 13.8809C41.5487 14.0792 41.0371 14.1813 40.5205 14.1813C39.477 14.1813 38.4763 13.7655 37.7385 13.0254C37.0007 12.2853 36.5862 11.2814 36.5862 10.2347C36.5862 9.18803 37.0007 8.18419 37.7385 7.44406C38.4763 6.70393 39.477 6.28813 40.5205 6.28813C41.5639 6.28813 42.5646 6.70393 43.3024 7.44406C44.0403 8.18419 44.4548 9.18803 44.4548 10.2347ZM35.4136 10.2348C35.4136 11.2815 34.9991 12.2853 34.2613 13.0255C33.5235 13.7656 32.5228 14.1814 31.4793 14.1814C30.4359 14.1814 29.4352 13.7656 28.6974 13.0255C27.9596 12.2853 27.545 11.2815 27.545 10.2348C27.545 9.1881 27.9596 8.18427 28.6974 7.44414C29.4352 6.70401 30.4359 6.28821 31.4793 6.28821C32.5228 6.28821 33.5235 6.70401 34.2613 7.44414C34.9991 8.18427 35.4136 9.1881 35.4136 10.2348ZM26.3725 10.2348C26.3725 11.2815 25.958 12.2853 25.2202 13.0255C24.4823 13.7656 23.4816 14.1814 22.4382 14.1814C21.3948 14.1814 20.3941 13.7656 19.6562 13.0255C18.9184 12.2853 18.5039 11.2815 18.5039 10.2348C18.5039 9.1881 18.9184 8.18427 19.6562 7.44414C20.3941 6.70401 21.3948 6.28821 22.4382 6.28821C23.4816 6.28821 24.4823 6.70401 25.2202 7.44414C25.958 8.18427 26.3725 9.1881 26.3725 10.2348Z" fill="white"/>
<path d="M42.5067 23.8858C46.2672 23.8734 50.0277 23.9105 53.7881 23.8672C54.9751 27.1049 56.0139 30.3984 57.1351 33.6609C57.2277 33.5144 57.3593 33.3906 57.4066 33.2193C58.4784 30.1054 59.5749 26.9997 60.6569 23.8878C64.4379 23.8837 68.219 23.8816 72 23.8899V41.9792C69.6857 42.0081 67.3694 41.9895 65.0551 41.9895C65.051 37.8252 65.0757 33.6589 65.0427 29.4925C64.7198 29.6741 64.6869 30.0847 64.549 30.3922C63.2057 34.2614 61.8274 38.1183 60.4841 41.9875C58.3077 41.9875 56.1291 42.0164 53.9547 41.973C52.5909 38.0171 51.1797 34.0798 49.8034 30.1301C49.7541 29.9093 49.6306 29.7484 49.4373 29.6452C49.4311 33.76 49.4393 37.8768 49.4352 41.9937C47.125 41.9937 44.8149 41.9937 42.5047 41.9916C42.5088 35.9577 42.5026 29.9217 42.5067 23.8858ZM0 23.8858C2.28343 23.8858 4.56686 23.8837 6.85234 23.8878C6.85646 26.0793 6.84823 28.2729 6.8544 30.4665C9.11931 28.2915 11.3328 26.0649 13.5977 23.8899C15.8997 23.8837 18.2016 23.8837 20.5035 23.8899C17.8498 26.5952 15.1241 29.2304 12.491 31.9543C15.8091 35.1818 19.0142 38.5289 22.3611 41.7213C22.3899 35.7782 22.3653 29.833 22.3735 23.8878C24.7083 23.8837 27.0432 23.8837 29.3781 23.8878C29.3781 28.3967 29.3739 32.9057 29.3781 37.4146C33.1077 37.4043 36.8352 37.427 40.5627 37.4022C40.6142 38.9313 40.571 40.4625 40.5874 41.9916C31.5237 41.9916 22.4578 41.9998 13.3941 41.9875C11.2505 39.8104 9.07817 37.6622 6.92434 35.4954C6.89349 37.6643 6.92846 39.831 6.90583 41.9998C4.60389 41.9833 2.30194 42.0019 0 41.9895L0 23.8858Z" fill="white"/>
</g>
<defs>
<clipPath id="clip0_2055_7042">
<rect width="72" height="42" fill="white"/>
</clipPath>
</defs>
</svg>
