<svg width="122" height="24" viewBox="0 0 122 24" fill="none" xmlns="http://www.w3.org/2000/svg">
<g clip-path="url(#clip0_2055_7050)">
<path d="M30.9136 1.82812C30.2106 1.82812 29.6445 2.38584 29.6445 3.07889V18.3483C29.6445 19.0414 30.2106 19.5991 30.9136 19.5991H40.6525C40.8364 19.5991 40.9845 19.4532 40.9845 19.2718V17.5203C40.9845 17.339 40.8364 17.193 40.6525 17.193H32.3712V11.6089H39.8177C40.0016 11.6089 40.1496 11.4629 40.1496 11.2815V9.6264C40.1496 9.44508 40.0016 9.29917 39.8177 9.29917H32.3712V4.17779H40.6525C40.8364 4.17779 40.9845 4.03187 40.9845 3.85055V2.15536C40.9845 1.97404 40.8364 1.82812 40.6525 1.82812H30.9136Z" fill="white"/>
<path d="M63.7913 6.27344C61.474 6.27344 60.0351 7.06019 59.0717 8.36828V7.00165C59.0717 6.82033 58.9236 6.67432 58.7397 6.67432H56.7344C56.5504 6.67432 56.4023 6.82033 56.4023 7.00165V23.6715C56.4023 23.8528 56.5504 23.9988 56.7344 23.9988H58.7743C58.9583 23.9988 59.1064 23.8528 59.1064 23.6715V17.9687C60.0002 19.2374 61.4486 19.9884 63.7913 19.9884C67.7312 19.9884 70.1845 16.9142 70.1845 13.1269C70.1845 9.33962 67.7819 6.27344 63.7913 6.27344ZM63.2191 8.47872C66.0536 8.47872 67.4482 10.5598 67.4482 13.1269C67.4482 15.694 66.0536 17.7751 63.2191 17.7751C60.3846 17.7751 58.99 15.694 58.99 13.1269C58.99 10.5598 60.3846 8.47872 63.2191 8.47872Z" fill="white"/>
<path d="M103.359 6.67969H105.376C105.56 6.67969 105.708 6.82566 105.708 7.00699V19.2737C105.708 19.455 105.56 19.601 105.376 19.601H103.359C103.175 19.601 103.027 19.455 103.027 19.2737V7.00699C103.027 6.82566 103.175 6.67969 103.359 6.67969Z" fill="white"/>
<path d="M103.332 1.82031H105.407C105.591 1.82031 105.739 1.96629 105.739 2.14761V4.19308C105.739 4.3744 105.591 4.52038 105.407 4.52038H103.332C103.148 4.52038 103 4.3744 103 4.19308V2.14761C103 1.96629 103.148 1.82031 103.332 1.82031Z" fill="white"/>
<path d="M92.7525 19.9919C95.0698 19.9919 96.5087 19.2051 97.4721 17.897V19.2718C97.4721 19.4531 97.6202 19.5991 97.8042 19.5991H99.8095C99.9934 19.5991 100.142 19.4531 100.142 19.2718V2.15545C100.142 1.97413 99.9934 1.82812 99.8095 1.82812H97.7695C97.5856 1.82812 97.4375 1.97413 97.4375 2.15545V8.36921C96.4782 7.1328 95.0952 6.27687 92.7525 6.27689C88.8127 6.27692 86.3594 9.35112 86.3594 13.1384C86.3594 16.9257 88.7619 19.9919 92.7525 19.9919ZM93.3247 17.7866C90.4902 17.7866 89.0957 15.7055 89.0957 13.1384C89.0957 10.5713 90.4902 8.49024 93.3247 8.49024C96.1593 8.49024 97.5538 10.5713 97.5538 13.1384C97.5538 15.7055 96.1593 17.7866 93.3247 17.7866Z" fill="white"/>
<path d="M114.409 6.28125C110.418 6.28125 108.016 9.34741 108.016 13.1347C108.016 16.922 110.418 19.9881 114.409 19.9881C116.726 19.9881 118.165 19.2014 119.128 17.8933V19.268C119.128 19.4494 119.276 19.5954 119.46 19.5954H121.466C121.65 19.5954 121.798 19.4494 121.798 19.268V13.1347V7.00135C121.798 6.82003 121.65 6.67402 121.466 6.67402H119.46C119.276 6.67402 119.128 6.82003 119.128 7.00135V8.37609C118.165 7.068 116.726 6.28125 114.409 6.28125ZM114.981 8.48652C117.815 8.48652 119.21 10.5676 119.21 13.1347C119.21 15.7018 117.815 17.7829 114.981 17.7829C112.146 17.7829 110.752 15.7018 110.752 13.1347C110.752 10.5676 112.146 8.48652 114.981 8.48652Z" fill="white"/>
<path d="M43.1334 6.67969C42.8468 6.67969 42.7955 6.90279 42.9256 7.07951L47.194 12.8419L42.5091 19.2011C42.3789 19.3778 42.4303 19.601 42.7169 19.601H45.0282C45.2286 19.601 45.3327 19.5335 45.3994 19.4366L48.5917 14.7923L51.9166 19.4366C51.9851 19.5323 52.0874 19.601 52.2878 19.601H54.6875C54.9741 19.601 55.0259 19.3774 54.8953 19.2011L50.1835 12.8419L54.4251 7.07951C54.5552 6.90279 54.5039 6.67969 54.2173 6.67969H51.9513C51.7509 6.67969 51.6469 6.74721 51.5801 6.84401L48.779 10.9026L45.8851 6.84401C45.817 6.7481 45.7143 6.67969 45.5139 6.67969H43.1334Z" fill="white"/>
<path d="M78.2759 6.27344C74.2629 6.27344 71.8477 9.118 71.8477 13.1309C71.8477 17.5569 74.7025 19.9884 78.2759 19.9884C82.5941 19.9884 84.2963 17.4848 84.3914 17.391C84.5009 17.2831 84.4711 17.0822 84.3792 16.9934L83.131 15.787C83.0391 15.6982 82.8641 15.6845 82.7431 15.8048C82.6519 15.8954 81.1324 17.7889 78.6432 17.7889C75.9972 17.7889 74.6948 16.1909 74.5194 13.8367H84.3792C84.685 13.8367 84.7017 13.5687 84.7024 13.3927C84.7229 8.61316 81.9054 6.27344 78.2759 6.27344ZM78.2846 8.35328C80.7116 8.35328 81.7283 9.79205 81.9428 11.8415H74.6153C74.9034 9.83238 75.9737 8.35328 78.2846 8.35328Z" fill="white"/>
<path d="M5.30862 0H18.0463C20.5458 0 22.5581 1.98374 22.5581 4.44784V17.005C22.5581 19.4692 20.5458 21.4529 18.0463 21.4529H5.30862C2.80911 21.4529 0.796875 19.4692 0.796875 17.005V4.44784C0.796875 1.98374 2.80911 0 5.30862 0Z" fill="#FDDB32"/>
<path d="M6.88222 3.84376C6.67945 3.84376 6.552 3.88969 6.44461 3.99555L4.27011 6.13926C4.22973 6.17906 4.20704 6.23309 4.20703 6.28939C4.20702 6.40658 4.30342 6.5016 4.4223 6.5016H13.8489L8.05366 12.2147C7.93946 12.3272 7.87302 12.3927 7.87302 12.6137L7.87302 14.1169C7.87302 14.2079 7.91502 14.2868 7.97529 14.3462C8.03555 14.4056 8.11549 14.4469 8.20782 14.4469H9.73268C9.95681 14.4469 10.0232 14.3815 10.1374 14.2689L15.9326 8.55578V17.8488C15.9326 17.966 16.029 18.0611 16.1478 18.0611C16.2049 18.0611 16.2598 18.0387 16.3001 17.9989L18.4746 15.8552C18.582 15.7493 18.6286 15.6237 18.6286 15.4238L18.6286 5.27627C18.6286 5.08815 18.591 4.90186 18.518 4.72806C18.4449 4.55425 18.3379 4.39633 18.203 4.26331C18.068 4.13029 17.9078 4.02477 17.7315 3.95278C17.5552 3.88079 17.3662 3.84374 17.1754 3.84375L6.88222 3.84376Z" fill="#191E3B"/>
<path d="M5.03457 14.8672H7.12622C7.30119 14.8672 7.44205 15.006 7.44205 15.1785V17.2535C7.44205 17.426 7.30119 17.5648 7.12622 17.5648H5.03457C4.85961 17.5648 4.71875 17.426 4.71875 17.2535V15.1785C4.71875 15.006 4.85961 14.8672 5.03457 14.8672Z" fill="#191E3B"/>
</g>
<defs>
<clipPath id="clip0_2055_7050">
<rect width="121" height="24" fill="white" transform="translate(0.796875)"/>
</clipPath>
</defs>
</svg>
