<svg width="134" height="24" viewBox="0 0 134 24" fill="none" xmlns="http://www.w3.org/2000/svg">
<path d="M23.9504 12.0019C23.9504 5.3173 18.6602 0 11.9748 0C5.28949 0 0 5.31805 0 12.0034C0 18.6872 5.29174 24 11.9756 24C18.6609 24.0015 23.9496 18.6872 23.9496 12.0034L23.9519 12.0019H23.9504Z" fill="#00D66C"/>
<path d="M17.2664 13.7316H16.5929C15.9194 13.7316 15.6323 14.0909 15.5346 14.7877C15.3647 16.0633 14.3559 16.927 13.033 16.927C11.4951 16.927 10.5104 15.798 10.5104 14.1608V10.3153C10.5104 10.1612 10.4879 10.0259 10.4503 9.90488C10.5946 9.97028 10.7675 10.0041 10.9659 10.0041H14.5003C15.1753 10.0041 15.5586 9.6185 15.5586 8.94651V8.63457C15.5586 7.96032 15.1753 7.57622 14.5003 7.57622H12.5068V5.40916C12.5068 4.73717 12.1205 4.35156 11.4485 4.35156H10.9659C10.2939 4.35156 9.90908 4.73792 9.90908 5.40916V8.94576C9.90908 9.09759 9.92862 9.23364 9.96921 9.35542C9.82339 9.29077 9.65051 9.2577 9.45207 9.2577H5.91772C5.24498 9.2577 4.85938 9.64255 4.85938 10.3153V10.6287C4.85938 11.3022 5.24498 11.6871 5.91772 11.6871H7.91415V14.1601C7.91415 17.2622 9.90983 19.427 13.036 19.427C15.9465 19.427 17.8692 17.5741 18.23 14.7862C18.3248 14.0887 17.8677 13.7309 17.2657 13.7309L17.2664 13.7316Z" fill="white"/>
<path d="M40.3797 18.3597H43.191V12.2486C43.191 10.0387 44.3966 9.26826 45.8368 9.26826C46.6734 9.26826 47.2936 9.51782 47.8633 10.0034L49.1367 7.76042C48.3662 7.05611 47.3432 6.70808 46.3405 6.70808C44.9995 6.70808 43.6946 7.32445 43.0241 8.53088L42.8392 6.94185H40.379V18.3619V18.3589L40.3797 18.3597ZM119.699 4.22833C119.699 3.13992 118.862 2.58594 118.023 2.58594C117.203 2.58594 116.367 3.13616 116.367 4.22758C116.367 5.33253 117.203 5.86772 118.023 5.86772C118.859 5.86772 119.699 5.33178 119.699 4.22683V4.22833ZM35.2398 3.65932L32.4248 3.95999V6.94035H30.3164V9.36824H32.4248V14.4736C32.4248 17.2187 33.9996 18.4927 36.3598 18.4927C37.3655 18.4927 38.2202 18.2575 38.8215 17.9215L38.0684 15.6439C37.667 15.8288 37.1648 15.9649 36.6943 15.9649C35.757 15.9649 35.2376 15.4282 35.2376 14.3413V9.36974H38.3856V6.94185H35.2376L35.2391 3.66007L35.2398 3.65932ZM61.3941 6.9411H58.8662L58.6806 8.53238C58.0439 7.47704 56.7879 6.70733 54.8298 6.70733C51.6976 6.70733 48.9856 8.66317 48.9856 12.65C48.9856 16.6369 51.6976 18.5927 54.8298 18.5927C56.7879 18.5927 58.0439 17.826 58.6828 16.7699L58.8662 18.3619H61.3919V6.94185H61.3941V6.9411ZM116.617 6.9411V18.3589H119.431V6.94185H116.617V6.9411ZM55.2154 16.1498C53.2911 16.1498 51.8502 14.8622 51.8502 12.6515C51.8502 10.4401 53.2896 9.151 55.2154 9.151C57.1419 9.151 58.5829 10.4379 58.5829 12.6508C58.5829 14.8607 57.1434 16.1483 55.2154 16.1483V16.1498ZM101.163 6.94185H98.634L98.4476 8.53313C97.8124 7.47779 96.5609 6.70808 94.599 6.70808C91.4668 6.70808 88.7556 8.66392 88.7556 12.6508C88.7556 16.6376 91.4676 18.5935 94.599 18.5935C96.5564 18.5935 97.8132 17.8268 98.4476 16.7707L98.6355 18.3627H101.163V6.94185ZM94.9831 16.1498C93.0589 16.1498 91.6172 14.8622 91.6172 12.6515C91.6172 10.4401 93.0566 9.151 94.9846 9.151C96.9127 9.151 98.3521 10.4379 98.3521 12.6508C98.3521 14.8607 96.9112 16.1483 94.9846 16.1483L94.9831 16.1498ZM133.798 6.94185H131.269L131.084 8.53313C130.449 7.47779 129.194 6.70808 127.236 6.70808C124.103 6.70808 121.391 8.66392 121.391 12.6508C121.391 16.6376 124.104 18.5935 127.235 18.5935C129.192 18.5935 130.449 17.8268 131.083 16.7707L131.269 18.3627H133.798V6.94185ZM127.619 16.1498C125.696 16.1498 124.253 14.8622 124.253 12.6515C124.253 10.4401 125.693 9.151 127.621 9.151C129.546 9.151 130.988 10.4379 130.988 12.6508C130.986 14.8607 129.545 16.1483 127.621 16.1483L127.619 16.1498ZM110.374 18.3597L115.246 6.94185H112.317L108.982 15.362L105.646 6.94185H102.533L107.404 18.3597H110.374H110.374ZM64.0738 18.3597H66.8873V12.2336C66.8873 10.3078 68.126 9.2179 69.7662 9.2179C71.4071 9.2179 72.5293 10.3056 72.5293 12.2321V18.3597H75.3428V11.8149C75.3428 8.41587 73.2306 6.70959 70.5351 6.70959C68.7439 6.70959 67.421 7.46426 66.7866 8.53464L66.6024 6.94336H64.0738V18.3649V18.3597ZM82.4416 18.5927C85.9759 18.5927 87.4657 16.9886 87.4657 14.9621C87.4657 12.399 85.0544 11.7623 83.1113 11.512C81.9913 11.3594 80.2662 11.2609 80.2662 10.1545C80.2662 9.33291 81.2374 8.97962 82.4431 8.97962C83.5307 8.97962 84.6206 9.26526 85.5076 10.0342L86.9305 8.15805C85.6775 7.07039 84.2193 6.70132 82.5769 6.70132C80.1339 6.70132 77.4204 7.53567 77.4204 10.2815C77.4204 12.8094 79.6965 13.4799 81.7741 13.7467C82.9595 13.8993 84.6199 14.0135 84.6199 15.105C84.6199 15.9055 83.7164 16.2761 82.543 16.2761C81.2186 16.2761 79.4792 15.792 78.4224 14.6848L77.0002 16.5609C78.4389 18.156 80.6007 18.5904 82.4423 18.5904V18.5942L82.4416 18.5927Z" fill="#00D66C"/>
</svg>
