<svg width="191" height="18" viewBox="0 0 191 18" fill="none" xmlns="http://www.w3.org/2000/svg">
<g clip-path="url(#clip0_2055_7046)">
<path d="M180.095 0.664062L171.566 13.0621C170.444 14.6921 168.622 16.2641 166.422 16.4311V16.8121H175.908C178.427 16.8121 180.264 15.1651 181.507 13.3511L190.266 0.664062H180.096H180.095Z" fill="#FF0000"/>
<path d="M23.0209 16.812V2.026H27.3148V16.812H23.0209ZM122.055 16.812L111.737 8.032V16.812H108.111V2.026H111.191L121.372 10.668V2.026H124.998V16.812H122.055ZM144.494 6.796C142.554 5.836 140.368 5.059 137.47 5.059C134.01 5.059 131.43 6.857 131.43 9.357C131.43 11.918 134.057 13.733 137.439 13.733C140.232 13.733 142.445 13.016 144.63 11.75V15.409C142.703 16.369 140.14 17.085 137.257 17.085C131.37 17.085 126.741 14.068 126.741 9.357C126.741 4.723 131.46 1.75 137.241 1.75C139.972 1.75 142.445 2.268 144.494 3.108V6.796ZM51.2121 16.812V2.026H65.5654V5.196H55.506V8.87H65.339V12.041H55.506V16.813H51.2121V16.812ZM147.09 16.812V2.026H161.989V5.196H151.383V7.758H161.822V10.928H151.383V13.642H161.944V16.812H147.09ZM80.4805 11.263L86.4127 16.813H81.8307C80.814 16.813 80.147 16.493 79.6155 15.973L75.5792 12.04C75.5322 11.9982 75.4773 11.9659 75.4176 11.9452C75.3579 11.9244 75.2947 11.9155 75.2316 11.919H72.4848V16.812H68.1908V2.026H77.4922C82.3168 2.026 84.3501 4.206 84.3501 6.614C84.3501 9.419 81.861 10.758 80.4805 11.263ZM77.0526 8.824C78.7504 8.824 79.57 7.956 79.57 6.98C79.57 6.004 78.8424 5.196 77.0526 5.196H72.4848V8.824H77.0526ZM43.6246 11.264L49.5567 16.812H44.9758C43.9591 16.812 43.2911 16.492 42.7606 15.973L38.7243 12.04C38.6771 11.9981 38.622 11.9658 38.5622 11.9451C38.5023 11.9243 38.439 11.9154 38.3756 11.919H35.6299V16.812H31.3349V2.026H40.6363C45.4608 2.026 47.4951 4.206 47.4951 6.614C47.4951 9.419 45.0061 10.759 43.6246 11.264ZM40.1967 8.824C41.8965 8.824 42.7161 7.956 42.7161 6.98C42.7161 6.004 41.9875 5.196 40.1967 5.196H35.6299V8.824H40.1967ZM16.2985 16.812L14.4178 13.565H6.19467L4.47971 16.812H0.382812L8.57661 2.041H12.3097L21.5959 16.812H16.2985ZM7.83282 10.485H12.628L10.139 5.973L7.83282 10.485ZM102.041 16.812L100.205 13.565H92.1962L90.5419 16.812H86.5501L94.5307 2.041H98.1566L107.185 16.812H102.041ZM93.803 10.485H98.476L96.0486 5.973L93.803 10.485Z" fill="white"/>
</g>
<defs>
<clipPath id="clip0_2055_7046">
<rect width="191" height="18" fill="white"/>
</clipPath>
</defs>
</svg>
