<svg width="13" height="14" viewBox="0 0 13 14" fill="none" xmlns="http://www.w3.org/2000/svg">
<path d="M6.75507 2.2187V0L3.78143 2.95827L6.75507 5.91653V3.69783C9.21575 3.69783 11.2155 5.68727 11.2155 8.13523C11.2155 10.3317 9.60232 12.1511 7.49848 12.5061V14C10.4349 13.6376 12.7023 11.1527 12.7023 8.13523C12.7023 4.86635 10.0409 2.2187 6.75507 2.2187Z" fill="#69707B" fill-opacity="0.7"/>
<path d="M2.29462 8.13541C2.29462 6.91513 2.7927 5.80578 3.60302 4.99965L2.54738 3.94946C1.47687 5.02183 0.8078 6.50097 0.8078 8.13541C0.8078 11.1528 3.0752 13.6378 6.01166 14.0002V12.5063C3.90781 12.1513 2.29462 10.3319 2.29462 8.13541Z" fill="#69707B" fill-opacity="0.7"/>
</svg>
