<svg width="51" height="51" viewBox="0 0 51 51" fill="none" xmlns="http://www.w3.org/2000/svg">
<path d="M46.3216 50.5L28.8216 33C27.4327 34.1111 25.8355 34.9907 24.0299 35.6389C22.2243 36.287 20.303 36.6111 18.266 36.6111C13.2197 36.6111 8.94888 34.8634 5.45351 31.3681C1.95813 27.8727 0.210449 23.6019 0.210449 18.5556C0.210449 13.5093 1.95813 9.23843 5.45351 5.74306C8.94888 2.24769 13.2197 0.5 18.266 0.5C23.3123 0.5 27.5831 2.24769 31.0785 5.74306C34.5739 9.23843 36.3216 13.5093 36.3216 18.5556C36.3216 20.5926 35.9975 22.5139 35.3493 24.3194C34.7012 26.125 33.8216 27.7222 32.7104 29.1111L50.2105 46.6111L46.3216 50.5ZM18.266 31.0556C21.7382 31.0556 24.6896 29.8403 27.1202 27.4097C29.5507 24.9792 30.766 22.0278 30.766 18.5556C30.766 15.0833 29.5507 12.1319 27.1202 9.70139C24.6896 7.27083 21.7382 6.05556 18.266 6.05556C14.7938 6.05556 11.8424 7.27083 9.41184 9.70139C6.98128 12.1319 5.76601 15.0833 5.76601 18.5556C5.76601 22.0278 6.98128 24.9792 9.41184 27.4097C11.8424 29.8403 14.7938 31.0556 18.266 31.0556Z" fill="#00C4CC"/>
</svg>
