<svg width="12" height="17" viewBox="0 0 12 17" fill="none" xmlns="http://www.w3.org/2000/svg">
<path d="M5.99935 10.6667C5.3049 10.6667 4.71463 10.4236 4.22852 9.93752C3.7424 9.45141 3.49935 8.86113 3.49935 8.16669V3.16669C3.49935 2.47224 3.7424 1.88196 4.22852 1.39585C4.71463 0.909743 5.3049 0.666687 5.99935 0.666687C6.69379 0.666687 7.28407 0.909743 7.77018 1.39585C8.25629 1.88196 8.49935 2.47224 8.49935 3.16669V8.16669C8.49935 8.86113 8.25629 9.45141 7.77018 9.93752C7.28407 10.4236 6.69379 10.6667 5.99935 10.6667ZM5.16602 16.5V13.9375C3.72157 13.7431 2.52713 13.0972 1.58268 12C0.638238 10.9028 0.166016 9.62502 0.166016 8.16669H1.83268C1.83268 9.31947 2.23893 10.3021 3.05143 11.1146C3.86393 11.9271 4.84657 12.3334 5.99935 12.3334C7.15213 12.3334 8.13477 11.9271 8.94727 11.1146C9.75977 10.3021 10.166 9.31947 10.166 8.16669H11.8327C11.8327 9.62502 11.3605 10.9028 10.416 12C9.47157 13.0972 8.27713 13.7431 6.83268 13.9375V16.5H5.16602ZM5.99935 9.00002C6.23546 9.00002 6.43338 8.92016 6.5931 8.76044C6.75282 8.60071 6.83268 8.4028 6.83268 8.16669V3.16669C6.83268 2.93058 6.75282 2.73266 6.5931 2.57294C6.43338 2.41321 6.23546 2.33335 5.99935 2.33335C5.76324 2.33335 5.56532 2.41321 5.4056 2.57294C5.24588 2.73266 5.16602 2.93058 5.16602 3.16669V8.16669C5.16602 8.4028 5.24588 8.60071 5.4056 8.76044C5.56532 8.92016 5.76324 9.00002 5.99935 9.00002Z" fill="#69707B"/>
</svg>
