<svg width="17" height="19" viewBox="0 0 17 19" fill="none" xmlns="http://www.w3.org/2000/svg">
<g clip-path="url(#clip0_4711_37745)">
<path d="M13.125 18.25C12.3958 18.25 11.776 17.9948 11.2656 17.4844C10.7552 16.974 10.5 16.3542 10.5 15.625C10.5 15.5375 10.5219 15.3333 10.5656 15.0125L4.41875 11.425C4.18542 11.6438 3.91563 11.8151 3.60938 11.9391C3.30313 12.063 2.975 12.125 2.625 12.125C1.89583 12.125 1.27604 11.8698 0.765625 11.3594C0.255208 10.849 0 10.2292 0 9.5C0 8.77083 0.255208 8.15104 0.765625 7.64062C1.27604 7.13021 1.89583 6.875 2.625 6.875C2.975 6.875 3.30313 6.93698 3.60938 7.06094C3.91563 7.1849 4.18542 7.35625 4.41875 7.575L10.5656 3.9875C10.5365 3.88542 10.5182 3.78698 10.5109 3.69219C10.5036 3.5974 10.5 3.49167 10.5 3.375C10.5 2.64583 10.7552 2.02604 11.2656 1.51562C11.776 1.00521 12.3958 0.75 13.125 0.75C13.8542 0.75 14.474 1.00521 14.9844 1.51562C15.4948 2.02604 15.75 2.64583 15.75 3.375C15.75 4.10417 15.4948 4.72396 14.9844 5.23438C14.474 5.74479 13.8542 6 13.125 6C12.775 6 12.4469 5.93802 12.1406 5.81406C11.8344 5.6901 11.5646 5.51875 11.3313 5.3L5.18438 8.8875C5.21354 8.98958 5.23177 9.08802 5.23906 9.18281C5.24635 9.2776 5.25 9.38333 5.25 9.5C5.25 9.61667 5.24635 9.7224 5.23906 9.81719C5.23177 9.91198 5.21354 10.0104 5.18438 10.1125L11.3313 13.7C11.5646 13.4812 11.8344 13.3099 12.1406 13.1859C12.4469 13.062 12.775 13 13.125 13C13.8542 13 14.474 13.2552 14.9844 13.7656C15.4948 14.276 15.75 14.8958 15.75 15.625C15.75 16.3542 15.4948 16.974 14.9844 17.4844C14.474 17.9948 13.8542 18.25 13.125 18.25ZM13.125 16.5C13.3729 16.5 13.5807 16.4161 13.7484 16.2484C13.9161 16.0807 14 15.8729 14 15.625C14 15.3771 13.9161 15.1693 13.7484 15.0016C13.5807 14.8339 13.3729 14.75 13.125 14.75C12.8771 14.75 12.6693 14.8339 12.5016 15.0016C12.3339 15.1693 12.25 15.3771 12.25 15.625C12.25 15.8729 12.3339 16.0807 12.5016 16.2484C12.6693 16.4161 12.8771 16.5 13.125 16.5ZM2.625 10.375C2.87292 10.375 3.08073 10.2911 3.24844 10.1234C3.41615 9.95573 3.5 9.74792 3.5 9.5C3.5 9.25208 3.41615 9.04427 3.24844 8.87656C3.08073 8.70885 2.87292 8.625 2.625 8.625C2.37708 8.625 2.16927 8.70885 2.00156 8.87656C1.83385 9.04427 1.75 9.25208 1.75 9.5C1.75 9.74792 1.83385 9.95573 2.00156 10.1234C2.16927 10.2911 2.37708 10.375 2.625 10.375ZM13.125 4.25C13.3729 4.25 13.5807 4.16615 13.7484 3.99844C13.9161 3.83073 14 3.62292 14 3.375C14 3.12708 13.9161 2.91927 13.7484 2.75156C13.5807 2.58385 13.3729 2.5 13.125 2.5C12.8771 2.5 12.6693 2.58385 12.5016 2.75156C12.3339 2.91927 12.25 3.12708 12.25 3.375C12.25 3.62292 12.3339 3.83073 12.5016 3.99844C12.6693 4.16615 12.8771 4.25 13.125 4.25Z" fill="url(#paint0_linear_4711_37745)"/>
</g>
<defs>
<linearGradient id="paint0_linear_4711_37745" x1="7.875" y1="0.75" x2="7.875" y2="18.25" gradientUnits="userSpaceOnUse">
<stop stop-color="#31B6E3"/>
<stop offset="0.5" stop-color="#00C4CC"/>
<stop offset="0.75" stop-color="#1ABCD8"/>
<stop offset="1" stop-color="#31B6E3"/>
</linearGradient>
<clipPath id="clip0_4711_37745">
<rect width="17" height="18" fill="white" transform="translate(0 0.5)"/>
</clipPath>
</defs>
</svg>
