<svg width="129" height="46" viewBox="0 0 129 46" fill="none" xmlns="http://www.w3.org/2000/svg">
<g clip-path="url(#clip0_446_5599)">
<path d="M0 0.00683594H24.1875V23.994H0V0.00683594ZM26.2031 0.00683594H50.3906V23.994H26.2031V0.00683594ZM52.4062 0.00683594H76.5938V23.994H52.4062V0.00683594ZM78.6094 0.00683594H102.797V23.994H78.6094V0.00683594ZM104.812 0.00683594H129V23.994H104.812V0.00683594Z" fill="#00B67A"/>
<path d="M12.0945 16.1732L15.773 15.2487L17.31 19.9462L12.0945 16.1732ZM20.5602 10.1015H14.085L12.0945 4.05469L10.1041 10.1015H3.62891L8.86953 13.8495L6.8791 19.8962L12.1197 16.1482L15.3447 13.8495L20.5602 10.1015ZM38.2977 16.1732L41.9762 15.2487L43.5131 19.9462L38.2977 16.1732ZM46.7633 10.1015H40.2881L38.2977 4.05469L36.3072 10.1015H29.832L35.0727 13.8495L33.0822 19.8962L38.3229 16.1482L41.5479 13.8495L46.7633 10.1015ZM64.5008 16.1732L68.1793 15.2487L69.7162 19.9462L64.5008 16.1732ZM72.9664 10.1015H66.4912L64.5008 4.05469L62.5104 10.1015H56.0352L61.2758 13.8495L59.2854 19.8962L64.526 16.1482L67.751 13.8495L72.9664 10.1015ZM90.7039 16.1732L94.3824 15.2487L95.9193 19.9462L90.7039 16.1732ZM99.1695 10.1015H92.6943L90.7039 4.05469L88.7135 10.1015H82.2383L87.4789 13.8495L85.4885 19.8962L90.7291 16.1482L93.9541 13.8495L99.1695 10.1015ZM116.907 16.1732L120.586 15.2487L122.122 19.9462L116.907 16.1732ZM125.373 10.1015H118.897L116.907 4.05469L114.917 10.1015H108.441L113.682 13.8495L111.692 19.8962L116.932 16.1482L120.157 13.8495L125.373 10.1015Z" fill="white"/>
</g>
<path d="M21.6387 40.1309H20.4844V42H19.1426V40.1309H15.2285V39.0703L19.1426 33.4102H20.4844V38.9883H21.6387V40.1309ZM19.1426 38.9883V36.8379C19.1426 36.0723 19.1621 35.4453 19.2012 34.957H19.1543C19.0449 35.2148 18.873 35.5273 18.6387 35.8945L16.5117 38.9883H19.1426ZM22.6348 41.2676C22.6348 40.9824 22.709 40.7637 22.8574 40.6113C23.0059 40.459 23.2207 40.3828 23.502 40.3828C23.7871 40.3828 24.0039 40.4629 24.1523 40.623C24.3008 40.7793 24.375 40.9941 24.375 41.2676C24.375 41.5449 24.2988 41.7656 24.1465 41.9297C23.998 42.0898 23.7832 42.1699 23.502 42.1699C23.2207 42.1699 23.0059 42.0898 22.8574 41.9297C22.709 41.7695 22.6348 41.5488 22.6348 41.2676ZM28.582 33.3223C29.3945 33.3223 30.0371 33.5098 30.5098 33.8848C30.9824 34.2559 31.2188 34.7539 31.2188 35.3789C31.2188 36.2578 30.6914 36.957 29.6367 37.4766C30.3086 37.8125 30.7852 38.166 31.0664 38.5371C31.3516 38.9082 31.4941 39.3223 31.4941 39.7793C31.4941 40.4863 31.2344 41.0527 30.7148 41.4785C30.1953 41.9043 29.4922 42.1172 28.6055 42.1172C27.6758 42.1172 26.9551 41.918 26.4434 41.5195C25.9316 41.1211 25.6758 40.5566 25.6758 39.8262C25.6758 39.3496 25.8086 38.9219 26.0742 38.543C26.3438 38.1602 26.7832 37.8203 27.3926 37.5234C26.8691 37.2109 26.4961 36.8809 26.2734 36.5332C26.0508 36.1855 25.9395 35.7949 25.9395 35.3613C25.9395 34.7402 26.1836 34.2461 26.6719 33.8789C27.1602 33.5078 27.7969 33.3223 28.582 33.3223ZM26.9941 39.7793C26.9941 40.1855 27.1367 40.502 27.4219 40.7285C27.707 40.9512 28.0938 41.0625 28.582 41.0625C29.0859 41.0625 29.4766 40.9473 29.7539 40.7168C30.0352 40.4824 30.1758 40.166 30.1758 39.7676C30.1758 39.4512 30.0469 39.1621 29.7891 38.9004C29.5312 38.6387 29.1406 38.3965 28.6172 38.1738L28.4473 38.0977C27.9316 38.3242 27.5605 38.5742 27.334 38.8477C27.1074 39.1172 26.9941 39.4277 26.9941 39.7793ZM28.5703 34.3828C28.1797 34.3828 27.8652 34.4805 27.627 34.6758C27.3887 34.8672 27.2695 35.1289 27.2695 35.4609C27.2695 35.6641 27.3125 35.8457 27.3984 36.0059C27.4844 36.166 27.6094 36.3125 27.7734 36.4453C27.9375 36.5742 28.2148 36.7305 28.6055 36.9141C29.0742 36.707 29.4043 36.4902 29.5957 36.2637C29.791 36.0332 29.8887 35.7656 29.8887 35.4609C29.8887 35.1289 29.7676 34.8672 29.5254 34.6758C29.2871 34.4805 28.9688 34.3828 28.5703 34.3828ZM33.4102 33.4336L36.5977 42H35.3027L32.1094 33.4336H33.4102ZM40.1367 36.6504C41 36.6504 41.6836 36.8789 42.1875 37.3359C42.6914 37.793 42.9434 38.416 42.9434 39.2051C42.9434 40.1191 42.6562 40.834 42.082 41.3496C41.5117 41.8613 40.6992 42.1172 39.6445 42.1172C38.6875 42.1172 37.9355 41.9629 37.3887 41.6543V40.4062C37.7051 40.5859 38.0684 40.7246 38.4785 40.8223C38.8887 40.9199 39.2695 40.9688 39.6211 40.9688C40.2422 40.9688 40.7148 40.8301 41.0391 40.5527C41.3633 40.2754 41.5254 39.8691 41.5254 39.334C41.5254 38.3105 40.873 37.7988 39.5684 37.7988C39.3848 37.7988 39.1582 37.8184 38.8887 37.8574C38.6191 37.8926 38.3828 37.9336 38.1797 37.9805L37.5645 37.6172L37.8926 33.4336H42.3457V34.6582H39.1055L38.9121 36.7793C39.0488 36.7559 39.2148 36.7285 39.4102 36.6973C39.6094 36.666 39.8516 36.6504 40.1367 36.6504ZM47.0977 39.3691V38.1973H50.1094V39.3691H47.0977ZM58.2305 42H56.8535V36.4688C56.8535 35.8086 56.8691 35.2852 56.9004 34.8984C56.8105 34.9922 56.6992 35.0957 56.5664 35.209C56.4375 35.3223 56 35.6816 55.2539 36.2871L54.5625 35.4141L57.082 33.4336H58.2305V42ZM66.8496 42H61.043V40.957L63.252 38.7363C63.9043 38.0684 64.3359 37.5957 64.5469 37.3184C64.7617 37.0371 64.918 36.7734 65.0156 36.5273C65.1133 36.2812 65.1621 36.0176 65.1621 35.7363C65.1621 35.3496 65.0449 35.0449 64.8105 34.8223C64.5801 34.5996 64.2598 34.4883 63.8496 34.4883C63.5215 34.4883 63.2031 34.5488 62.8945 34.6699C62.5898 34.791 62.2363 35.0098 61.834 35.3262L61.0898 34.418C61.5664 34.0156 62.0293 33.7305 62.4785 33.5625C62.9277 33.3945 63.4062 33.3105 63.9141 33.3105C64.7109 33.3105 65.3496 33.5195 65.8301 33.9375C66.3105 34.3516 66.5508 34.9102 66.5508 35.6133C66.5508 36 66.4805 36.3672 66.3398 36.7148C66.2031 37.0625 65.9902 37.4219 65.7012 37.793C65.416 38.1602 64.9395 38.6582 64.2715 39.2871L62.7832 40.7285V40.7871H66.8496V42ZM73.7051 37.7168C73.7051 39.2051 73.4648 40.3105 72.9844 41.0332C72.5078 41.7559 71.7773 42.1172 70.793 42.1172C69.8398 42.1172 69.1172 41.7441 68.625 40.998C68.1328 40.252 67.8867 39.1582 67.8867 37.7168C67.8867 36.2051 68.125 35.0918 68.6016 34.377C69.082 33.6582 69.8125 33.2988 70.793 33.2988C71.75 33.2988 72.4746 33.6738 72.9668 34.4238C73.459 35.1738 73.7051 36.2715 73.7051 37.7168ZM69.2812 37.7168C69.2812 38.8848 69.4004 39.7188 69.6387 40.2188C69.8809 40.7188 70.2656 40.9688 70.793 40.9688C71.3203 40.9688 71.7051 40.7148 71.9473 40.207C72.1934 39.6992 72.3164 38.8691 72.3164 37.7168C72.3164 36.5684 72.1934 35.7383 71.9473 35.2266C71.7051 34.7109 71.3203 34.4531 70.793 34.4531C70.2656 34.4531 69.8809 34.7051 69.6387 35.209C69.4004 35.7129 69.2812 36.5488 69.2812 37.7168ZM80.5605 37.7168C80.5605 39.2051 80.3203 40.3105 79.8398 41.0332C79.3633 41.7559 78.6328 42.1172 77.6484 42.1172C76.6953 42.1172 75.9727 41.7441 75.4805 40.998C74.9883 40.252 74.7422 39.1582 74.7422 37.7168C74.7422 36.2051 74.9805 35.0918 75.457 34.377C75.9375 33.6582 76.668 33.2988 77.6484 33.2988C78.6055 33.2988 79.3301 33.6738 79.8223 34.4238C80.3145 35.1738 80.5605 36.2715 80.5605 37.7168ZM76.1367 37.7168C76.1367 38.8848 76.2559 39.7188 76.4941 40.2188C76.7363 40.7188 77.1211 40.9688 77.6484 40.9688C78.1758 40.9688 78.5605 40.7148 78.8027 40.207C79.0488 39.6992 79.1719 38.8691 79.1719 37.7168C79.1719 36.5684 79.0488 35.7383 78.8027 35.2266C78.5605 34.7109 78.1758 34.4531 77.6484 34.4531C77.1211 34.4531 76.7363 34.7051 76.4941 35.209C76.2559 35.7129 76.1367 36.5488 76.1367 37.7168ZM88.4707 35.4023C88.748 35.4023 88.9766 35.4219 89.1562 35.4609L89.0215 36.7441C88.8262 36.6973 88.623 36.6738 88.4121 36.6738C87.8613 36.6738 87.4141 36.8535 87.0703 37.2129C86.7305 37.5723 86.5605 38.0391 86.5605 38.6133V42H85.1836V35.5195H86.2617L86.4434 36.6621H86.5137C86.7285 36.2754 87.0078 35.9688 87.3516 35.7422C87.6992 35.5156 88.0723 35.4023 88.4707 35.4023ZM93.1934 42.1172C92.1855 42.1172 91.3965 41.8242 90.8262 41.2383C90.2598 40.6484 89.9766 39.8379 89.9766 38.8066C89.9766 37.748 90.2402 36.916 90.7676 36.3105C91.2949 35.7051 92.0195 35.4023 92.9414 35.4023C93.7969 35.4023 94.4727 35.6621 94.9688 36.1816C95.4648 36.7012 95.7129 37.416 95.7129 38.3262V39.0703H91.3945C91.4141 39.6992 91.584 40.1836 91.9043 40.5234C92.2246 40.8594 92.6758 41.0273 93.2578 41.0273C93.6406 41.0273 93.9961 40.9922 94.3242 40.9219C94.6562 40.8477 95.0117 40.7266 95.3906 40.5586V41.6777C95.0547 41.8379 94.7148 41.9512 94.3711 42.0176C94.0273 42.084 93.6348 42.1172 93.1934 42.1172ZM92.9414 36.4453C92.5039 36.4453 92.1523 36.584 91.8867 36.8613C91.625 37.1387 91.4688 37.543 91.418 38.0742H94.3594C94.3516 37.5391 94.2227 37.1348 93.9727 36.8613C93.7227 36.584 93.3789 36.4453 92.9414 36.4453ZM98.7539 42L96.293 35.5195H97.7461L99.0645 39.2871C99.291 39.9199 99.4277 40.4316 99.4746 40.8223H99.5215C99.5566 40.541 99.6934 40.0293 99.9316 39.2871L101.25 35.5195H102.715L100.242 42H98.7539ZM105.076 42H103.699V35.5195H105.076V42ZM103.617 33.8027C103.617 33.5566 103.684 33.3672 103.816 33.2344C103.953 33.1016 104.146 33.0352 104.396 33.0352C104.639 33.0352 104.826 33.1016 104.959 33.2344C105.096 33.3672 105.164 33.5566 105.164 33.8027C105.164 34.0371 105.096 34.2227 104.959 34.3594C104.826 34.4922 104.639 34.5586 104.396 34.5586C104.146 34.5586 103.953 34.4922 103.816 34.3594C103.684 34.2227 103.617 34.0371 103.617 33.8027ZM109.881 42.1172C108.873 42.1172 108.084 41.8242 107.514 41.2383C106.947 40.6484 106.664 39.8379 106.664 38.8066C106.664 37.748 106.928 36.916 107.455 36.3105C107.982 35.7051 108.707 35.4023 109.629 35.4023C110.484 35.4023 111.16 35.6621 111.656 36.1816C112.152 36.7012 112.4 37.416 112.4 38.3262V39.0703H108.082C108.102 39.6992 108.271 40.1836 108.592 40.5234C108.912 40.8594 109.363 41.0273 109.945 41.0273C110.328 41.0273 110.684 40.9922 111.012 40.9219C111.344 40.8477 111.699 40.7266 112.078 40.5586V41.6777C111.742 41.8379 111.402 41.9512 111.059 42.0176C110.715 42.084 110.322 42.1172 109.881 42.1172ZM109.629 36.4453C109.191 36.4453 108.84 36.584 108.574 36.8613C108.312 37.1387 108.156 37.543 108.105 38.0742H111.047C111.039 37.5391 110.91 37.1348 110.66 36.8613C110.41 36.584 110.066 36.4453 109.629 36.4453ZM119.279 42L118.441 38.9766C118.34 38.6562 118.156 37.9121 117.891 36.7441H117.838C117.611 37.7988 117.432 38.5469 117.299 38.9883L116.438 42H114.914L113.098 35.5195H114.504L115.33 38.7129C115.518 39.502 115.65 40.1777 115.729 40.7402H115.764C115.803 40.4551 115.861 40.1289 115.939 39.7617C116.021 39.3906 116.092 39.1133 116.15 38.9297L117.135 35.5195H118.646L119.602 38.9297C119.66 39.1211 119.732 39.4141 119.818 39.8086C119.908 40.2031 119.961 40.5098 119.977 40.7285H120.023C120.082 40.248 120.219 39.5762 120.434 38.7129L121.271 35.5195H122.654L120.826 42H119.279ZM128.127 40.1543C128.127 40.7871 127.896 41.2734 127.436 41.6133C126.975 41.9492 126.314 42.1172 125.455 42.1172C124.592 42.1172 123.898 41.9863 123.375 41.7246V40.5352C124.137 40.8867 124.846 41.0625 125.502 41.0625C126.35 41.0625 126.773 40.8066 126.773 40.2949C126.773 40.1309 126.727 39.9941 126.633 39.8848C126.539 39.7754 126.385 39.6621 126.17 39.5449C125.955 39.4277 125.656 39.2949 125.273 39.1465C124.527 38.8574 124.021 38.5684 123.756 38.2793C123.494 37.9902 123.363 37.6152 123.363 37.1543C123.363 36.5996 123.586 36.1699 124.031 35.8652C124.48 35.5566 125.09 35.4023 125.859 35.4023C126.621 35.4023 127.342 35.5566 128.021 35.8652L127.576 36.9023C126.877 36.6133 126.289 36.4688 125.812 36.4688C125.086 36.4688 124.723 36.6758 124.723 37.0898C124.723 37.293 124.816 37.4648 125.004 37.6055C125.195 37.7461 125.609 37.9395 126.246 38.1855C126.781 38.3926 127.17 38.582 127.412 38.7539C127.654 38.9258 127.834 39.125 127.951 39.3516C128.068 39.5742 128.127 39.8418 128.127 40.1543Z" fill="#0B1729"/>
<path d="M21.6387 40.1309H20.4844V42H19.1426V40.1309H15.2285V39.0703L19.1426 33.4102H20.4844V38.9883H21.6387V40.1309ZM19.1426 38.9883V36.8379C19.1426 36.0723 19.1621 35.4453 19.2012 34.957H19.1543C19.0449 35.2148 18.873 35.5273 18.6387 35.8945L16.5117 38.9883H19.1426ZM22.6348 41.2676C22.6348 40.9824 22.709 40.7637 22.8574 40.6113C23.0059 40.459 23.2207 40.3828 23.502 40.3828C23.7871 40.3828 24.0039 40.4629 24.1523 40.623C24.3008 40.7793 24.375 40.9941 24.375 41.2676C24.375 41.5449 24.2988 41.7656 24.1465 41.9297C23.998 42.0898 23.7832 42.1699 23.502 42.1699C23.2207 42.1699 23.0059 42.0898 22.8574 41.9297C22.709 41.7695 22.6348 41.5488 22.6348 41.2676ZM28.582 33.3223C29.3945 33.3223 30.0371 33.5098 30.5098 33.8848C30.9824 34.2559 31.2188 34.7539 31.2188 35.3789C31.2188 36.2578 30.6914 36.957 29.6367 37.4766C30.3086 37.8125 30.7852 38.166 31.0664 38.5371C31.3516 38.9082 31.4941 39.3223 31.4941 39.7793C31.4941 40.4863 31.2344 41.0527 30.7148 41.4785C30.1953 41.9043 29.4922 42.1172 28.6055 42.1172C27.6758 42.1172 26.9551 41.918 26.4434 41.5195C25.9316 41.1211 25.6758 40.5566 25.6758 39.8262C25.6758 39.3496 25.8086 38.9219 26.0742 38.543C26.3438 38.1602 26.7832 37.8203 27.3926 37.5234C26.8691 37.2109 26.4961 36.8809 26.2734 36.5332C26.0508 36.1855 25.9395 35.7949 25.9395 35.3613C25.9395 34.7402 26.1836 34.2461 26.6719 33.8789C27.1602 33.5078 27.7969 33.3223 28.582 33.3223ZM26.9941 39.7793C26.9941 40.1855 27.1367 40.502 27.4219 40.7285C27.707 40.9512 28.0938 41.0625 28.582 41.0625C29.0859 41.0625 29.4766 40.9473 29.7539 40.7168C30.0352 40.4824 30.1758 40.166 30.1758 39.7676C30.1758 39.4512 30.0469 39.1621 29.7891 38.9004C29.5312 38.6387 29.1406 38.3965 28.6172 38.1738L28.4473 38.0977C27.9316 38.3242 27.5605 38.5742 27.334 38.8477C27.1074 39.1172 26.9941 39.4277 26.9941 39.7793ZM28.5703 34.3828C28.1797 34.3828 27.8652 34.4805 27.627 34.6758C27.3887 34.8672 27.2695 35.1289 27.2695 35.4609C27.2695 35.6641 27.3125 35.8457 27.3984 36.0059C27.4844 36.166 27.6094 36.3125 27.7734 36.4453C27.9375 36.5742 28.2148 36.7305 28.6055 36.9141C29.0742 36.707 29.4043 36.4902 29.5957 36.2637C29.791 36.0332 29.8887 35.7656 29.8887 35.4609C29.8887 35.1289 29.7676 34.8672 29.5254 34.6758C29.2871 34.4805 28.9688 34.3828 28.5703 34.3828ZM33.4102 33.4336L36.5977 42H35.3027L32.1094 33.4336H33.4102ZM40.1367 36.6504C41 36.6504 41.6836 36.8789 42.1875 37.3359C42.6914 37.793 42.9434 38.416 42.9434 39.2051C42.9434 40.1191 42.6562 40.834 42.082 41.3496C41.5117 41.8613 40.6992 42.1172 39.6445 42.1172C38.6875 42.1172 37.9355 41.9629 37.3887 41.6543V40.4062C37.7051 40.5859 38.0684 40.7246 38.4785 40.8223C38.8887 40.9199 39.2695 40.9688 39.6211 40.9688C40.2422 40.9688 40.7148 40.8301 41.0391 40.5527C41.3633 40.2754 41.5254 39.8691 41.5254 39.334C41.5254 38.3105 40.873 37.7988 39.5684 37.7988C39.3848 37.7988 39.1582 37.8184 38.8887 37.8574C38.6191 37.8926 38.3828 37.9336 38.1797 37.9805L37.5645 37.6172L37.8926 33.4336H42.3457V34.6582H39.1055L38.9121 36.7793C39.0488 36.7559 39.2148 36.7285 39.4102 36.6973C39.6094 36.666 39.8516 36.6504 40.1367 36.6504ZM47.0977 39.3691V38.1973H50.1094V39.3691H47.0977ZM58.2305 42H56.8535V36.4688C56.8535 35.8086 56.8691 35.2852 56.9004 34.8984C56.8105 34.9922 56.6992 35.0957 56.5664 35.209C56.4375 35.3223 56 35.6816 55.2539 36.2871L54.5625 35.4141L57.082 33.4336H58.2305V42ZM66.8496 42H61.043V40.957L63.252 38.7363C63.9043 38.0684 64.3359 37.5957 64.5469 37.3184C64.7617 37.0371 64.918 36.7734 65.0156 36.5273C65.1133 36.2812 65.1621 36.0176 65.1621 35.7363C65.1621 35.3496 65.0449 35.0449 64.8105 34.8223C64.5801 34.5996 64.2598 34.4883 63.8496 34.4883C63.5215 34.4883 63.2031 34.5488 62.8945 34.6699C62.5898 34.791 62.2363 35.0098 61.834 35.3262L61.0898 34.418C61.5664 34.0156 62.0293 33.7305 62.4785 33.5625C62.9277 33.3945 63.4062 33.3105 63.9141 33.3105C64.7109 33.3105 65.3496 33.5195 65.8301 33.9375C66.3105 34.3516 66.5508 34.9102 66.5508 35.6133C66.5508 36 66.4805 36.3672 66.3398 36.7148C66.2031 37.0625 65.9902 37.4219 65.7012 37.793C65.416 38.1602 64.9395 38.6582 64.2715 39.2871L62.7832 40.7285V40.7871H66.8496V42ZM73.7051 37.7168C73.7051 39.2051 73.4648 40.3105 72.9844 41.0332C72.5078 41.7559 71.7773 42.1172 70.793 42.1172C69.8398 42.1172 69.1172 41.7441 68.625 40.998C68.1328 40.252 67.8867 39.1582 67.8867 37.7168C67.8867 36.2051 68.125 35.0918 68.6016 34.377C69.082 33.6582 69.8125 33.2988 70.793 33.2988C71.75 33.2988 72.4746 33.6738 72.9668 34.4238C73.459 35.1738 73.7051 36.2715 73.7051 37.7168ZM69.2812 37.7168C69.2812 38.8848 69.4004 39.7188 69.6387 40.2188C69.8809 40.7188 70.2656 40.9688 70.793 40.9688C71.3203 40.9688 71.7051 40.7148 71.9473 40.207C72.1934 39.6992 72.3164 38.8691 72.3164 37.7168C72.3164 36.5684 72.1934 35.7383 71.9473 35.2266C71.7051 34.7109 71.3203 34.4531 70.793 34.4531C70.2656 34.4531 69.8809 34.7051 69.6387 35.209C69.4004 35.7129 69.2812 36.5488 69.2812 37.7168ZM80.5605 37.7168C80.5605 39.2051 80.3203 40.3105 79.8398 41.0332C79.3633 41.7559 78.6328 42.1172 77.6484 42.1172C76.6953 42.1172 75.9727 41.7441 75.4805 40.998C74.9883 40.252 74.7422 39.1582 74.7422 37.7168C74.7422 36.2051 74.9805 35.0918 75.457 34.377C75.9375 33.6582 76.668 33.2988 77.6484 33.2988C78.6055 33.2988 79.3301 33.6738 79.8223 34.4238C80.3145 35.1738 80.5605 36.2715 80.5605 37.7168ZM76.1367 37.7168C76.1367 38.8848 76.2559 39.7188 76.4941 40.2188C76.7363 40.7188 77.1211 40.9688 77.6484 40.9688C78.1758 40.9688 78.5605 40.7148 78.8027 40.207C79.0488 39.6992 79.1719 38.8691 79.1719 37.7168C79.1719 36.5684 79.0488 35.7383 78.8027 35.2266C78.5605 34.7109 78.1758 34.4531 77.6484 34.4531C77.1211 34.4531 76.7363 34.7051 76.4941 35.209C76.2559 35.7129 76.1367 36.5488 76.1367 37.7168ZM88.4707 35.4023C88.748 35.4023 88.9766 35.4219 89.1562 35.4609L89.0215 36.7441C88.8262 36.6973 88.623 36.6738 88.4121 36.6738C87.8613 36.6738 87.4141 36.8535 87.0703 37.2129C86.7305 37.5723 86.5605 38.0391 86.5605 38.6133V42H85.1836V35.5195H86.2617L86.4434 36.6621H86.5137C86.7285 36.2754 87.0078 35.9688 87.3516 35.7422C87.6992 35.5156 88.0723 35.4023 88.4707 35.4023ZM93.1934 42.1172C92.1855 42.1172 91.3965 41.8242 90.8262 41.2383C90.2598 40.6484 89.9766 39.8379 89.9766 38.8066C89.9766 37.748 90.2402 36.916 90.7676 36.3105C91.2949 35.7051 92.0195 35.4023 92.9414 35.4023C93.7969 35.4023 94.4727 35.6621 94.9688 36.1816C95.4648 36.7012 95.7129 37.416 95.7129 38.3262V39.0703H91.3945C91.4141 39.6992 91.584 40.1836 91.9043 40.5234C92.2246 40.8594 92.6758 41.0273 93.2578 41.0273C93.6406 41.0273 93.9961 40.9922 94.3242 40.9219C94.6562 40.8477 95.0117 40.7266 95.3906 40.5586V41.6777C95.0547 41.8379 94.7148 41.9512 94.3711 42.0176C94.0273 42.084 93.6348 42.1172 93.1934 42.1172ZM92.9414 36.4453C92.5039 36.4453 92.1523 36.584 91.8867 36.8613C91.625 37.1387 91.4688 37.543 91.418 38.0742H94.3594C94.3516 37.5391 94.2227 37.1348 93.9727 36.8613C93.7227 36.584 93.3789 36.4453 92.9414 36.4453ZM98.7539 42L96.293 35.5195H97.7461L99.0645 39.2871C99.291 39.9199 99.4277 40.4316 99.4746 40.8223H99.5215C99.5566 40.541 99.6934 40.0293 99.9316 39.2871L101.25 35.5195H102.715L100.242 42H98.7539ZM105.076 42H103.699V35.5195H105.076V42ZM103.617 33.8027C103.617 33.5566 103.684 33.3672 103.816 33.2344C103.953 33.1016 104.146 33.0352 104.396 33.0352C104.639 33.0352 104.826 33.1016 104.959 33.2344C105.096 33.3672 105.164 33.5566 105.164 33.8027C105.164 34.0371 105.096 34.2227 104.959 34.3594C104.826 34.4922 104.639 34.5586 104.396 34.5586C104.146 34.5586 103.953 34.4922 103.816 34.3594C103.684 34.2227 103.617 34.0371 103.617 33.8027ZM109.881 42.1172C108.873 42.1172 108.084 41.8242 107.514 41.2383C106.947 40.6484 106.664 39.8379 106.664 38.8066C106.664 37.748 106.928 36.916 107.455 36.3105C107.982 35.7051 108.707 35.4023 109.629 35.4023C110.484 35.4023 111.16 35.6621 111.656 36.1816C112.152 36.7012 112.4 37.416 112.4 38.3262V39.0703H108.082C108.102 39.6992 108.271 40.1836 108.592 40.5234C108.912 40.8594 109.363 41.0273 109.945 41.0273C110.328 41.0273 110.684 40.9922 111.012 40.9219C111.344 40.8477 111.699 40.7266 112.078 40.5586V41.6777C111.742 41.8379 111.402 41.9512 111.059 42.0176C110.715 42.084 110.322 42.1172 109.881 42.1172ZM109.629 36.4453C109.191 36.4453 108.84 36.584 108.574 36.8613C108.312 37.1387 108.156 37.543 108.105 38.0742H111.047C111.039 37.5391 110.91 37.1348 110.66 36.8613C110.41 36.584 110.066 36.4453 109.629 36.4453ZM119.279 42L118.441 38.9766C118.34 38.6562 118.156 37.9121 117.891 36.7441H117.838C117.611 37.7988 117.432 38.5469 117.299 38.9883L116.438 42H114.914L113.098 35.5195H114.504L115.33 38.7129C115.518 39.502 115.65 40.1777 115.729 40.7402H115.764C115.803 40.4551 115.861 40.1289 115.939 39.7617C116.021 39.3906 116.092 39.1133 116.15 38.9297L117.135 35.5195H118.646L119.602 38.9297C119.66 39.1211 119.732 39.4141 119.818 39.8086C119.908 40.2031 119.961 40.5098 119.977 40.7285H120.023C120.082 40.248 120.219 39.5762 120.434 38.7129L121.271 35.5195H122.654L120.826 42H119.279ZM128.127 40.1543C128.127 40.7871 127.896 41.2734 127.436 41.6133C126.975 41.9492 126.314 42.1172 125.455 42.1172C124.592 42.1172 123.898 41.9863 123.375 41.7246V40.5352C124.137 40.8867 124.846 41.0625 125.502 41.0625C126.35 41.0625 126.773 40.8066 126.773 40.2949C126.773 40.1309 126.727 39.9941 126.633 39.8848C126.539 39.7754 126.385 39.6621 126.17 39.5449C125.955 39.4277 125.656 39.2949 125.273 39.1465C124.527 38.8574 124.021 38.5684 123.756 38.2793C123.494 37.9902 123.363 37.6152 123.363 37.1543C123.363 36.5996 123.586 36.1699 124.031 35.8652C124.48 35.5566 125.09 35.4023 125.859 35.4023C126.621 35.4023 127.342 35.5566 128.021 35.8652L127.576 36.9023C126.877 36.6133 126.289 36.4688 125.812 36.4688C125.086 36.4688 124.723 36.6758 124.723 37.0898C124.723 37.293 124.816 37.4648 125.004 37.6055C125.195 37.7461 125.609 37.9395 126.246 38.1855C126.781 38.3926 127.17 38.582 127.412 38.7539C127.654 38.9258 127.834 39.125 127.951 39.3516C128.068 39.5742 128.127 39.8418 128.127 40.1543Z" fill="#0B1729"/>
<path d="M21.6387 40.1309H20.4844V42H19.1426V40.1309H15.2285V39.0703L19.1426 33.4102H20.4844V38.9883H21.6387V40.1309ZM19.1426 38.9883V36.8379C19.1426 36.0723 19.1621 35.4453 19.2012 34.957H19.1543C19.0449 35.2148 18.873 35.5273 18.6387 35.8945L16.5117 38.9883H19.1426ZM22.6348 41.2676C22.6348 40.9824 22.709 40.7637 22.8574 40.6113C23.0059 40.459 23.2207 40.3828 23.502 40.3828C23.7871 40.3828 24.0039 40.4629 24.1523 40.623C24.3008 40.7793 24.375 40.9941 24.375 41.2676C24.375 41.5449 24.2988 41.7656 24.1465 41.9297C23.998 42.0898 23.7832 42.1699 23.502 42.1699C23.2207 42.1699 23.0059 42.0898 22.8574 41.9297C22.709 41.7695 22.6348 41.5488 22.6348 41.2676ZM28.582 33.3223C29.3945 33.3223 30.0371 33.5098 30.5098 33.8848C30.9824 34.2559 31.2188 34.7539 31.2188 35.3789C31.2188 36.2578 30.6914 36.957 29.6367 37.4766C30.3086 37.8125 30.7852 38.166 31.0664 38.5371C31.3516 38.9082 31.4941 39.3223 31.4941 39.7793C31.4941 40.4863 31.2344 41.0527 30.7148 41.4785C30.1953 41.9043 29.4922 42.1172 28.6055 42.1172C27.6758 42.1172 26.9551 41.918 26.4434 41.5195C25.9316 41.1211 25.6758 40.5566 25.6758 39.8262C25.6758 39.3496 25.8086 38.9219 26.0742 38.543C26.3438 38.1602 26.7832 37.8203 27.3926 37.5234C26.8691 37.2109 26.4961 36.8809 26.2734 36.5332C26.0508 36.1855 25.9395 35.7949 25.9395 35.3613C25.9395 34.7402 26.1836 34.2461 26.6719 33.8789C27.1602 33.5078 27.7969 33.3223 28.582 33.3223ZM26.9941 39.7793C26.9941 40.1855 27.1367 40.502 27.4219 40.7285C27.707 40.9512 28.0938 41.0625 28.582 41.0625C29.0859 41.0625 29.4766 40.9473 29.7539 40.7168C30.0352 40.4824 30.1758 40.166 30.1758 39.7676C30.1758 39.4512 30.0469 39.1621 29.7891 38.9004C29.5312 38.6387 29.1406 38.3965 28.6172 38.1738L28.4473 38.0977C27.9316 38.3242 27.5605 38.5742 27.334 38.8477C27.1074 39.1172 26.9941 39.4277 26.9941 39.7793ZM28.5703 34.3828C28.1797 34.3828 27.8652 34.4805 27.627 34.6758C27.3887 34.8672 27.2695 35.1289 27.2695 35.4609C27.2695 35.6641 27.3125 35.8457 27.3984 36.0059C27.4844 36.166 27.6094 36.3125 27.7734 36.4453C27.9375 36.5742 28.2148 36.7305 28.6055 36.9141C29.0742 36.707 29.4043 36.4902 29.5957 36.2637C29.791 36.0332 29.8887 35.7656 29.8887 35.4609C29.8887 35.1289 29.7676 34.8672 29.5254 34.6758C29.2871 34.4805 28.9688 34.3828 28.5703 34.3828ZM33.4102 33.4336L36.5977 42H35.3027L32.1094 33.4336H33.4102ZM40.1367 36.6504C41 36.6504 41.6836 36.8789 42.1875 37.3359C42.6914 37.793 42.9434 38.416 42.9434 39.2051C42.9434 40.1191 42.6562 40.834 42.082 41.3496C41.5117 41.8613 40.6992 42.1172 39.6445 42.1172C38.6875 42.1172 37.9355 41.9629 37.3887 41.6543V40.4062C37.7051 40.5859 38.0684 40.7246 38.4785 40.8223C38.8887 40.9199 39.2695 40.9688 39.6211 40.9688C40.2422 40.9688 40.7148 40.8301 41.0391 40.5527C41.3633 40.2754 41.5254 39.8691 41.5254 39.334C41.5254 38.3105 40.873 37.7988 39.5684 37.7988C39.3848 37.7988 39.1582 37.8184 38.8887 37.8574C38.6191 37.8926 38.3828 37.9336 38.1797 37.9805L37.5645 37.6172L37.8926 33.4336H42.3457V34.6582H39.1055L38.9121 36.7793C39.0488 36.7559 39.2148 36.7285 39.4102 36.6973C39.6094 36.666 39.8516 36.6504 40.1367 36.6504ZM47.0977 39.3691V38.1973H50.1094V39.3691H47.0977ZM58.2305 42H56.8535V36.4688C56.8535 35.8086 56.8691 35.2852 56.9004 34.8984C56.8105 34.9922 56.6992 35.0957 56.5664 35.209C56.4375 35.3223 56 35.6816 55.2539 36.2871L54.5625 35.4141L57.082 33.4336H58.2305V42ZM66.8496 42H61.043V40.957L63.252 38.7363C63.9043 38.0684 64.3359 37.5957 64.5469 37.3184C64.7617 37.0371 64.918 36.7734 65.0156 36.5273C65.1133 36.2812 65.1621 36.0176 65.1621 35.7363C65.1621 35.3496 65.0449 35.0449 64.8105 34.8223C64.5801 34.5996 64.2598 34.4883 63.8496 34.4883C63.5215 34.4883 63.2031 34.5488 62.8945 34.6699C62.5898 34.791 62.2363 35.0098 61.834 35.3262L61.0898 34.418C61.5664 34.0156 62.0293 33.7305 62.4785 33.5625C62.9277 33.3945 63.4062 33.3105 63.9141 33.3105C64.7109 33.3105 65.3496 33.5195 65.8301 33.9375C66.3105 34.3516 66.5508 34.9102 66.5508 35.6133C66.5508 36 66.4805 36.3672 66.3398 36.7148C66.2031 37.0625 65.9902 37.4219 65.7012 37.793C65.416 38.1602 64.9395 38.6582 64.2715 39.2871L62.7832 40.7285V40.7871H66.8496V42ZM73.7051 37.7168C73.7051 39.2051 73.4648 40.3105 72.9844 41.0332C72.5078 41.7559 71.7773 42.1172 70.793 42.1172C69.8398 42.1172 69.1172 41.7441 68.625 40.998C68.1328 40.252 67.8867 39.1582 67.8867 37.7168C67.8867 36.2051 68.125 35.0918 68.6016 34.377C69.082 33.6582 69.8125 33.2988 70.793 33.2988C71.75 33.2988 72.4746 33.6738 72.9668 34.4238C73.459 35.1738 73.7051 36.2715 73.7051 37.7168ZM69.2812 37.7168C69.2812 38.8848 69.4004 39.7188 69.6387 40.2188C69.8809 40.7188 70.2656 40.9688 70.793 40.9688C71.3203 40.9688 71.7051 40.7148 71.9473 40.207C72.1934 39.6992 72.3164 38.8691 72.3164 37.7168C72.3164 36.5684 72.1934 35.7383 71.9473 35.2266C71.7051 34.7109 71.3203 34.4531 70.793 34.4531C70.2656 34.4531 69.8809 34.7051 69.6387 35.209C69.4004 35.7129 69.2812 36.5488 69.2812 37.7168ZM80.5605 37.7168C80.5605 39.2051 80.3203 40.3105 79.8398 41.0332C79.3633 41.7559 78.6328 42.1172 77.6484 42.1172C76.6953 42.1172 75.9727 41.7441 75.4805 40.998C74.9883 40.252 74.7422 39.1582 74.7422 37.7168C74.7422 36.2051 74.9805 35.0918 75.457 34.377C75.9375 33.6582 76.668 33.2988 77.6484 33.2988C78.6055 33.2988 79.3301 33.6738 79.8223 34.4238C80.3145 35.1738 80.5605 36.2715 80.5605 37.7168ZM76.1367 37.7168C76.1367 38.8848 76.2559 39.7188 76.4941 40.2188C76.7363 40.7188 77.1211 40.9688 77.6484 40.9688C78.1758 40.9688 78.5605 40.7148 78.8027 40.207C79.0488 39.6992 79.1719 38.8691 79.1719 37.7168C79.1719 36.5684 79.0488 35.7383 78.8027 35.2266C78.5605 34.7109 78.1758 34.4531 77.6484 34.4531C77.1211 34.4531 76.7363 34.7051 76.4941 35.209C76.2559 35.7129 76.1367 36.5488 76.1367 37.7168ZM88.4707 35.4023C88.748 35.4023 88.9766 35.4219 89.1562 35.4609L89.0215 36.7441C88.8262 36.6973 88.623 36.6738 88.4121 36.6738C87.8613 36.6738 87.4141 36.8535 87.0703 37.2129C86.7305 37.5723 86.5605 38.0391 86.5605 38.6133V42H85.1836V35.5195H86.2617L86.4434 36.6621H86.5137C86.7285 36.2754 87.0078 35.9688 87.3516 35.7422C87.6992 35.5156 88.0723 35.4023 88.4707 35.4023ZM93.1934 42.1172C92.1855 42.1172 91.3965 41.8242 90.8262 41.2383C90.2598 40.6484 89.9766 39.8379 89.9766 38.8066C89.9766 37.748 90.2402 36.916 90.7676 36.3105C91.2949 35.7051 92.0195 35.4023 92.9414 35.4023C93.7969 35.4023 94.4727 35.6621 94.9688 36.1816C95.4648 36.7012 95.7129 37.416 95.7129 38.3262V39.0703H91.3945C91.4141 39.6992 91.584 40.1836 91.9043 40.5234C92.2246 40.8594 92.6758 41.0273 93.2578 41.0273C93.6406 41.0273 93.9961 40.9922 94.3242 40.9219C94.6562 40.8477 95.0117 40.7266 95.3906 40.5586V41.6777C95.0547 41.8379 94.7148 41.9512 94.3711 42.0176C94.0273 42.084 93.6348 42.1172 93.1934 42.1172ZM92.9414 36.4453C92.5039 36.4453 92.1523 36.584 91.8867 36.8613C91.625 37.1387 91.4688 37.543 91.418 38.0742H94.3594C94.3516 37.5391 94.2227 37.1348 93.9727 36.8613C93.7227 36.584 93.3789 36.4453 92.9414 36.4453ZM98.7539 42L96.293 35.5195H97.7461L99.0645 39.2871C99.291 39.9199 99.4277 40.4316 99.4746 40.8223H99.5215C99.5566 40.541 99.6934 40.0293 99.9316 39.2871L101.25 35.5195H102.715L100.242 42H98.7539ZM105.076 42H103.699V35.5195H105.076V42ZM103.617 33.8027C103.617 33.5566 103.684 33.3672 103.816 33.2344C103.953 33.1016 104.146 33.0352 104.396 33.0352C104.639 33.0352 104.826 33.1016 104.959 33.2344C105.096 33.3672 105.164 33.5566 105.164 33.8027C105.164 34.0371 105.096 34.2227 104.959 34.3594C104.826 34.4922 104.639 34.5586 104.396 34.5586C104.146 34.5586 103.953 34.4922 103.816 34.3594C103.684 34.2227 103.617 34.0371 103.617 33.8027ZM109.881 42.1172C108.873 42.1172 108.084 41.8242 107.514 41.2383C106.947 40.6484 106.664 39.8379 106.664 38.8066C106.664 37.748 106.928 36.916 107.455 36.3105C107.982 35.7051 108.707 35.4023 109.629 35.4023C110.484 35.4023 111.16 35.6621 111.656 36.1816C112.152 36.7012 112.4 37.416 112.4 38.3262V39.0703H108.082C108.102 39.6992 108.271 40.1836 108.592 40.5234C108.912 40.8594 109.363 41.0273 109.945 41.0273C110.328 41.0273 110.684 40.9922 111.012 40.9219C111.344 40.8477 111.699 40.7266 112.078 40.5586V41.6777C111.742 41.8379 111.402 41.9512 111.059 42.0176C110.715 42.084 110.322 42.1172 109.881 42.1172ZM109.629 36.4453C109.191 36.4453 108.84 36.584 108.574 36.8613C108.312 37.1387 108.156 37.543 108.105 38.0742H111.047C111.039 37.5391 110.91 37.1348 110.66 36.8613C110.41 36.584 110.066 36.4453 109.629 36.4453ZM119.279 42L118.441 38.9766C118.34 38.6562 118.156 37.9121 117.891 36.7441H117.838C117.611 37.7988 117.432 38.5469 117.299 38.9883L116.438 42H114.914L113.098 35.5195H114.504L115.33 38.7129C115.518 39.502 115.65 40.1777 115.729 40.7402H115.764C115.803 40.4551 115.861 40.1289 115.939 39.7617C116.021 39.3906 116.092 39.1133 116.15 38.9297L117.135 35.5195H118.646L119.602 38.9297C119.66 39.1211 119.732 39.4141 119.818 39.8086C119.908 40.2031 119.961 40.5098 119.977 40.7285H120.023C120.082 40.248 120.219 39.5762 120.434 38.7129L121.271 35.5195H122.654L120.826 42H119.279ZM128.127 40.1543C128.127 40.7871 127.896 41.2734 127.436 41.6133C126.975 41.9492 126.314 42.1172 125.455 42.1172C124.592 42.1172 123.898 41.9863 123.375 41.7246V40.5352C124.137 40.8867 124.846 41.0625 125.502 41.0625C126.35 41.0625 126.773 40.8066 126.773 40.2949C126.773 40.1309 126.727 39.9941 126.633 39.8848C126.539 39.7754 126.385 39.6621 126.17 39.5449C125.955 39.4277 125.656 39.2949 125.273 39.1465C124.527 38.8574 124.021 38.5684 123.756 38.2793C123.494 37.9902 123.363 37.6152 123.363 37.1543C123.363 36.5996 123.586 36.1699 124.031 35.8652C124.48 35.5566 125.09 35.4023 125.859 35.4023C126.621 35.4023 127.342 35.5566 128.021 35.8652L127.576 36.9023C126.877 36.6133 126.289 36.4688 125.812 36.4688C125.086 36.4688 124.723 36.6758 124.723 37.0898C124.723 37.293 124.816 37.4648 125.004 37.6055C125.195 37.7461 125.609 37.9395 126.246 38.1855C126.781 38.3926 127.17 38.582 127.412 38.7539C127.654 38.9258 127.834 39.125 127.951 39.3516C128.068 39.5742 128.127 39.8418 128.127 40.1543Z" fill="#0B1729"/>
<path d="M21.6387 40.1309H20.4844V42H19.1426V40.1309H15.2285V39.0703L19.1426 33.4102H20.4844V38.9883H21.6387V40.1309ZM19.1426 38.9883V36.8379C19.1426 36.0723 19.1621 35.4453 19.2012 34.957H19.1543C19.0449 35.2148 18.873 35.5273 18.6387 35.8945L16.5117 38.9883H19.1426ZM22.6348 41.2676C22.6348 40.9824 22.709 40.7637 22.8574 40.6113C23.0059 40.459 23.2207 40.3828 23.502 40.3828C23.7871 40.3828 24.0039 40.4629 24.1523 40.623C24.3008 40.7793 24.375 40.9941 24.375 41.2676C24.375 41.5449 24.2988 41.7656 24.1465 41.9297C23.998 42.0898 23.7832 42.1699 23.502 42.1699C23.2207 42.1699 23.0059 42.0898 22.8574 41.9297C22.709 41.7695 22.6348 41.5488 22.6348 41.2676ZM28.582 33.3223C29.3945 33.3223 30.0371 33.5098 30.5098 33.8848C30.9824 34.2559 31.2188 34.7539 31.2188 35.3789C31.2188 36.2578 30.6914 36.957 29.6367 37.4766C30.3086 37.8125 30.7852 38.166 31.0664 38.5371C31.3516 38.9082 31.4941 39.3223 31.4941 39.7793C31.4941 40.4863 31.2344 41.0527 30.7148 41.4785C30.1953 41.9043 29.4922 42.1172 28.6055 42.1172C27.6758 42.1172 26.9551 41.918 26.4434 41.5195C25.9316 41.1211 25.6758 40.5566 25.6758 39.8262C25.6758 39.3496 25.8086 38.9219 26.0742 38.543C26.3438 38.1602 26.7832 37.8203 27.3926 37.5234C26.8691 37.2109 26.4961 36.8809 26.2734 36.5332C26.0508 36.1855 25.9395 35.7949 25.9395 35.3613C25.9395 34.7402 26.1836 34.2461 26.6719 33.8789C27.1602 33.5078 27.7969 33.3223 28.582 33.3223ZM26.9941 39.7793C26.9941 40.1855 27.1367 40.502 27.4219 40.7285C27.707 40.9512 28.0938 41.0625 28.582 41.0625C29.0859 41.0625 29.4766 40.9473 29.7539 40.7168C30.0352 40.4824 30.1758 40.166 30.1758 39.7676C30.1758 39.4512 30.0469 39.1621 29.7891 38.9004C29.5312 38.6387 29.1406 38.3965 28.6172 38.1738L28.4473 38.0977C27.9316 38.3242 27.5605 38.5742 27.334 38.8477C27.1074 39.1172 26.9941 39.4277 26.9941 39.7793ZM28.5703 34.3828C28.1797 34.3828 27.8652 34.4805 27.627 34.6758C27.3887 34.8672 27.2695 35.1289 27.2695 35.4609C27.2695 35.6641 27.3125 35.8457 27.3984 36.0059C27.4844 36.166 27.6094 36.3125 27.7734 36.4453C27.9375 36.5742 28.2148 36.7305 28.6055 36.9141C29.0742 36.707 29.4043 36.4902 29.5957 36.2637C29.791 36.0332 29.8887 35.7656 29.8887 35.4609C29.8887 35.1289 29.7676 34.8672 29.5254 34.6758C29.2871 34.4805 28.9688 34.3828 28.5703 34.3828ZM33.4102 33.4336L36.5977 42H35.3027L32.1094 33.4336H33.4102ZM40.1367 36.6504C41 36.6504 41.6836 36.8789 42.1875 37.3359C42.6914 37.793 42.9434 38.416 42.9434 39.2051C42.9434 40.1191 42.6562 40.834 42.082 41.3496C41.5117 41.8613 40.6992 42.1172 39.6445 42.1172C38.6875 42.1172 37.9355 41.9629 37.3887 41.6543V40.4062C37.7051 40.5859 38.0684 40.7246 38.4785 40.8223C38.8887 40.9199 39.2695 40.9688 39.6211 40.9688C40.2422 40.9688 40.7148 40.8301 41.0391 40.5527C41.3633 40.2754 41.5254 39.8691 41.5254 39.334C41.5254 38.3105 40.873 37.7988 39.5684 37.7988C39.3848 37.7988 39.1582 37.8184 38.8887 37.8574C38.6191 37.8926 38.3828 37.9336 38.1797 37.9805L37.5645 37.6172L37.8926 33.4336H42.3457V34.6582H39.1055L38.9121 36.7793C39.0488 36.7559 39.2148 36.7285 39.4102 36.6973C39.6094 36.666 39.8516 36.6504 40.1367 36.6504ZM47.0977 39.3691V38.1973H50.1094V39.3691H47.0977ZM58.2305 42H56.8535V36.4688C56.8535 35.8086 56.8691 35.2852 56.9004 34.8984C56.8105 34.9922 56.6992 35.0957 56.5664 35.209C56.4375 35.3223 56 35.6816 55.2539 36.2871L54.5625 35.4141L57.082 33.4336H58.2305V42ZM66.8496 42H61.043V40.957L63.252 38.7363C63.9043 38.0684 64.3359 37.5957 64.5469 37.3184C64.7617 37.0371 64.918 36.7734 65.0156 36.5273C65.1133 36.2812 65.1621 36.0176 65.1621 35.7363C65.1621 35.3496 65.0449 35.0449 64.8105 34.8223C64.5801 34.5996 64.2598 34.4883 63.8496 34.4883C63.5215 34.4883 63.2031 34.5488 62.8945 34.6699C62.5898 34.791 62.2363 35.0098 61.834 35.3262L61.0898 34.418C61.5664 34.0156 62.0293 33.7305 62.4785 33.5625C62.9277 33.3945 63.4062 33.3105 63.9141 33.3105C64.7109 33.3105 65.3496 33.5195 65.8301 33.9375C66.3105 34.3516 66.5508 34.9102 66.5508 35.6133C66.5508 36 66.4805 36.3672 66.3398 36.7148C66.2031 37.0625 65.9902 37.4219 65.7012 37.793C65.416 38.1602 64.9395 38.6582 64.2715 39.2871L62.7832 40.7285V40.7871H66.8496V42ZM73.7051 37.7168C73.7051 39.2051 73.4648 40.3105 72.9844 41.0332C72.5078 41.7559 71.7773 42.1172 70.793 42.1172C69.8398 42.1172 69.1172 41.7441 68.625 40.998C68.1328 40.252 67.8867 39.1582 67.8867 37.7168C67.8867 36.2051 68.125 35.0918 68.6016 34.377C69.082 33.6582 69.8125 33.2988 70.793 33.2988C71.75 33.2988 72.4746 33.6738 72.9668 34.4238C73.459 35.1738 73.7051 36.2715 73.7051 37.7168ZM69.2812 37.7168C69.2812 38.8848 69.4004 39.7188 69.6387 40.2188C69.8809 40.7188 70.2656 40.9688 70.793 40.9688C71.3203 40.9688 71.7051 40.7148 71.9473 40.207C72.1934 39.6992 72.3164 38.8691 72.3164 37.7168C72.3164 36.5684 72.1934 35.7383 71.9473 35.2266C71.7051 34.7109 71.3203 34.4531 70.793 34.4531C70.2656 34.4531 69.8809 34.7051 69.6387 35.209C69.4004 35.7129 69.2812 36.5488 69.2812 37.7168ZM80.5605 37.7168C80.5605 39.2051 80.3203 40.3105 79.8398 41.0332C79.3633 41.7559 78.6328 42.1172 77.6484 42.1172C76.6953 42.1172 75.9727 41.7441 75.4805 40.998C74.9883 40.252 74.7422 39.1582 74.7422 37.7168C74.7422 36.2051 74.9805 35.0918 75.457 34.377C75.9375 33.6582 76.668 33.2988 77.6484 33.2988C78.6055 33.2988 79.3301 33.6738 79.8223 34.4238C80.3145 35.1738 80.5605 36.2715 80.5605 37.7168ZM76.1367 37.7168C76.1367 38.8848 76.2559 39.7188 76.4941 40.2188C76.7363 40.7188 77.1211 40.9688 77.6484 40.9688C78.1758 40.9688 78.5605 40.7148 78.8027 40.207C79.0488 39.6992 79.1719 38.8691 79.1719 37.7168C79.1719 36.5684 79.0488 35.7383 78.8027 35.2266C78.5605 34.7109 78.1758 34.4531 77.6484 34.4531C77.1211 34.4531 76.7363 34.7051 76.4941 35.209C76.2559 35.7129 76.1367 36.5488 76.1367 37.7168ZM88.4707 35.4023C88.748 35.4023 88.9766 35.4219 89.1562 35.4609L89.0215 36.7441C88.8262 36.6973 88.623 36.6738 88.4121 36.6738C87.8613 36.6738 87.4141 36.8535 87.0703 37.2129C86.7305 37.5723 86.5605 38.0391 86.5605 38.6133V42H85.1836V35.5195H86.2617L86.4434 36.6621H86.5137C86.7285 36.2754 87.0078 35.9688 87.3516 35.7422C87.6992 35.5156 88.0723 35.4023 88.4707 35.4023ZM93.1934 42.1172C92.1855 42.1172 91.3965 41.8242 90.8262 41.2383C90.2598 40.6484 89.9766 39.8379 89.9766 38.8066C89.9766 37.748 90.2402 36.916 90.7676 36.3105C91.2949 35.7051 92.0195 35.4023 92.9414 35.4023C93.7969 35.4023 94.4727 35.6621 94.9688 36.1816C95.4648 36.7012 95.7129 37.416 95.7129 38.3262V39.0703H91.3945C91.4141 39.6992 91.584 40.1836 91.9043 40.5234C92.2246 40.8594 92.6758 41.0273 93.2578 41.0273C93.6406 41.0273 93.9961 40.9922 94.3242 40.9219C94.6562 40.8477 95.0117 40.7266 95.3906 40.5586V41.6777C95.0547 41.8379 94.7148 41.9512 94.3711 42.0176C94.0273 42.084 93.6348 42.1172 93.1934 42.1172ZM92.9414 36.4453C92.5039 36.4453 92.1523 36.584 91.8867 36.8613C91.625 37.1387 91.4688 37.543 91.418 38.0742H94.3594C94.3516 37.5391 94.2227 37.1348 93.9727 36.8613C93.7227 36.584 93.3789 36.4453 92.9414 36.4453ZM98.7539 42L96.293 35.5195H97.7461L99.0645 39.2871C99.291 39.9199 99.4277 40.4316 99.4746 40.8223H99.5215C99.5566 40.541 99.6934 40.0293 99.9316 39.2871L101.25 35.5195H102.715L100.242 42H98.7539ZM105.076 42H103.699V35.5195H105.076V42ZM103.617 33.8027C103.617 33.5566 103.684 33.3672 103.816 33.2344C103.953 33.1016 104.146 33.0352 104.396 33.0352C104.639 33.0352 104.826 33.1016 104.959 33.2344C105.096 33.3672 105.164 33.5566 105.164 33.8027C105.164 34.0371 105.096 34.2227 104.959 34.3594C104.826 34.4922 104.639 34.5586 104.396 34.5586C104.146 34.5586 103.953 34.4922 103.816 34.3594C103.684 34.2227 103.617 34.0371 103.617 33.8027ZM109.881 42.1172C108.873 42.1172 108.084 41.8242 107.514 41.2383C106.947 40.6484 106.664 39.8379 106.664 38.8066C106.664 37.748 106.928 36.916 107.455 36.3105C107.982 35.7051 108.707 35.4023 109.629 35.4023C110.484 35.4023 111.16 35.6621 111.656 36.1816C112.152 36.7012 112.4 37.416 112.4 38.3262V39.0703H108.082C108.102 39.6992 108.271 40.1836 108.592 40.5234C108.912 40.8594 109.363 41.0273 109.945 41.0273C110.328 41.0273 110.684 40.9922 111.012 40.9219C111.344 40.8477 111.699 40.7266 112.078 40.5586V41.6777C111.742 41.8379 111.402 41.9512 111.059 42.0176C110.715 42.084 110.322 42.1172 109.881 42.1172ZM109.629 36.4453C109.191 36.4453 108.84 36.584 108.574 36.8613C108.312 37.1387 108.156 37.543 108.105 38.0742H111.047C111.039 37.5391 110.91 37.1348 110.66 36.8613C110.41 36.584 110.066 36.4453 109.629 36.4453ZM119.279 42L118.441 38.9766C118.34 38.6562 118.156 37.9121 117.891 36.7441H117.838C117.611 37.7988 117.432 38.5469 117.299 38.9883L116.438 42H114.914L113.098 35.5195H114.504L115.33 38.7129C115.518 39.502 115.65 40.1777 115.729 40.7402H115.764C115.803 40.4551 115.861 40.1289 115.939 39.7617C116.021 39.3906 116.092 39.1133 116.15 38.9297L117.135 35.5195H118.646L119.602 38.9297C119.66 39.1211 119.732 39.4141 119.818 39.8086C119.908 40.2031 119.961 40.5098 119.977 40.7285H120.023C120.082 40.248 120.219 39.5762 120.434 38.7129L121.271 35.5195H122.654L120.826 42H119.279ZM128.127 40.1543C128.127 40.7871 127.896 41.2734 127.436 41.6133C126.975 41.9492 126.314 42.1172 125.455 42.1172C124.592 42.1172 123.898 41.9863 123.375 41.7246V40.5352C124.137 40.8867 124.846 41.0625 125.502 41.0625C126.35 41.0625 126.773 40.8066 126.773 40.2949C126.773 40.1309 126.727 39.9941 126.633 39.8848C126.539 39.7754 126.385 39.6621 126.17 39.5449C125.955 39.4277 125.656 39.2949 125.273 39.1465C124.527 38.8574 124.021 38.5684 123.756 38.2793C123.494 37.9902 123.363 37.6152 123.363 37.1543C123.363 36.5996 123.586 36.1699 124.031 35.8652C124.48 35.5566 125.09 35.4023 125.859 35.4023C126.621 35.4023 127.342 35.5566 128.021 35.8652L127.576 36.9023C126.877 36.6133 126.289 36.4688 125.812 36.4688C125.086 36.4688 124.723 36.6758 124.723 37.0898C124.723 37.293 124.816 37.4648 125.004 37.6055C125.195 37.7461 125.609 37.9395 126.246 38.1855C126.781 38.3926 127.17 38.582 127.412 38.7539C127.654 38.9258 127.834 39.125 127.951 39.3516C128.068 39.5742 128.127 39.8418 128.127 40.1543Z" fill="#0B1729"/>
<defs>
<clipPath id="clip0_446_5599">
<rect width="129" height="24" fill="white"/>
</clipPath>
</defs>
</svg>
