<svg width="19" height="17" viewBox="0 0 19 17" fill="none" xmlns="http://www.w3.org/2000/svg">
<path d="M9.23582 17H8.40394C8.32036 17 8.23811 16.979 8.16473 16.939C8.09134 16.899 8.02916 16.8412 7.98387 16.7709C7.93858 16.7007 7.91163 16.6202 7.90547 16.5368C7.89931 16.4535 7.91415 16.3699 7.94863 16.2937L9.96301 11.8484L6.93832 11.7812L5.8352 13.1178C5.62488 13.3822 5.45707 13.5 5.02894 13.5C5.58894 13.5 5.84562 12.9513 5.02894 13.1178C5.08215 13.1888 5.84562 13.1719 5.02894 13.1178C4.95457 13.0175 4.95773 12.7425 5.02898 12.5L5.8352 10.5C5.83988 10.4834 5.84551 10.4669 5.85176 10.4506L6.00391 9.5C5.99745 9.48376 5.83977 10.4131 5.8352 10.3962L5.65542 9.14406L3.93269 8.21125C3.86551 7.97344 3.93894 7.80719 4.01269 7.70937C4.06222 7.64366 4.12647 7.59049 4.20028 7.55412C4.2741 7.51776 4.35541 7.49922 4.4377 7.5H5.02894C5.34863 7.5 5.65894 7.64344 5.84144 7.875L6.92176 9.18906L9.96301 9.14406L7.94926 4.70656C7.91473 4.63045 7.89983 4.5469 7.90592 4.46355C7.91202 4.3802 7.93891 4.2997 7.98413 4.22942C8.02936 4.15914 8.09148 4.10132 8.16482 4.06124C8.23816 4.02116 8.32037 4.00011 8.40394 4H9.24488C9.3622 4.00236 9.47748 4.03111 9.58217 4.08413C9.68685 4.13715 9.43255 4.90682 9.50388 5L13.7574 9.05625L15.5627 9.00875C15.6949 9.00156 16.0611 8.99906 16.1458 8.99906C17.8727 9 18.9039 9.56062 18.9039 10.5C18.9039 10.7956 18.7858 11.3437 17.9955 11.6925C17.5289 11.8987 16.9064 12.0031 16.1452 12.0031C16.0614 12.0031 15.6961 12.0006 15.5621 11.9934L13.7571 11.9453L9.83957 16.6953C9.76819 16.7881 9.67687 16.8636 9.57237 16.9164C9.46787 16.9691 9.35285 16.9977 9.23582 17Z" fill="#7C7C7C" fill-opacity="0.7"/>
<path d="M6.32762 13.9999H5.49575C5.41216 13.9999 5.32991 13.9789 5.25653 13.9389C5.18315 13.8989 5.12097 13.8411 5.07568 13.7708C5.03038 13.7006 5.00343 13.6201 4.99727 13.5367C4.99112 13.4534 5.00596 13.3698 5.04044 13.2937L7.0548 8.84839L4.03013 8.7812L2.92701 10.1178C2.7167 10.3821 2.54889 10.4999 2.12077 10.4999H1.56077C1.4721 10.5028 1.38406 10.4842 1.30409 10.4458C1.22413 10.4074 1.1546 10.3503 1.1014 10.2793C1.02702 10.179 0.953898 10.009 1.02515 9.76651L1.64452 7.54777C1.64921 7.53121 1.65483 7.51465 1.66108 7.4984C1.66139 7.49685 1.66139 7.49526 1.66108 7.49371C1.65463 7.47747 1.6491 7.46088 1.64452 7.44402L1.02452 5.21122C0.957335 4.97341 1.03077 4.80716 1.10452 4.70935C1.15405 4.64364 1.2183 4.59046 1.29211 4.5541C1.36592 4.51774 1.44724 4.4992 1.52952 4.49998H2.12077C2.44045 4.49998 2.75076 4.64342 2.93326 4.87498L4.01357 6.18903L7.0548 6.14403L5.04106 1.70656C5.00653 1.63045 4.99164 1.5469 4.99773 1.46355C5.00382 1.3802 5.03071 1.2997 5.07594 1.22942C5.12116 1.15914 5.18328 1.10132 5.25662 1.06124C5.32996 1.02116 5.41217 1.00011 5.49575 1H6.33668C6.454 1.00236 6.56928 1.03111 6.67396 1.08413C6.77864 1.13715 6.87004 1.21307 6.94136 1.30625L10.8492 6.05622L12.6545 6.00872C12.7866 6.00153 13.1529 5.99903 13.2376 5.99903C14.9644 5.99997 15.9957 6.56059 15.9957 7.49996C15.9957 7.79558 15.8776 8.3437 15.0872 8.69245C14.6207 8.8987 13.9982 9.00308 13.2369 9.00308C13.1532 9.00308 12.7879 9.00058 12.6538 8.99339L10.8488 8.94526L6.93136 13.6952C6.85998 13.788 6.76867 13.8636 6.66416 13.9163C6.55966 13.969 6.44465 13.9976 6.32762 13.9999Z" fill="#7C7C7C"/>
<path fill-rule="evenodd" clip-rule="evenodd" d="M6.34182 14.9999H5.49974C5.24898 14.9998 5.00224 14.9369 4.78209 14.8168C4.56194 14.6968 4.3754 14.5234 4.23953 14.3127C4.10366 14.1019 4.02279 13.8605 4.00432 13.6104C3.98585 13.3603 4.03037 13.1096 4.13381 12.8812L4.13386 12.881L4.13392 12.8809L5.52345 9.81451L4.49703 9.79171L3.70795 10.7478C3.57373 10.9158 3.37381 11.1399 3.06656 11.2976C2.7509 11.4596 2.42586 11.4999 2.12509 11.4999H1.57716C1.33464 11.5046 1.09431 11.4523 0.87549 11.3472C0.650627 11.2392 0.45511 11.0786 0.305509 10.879L0.303967 10.877L0.302436 10.8749C0.0785006 10.5729 -0.103838 10.086 0.0677744 9.49236L0.625259 7.49532L0.0657976 5.48052C-0.100776 4.88762 0.0862923 4.40461 0.310248 4.10749C0.310294 4.10743 0.31034 4.10737 0.310385 4.10731C0.454052 3.91674 0.640417 3.76252 0.854509 3.65705C1.06689 3.55242 1.30068 3.49866 1.53738 3.49998H2.12509C2.71837 3.49998 3.32573 3.75863 3.71536 4.24637L4.48456 5.18202L5.51748 5.16673L4.13477 2.11979L4.13472 2.11968C4.03114 1.89135 3.98644 1.6407 4.00472 1.39065C4.023 1.14059 4.10366 0.899105 4.23934 0.688267C4.37502 0.477429 4.56138 0.303963 4.7814 0.183728C5.00141 0.0634941 5.24805 0.000326495 5.49877 8.71189e-07L5.49942 0H6.35105L6.36109 0.000201848C6.62858 0.00557722 6.89143 0.0711395 7.1301 0.19202C7.36249 0.309714 7.56615 0.476904 7.72682 0.681727L11.3154 5.04372L12.6204 5.00938C12.7929 5.00112 13.1657 4.99903 13.2419 4.99903H13.2424C14.1913 4.99955 15.0684 5.15031 15.7464 5.51916C16.4653 5.91028 17 6.58433 17 7.49995C17 7.77845 16.9442 8.17614 16.7035 8.58427C16.4574 9.00151 16.0601 9.35797 15.4959 9.60706C15.4958 9.60712 15.4956 9.60717 15.4955 9.60723C15.4954 9.60726 15.4954 9.60729 15.4953 9.60732C14.8545 9.89044 14.0789 10.0031 13.2413 10.0031C13.1654 10.0031 12.7931 10.001 12.6199 9.99271L11.3142 9.9579L7.71573 14.3211C7.55488 14.5253 7.35123 14.6919 7.11903 14.809C6.88076 14.9293 6.61852 14.9944 6.35169 14.9997L6.34182 14.9999ZM6.93569 13.6952L10.8532 8.94526L12.6582 8.99338C12.7922 9.00057 13.1575 9.00307 13.2413 9.00307C14.0025 9.00307 14.625 8.89869 15.0916 8.69245C15.8819 8.3437 16 7.79558 16 7.49995C16 6.56058 14.9688 5.99996 13.2419 5.99903C13.1572 5.99903 12.791 6.00153 12.6588 6.00871L10.8535 6.05621L6.94569 1.30624C6.87437 1.21306 6.78297 1.13714 6.67829 1.08412C6.5736 1.03111 6.45832 1.00235 6.341 0.999994H5.50007C5.4165 1.0001 5.33428 1.02116 5.26095 1.06124C5.18761 1.10131 5.12549 1.15914 5.08026 1.22942C5.03503 1.2997 5.00815 1.38019 5.00205 1.46354C4.99596 1.54689 5.01086 1.63044 5.04539 1.70655L7.05912 6.14402L4.01789 6.18902L2.93759 4.87497C2.75509 4.64341 2.44478 4.49997 2.12509 4.49997H1.53384C1.45156 4.49919 1.37025 4.51773 1.29644 4.55409C1.22262 4.59046 1.15837 4.64363 1.10885 4.70935C1.0351 4.80716 0.961661 4.97341 1.02885 5.21122L1.64884 7.44402C1.65342 7.46088 1.65895 7.47747 1.66541 7.4937C1.66572 7.49525 1.66572 7.49684 1.66541 7.49839C1.65916 7.51464 1.65353 7.5312 1.64884 7.54777L1.02947 9.7665C0.958223 10.009 1.03135 10.179 1.10572 10.2793C1.15892 10.3503 1.22845 10.4074 1.30842 10.4458C1.38838 10.4842 1.47643 10.5028 1.56509 10.4999H2.12509C2.55321 10.4999 2.72103 10.3821 2.93134 10.1177L4.03445 8.7812L7.05912 8.84838L5.04476 13.2937C5.01028 13.3698 4.99544 13.4534 5.0016 13.5367C5.00775 13.6201 5.03471 13.7006 5.08 13.7708C5.12529 13.8411 5.18747 13.8989 5.26086 13.9389C5.33424 13.9789 5.41649 13.9999 5.50007 13.9999H6.33194C6.44897 13.9976 6.56399 13.969 6.66849 13.9163C6.77299 13.8635 6.86431 13.788 6.93569 13.6952Z" fill="#F9F9F9"/>
</svg>
