<svg width="175" height="85" viewBox="0 0 175 85" fill="none" xmlns="http://www.w3.org/2000/svg">
<g clip-path="url(#clip0_2162_294)">
<path d="M7.42447 0.33118C6.62375 0.33118 6.14331 0.587964 6.14331 1.06485V23.3684C6.14331 23.7719 6.51698 24.1021 7.21095 24.1021H65.6107C66.0911 24.1021 66.5182 24.1021 66.7851 23.5518C66.7851 23.5518 72.6571 10.896 72.7638 10.6759C72.9774 10.199 72.8706 9.94226 72.2834 9.68547C53.3328 1.46837 24.827 0.257812 11.9619 0.257812C10.0936 0.257812 8.59887 0.33118 7.42447 0.33118Z" fill="url(#paint0_linear_2162_294)"/>
<path d="M19.4887 14.6014C17.3 13.9411 15.8587 13.5375 16.2324 12.8039C16.606 11.9235 18.7947 11.5933 20.7698 11.6667C21.7307 11.6667 22.4247 11.74 23.3321 11.9235L24.0261 10.3828C23.0652 10.236 22.2645 10.1993 21.0901 10.1993C17.1399 10.126 13.6167 10.8596 12.7625 12.4003C11.6949 14.1978 14.7377 15.2983 17.4068 16.1421C19.5954 16.8024 21.1435 17.4994 20.5563 18.2697C20.1826 18.93 18.5812 19.2235 16.4459 19.2235C14.5775 19.2235 12.2287 18.82 10.3604 18.233L9.29272 19.8471C10.6807 20.2506 13.4031 20.8376 15.8053 20.9109C20.236 20.9843 23.172 20.2506 24.3464 18.5632C25.6276 16.5456 22.2645 15.5184 19.4887 14.6014Z" fill="white"/>
<path d="M25.6275 17.3523C25.6275 17.3523 25.6275 17.4257 25.7343 17.4257C25.7343 17.4257 25.841 17.4257 25.841 17.3523C25.841 17.279 28.0297 12.7302 28.0297 12.7302C30.2183 14.8578 32.3536 17.6825 33.6348 20.6905H37.158L38.9196 16.8754C38.9196 16.8754 38.9196 16.8021 39.0263 16.8021C39.0263 16.8021 39.1331 16.8021 39.1331 16.8754C39.6135 19.2232 43.1367 20.8373 48.1013 20.8373C51.2508 20.8373 54.1868 20.2503 54.8807 20.0302L56.7491 15.995H63.9023L64.5962 14.4543H57.3363L58.6175 11.8498H67.1586L67.9593 10.2357H55.895L51.8914 18.9297C50.9839 19.0764 49.9162 19.1131 48.8486 19.1131C46.4998 19.1131 44.5247 18.7096 43.457 17.8292C42.6563 17.1689 42.2826 16.3619 42.5495 15.4081C43.03 13.2071 46.1795 11.7764 50.3967 11.7764C51.3042 11.7764 52.1583 11.7764 53.0658 11.9232L53.9733 10.2357C53.0124 10.089 51.7312 10.089 50.5568 10.089C46.8201 10.089 43.457 10.9694 41.4285 12.5101C41.4285 12.5835 41.3218 12.5835 41.215 12.5835C41.1082 12.5835 41.1082 12.5835 41.1082 12.5101L42.1759 10.2357H39.0263L35.5031 17.5357C34.4355 15.4081 32.1401 12.5101 29.4176 10.2357H26.0546L23.599 15.5915C24.8268 16.2518 25.2005 16.7287 25.6275 17.3523Z" fill="white"/>
</g>
<g clip-path="url(#clip1_2162_294)">
<path fill-rule="evenodd" clip-rule="evenodd" d="M150.136 45.6311C149.29 44.7959 148.131 44.2754 146.861 44.2754H137.863L141.19 40.8995H149.656C150.014 40.9053 150.348 41.0641 150.584 41.3023L155.498 46.2898C156.344 47.122 157.5 47.6455 158.779 47.6455H167.786L164.452 51.0214H155.995C155.632 51.0097 155.303 50.8538 155.065 50.6068L150.136 45.6311ZM152.708 53.0005C153.545 53.8563 154.708 54.3944 155.995 54.3944H165.824L174.168 45.9604L165.824 37.5235H161.113L167.786 44.2754H158.779C158.425 44.2754 158.093 44.1313 157.861 43.9019L152.941 38.9233C152.098 38.0587 150.938 37.5264 149.656 37.5235H139.813L131.472 45.9604L139.813 54.3944H144.527L137.863 47.6455H146.861C147.218 47.6455 147.541 47.7896 147.779 48.0248L152.708 53.0005Z" fill="#F6F6F6"/>
</g>
<g clip-path="url(#clip2_2162_294)">
<path d="M142.296 11.4217H133.263C132.786 14.0922 131.997 18.6552 131.604 20.8884H135.444C135.735 19.2085 136.542 14.6056 136.896 12.5916H139.779C140.988 12.5916 141.857 13.4063 141.655 14.7989C141.462 15.8999 140.997 18.556 140.588 20.8886H144.426C144.776 18.8783 145.128 16.8682 145.482 14.8583C145.823 12.9157 144.795 11.4217 142.296 11.4217ZM122.675 19.7597C120.893 19.4648 121.224 17.3416 121.224 17.3416C122.809 17.5291 124.803 17.4853 126.168 17.3496C127.349 17.2336 129.679 16.943 130.342 15.1327C131 13.3382 130.501 11.8867 128.329 11.4836C126.728 11.1881 125.241 11.1731 123.3 11.4324C120.528 11.8015 119.006 12.7377 118.327 14.3809C117.955 15.2837 117.729 16.3596 117.632 17.3348C117.456 19.1114 117.791 20.7398 120.02 20.9185C123.01 21.1574 125.363 21.1043 127.858 20.7164L128.634 19.6113C126.268 20.0066 123.575 19.9082 122.675 19.7597ZM121.924 14.4873C122.399 13.3588 123.1 12.6519 124.409 12.3502C124.99 12.2164 125.485 12.2211 126.179 12.3689C127.208 12.5868 127.525 13.7827 127.073 14.7137C126.567 15.7542 125.892 15.9863 125.01 16.1674C124.054 16.3643 122.793 16.3937 121.406 16.2972C121.503 15.7196 121.748 14.9065 121.924 14.4873ZM160.365 19.7597C158.583 19.4648 158.915 17.3416 158.915 17.3416C160.5 17.5291 162.494 17.4853 163.859 17.3496C165.039 17.2336 167.37 16.943 168.033 15.1327C168.691 13.3382 168.193 11.8867 166.019 11.4836C164.419 11.1881 162.932 11.1731 160.991 11.4324C158.219 11.8015 156.697 12.7377 156.018 14.3809C155.645 15.2837 155.419 16.3596 155.323 17.3348C155.146 19.1114 155.482 20.7398 157.711 20.9185C160.701 21.1574 163.054 21.1043 165.548 20.7164L166.325 19.6113C163.959 20.0066 161.266 19.9082 160.365 19.7597ZM159.615 14.4873C160.09 13.3588 160.791 12.6519 162.1 12.3502C162.681 12.2164 163.176 12.2211 163.87 12.3689C164.899 12.5868 165.215 13.7827 164.763 14.7137C164.258 15.7542 163.583 15.9863 162.701 16.1674C161.744 16.3643 160.484 16.3937 159.097 16.2972C159.193 15.7196 159.438 14.9065 159.615 14.4873ZM111.092 14.5779C111.295 13.4226 111.707 12.7537 112.968 12.5247C114.095 12.3199 116.181 12.4555 117.408 12.5918L118.23 11.4208C116.373 11.2871 113.239 11.1358 111.382 11.4038C108.732 11.7859 107.652 12.323 107.355 14.013C107.176 15.0234 106.376 19.5925 106.148 20.8884H109.986C110.25 19.3804 110.904 15.6455 111.092 14.5779ZM152.531 5.62084C150.347 7.14493 149.609 9.01432 149.205 11.3126L147.58 20.5845C147.211 22.6965 147.052 23.7989 146.693 24.8307C146.4 25.7014 145.453 26.9751 143.873 26.9956L143.181 27.9779C145.223 28.0764 146.855 27.4897 148.007 26.6876C150.191 25.1637 150.995 22.9864 151.398 20.6929C151.426 20.5353 152.136 16.4771 152.474 14.553C152.723 13.1873 153.439 12.4374 154.955 12.4189L155.657 11.4208H153.021C153.393 9.29584 153.531 8.37308 153.836 7.48983C154.136 6.62181 155.076 5.34591 156.655 5.32451L157.356 4.33054C155.314 4.23217 153.683 4.81867 152.531 5.62084Z" fill="#F7F7F7"/>
</g>
<path d="M76.7591 33.2312C76.865 33.1486 77.0826 33.0366 77.2473 32.9776C77.4472 32.901 77.6413 32.8774 77.8648 32.8951C78.0413 32.9069 78.3118 32.9776 78.4706 33.0425C78.6235 33.1133 78.8588 33.2784 78.9999 33.4199C79.147 33.5673 79.2999 33.8031 79.3822 34.0095C79.4528 34.1923 79.5116 34.4576 79.5116 34.5991C79.5116 34.7347 79.4705 34.9646 79.4234 35.1121C79.3705 35.2595 79.2352 35.5248 79.1117 35.7017C78.9941 35.8785 78.7647 36.2028 78.6 36.421C78.4412 36.6392 78.2412 36.9104 78.1589 37.0283C78.0766 37.1403 77.8589 37.441 77.6766 37.6946C77.4943 37.9422 77.212 38.3137 77.0591 38.52C76.9061 38.7264 76.7415 38.8915 76.7062 38.8856C76.665 38.8856 76.5886 38.8148 76.5297 38.7264C76.4768 38.632 76.1298 38.1368 75.7534 37.6238C75.377 37.1108 74.9712 36.5448 74.8535 36.3738C74.73 36.1969 74.63 36.0377 74.63 36.0142C74.6359 35.9847 74.7065 35.8844 74.7947 35.7783C74.8829 35.6781 75.0182 35.5012 75.1005 35.3833C75.1829 35.2654 75.3946 34.9705 75.5711 34.7288C75.7475 34.4871 75.9592 34.1923 76.0416 34.0802C76.1239 33.9623 76.271 33.7559 76.3768 33.6203C76.4768 33.4847 76.6532 33.3078 76.7591 33.2312Z" fill="white"/>
<path d="M37.924 33.5614C38.0417 33.4375 38.2416 33.2901 38.371 33.2253C38.6004 33.1133 38.7533 33.1074 49.1634 33.1074V34.0095C49.1634 34.8703 49.1576 34.9175 49.0046 35.2241C48.9105 35.401 48.7576 35.6132 48.6635 35.6899C48.5694 35.7665 48.3812 35.8668 48.2518 35.9139C48.0636 35.9788 47.4225 35.9965 44.8582 35.9965C42.1645 35.9965 41.6705 36.0083 41.5176 36.0849C41.4176 36.1321 41.3 36.2323 41.2529 36.309C41.1823 36.4151 41.1647 36.6568 41.1647 38.6792L44.2524 38.6674C46.9344 38.6497 47.352 38.6615 47.4284 38.7382C47.499 38.8089 47.5166 38.9976 47.5166 39.6403C47.5166 40.3773 47.5049 40.4775 47.3696 40.7606C47.2873 40.9256 47.1343 41.1438 47.0344 41.244C46.9285 41.3384 46.7109 41.4622 46.5462 41.5094C46.3051 41.586 45.8169 41.5978 41.1647 41.5978V47.0223H37.577V40.6132C37.577 35.9375 37.5947 34.1451 37.6417 33.9918C37.677 33.8798 37.8064 33.6852 37.924 33.5614Z" fill="white"/>
<path d="M95.3327 33.6675C95.4327 33.5378 95.6503 33.3609 95.8208 33.2725C96.109 33.1133 96.1443 33.1074 98.0381 33.1074V37.9894C98.0381 42.2228 98.0499 42.9126 98.1322 43.2192C98.1793 43.4138 98.291 43.6674 98.3792 43.7794C98.4675 43.8914 98.591 44.0329 98.6557 44.0919C98.7204 44.1508 98.9439 44.2864 99.5379 44.5754H101.602L102.043 44.3631C102.314 44.2275 102.549 44.0624 102.667 43.9209C102.773 43.7912 102.908 43.5376 102.973 43.3549C103.09 43.0247 103.096 42.9009 103.096 38.7382C103.096 36.1675 103.12 34.3514 103.155 34.1864C103.184 34.0272 103.296 33.7972 103.39 33.6675C103.49 33.5378 103.714 33.3609 103.878 33.2666C104.178 33.1074 104.208 33.1015 106.096 33.1074V38.1663C106.096 42.3643 106.078 43.3254 106.002 43.8383C105.931 44.3395 105.866 44.5577 105.66 44.9881C105.484 45.3537 105.29 45.6308 105.055 45.8784C104.866 46.073 104.567 46.3324 104.39 46.4444C104.214 46.5565 103.878 46.7333 103.655 46.8336C103.431 46.9338 102.99 47.0635 102.684 47.1225C102.226 47.2109 101.838 47.2286 100.567 47.2286C99.3497 47.2286 98.8909 47.205 98.4792 47.1284C98.191 47.0694 97.7558 46.9456 97.5264 46.8454C97.2912 46.751 96.9559 46.58 96.7913 46.468C96.6207 46.3619 96.3502 46.1437 96.1914 45.9845C96.0326 45.8253 95.8149 45.5659 95.7091 45.4008C95.6032 45.2416 95.4268 44.8938 95.1268 44.1626L95.1092 39.2099C95.0974 36.4859 95.1033 34.1805 95.1209 34.0802C95.1386 33.9859 95.2327 33.7972 95.3327 33.6675Z" fill="white"/>
<path d="M110.771 33.2842C111.03 33.2135 111.271 33.1427 111.301 33.1368C111.336 33.1251 112.795 33.1133 117.741 33.1074V34.0213C117.741 34.6404 117.717 34.9941 117.664 35.1297C117.623 35.23 117.482 35.4304 117.353 35.5719C117.206 35.7311 117.029 35.855 116.859 35.9139C116.641 35.9788 116.147 35.9965 114.212 35.9965C112.159 35.9965 111.789 36.0083 111.536 36.0908C111.377 36.1439 111.165 36.2559 111.077 36.3443C110.989 36.4269 110.848 36.6333 110.766 36.7925C110.689 36.9575 110.624 37.1816 110.624 37.2936C110.63 37.4057 110.66 37.5943 110.701 37.7064C110.742 37.8243 110.842 38.0071 110.924 38.1191C111.007 38.2311 111.207 38.3903 111.365 38.4729C111.642 38.6144 111.701 38.6203 114.653 38.6851L115.153 38.8797C115.43 38.9858 115.724 39.1214 115.818 39.1863C115.906 39.2452 115.994 39.2983 116.024 39.2983C116.047 39.3042 116.224 39.4398 116.423 39.6108C116.618 39.7818 116.853 40.0117 116.953 40.1238C117.047 40.2358 117.2 40.4363 117.282 40.566C117.37 40.6957 117.517 41.0023 117.617 41.244C117.729 41.5271 117.817 41.9044 117.864 42.2759C117.923 42.7829 117.917 42.948 117.835 43.4551C117.782 43.7794 117.67 44.2039 117.582 44.3985C117.494 44.593 117.335 44.8938 117.229 45.0647C117.123 45.2298 116.859 45.5541 116.641 45.7723C116.418 45.9963 116.053 46.2852 115.829 46.4209C115.606 46.5506 115.206 46.7333 114.477 46.9869L108.948 47.0282L108.654 46.8808C108.495 46.8041 108.284 46.6331 108.189 46.5093C108.089 46.3855 107.978 46.1968 107.937 46.0966C107.884 45.9668 107.86 45.6072 107.86 44.1331L110.936 44.1155C113.624 44.1037 114.03 44.0919 114.212 44.0093C114.324 43.9563 114.518 43.7971 114.641 43.6556C114.765 43.5141 114.888 43.3018 114.93 43.1898C114.965 43.0777 114.983 42.8537 114.965 42.6886C114.953 42.4881 114.883 42.3053 114.771 42.1285C114.671 41.987 114.465 41.7865 114.018 41.5094L112.512 41.474C111.289 41.4504 110.954 41.4209 110.713 41.3384C110.554 41.2794 110.207 41.132 109.948 41.0082C109.642 40.8549 109.325 40.6367 109.042 40.3773C108.807 40.1533 108.531 39.8584 108.431 39.711C108.337 39.5636 108.184 39.2924 108.089 39.1096C107.995 38.921 107.878 38.5613 107.819 38.3137C107.766 38.0601 107.725 37.6297 107.725 37.3526C107.731 37.0755 107.772 36.6568 107.825 36.4269C107.878 36.191 108.001 35.8196 108.101 35.6014C108.201 35.3774 108.36 35.0944 108.448 34.9646C108.536 34.8349 108.766 34.5696 108.96 34.375C109.154 34.1805 109.389 33.9682 109.483 33.8974C109.577 33.8326 109.801 33.697 109.977 33.5967C110.154 33.5024 110.513 33.3609 110.771 33.2842Z" fill="white"/>
<path d="M75.3123 43.1426C75.6828 42.6355 76.1416 41.9987 76.3239 41.7334C76.5062 41.4681 76.6885 41.244 76.7179 41.244C76.7532 41.244 76.9356 41.4563 77.1296 41.7216C77.3237 41.987 77.6707 42.4586 77.9001 42.7711C78.1295 43.0836 78.4059 43.4669 78.5177 43.632L78.5467 43.6734C78.6625 43.8385 78.8472 44.1018 78.9823 44.2806C79.1293 44.4751 79.3058 44.7522 79.3646 44.8996C79.4469 45.0824 79.4822 45.2888 79.4822 45.5777C79.4763 45.902 79.4469 46.0553 79.3234 46.2852C79.2411 46.4444 79.0588 46.6862 78.9117 46.8159C78.7647 46.9456 78.5177 47.0989 78.3589 47.1579C78.2001 47.2109 77.9295 47.2581 77.7648 47.2581C77.5943 47.2581 77.312 47.205 77.1473 47.1402C76.9767 47.0753 76.7415 46.922 76.6238 46.7982C76.5003 46.6803 76.3298 46.468 76.2415 46.3383C76.1474 46.2027 75.7475 45.6544 75.3535 45.1119C74.9535 44.5754 74.63 44.1214 74.63 44.1037C74.63 44.086 74.9359 43.6556 75.3123 43.1426Z" fill="white"/>
<path d="M68.7898 33.2725C68.9427 33.1545 69.2015 33.0189 69.3662 32.9718C69.525 32.9187 69.7426 32.8774 69.8367 32.8715C69.9308 32.8715 70.1837 32.9187 70.3955 32.9835C70.7189 33.0779 70.8248 33.1486 71.0659 33.414C71.2247 33.585 71.3953 33.7913 71.4482 33.8739C71.5012 33.9564 71.6717 34.1982 71.8364 34.4163C71.9952 34.6345 72.2775 35.0118 72.454 35.2595C72.6304 35.5071 72.8421 35.796 72.9245 35.908C73.0068 36.0201 73.1538 36.2264 73.2538 36.362C73.3538 36.5035 73.6185 36.8691 73.8479 37.1757C74.0714 37.4823 74.3595 37.8832 74.4889 38.066C74.6124 38.2429 74.8359 38.5554 74.983 38.7559C75.13 38.9563 75.4006 39.3278 75.5888 39.5813C75.777 39.829 75.9299 40.053 75.924 40.0766C75.924 40.1061 75.8064 40.2771 75.6711 40.4599C75.5299 40.6485 74.7418 41.7275 73.9243 42.8655C73.1068 43.9975 72.2952 45.1119 72.1305 45.3419C71.9658 45.5718 71.6717 45.9669 71.4776 46.2322C71.2894 46.4916 71.0483 46.7746 70.9542 46.8572C70.8601 46.9397 70.6366 47.0635 70.466 47.1343C70.3014 47.205 70.0249 47.2581 69.8661 47.2581C69.7014 47.2581 69.4309 47.205 69.2603 47.1402C69.0957 47.0753 68.8428 46.922 68.7134 46.8041C68.5781 46.6803 68.3958 46.4326 68.3017 46.2558C68.1782 46.0022 68.137 45.843 68.137 45.5423C68.1311 45.2239 68.1605 45.1001 68.3076 44.823C68.4017 44.6402 68.7428 44.1332 69.0604 43.7086C69.378 43.2782 69.8073 42.6827 70.0132 42.3938C70.2249 42.1049 70.6131 41.5624 70.8777 41.191C71.1483 40.8195 71.4365 40.4127 71.6894 40.0648L70.6307 38.6026C70.0426 37.8007 69.3486 36.8455 69.0839 36.48C68.8192 36.1085 68.5252 35.6958 68.4369 35.5661C68.3487 35.4304 68.2311 35.171 68.184 34.9941C68.1252 34.7996 68.1017 34.5755 68.1252 34.434C68.1429 34.3043 68.237 34.039 68.3311 33.8444C68.4546 33.6026 68.5957 33.4258 68.7898 33.2725Z" fill="white"/>
<path fill-rule="evenodd" clip-rule="evenodd" d="M50.5751 33.1074H53.1923L53.4687 33.2725C53.6158 33.3609 53.8216 33.5378 53.9216 33.6675C54.0216 33.7972 54.1333 34.0272 54.1627 34.1864C54.198 34.3514 54.2216 36.2913 54.2216 43.7204L54.5744 44.0742H57.5152C60.2383 44.0742 60.4618 44.0801 60.55 44.1803C60.6323 44.2629 60.6441 44.4044 60.6264 45.106C60.6088 45.8077 60.5853 45.9727 60.4735 46.1968C60.4029 46.3442 60.2736 46.5388 60.1794 46.6272C60.0912 46.7216 59.9089 46.8454 59.7795 46.9043C59.556 47.0164 59.3678 47.0223 51.6631 47.0223L51.3691 46.8807C51.2044 46.8041 50.9985 46.6331 50.8986 46.5093C50.8044 46.3855 50.6927 46.1673 50.6515 46.0199C50.5868 45.8077 50.5751 44.4751 50.5751 39.4339V33.1074ZM63.8789 33.1074C64.467 33.1074 64.6787 33.125 64.8493 33.2076C64.9728 33.2607 65.1845 33.4199 65.3198 33.5614C65.5139 33.75 65.5845 33.8798 65.6315 34.1097C65.6609 34.2689 65.6903 34.7406 65.6903 35.1533C65.6845 35.5661 65.6609 36.0201 65.6315 36.1557C65.5962 36.2913 65.4963 36.5035 65.408 36.6215C65.3198 36.7394 65.1316 36.9045 64.9846 36.987C64.7199 37.1403 64.7023 37.1462 62.1027 37.1757V35.684C62.1027 34.717 62.1262 34.1215 62.1674 33.9918C62.2027 33.8739 62.3321 33.6793 62.4497 33.5614C62.5673 33.4375 62.7673 33.2842 62.8967 33.2194C63.0908 33.125 63.2554 33.1074 63.8789 33.1074V33.1074ZM86.3342 33.125C89.6866 33.1368 89.716 33.1427 90.1571 33.2783C90.3982 33.355 90.7452 33.4906 90.9217 33.5849C91.0981 33.6793 91.3922 33.8857 91.5745 34.039C91.751 34.1864 91.9803 34.4222 92.0744 34.5519C92.1744 34.6816 92.3215 34.9057 92.4097 35.0531C92.4979 35.1946 92.6332 35.5543 92.7155 35.8491C92.7979 36.138 92.8802 36.6038 92.8978 36.8809C92.9214 37.1639 92.9037 37.5707 92.8684 37.8243C92.8273 38.066 92.7449 38.4375 92.6802 38.6497C92.6155 38.8561 92.5038 39.1214 92.4332 39.2393C92.3685 39.3514 92.2391 39.5342 91.9803 39.8584L92.2391 40.0943C92.3803 40.224 92.5861 40.4599 92.6979 40.6249C92.8096 40.7841 92.9743 41.0613 93.0566 41.244C93.139 41.4209 93.2507 41.7629 93.2978 42.0105C93.3507 42.2523 93.3919 42.7004 93.3919 43.0129C93.3919 43.3195 93.3507 43.7853 93.2978 44.0447C93.2507 44.2982 93.139 44.6756 93.0566 44.8702C92.9684 45.0647 92.8037 45.3536 92.692 45.5128C92.5744 45.672 92.3215 45.9374 92.1274 46.1025C91.9333 46.2675 91.6686 46.4621 91.5392 46.5329C91.4098 46.6036 91.0805 46.7333 90.3041 46.9869L86.6282 47.0046C82.9876 47.0223 82.9465 47.0223 82.7171 46.8984C82.5877 46.8277 82.4054 46.7039 82.3113 46.6154C82.2172 46.527 82.0937 46.3442 82.0348 46.2086C81.929 45.9668 81.9231 45.7074 81.9231 40.0648C81.9231 34.4576 81.929 34.151 82.029 33.9151C82.0937 33.7795 82.2407 33.5732 82.3701 33.4611C82.4936 33.355 82.6759 33.2253 82.7759 33.184C82.9171 33.1192 83.6346 33.1074 86.3342 33.125V33.125ZM84.805 36.5094C84.805 37.1167 84.8285 37.7064 84.8638 37.8243C84.8991 37.9363 84.9814 38.0896 85.0579 38.1663C85.1285 38.2429 85.2932 38.3608 85.4225 38.4316C85.646 38.5495 85.7343 38.5554 87.0399 38.5554C88.3515 38.5554 88.4338 38.5495 88.6867 38.4257C88.8338 38.3549 89.0043 38.2488 89.0749 38.1898C89.1396 38.1309 89.2631 37.9953 89.3455 37.8832C89.4337 37.7653 89.5337 37.5177 89.569 37.3231C89.6278 37.0519 89.6278 36.8868 89.5748 36.645C89.5395 36.4623 89.4396 36.2205 89.3455 36.1026C89.2572 35.9847 89.0926 35.8137 88.9808 35.7194C88.8691 35.6309 88.6279 35.5189 88.4515 35.4776C88.2339 35.4304 87.581 35.4069 86.4636 35.4069H84.805V36.5094ZM84.8344 43.8796C85.1167 44.2864 85.3049 44.4456 85.4814 44.5341C85.7695 44.6874 85.7813 44.6874 87.2164 44.6874C88.177 44.6874 88.7554 44.6618 88.9514 44.6107C89.1573 44.5636 89.3337 44.4574 89.5513 44.257C89.7219 44.1037 89.9277 43.8501 90.0101 43.685C90.1336 43.4433 90.1571 43.3077 90.1571 42.9362C90.1571 42.5589 90.1277 42.4174 90.0042 42.1697C89.916 41.9987 89.7807 41.7806 89.6925 41.6921C89.6101 41.5978 89.4043 41.4504 89.2455 41.3679L88.9514 41.2087L84.7932 41.1497L84.8344 43.8796ZM65.6903 38.349V47.0164H62.1027L62.1203 43.1662C62.1321 39.3809 62.138 39.316 62.2556 39.086C62.3262 38.9563 62.4732 38.7736 62.5791 38.6851C62.6908 38.5967 62.8849 38.4846 63.0143 38.4375C63.1907 38.3726 63.5613 38.349 65.6903 38.349V38.349Z" fill="white"/>
<path fill-rule="evenodd" clip-rule="evenodd" d="M79.7002 61.8798C85.9082 61.8737 87.5015 61.8919 87.5015 61.9463C87.5015 61.9886 87.3835 62.2306 86.9999 62.9503L83.4887 62.9805C81.5591 62.9987 79.6589 63.0471 79.2694 63.0833C78.88 63.1136 78.2426 63.1862 77.8532 63.2406C77.4637 63.295 76.8264 63.4039 76.4369 63.4886C76.0474 63.5732 75.4514 63.7305 75.1092 63.8454C74.7669 63.9603 74.2122 64.1902 73.8699 64.3595C73.5277 64.5288 73.0261 64.8192 72.7487 65.0066C72.4714 65.1941 71.9816 65.6115 71.6629 65.926C71.3443 66.2405 70.8958 66.7425 70.6656 67.0449C70.4414 67.3473 70.1168 67.819 69.9457 68.1033C69.7805 68.3875 69.5562 68.7867 69.2671 69.3734H65.9448C64.1213 69.3734 62.6106 69.3552 62.587 69.3311C62.5634 69.3008 62.888 68.5871 63.3011 67.7404C63.72 66.8937 64.2216 65.9562 64.4164 65.6538C64.6052 65.3514 64.977 64.8796 65.2307 64.6014C65.4904 64.3232 65.9211 63.924 66.1985 63.7124C66.4759 63.5007 66.9538 63.1922 67.2607 63.0289C67.5676 62.8717 68.1105 62.6418 68.4704 62.5209C68.8304 62.3999 69.3969 62.2487 69.7392 62.1761C70.0814 62.1096 70.7069 62.0128 71.1259 61.9705C71.7219 61.904 73.6398 61.8858 79.7002 61.8798V61.8798ZM91.29 77.5867L93.3318 77.617C94.8778 77.6351 95.4385 77.6654 95.6096 77.7258C95.7335 77.7742 95.9282 77.8952 96.0463 77.9919C96.1584 78.0887 96.2882 78.246 96.3295 78.3427C96.3767 78.4335 96.4416 78.6512 96.4711 78.8266C96.5125 79.0383 96.5125 79.25 96.4711 79.4737C96.4357 79.6552 96.3354 79.9697 96.241 80.1693C96.1466 80.3689 95.9518 80.6531 95.8043 80.8043C95.6627 80.9555 95.3912 81.1612 95.1965 81.27C95.0077 81.3789 94.8011 81.4636 94.7421 81.4696C94.6752 81.4696 94.6497 81.5059 94.6654 81.5785C94.6831 81.6329 94.7893 82.141 94.9074 82.7095C95.0254 83.278 95.1552 83.8284 95.2024 83.9372C95.2496 84.0401 95.3204 84.1308 95.3617 84.1308C95.4089 84.1308 95.4148 84.155 95.3735 84.1913C95.344 84.2276 94.9782 84.2457 93.6091 84.2215L93.4203 83.1933C93.3141 82.6248 93.2019 82.02 93.1075 81.5301H91.3667L90.0685 84.2578L89.2246 84.2517C88.7053 84.2517 88.3866 84.2276 88.3866 84.1913C88.3866 84.161 89.0358 82.7639 89.8324 81.0946C90.9241 78.8024 91.2841 77.998 91.2841 77.8226L91.29 77.5867ZM91.8683 80.4354C93.4262 80.3991 93.8747 80.3628 94.0163 80.3084C94.1461 80.266 94.3526 80.133 94.4825 80.012C94.6182 79.8971 94.7716 79.6915 94.8306 79.5584C94.8897 79.4254 94.9369 79.256 94.9369 79.1834C94.9369 79.1109 94.8601 78.9657 94.7598 78.8629L94.5828 78.6814H92.718L91.8683 80.4354ZM141.862 77.5928L143.65 77.623L143.81 80.6168C143.898 82.268 143.969 83.7437 143.975 84.1852H142.382V82.6732H139.284L138.044 84.1913H136.51L136.841 83.8102C137.018 83.6046 138.204 82.2075 139.467 80.7076C141.083 78.7963 141.786 77.9315 141.815 77.7924L141.862 77.5928ZM141.845 79.5584C141.597 79.8608 141.125 80.4293 140.794 80.8285L140.204 81.5543C141.839 81.5785 142.329 81.5785 142.346 81.5724C142.364 81.5603 142.358 80.9858 142.34 80.2842L142.293 79.0141L141.845 79.5584Z" fill="white"/>
<path d="M76.3778 71.0911C77.1862 71.0427 78.9979 70.9218 80.3905 70.831C81.7832 70.7343 83.0165 70.6556 83.1227 70.6496C83.223 70.6496 83.3116 70.6677 83.3116 70.704C83.3116 70.7403 83.229 70.9278 83.1345 71.1274C82.9988 71.4117 82.928 71.4903 82.8277 71.4903C82.751 71.4903 82.1372 71.5326 81.4527 71.581C80.7092 71.6294 80.0837 71.708 79.8889 71.7625C79.7119 71.8169 79.3814 71.962 79.1513 72.083C78.8916 72.2221 78.5848 72.464 78.3192 72.7301C78.0006 73.0567 77.8471 73.2684 77.6642 73.6676C77.5285 73.9519 77.3928 74.3208 77.3574 74.4841C77.322 74.6534 77.2393 75.355 77.1744 76.0566C77.0977 76.861 77.0033 77.5263 76.9148 77.871C76.8322 78.1674 76.6728 78.6452 76.5607 78.9295C76.4427 79.2137 76.2361 79.631 76.1004 79.8669C75.9647 80.1028 75.7464 80.4415 75.6165 80.6229C75.4867 80.8044 75.1799 81.1673 74.932 81.4334C74.6901 81.6935 74.2652 82.0805 73.9878 82.2922C73.7105 82.5099 73.2089 82.8305 72.8666 83.0059C72.5244 83.1873 72.0051 83.4172 71.7159 83.52C71.4268 83.6228 70.8012 83.768 70.3291 83.8526C69.8571 83.9313 69.1961 84.0341 68.8539 84.0764C68.4054 84.1308 66.4757 84.155 61.8493 84.1732C57.6123 84.1853 55.4584 84.1732 55.4584 84.1308C55.4584 84.0946 55.5587 83.8647 55.901 83.1631H58.3912C59.7662 83.1631 61.3477 83.1329 61.9024 83.1027C62.463 83.0664 63.3895 82.9817 63.956 82.9152C64.5225 82.8486 65.1893 82.7458 65.4312 82.6793C65.6732 82.6188 66.0745 82.4797 66.3164 82.3708C66.5583 82.268 66.9301 82.0745 67.1426 81.9414C67.355 81.8084 67.6677 81.5906 67.8448 81.4515C68.0159 81.3124 68.3228 81.0221 68.5234 80.8044C68.724 80.5866 68.9955 80.248 69.1253 80.0484C69.261 79.8488 69.4794 79.4557 69.621 79.1714C69.7803 78.8448 70.04 78.0827 70.3409 77.0546C70.5947 76.1715 70.8602 75.2341 70.9252 74.968C70.9901 74.7018 71.1612 74.2361 71.3087 73.9398C71.4504 73.6434 71.7041 73.2261 71.8634 73.0205C72.0287 72.8088 72.3355 72.4882 72.5539 72.3007C72.7781 72.1132 73.2207 71.835 73.5452 71.6717C73.8698 71.5145 74.3065 71.3391 74.5189 71.2846C74.7314 71.2302 75.5575 71.1455 76.3778 71.0911Z" fill="white"/>
<path fill-rule="evenodd" clip-rule="evenodd" d="M86.5572 63.9906L85.5776 66.0349C85.0406 67.1538 84.4623 68.3573 83.9902 69.3432L79.0451 69.3613C75.1267 69.3674 74.1058 69.3553 74.1058 69.2948C74.1058 69.2585 74.2298 69.0045 74.3832 68.7384C74.5307 68.4723 74.814 68.0126 75.0146 67.7102C75.2152 67.4078 75.5988 66.9239 75.8762 66.6336C76.1535 66.3373 76.5784 65.9562 76.8203 65.7869C77.0623 65.6175 77.4754 65.3756 77.735 65.2547C77.9947 65.1276 78.449 64.9462 78.7382 64.8494C79.0274 64.7466 79.6175 64.5954 80.0364 64.5047C80.4554 64.42 81.2521 64.293 81.8068 64.2265C82.3615 64.166 83.2348 64.0874 83.7541 64.0632C84.2734 64.0329 85.1173 64.0027 86.5572 63.9906V63.9906ZM67.951 71.7987C68.0277 71.7987 68.0867 71.829 68.0867 71.8713C68.0867 71.9076 67.8802 72.3249 67.6382 72.7906C67.3904 73.2563 66.9596 74.0486 66.6823 74.5446C66.4049 75.0466 65.9387 75.8449 65.6496 76.3288C65.3604 76.8126 64.8765 77.5868 64.5756 78.0525C64.2746 78.5182 63.8025 79.1714 63.5311 79.498C63.2655 79.8306 62.8229 80.2782 62.5633 80.4959C62.2977 80.7136 61.926 80.9918 61.7371 81.1068C61.5483 81.2217 61.1529 81.4092 60.8579 81.5241C60.5687 81.6329 60.0671 81.7781 59.7544 81.8386C59.4357 81.8991 58.822 81.9777 58.3971 82.014C57.9663 82.0442 57.3526 82.0745 57.0399 82.0745C56.7212 82.0745 56.4615 82.0563 56.4615 82.0321C56.4615 82.0019 57.5001 79.8729 58.7689 77.2965C60.0376 74.72 61.1057 72.585 61.1352 72.5487C61.1647 72.5124 62.6813 72.337 64.5047 72.1495C66.3282 71.962 67.8802 71.8048 67.9569 71.7987H67.951ZM83.8013 77.5989H87.0351C88.8114 77.5989 90.269 77.611 90.269 77.6291C90.269 77.6472 90.1332 77.9436 89.6788 78.9294L89.5608 78.8085C89.4487 78.6936 89.3779 78.6875 87.5899 78.7178L84.9875 84.1913H84.1141C83.3057 84.1913 83.2525 84.1853 83.2998 84.0824C83.3293 84.028 83.9135 82.7942 84.598 81.3487C85.2825 79.9032 85.8431 78.7117 85.8431 78.6996C85.8431 78.6936 85.3061 78.6936 84.6452 78.7057C83.9902 78.7178 83.3883 78.748 83.3057 78.7782C83.1699 78.8327 83.1758 78.7964 83.4827 78.2158L83.8013 77.5989ZM99.1206 77.5989H101.924C103.464 77.5989 104.721 77.611 104.721 77.6291C104.721 77.6472 104.585 77.9255 104.42 78.2521C104.249 78.5726 104.107 78.8448 104.095 78.8569C104.083 78.8629 104.001 78.8145 103.912 78.748C103.759 78.627 103.67 78.621 100.531 78.627L100.177 79.3528C99.9822 79.752 99.8228 80.1088 99.8228 80.1391C99.8228 80.1814 100.395 80.1995 103.009 80.1995L102.738 80.7923C102.59 81.1128 102.449 81.4092 102.419 81.4394C102.39 81.4817 102.337 81.4636 102.278 81.3971C102.195 81.3003 102.042 81.2882 99.2327 81.2882L98.8196 82.1833C98.5954 82.6732 98.4066 83.0784 98.4066 83.0905C98.4066 83.0966 99.3448 83.1026 100.49 83.1026C101.735 83.1026 102.644 83.0784 102.762 83.0422C102.868 83.0119 102.968 82.9877 102.98 82.9998C102.998 83.0059 102.886 83.278 102.449 84.1973L96.1642 84.1913L97.6748 81.0644C98.8669 78.5847 99.1737 77.8952 99.1501 77.7682L99.1206 77.5989ZM106.438 77.5989H108.09L108.385 78.4879C108.551 78.9778 108.893 79.9879 109.141 80.7257C109.389 81.4636 109.607 82.0745 109.625 82.0745C109.636 82.0745 110.097 81.1491 110.64 80.0181C111.253 78.742 111.631 77.8892 111.631 77.5989H112.31C112.723 77.5989 112.988 77.623 112.988 77.6593C112.988 77.6896 112.274 79.1774 109.831 84.1973L108.598 84.1611L107.819 81.8628C107.388 80.5987 107.016 79.5282 106.987 79.4798C106.951 79.4254 106.568 80.1633 104.638 84.1913H103.428L104.066 82.8426C104.42 82.1047 105.098 80.7015 105.571 79.7278C106.108 78.627 106.438 77.8892 106.438 77.7803V77.5989ZM114.428 77.5989H115.39C115.915 77.5989 116.352 77.6049 116.352 77.611C116.352 77.623 115.65 79.0988 113.242 84.1611L112.374 84.1732C111.708 84.1853 111.519 84.1732 111.537 84.1127C111.548 84.0703 112.197 82.6914 112.982 81.0463C113.997 78.9113 114.41 77.9859 114.416 77.8226L114.428 77.5989ZM117.497 77.5989H124.023L123.404 78.9234L123.256 78.8024C123.126 78.6936 123.02 78.6815 121.338 78.6875L118.73 84.1611L117.862 84.1792C117.39 84.1853 117.001 84.1792 117.001 84.1611C117.001 84.1429 117.579 82.9151 119.58 78.7178L118.512 78.6996C117.862 78.6875 117.355 78.7057 117.207 78.748C117.078 78.7843 116.966 78.8085 116.954 78.7964C116.948 78.7843 117.066 78.5121 117.219 78.1916L117.497 77.5989ZM125.805 77.5989H127.593L127.641 78.4274C127.67 78.8871 127.747 80.3689 127.947 84.1913H126.413L126.366 83.7195C126.342 83.4655 126.325 83.1389 126.325 82.7398H123.197L122.017 84.1913H121.279C120.872 84.1913 120.542 84.1732 120.542 84.1611C120.542 84.1429 121.545 82.9393 122.766 81.4878C123.994 80.0423 125.162 78.6512 125.363 78.4033C125.569 78.1613 125.752 77.8771 125.77 77.7803L125.805 77.5989ZM124.442 81.2096L124.141 81.5906H126.295C126.266 79.6915 126.236 79.1169 126.213 79.0988C126.189 79.0746 125.853 79.4556 125.457 79.9455C125.068 80.4294 124.613 81.0039 124.442 81.2096ZM131.518 77.5989H132.462C132.981 77.5989 133.406 77.617 133.406 77.6412C133.406 77.6654 132.822 78.8992 132.108 80.381C131.388 81.8567 130.804 83.0784 130.81 83.0845C130.81 83.0966 131.4 83.1026 132.12 83.1026C132.851 83.1026 133.518 83.0724 133.624 83.0422C133.731 83.0059 133.837 82.9938 133.86 83.0119C133.89 83.024 133.79 83.2962 133.376 84.1853H130.969C129.647 84.1913 128.579 84.1671 128.591 84.1429C128.603 84.1187 129.263 82.7337 130.066 81.0584C131.122 78.8508 131.518 77.9617 131.518 77.8105V77.5989ZM137.035 77.5989H137.991C138.522 77.5989 138.953 77.617 138.953 77.6412C138.953 77.6654 138.257 79.1472 135.855 84.1853H134.982C134.173 84.1913 134.12 84.1792 134.167 84.0824C134.197 84.028 134.852 82.643 135.619 81.016C136.652 78.8387 137.029 77.992 137.029 77.8226L137.035 77.5989Z" fill="white"/>
<path fill-rule="evenodd" clip-rule="evenodd" d="M17.6276 54.7295C28.8308 54.7255 30.6754 54.7335 30.9777 54.7854C31.1714 54.8173 31.4659 54.8892 31.6364 54.949C31.807 55.0089 32.086 55.1287 32.2565 55.2165C32.427 55.3043 32.6711 55.448 32.799 55.5398C32.9269 55.6276 33.1672 55.8351 33.3377 56.0028C33.5043 56.1664 33.7252 56.4179 33.8259 56.5616C33.9267 56.7052 34.0507 56.9008 34.1049 57.0006C34.1592 57.1004 34.2561 57.3239 34.322 57.4995C34.3917 57.6751 34.477 57.9426 34.5118 58.0982C34.5738 58.3577 34.5777 59.0043 34.5893 66.5399C34.601 72.0201 34.5893 74.806 34.5622 75.0216C34.5428 75.1972 34.4963 75.4446 34.4653 75.5724C34.4343 75.6961 34.3568 75.9396 34.291 76.1112C34.229 76.2788 34.0739 76.5782 33.9461 76.7778C33.8221 76.9773 33.5895 77.2687 33.4307 77.4283C33.2757 77.588 33.0354 77.7995 32.8959 77.8993C32.7564 77.9991 32.5122 78.1508 32.3534 78.2306C32.1945 78.3144 31.9503 78.4222 31.8108 78.4701C31.6713 78.514 31.4272 78.5858 31.2683 78.6218C30.997 78.6856 30.0592 78.6896 17.957 78.7016C9.38121 78.7136 4.81236 78.7016 4.56822 78.6776C4.36671 78.6537 4.03344 78.5938 3.83193 78.5379C3.63042 78.486 3.33979 78.3863 3.19253 78.3144C3.04527 78.2426 2.78176 78.0909 2.61125 77.9752C2.44074 77.8594 2.16173 77.6239 1.99509 77.4523C1.82846 77.2767 1.5882 76.9773 1.46032 76.7778C1.33631 76.5782 1.17743 76.2748 1.11542 76.0992C1.04955 75.9236 0.956541 75.6442 0.82866 75.1812L0.817034 66.8992C0.809284 59.6549 0.817034 58.5732 0.867411 58.2659C0.898413 58.0743 0.960416 57.8069 1.00692 57.6711C1.04955 57.5315 1.1503 57.296 1.22393 57.1403C1.29756 56.9886 1.43319 56.7531 1.51844 56.6214C1.60757 56.4897 1.79358 56.2582 1.93309 56.1065C2.0726 55.9589 2.30898 55.7393 2.45624 55.6236C2.6035 55.5078 2.85926 55.3402 3.01814 55.2524C3.17703 55.1606 3.46767 55.0369 3.65755 54.969C3.84744 54.9012 4.14583 54.8213 4.31633 54.7894C4.58372 54.7415 6.44382 54.7335 17.6276 54.7295V54.7295ZM4.06445 57.4676C3.96757 57.5155 3.79706 57.6312 3.6808 57.727C3.56842 57.8228 3.40566 58.0064 3.32041 58.1381C3.23515 58.2699 3.13052 58.5014 3.08402 58.657L2.99877 58.9364V74.7821C3.13828 75.1533 3.23128 75.3488 3.30103 75.4566C3.37079 75.5644 3.50254 75.724 3.59942 75.8079C3.6963 75.8957 3.87844 76.0194 4.00632 76.0833C4.1342 76.1471 4.33571 76.215 4.45197 76.2389C4.59535 76.2669 9.04407 76.2788 17.7245 76.2788C28.5092 76.2788 30.8188 76.2669 30.9777 76.223C31.0862 76.195 31.2761 76.1152 31.4039 76.0513C31.5318 75.9835 31.714 75.8518 31.807 75.756C31.9 75.6602 32.0278 75.5005 32.0898 75.4007C32.1519 75.301 32.2371 75.1054 32.2797 74.9617C32.3534 74.7062 32.3534 74.5705 32.3456 66.7195L32.334 58.7368C32.2022 58.3976 32.0898 58.19 31.9968 58.0583C31.9038 57.9266 31.7217 57.743 31.5977 57.6472C31.4698 57.5554 31.2683 57.4357 31.152 57.3878L30.9389 57.3C7.57537 57.288 4.58372 57.296 4.43259 57.3359C4.32796 57.3598 4.16133 57.4237 4.06445 57.4676ZM5.34714 58.9125L8.82318 58.9284C12.2721 58.9404 12.3031 58.9404 12.6868 59.0322C12.8999 59.0801 13.206 59.1679 13.3649 59.2238C13.5238 59.2797 13.8144 59.4074 14.0043 59.5032C14.1942 59.603 14.4577 59.7586 14.5856 59.8464C14.7135 59.9342 14.9847 60.1777 15.1863 60.3893C15.3916 60.6008 15.6513 60.9161 15.7675 61.0917C15.8838 61.2674 16.0582 61.5827 16.1589 61.7902C16.2558 61.9978 16.3992 62.369 16.4767 62.6085C16.5542 62.8519 16.6511 63.1912 16.6937 63.3668C16.7325 63.5424 16.8022 63.9096 16.8487 64.185C16.8913 64.4604 16.9572 64.9993 16.9921 65.3824C17.0308 65.7975 17.058 66.4441 17.058 66.979C17.058 67.4739 17.0386 68.1125 17.0115 68.3959C16.9843 68.6793 16.9378 69.0904 16.9068 69.3059C16.8758 69.5175 16.8177 69.8687 16.7712 70.0843C16.7286 70.2958 16.6239 70.683 16.5387 70.9424C16.4573 71.1978 16.3062 71.577 16.2093 71.7806C16.1085 71.9801 15.9574 72.2555 15.8722 72.3873C15.7869 72.519 15.6358 72.7265 15.5389 72.8463C15.442 72.966 15.256 73.1696 15.1281 73.2973C15.0002 73.425 14.7639 73.6206 14.605 73.7323C14.4461 73.8481 14.1516 74.0157 13.9539 74.1115C13.7602 74.2073 13.4192 74.335 13.1983 74.4029C12.9813 74.4668 12.6558 74.5506 12.4736 74.5905C12.183 74.6464 11.7373 74.6583 5.34326 74.6823L5.34714 58.9125ZM9.02469 72.1079C10.4585 72.06 10.66 72.036 10.9623 71.9562C11.1677 71.9043 11.4622 71.7886 11.6211 71.7047C11.78 71.6169 12.0047 71.4573 12.121 71.3495C12.2372 71.2378 12.4039 71.0422 12.4969 70.9105C12.5899 70.7787 12.7255 70.5273 12.803 70.3517C12.8805 70.1761 12.9774 69.9046 13.02 69.753C13.0588 69.5973 13.1208 69.3299 13.1518 69.1543C13.1828 68.9786 13.2293 68.6274 13.2564 68.376C13.2835 68.1165 13.3029 67.4061 13.3029 66.7395C13.3029 66.0849 13.2797 65.3465 13.2525 65.0831C13.2254 64.8197 13.1712 64.4245 13.1285 64.205C13.0859 63.9855 12.9968 63.6342 12.927 63.4267C12.8573 63.2151 12.7255 62.9038 12.6286 62.7282C12.524 62.5326 12.3419 62.2931 12.1636 62.1055C12.0047 61.9379 11.7877 61.7423 11.6792 61.6745C11.5746 61.6026 11.3459 61.4989 11.1754 61.443C10.8848 61.3432 10.8112 61.3352 9.95087 61.3192L9.03244 61.3033L9.02469 72.1079ZM18.7514 58.9165H22.367C25.4284 58.9165 26.0368 58.9244 26.3468 58.9763C26.5522 59.0083 26.839 59.0761 26.9862 59.12C27.1373 59.1639 27.4086 59.2717 27.5869 59.3595C27.769 59.4473 28.0325 59.603 28.1682 59.7067C28.3077 59.8105 28.4975 59.9742 28.5944 60.0739C28.6913 60.1737 28.8502 60.3613 28.9471 60.493C29.0478 60.6247 29.199 60.8642 29.2842 61.0319C29.3695 61.1955 29.4857 61.4749 29.54 61.6505C29.5942 61.8261 29.6562 62.1574 29.6834 62.3889C29.726 62.7242 29.726 62.8958 29.6872 63.2471C29.6562 63.5065 29.5903 63.8298 29.5206 64.0453C29.4586 64.2409 29.3268 64.5482 29.2338 64.7239C29.1369 64.8995 28.9432 65.1829 28.7998 65.3585C28.6564 65.5301 28.389 65.7856 28.2069 65.9253C28.0286 66.069 27.7729 66.2326 27.4125 66.4082L27.6256 66.4801C27.7458 66.516 27.9628 66.6078 28.11 66.6836C28.2612 66.7595 28.5324 66.9351 28.7107 67.0708C28.8928 67.2105 29.1214 67.422 29.2183 67.5418C29.3191 67.6575 29.4702 67.8651 29.5555 67.9968C29.6446 68.1285 29.7764 68.368 29.85 68.5356C29.9236 68.6993 30.0282 68.9946 30.0747 69.1942C30.1561 69.5095 30.1639 69.6412 30.1639 70.2918C30.16 70.9464 30.1484 71.0701 30.0631 71.4094C30.0089 71.6169 29.8965 71.9402 29.8112 72.1278C29.726 72.3114 29.5903 72.5749 29.5051 72.7066C29.4198 72.8383 29.2145 73.0937 29.0439 73.2773C28.8696 73.4609 28.5905 73.7084 28.42 73.8242C28.2495 73.9399 27.9705 74.1035 27.8 74.1834C27.6295 74.2632 27.3427 74.371 27.1606 74.4229C26.9823 74.4787 26.6917 74.5506 26.5212 74.5865C26.2499 74.6464 25.7694 74.6544 18.7514 74.6823V58.9165ZM22.3941 65.2028C23.8744 65.1589 24.3356 65.123 24.4867 65.0911C24.6262 65.0591 24.8626 64.9713 25.0099 64.8995C25.161 64.8276 25.3664 64.684 25.471 64.5842C25.5756 64.4844 25.6997 64.3327 25.75 64.2449C25.8004 64.1571 25.8779 63.9775 25.9244 63.8458C25.9864 63.6622 26.0058 63.5105 26.0058 63.2271C26.0058 62.9517 25.9864 62.7761 25.9283 62.5885C25.8818 62.4448 25.781 62.2333 25.6997 62.1135C25.6183 61.9978 25.4671 61.8301 25.3586 61.7463C25.254 61.6625 25.0796 61.5547 24.9711 61.5068C24.8665 61.4629 24.665 61.3991 24.5255 61.3671C24.3511 61.3272 23.9907 61.3113 23.3358 61.3113H22.3941V65.2028ZM22.3941 72.0879C24.4015 72.06 24.5875 72.048 24.8355 71.9762C24.9982 71.9322 25.2424 71.8365 25.378 71.7646C25.5214 71.6928 25.7229 71.5411 25.8353 71.4214C25.9632 71.2857 26.0872 71.0981 26.1724 70.9105C26.2577 70.7269 26.3274 70.4874 26.3546 70.2998C26.3894 70.0603 26.3894 69.9126 26.3546 69.6532C26.3274 69.4377 26.2654 69.2181 26.1918 69.0545C26.1259 68.9108 26.0058 68.7152 25.9283 68.6154C25.8508 68.5196 25.6803 68.368 25.5524 68.2802C25.4245 68.1924 25.192 68.0766 25.0292 68.0207C24.7541 67.9249 24.6882 67.9209 23.5722 67.905L22.4019 67.889L22.3941 72.0879Z" fill="white" fill-opacity="0.99"/>
<defs>
<linearGradient id="paint0_linear_2162_294" x1="6.14331" y1="12.18" x2="72.8706" y2="12.18" gradientUnits="userSpaceOnUse">
<stop offset="1" stop-color="#69707B"/>
</linearGradient>
<clipPath id="clip0_2162_294">
<rect width="67.5588" height="23.8443" fill="white" transform="translate(5.78088 0.257812)"/>
</clipPath>
<clipPath id="clip1_2162_294">
<rect width="43.7145" height="17.8832" fill="white" transform="translate(130.963 37.0174)"/>
</clipPath>
<clipPath id="clip2_2162_294">
<rect width="62.5912" height="23.8443" fill="white" transform="translate(106.124 4.23193)"/>
</clipPath>
</defs>
</svg>
