<svg width="14" height="11" viewBox="0 0 14 11" fill="none" xmlns="http://www.w3.org/2000/svg">
<path d="M1.45833 4.01047H9.96683C10.0052 4.01016 10.0432 4.00226 10.0785 3.98725C10.1138 3.97223 10.1459 3.95039 10.1727 3.92297L11.0833 3.01472C11.1927 2.90532 11.341 2.84384 11.4957 2.8438H13.2364C13.336 2.84371 13.434 2.86913 13.5211 2.91765C13.6081 2.96618 13.6812 3.03618 13.7335 3.12099C13.7858 3.2058 13.8155 3.30259 13.8198 3.40214C13.824 3.50168 13.8027 3.60066 13.7579 3.68964L12.2996 6.6063C12.2515 6.70344 12.1771 6.78515 12.085 6.84217C11.9928 6.89919 11.8865 6.92923 11.7781 6.92888H8.34808C8.3192 6.92883 8.29095 6.93736 8.26692 6.95338C8.24289 6.9694 8.22416 6.99219 8.2131 7.01887C8.20204 7.04555 8.19915 7.07492 8.2048 7.10324C8.21045 7.13156 8.22438 7.15757 8.24483 7.17797L10.4994 9.4308C10.5811 9.51231 10.6368 9.61624 10.6595 9.72942C10.6821 9.84261 10.6706 9.95996 10.6265 10.0666C10.5825 10.1733 10.5077 10.2645 10.4118 10.3287C10.3158 10.3928 10.203 10.4271 10.0876 10.4271H7.99575C7.84105 10.4271 7.6927 10.3656 7.58333 10.2562L4.33941 7.01463C4.28475 6.96011 4.2107 6.92948 4.1335 6.92947H1.45833C1.07156 6.92947 0.700623 6.77582 0.427133 6.50233C0.153642 6.22884 -3.8147e-06 5.85791 -3.8147e-06 5.47113C-3.8147e-06 5.08436 0.153642 4.71343 0.427133 4.43994C0.700623 4.16645 1.07156 4.0128 1.45833 4.0128V4.01047Z" fill="#0B1729"/>
<path d="M7.78925 3.33964C7.73458 3.39416 7.66053 3.42479 7.58333 3.4248H4.89999C4.87116 3.42474 4.843 3.41613 4.81906 3.40007C4.79512 3.384 4.77647 3.3612 4.76549 3.33455C4.7545 3.30789 4.75166 3.27857 4.75733 3.25031C4.763 3.22204 4.77692 3.19608 4.79733 3.17572L7.00233 0.970721C7.1117 0.861318 7.26005 0.799838 7.41475 0.799805H8.92091C9.03627 0.799829 9.14902 0.834055 9.24493 0.898154C9.34084 0.962253 9.41558 1.05335 9.45973 1.15992C9.50387 1.2665 9.51542 1.38377 9.49292 1.49691C9.47042 1.61005 9.41489 1.71397 9.33333 1.79555L7.78925 3.33964Z" fill="#0B1729"/>
</svg>
