<svg width="9" height="11" viewBox="0 0 9 11" fill="none" xmlns="http://www.w3.org/2000/svg">
<path d="M8.64648 7.3999V2.6499C8.64648 2.20824 8.5319 1.85615 8.30273 1.59365C8.07357 1.33115 7.77148 1.13115 7.39648 0.993652C7.02148 0.856152 6.5944 0.764486 6.11523 0.718652C5.63607 0.672819 5.14648 0.649902 4.64648 0.649902C4.09648 0.649902 3.57773 0.672819 3.09023 0.718652C2.60273 0.764486 2.17773 0.856152 1.81523 0.993652C1.45273 1.13115 1.16732 1.33115 0.958984 1.59365C0.75065 1.85615 0.646484 2.20824 0.646484 2.6499V7.3999C0.646484 7.89157 0.815234 8.30615 1.15273 8.64365C1.49023 8.98115 1.90482 9.1499 2.39648 9.1499L1.64648 9.8999V10.1499H2.64648L3.64648 9.1499H5.64648L6.64648 10.1499H7.64648V9.8999L6.89648 9.1499C7.38815 9.1499 7.80273 8.98115 8.14023 8.64365C8.47773 8.30615 8.64648 7.89157 8.64648 7.3999ZM4.64648 1.6499C5.52982 1.6499 6.17565 1.70199 6.58398 1.80615C6.99232 1.91032 7.27148 2.0249 7.42148 2.1499H1.82148C1.94648 2.00824 2.21523 1.88949 2.62773 1.79365C3.04023 1.69782 3.71315 1.6499 4.64648 1.6499ZM7.64648 4.6499H5.14648V3.1499H7.64648V4.6499ZM2.39648 5.6499H7.64648H1.64648H2.39648ZM4.14648 4.6499H1.64648V3.1499H4.14648V4.6499ZM6.39648 7.6499C6.17982 7.6499 6.00065 7.57907 5.85898 7.4374C5.71732 7.29574 5.64648 7.11657 5.64648 6.8999C5.64648 6.68324 5.71732 6.50407 5.85898 6.3624C6.00065 6.22074 6.17982 6.1499 6.39648 6.1499C6.61315 6.1499 6.79232 6.22074 6.93398 6.3624C7.07565 6.50407 7.14648 6.68324 7.14648 6.8999C7.14648 7.11657 7.07565 7.29574 6.93398 7.4374C6.79232 7.57907 6.61315 7.6499 6.39648 7.6499ZM2.89648 7.6499C2.67982 7.6499 2.50065 7.57907 2.35898 7.4374C2.21732 7.29574 2.14648 7.11657 2.14648 6.8999C2.14648 6.68324 2.21732 6.50407 2.35898 6.3624C2.50065 6.22074 2.67982 6.1499 2.89648 6.1499C3.11315 6.1499 3.29232 6.22074 3.43398 6.3624C3.57565 6.50407 3.64648 6.68324 3.64648 6.8999C3.64648 7.11657 3.57565 7.29574 3.43398 7.4374C3.29232 7.57907 3.11315 7.6499 2.89648 7.6499ZM6.89648 8.1499H2.39648C2.17982 8.1499 2.00065 8.07907 1.85898 7.9374C1.71732 7.79574 1.64648 7.61657 1.64648 7.3999V5.6499H7.64648V7.3999C7.64648 7.61657 7.57565 7.79574 7.43398 7.9374C7.29232 8.07907 7.11315 8.1499 6.89648 8.1499ZM4.64648 2.1499H1.82148H7.42148H4.64648Z" fill="white" fill-opacity="0.6"/>
</svg>
