<svg width="104" height="49" viewBox="0 0 104 49" fill="none" xmlns="http://www.w3.org/2000/svg">
<path d="M99.8167 12.7312V11.363V9.99475H101.578V12.7312H103.535V14.0995H101.578L101.636 17.1292C101.676 19.592 101.734 20.2175 101.969 20.3543C102.126 20.452 102.556 20.5498 102.889 20.5498C103.495 20.5498 103.535 20.5889 103.535 21.2339C103.535 21.8594 103.476 21.918 102.908 22.0158C102.556 22.0744 101.871 22.0353 101.382 21.9376C100.854 21.8203 100.365 21.5662 100.149 21.2925C99.8363 20.9016 99.7972 20.4325 99.8167 14.0995H99.034C98.2709 14.0995 98.2513 14.0799 98.2513 13.4154C98.2513 12.7508 98.2709 12.7312 99.8167 12.7312Z" fill="#151515"/>
<path d="M99.7582 11.9494C99.7191 12.4381 99.6799 12.1253 99.6799 11.2653C99.6799 10.4052 99.7191 10.0143 99.7582 10.3857C99.7973 10.7571 99.7973 11.4607 99.7582 11.9494Z" fill="#797A79" fill-opacity="0.55"/>
<path d="M99.7582 18.6929C99.7386 19.5529 99.6995 18.8883 99.6995 17.2269C99.6995 15.5655 99.7386 14.8618 99.7582 15.6632C99.7973 16.4646 99.7973 17.8328 99.7582 18.6929Z" fill="#797A79" fill-opacity="0.55"/>
<path d="M101.676 12.829L101.578 11.3239C101.519 10.503 101.539 9.87749 101.637 9.95567C101.715 10.0339 101.754 10.718 101.676 12.829Z" fill="#4F5150" fill-opacity="0.72"/>
<path d="M101.715 18.302C101.695 19.162 101.656 18.5561 101.656 16.9337C101.656 15.3309 101.695 14.6272 101.715 15.37C101.754 16.1128 101.754 17.4419 101.715 18.302Z" fill="#4F5150" fill-opacity="0.72"/>
<path d="M9.61143 9.21289L11.0398 4.81497C11.803 2.39122 12.5074 0.495224 12.5661 0.573409C12.6248 0.651595 13.2118 2.43031 13.8967 4.52177C14.562 6.61323 15.1881 8.52877 15.4816 9.21289L20.08 9.15425C22.6041 9.13471 24.6 9.1738 24.5217 9.25199C24.4435 9.33017 22.7607 10.5811 20.7648 12.0471C18.7689 13.4935 16.1469 15.4091 14.9533 16.2887C13.7401 17.1878 12.7618 17.9306 12.8009 17.9501C12.8205 17.9697 13.9162 17.7156 15.2468 17.3637C16.8122 16.9532 17.6927 16.7969 17.8101 16.9337C17.908 17.0314 18.4363 18.5365 18.9842 20.2566C19.5516 21.9767 19.9626 23.4035 19.943 23.4035C19.9039 23.4231 18.2211 22.2112 12.4487 18.0087L11.8617 18.4779C11.529 18.7124 9.96364 19.8852 8.33955 21.058C6.73503 22.2503 5.30661 23.2472 5.20877 23.3254C5.11094 23.384 5.65882 21.4685 7.85037 14.6859L5.93277 13.2785C4.87613 12.4967 3.2129 11.2848 2.21497 10.5811C1.2366 9.87747 0.434341 9.27153 0.434341 9.21289C0.414774 9.15425 2.48891 9.13471 9.61143 9.21289Z" fill="#00B877"/>
<path fill-rule="evenodd" clip-rule="evenodd" d="M27.4177 9.21292H37.6906V10.9721H33.6793V21.918H31.5269V10.9721H27.4177V9.21292ZM80.5431 9.21292H82.402V10.9721H80.5431V9.21292ZM84.5544 9.21292H86.3154V21.918H84.5544V9.21292ZM64.4 9.99477H66.1611V12.7313H68.1178V14.0995H66.1611V16.9337C66.1611 18.4974 66.2393 19.9439 66.3567 20.1589C66.5133 20.4521 66.7481 20.5498 67.3351 20.5498C68.0787 20.5498 68.1178 20.5693 68.1178 21.1948C68.1178 21.7226 68.0395 21.8399 67.5308 21.9767C67.2177 22.0549 66.572 22.0549 66.1024 21.9962C65.6523 21.918 65.0849 21.6835 64.8305 21.4489C64.4 21.058 64.3804 20.9212 64.4 14.0995H63.6173C62.8542 14.0995 62.8346 14.08 62.8346 13.4154C62.8346 12.7508 62.8542 12.7313 64.4 12.7313V9.99477ZM42.6803 12.5358V14.295H41.8976C41.3301 14.295 40.9583 14.4318 40.4887 14.8423C40.1561 15.1355 39.7647 15.6632 39.6082 16.015C39.4321 16.4255 39.3538 17.5201 39.3538 21.918H37.3971V12.7313H39.1581L39.256 14.5882L39.7256 13.9431C39.9995 13.5718 40.43 13.1222 40.704 12.9072C40.9975 12.6922 41.5258 12.5358 42.6803 12.5358ZM57.9428 12.5553C58.8038 12.5553 59.4886 12.6726 60.0561 12.9267C60.5061 13.1417 61.054 13.5913 61.2692 13.9627C61.4845 14.295 61.6606 14.7445 61.6606 14.94C61.6606 15.2136 61.4845 15.2723 60.6822 15.2723C59.8604 15.2723 59.6843 15.2136 59.606 14.8814C59.5473 14.6664 59.2342 14.3536 58.9212 14.1972C58.6081 14.0409 58.0602 13.904 57.7471 13.904C57.434 13.904 56.8862 14.0409 56.5731 14.1972C56.1622 14.4122 55.9861 14.6273 55.9861 14.9791C55.9861 15.2918 56.1622 15.585 56.5339 15.8C56.8274 15.9955 57.7471 16.2887 58.5689 16.4842C59.4103 16.6796 60.3691 16.9728 60.6822 17.1292C60.9953 17.2856 61.4453 17.6569 61.6802 17.9697C61.9932 18.3802 62.0715 18.7124 62.0128 19.4161C61.9737 20.0416 61.7976 20.4716 61.4649 20.843C61.191 21.1362 60.6235 21.5467 60.193 21.7421C59.6647 21.9962 58.9407 22.1135 57.9428 22.1135C56.7883 22.1135 56.2796 22.0158 55.6143 21.6835C55.1251 21.4294 54.5772 21.0189 54.4011 20.7453C54.225 20.4716 54.0098 20.0221 53.9511 19.7289C53.8336 19.2011 53.8532 19.1816 54.7533 19.1816C55.5947 19.1816 55.7317 19.2402 56.0252 19.7679C56.2209 20.1002 56.6122 20.4521 56.9057 20.5693C57.2188 20.6866 57.8645 20.7453 58.3537 20.7062C58.9212 20.6671 59.4299 20.4912 59.6843 20.2566C59.9191 20.0416 60.1148 19.6702 60.0952 19.4357C60.0952 19.1816 59.8604 18.8102 59.5473 18.5952C59.2538 18.3802 58.2167 18.0283 57.2579 17.8133C55.9469 17.5397 55.3403 17.2856 54.8903 16.8946C54.5381 16.6014 54.2054 16.0932 54.1272 15.7609C54.0489 15.4287 54.0293 14.9205 54.1076 14.5882C54.1663 14.2559 54.4207 13.8063 54.6555 13.5718C54.9098 13.3177 55.4577 12.9854 55.8882 12.829C56.3187 12.6726 57.2384 12.5553 57.9428 12.5553ZM74.575 12.5553C75.2012 12.5553 75.9839 12.6922 76.4339 12.8876C76.8644 13.0831 77.4514 13.5522 77.7254 13.9236C78.0189 14.295 78.3515 14.94 78.4885 15.37C78.6255 15.8 78.7429 16.8164 78.7233 17.6178C78.7233 18.8297 78.6255 19.2597 78.1559 20.1589C77.7645 20.9212 77.3536 21.3707 76.8253 21.6639C76.2383 21.9962 75.7295 22.1135 74.7707 22.1135C73.8119 22.1135 73.3227 22.0158 72.814 21.703C72.4422 21.4685 72.0313 21.1362 71.8943 20.9603C71.7573 20.7844 71.6399 20.7453 71.6399 20.843C71.6204 20.9407 71.6204 22.0353 71.6399 25.4364H69.6832V12.7313H70.5637C71.4051 12.7313 71.4443 12.7508 71.4443 13.3177C71.4443 13.6499 71.503 13.904 71.5812 13.904C71.6791 13.904 71.8747 13.7281 72.0117 13.4936C72.1682 13.2786 72.5792 12.9658 72.8922 12.829C73.2249 12.6726 73.988 12.5553 74.575 12.5553ZM71.9726 15.6241C71.7965 16.0737 71.6399 16.8555 71.6399 17.3833C71.6399 17.8915 71.816 18.6734 72.0313 19.1425C72.2661 19.6311 72.6574 20.0807 73.0096 20.2566C73.3227 20.413 73.9293 20.5498 74.3402 20.5498C74.8098 20.5693 75.2599 20.413 75.6317 20.1198C75.9447 19.8657 76.3165 19.377 76.4731 19.0447C76.61 18.6929 76.7274 17.911 76.7274 17.3247C76.7274 16.6405 76.5905 15.9564 76.3361 15.4678C76.1209 15.0377 75.6904 14.5491 75.3577 14.3927C75.0447 14.2363 74.4772 14.0995 74.1446 14.0995C73.7923 14.0995 73.2249 14.2559 72.9118 14.4513C72.5792 14.6468 72.1878 15.155 71.9921 15.6241H71.9726ZM92.714 12.5358C93.3793 12.5358 94.2598 12.6726 94.6707 12.8485C95.062 13.0049 95.6491 13.3763 95.9426 13.6695C96.2557 13.9627 96.6861 14.5491 96.9209 14.9791C97.2145 15.5655 97.3319 16.1323 97.3319 17.2269C97.3514 18.0674 97.234 18.9861 97.0775 19.377C96.9209 19.7484 96.6079 20.3152 96.3731 20.6475C96.1382 20.9798 95.5317 21.4294 95.0425 21.6835C94.3381 22.0158 93.7706 22.1135 92.714 22.1135C91.4812 22.1135 91.129 22.0158 90.268 21.5271C89.4071 21.0385 89.1331 20.7453 88.7027 19.8266C88.2722 18.9275 88.1743 18.4192 88.1939 17.3247C88.1939 16.5037 88.3309 15.6437 88.5266 15.1746C88.7027 14.7445 89.094 14.1386 89.3875 13.8259C89.681 13.5131 90.268 13.1026 90.6985 12.9072C91.1877 12.6726 91.9313 12.5358 92.714 12.5358ZM90.6007 15.4678C90.3463 15.9564 90.2093 16.6405 90.2093 17.3247C90.2093 17.9501 90.3463 18.6929 90.5616 19.1229C90.7377 19.5138 91.1094 20.0025 91.3834 20.198C91.6965 20.4325 92.2052 20.5693 92.7531 20.5693C93.3793 20.5693 93.8097 20.4325 94.2011 20.1198C94.5142 19.8657 94.8859 19.377 95.0425 19.0447C95.1795 18.6929 95.2969 17.911 95.2969 17.3247C95.2969 16.7383 95.1599 15.9369 95.0033 15.5655C94.8468 15.1941 94.4163 14.7054 94.0641 14.4904C93.7315 14.2754 93.1249 14.0995 92.7531 14.0995C92.3813 14.1191 91.8334 14.2363 91.5204 14.3927C91.2268 14.5491 90.8159 15.0377 90.6007 15.4678ZM44.1869 12.7313H45.9871V15.8196C45.9871 17.5006 46.0654 19.162 46.1632 19.4748C46.2806 19.807 46.5937 20.2175 46.8677 20.413C47.1416 20.5889 47.6308 20.7453 47.9439 20.7453C48.257 20.7453 48.8048 20.6084 49.1179 20.4521C49.431 20.2957 49.8419 19.9048 49.9984 19.5725C50.2137 19.1229 50.292 18.2433 50.292 12.7313H52.2487V21.918H51.2703C50.3115 21.918 50.292 21.918 50.3311 21.3317C50.3702 21.0189 50.3311 20.7453 50.2333 20.7453C50.155 20.7453 49.9789 20.9016 49.8419 21.1166C49.7245 21.3121 49.3136 21.6053 48.9614 21.8008C48.6287 21.9767 47.8852 22.1135 47.3569 22.1135C46.809 22.1135 46.085 21.9962 45.7328 21.8594C45.4001 21.703 44.9305 21.3317 44.7153 21.0189C44.363 20.5107 44.3239 20.0611 44.2652 16.6014L44.1869 12.7313ZM80.5039 12.7313H82.3628V21.918H80.5039V12.7313Z" fill="#151515"/>
<path d="M30.3528 11.1089C29.8636 11.148 28.9831 11.148 28.3961 11.1089C27.8091 11.0698 28.2004 11.0503 29.2766 11.0503C30.3528 11.0503 30.842 11.0698 30.3528 11.1089Z" fill="#C5DAD6" fill-opacity="0.21"/>
<path d="M37.0057 11.1089C36.5165 11.148 35.636 11.148 35.049 11.1089C34.462 11.0698 34.8533 11.0503 35.9295 11.0503C37.0057 11.0503 37.4949 11.0698 37.0057 11.1089Z" fill="#C5DAD6" fill-opacity="0.21"/>
<path d="M31.4682 13.3176C31.429 13.8063 31.3899 13.4936 31.3899 12.6335C31.3899 11.7735 31.429 11.3826 31.4682 11.7539C31.5073 12.1253 31.5073 12.829 31.4682 13.3176Z" fill="#C5DAD6" fill-opacity="0.21"/>
<path d="M37.2797 17.5201C37.2601 15.0573 37.2797 12.9267 37.3188 12.7899C37.3579 12.614 37.7101 12.5553 39.256 12.614L37.3971 12.7312L37.2992 22.0158L37.2797 17.5201Z" fill="#C5DAD6" fill-opacity="0.21"/>
<path d="M69.5658 19.2793C69.5462 15.8391 69.5658 12.9267 69.6049 12.7899C69.6441 12.614 69.9963 12.5553 71.5421 12.614L69.6832 12.7312L69.5854 25.5341L69.5658 19.2793Z" fill="#C5DAD6" fill-opacity="0.21"/>
<path d="M39.4908 20.6475C39.4516 21.3903 39.4321 20.8234 39.4321 19.377C39.4321 17.9306 39.4516 17.3051 39.4908 18.0088C39.5299 18.7124 39.5299 19.8852 39.4908 20.6475Z" fill="#C5DAD6" fill-opacity="0.21"/>
<path d="M31.4682 19.9634C31.4487 21.0971 31.4095 20.2175 31.4095 18.0088C31.4095 15.8 31.4487 14.8813 31.4682 15.9564C31.5074 17.0314 31.5074 18.8297 31.4682 19.9634Z" fill="#88CDBD" fill-opacity="0.45"/>
<path d="M66.2199 16.9533C66.2003 15.6632 66.2199 14.4904 66.259 14.3536C66.3177 14.2168 66.3764 14.0995 66.396 14.0995C66.4351 14.0995 66.4155 15.2723 66.259 19.2793L66.2199 16.9533Z" fill="#88CDBD" fill-opacity="0.45"/>
<path d="M7.36105 9.15434C6.06961 9.19347 3.99547 9.19347 2.76272 9.15434C1.52998 9.13477 2.58662 9.09563 5.11081 9.09563C7.63499 9.09563 8.6525 9.13477 7.36105 9.15434Z" fill="#53B9A1" fill-opacity="0.69"/>
<path d="M19.0036 9.15434C18.2992 9.19347 17.2034 9.19347 16.5577 9.15434C15.912 9.1152 16.4794 9.09563 17.8296 9.09563C19.1797 9.09563 19.708 9.1152 19.0036 9.15434Z" fill="#53B9A1" fill-opacity="0.69"/>
<path d="M23.3476 9.25217C22.6236 9.23261 21.7822 9.1739 21.4495 9.13477C21.1169 9.1152 21.6844 9.0565 22.6823 9.0565C23.6607 9.03693 24.5216 9.07607 24.5607 9.15434C24.5999 9.25217 24.052 9.29131 23.3476 9.25217Z" fill="#53B9A1" fill-opacity="0.69"/>
<path fill-rule="evenodd" clip-rule="evenodd" d="M37.8862 9.11514L27.4177 9.21287L27.3785 10.1511C27.359 11.0502 27.359 11.0502 27.2807 10.2879C27.2416 9.8579 27.2416 9.38879 27.3003 9.25197C27.3785 9.07605 28.6113 9.03696 37.8862 9.11514ZM84.2608 9.07605L86.4132 9.11514V22.0157L84.6521 22.0548L86.3154 21.918V9.21287L84.2608 9.07605ZM44.1869 14.2949C44.226 15.2136 44.226 16.7382 44.1869 17.7155C44.1673 18.6733 44.1282 17.9305 44.1282 16.0541C44.1282 14.1776 44.1673 13.3762 44.1869 14.2949ZM46.1436 14.1972C46.1827 15.0572 46.1827 16.5037 46.1436 17.4223C46.124 18.341 46.0849 17.6373 46.0849 15.8586C46.0849 14.0799 46.124 13.3372 46.1436 14.1972ZM82.5389 15.1745C82.578 16.3473 82.578 18.341 82.5389 19.5724C82.5193 20.8039 82.4802 19.8461 82.4802 17.4223C82.4802 14.9986 82.5193 13.9822 82.5389 15.1745ZM84.4956 16.2496C84.5347 16.9532 84.5347 18.126 84.4956 18.8883C84.4565 19.6311 84.4369 19.0642 84.4369 17.6178C84.4369 16.1714 84.4565 15.5459 84.4956 16.2496Z" fill="#797A79" fill-opacity="0.55"/>
<path d="M12.801 17.9501C12.7618 17.9305 13.7206 17.1878 14.9338 16.3082L17.1058 14.7054L17.458 15.7218C17.6537 16.2886 17.8102 16.7382 17.7711 16.7577C17.7515 16.7577 16.6362 17.0509 15.286 17.3832C13.9359 17.7155 12.8205 17.9696 12.801 17.9501Z" fill="#10301F" fill-opacity="0.96"/>
<path d="M84.4956 13.6108C84.476 14.4709 84.4369 13.8063 84.4369 12.1448C84.4369 10.4834 84.476 9.77974 84.4956 10.5811C84.5347 11.3825 84.5347 12.7508 84.4956 13.6108Z" fill="#4F5150" fill-opacity="0.72"/>
<path d="M64.2434 11.578C64.2042 10.8939 64.2238 10.2098 64.2825 10.0729C64.3608 9.87747 64.6934 9.81883 66.2588 9.87747L64.3999 9.99475L64.3217 12.829L64.2434 11.578Z" fill="#4F5150" fill-opacity="0.72"/>
<path d="M80.5821 19.4747C80.5626 20.7648 80.5234 19.807 80.5234 17.3246C80.5234 14.8422 80.5626 13.8063 80.5821 14.9791C80.6213 16.1518 80.6213 18.1847 80.5821 19.4747Z" fill="#4F5150" fill-opacity="0.72"/>
<path d="M64.3412 18.5951C64.3217 19.5138 64.2825 18.8492 64.2825 17.1292C64.2825 15.4091 64.3217 14.6663 64.3412 15.4677C64.3804 16.2691 64.3804 17.6765 64.3412 18.5951Z" fill="#4F5150" fill-opacity="0.72"/>
<path fill-rule="evenodd" clip-rule="evenodd" d="M0.218994 29.609H19.2208L19.2983 48.5711H0.218994V29.609ZM8.19936 37.6389L3.33754 37.8324C6.32049 39.922 7.19213 40.5799 7.19213 40.638C7.19213 40.696 6.84348 41.7796 6.39797 43.0566C5.72003 45.0882 5.66192 45.3398 6.01057 45.0882C6.22364 44.9334 8.00567 43.6564 9.94265 42.2439C11.899 40.8508 14.1072 39.2642 14.8432 38.7224L16.1991 37.7356H11.2598C10.1945 34.1367 9.80706 33.0918 9.74895 33.0918C9.67147 33.0918 9.28407 34.1173 8.91605 35.3557L8.19936 37.6389ZM9.82643 42.4761C12.4995 44.4497 13.3905 45.0882 13.5261 45.1463C13.6617 45.243 13.5261 44.6045 13.1774 43.5403C12.8675 42.5922 12.5382 41.8183 12.4607 41.8183C12.3832 41.8376 11.744 41.9924 11.0661 42.1665L9.82643 42.4761Z" fill="#00B877"/>
<path fill-rule="evenodd" clip-rule="evenodd" d="M21.3516 29.609H40.3534L40.4308 48.5711H21.3516V29.609ZM29.3319 37.6389L24.4701 37.8324C27.4531 39.922 28.3247 40.5799 28.3247 40.638C28.3247 40.696 27.976 41.7796 27.5305 43.0566C26.8526 45.0882 26.7945 45.3398 27.1431 45.0882C27.3562 44.9334 29.1382 43.6564 31.0752 42.2439C33.0316 40.8508 35.2397 39.2642 35.9758 38.7224L37.3317 37.7356H32.3924C31.327 34.1367 30.9396 33.0918 30.8815 33.0918C30.804 33.0918 30.4166 34.1173 30.0486 35.3557L29.3319 37.6389ZM30.959 42.4761C33.632 44.4497 34.523 45.0882 34.6586 45.1463C34.7942 45.243 34.6586 44.6045 34.31 43.5403C34.0001 42.5922 33.6708 41.8183 33.5933 41.8183C33.5158 41.8376 32.8766 41.9924 32.1987 42.1665L30.959 42.4761Z" fill="#00B877"/>
<path fill-rule="evenodd" clip-rule="evenodd" d="M42.4841 29.609H61.4859L61.5634 48.5711H42.4841V29.609ZM50.4645 37.6389L45.6027 37.8324C48.5856 39.922 49.4573 40.5799 49.4573 40.638C49.4573 40.696 49.1086 41.7796 48.6631 43.0566C47.9852 45.0882 47.9271 45.3398 48.2757 45.0882C48.4888 44.9334 50.2708 43.6564 52.2078 42.2439C54.1641 40.8508 56.3723 39.2642 57.1084 38.7224L58.4642 37.7356H53.5249C52.4596 34.1367 52.0722 33.0918 52.0141 33.0918C51.9366 33.0918 51.5492 34.1173 51.1812 35.3557L50.4645 37.6389ZM52.0916 42.4761C54.7646 44.4497 55.6556 45.0882 55.7912 45.1463C55.9268 45.243 55.7912 44.6045 55.4425 43.5403C55.1326 42.5922 54.8033 41.8183 54.7259 41.8183C54.6484 41.8376 54.0092 41.9924 53.3312 42.1665L52.0916 42.4761Z" fill="#00B877"/>
<path fill-rule="evenodd" clip-rule="evenodd" d="M63.6165 29.609H82.6183L82.6957 48.5711H63.6165V29.609ZM71.5968 37.6389L66.735 37.8324C69.718 39.922 70.5896 40.5799 70.5896 40.638C70.5896 40.696 70.2409 41.7796 69.7954 43.0566C69.1175 45.0882 69.0594 45.3398 69.408 45.0882C69.6211 44.9334 71.4031 43.6564 73.3401 42.2439C75.2965 40.8508 77.5046 39.2642 78.2407 38.7224L79.5966 37.7356H74.6573C73.5919 34.1367 73.2045 33.0918 73.1464 33.0918C73.0689 33.0918 72.6815 34.1173 72.3135 35.3557L71.5968 37.6389ZM73.2239 42.4761C75.8969 44.4497 76.7879 45.0882 76.9235 45.1463C77.0591 45.243 76.9235 44.6045 76.5749 43.5403C76.265 42.5922 75.9357 41.8183 75.8582 41.8183C75.7807 41.8376 75.1415 41.9924 74.4636 42.1665L73.2239 42.4761Z" fill="#00B877"/>
<path fill-rule="evenodd" clip-rule="evenodd" d="M84.749 29.609H103.751L103.828 48.5711H84.749V29.609ZM92.7294 37.6389L87.8676 37.8324C90.8505 39.922 91.7222 40.5799 91.7222 40.638C91.7222 40.696 91.3735 41.7796 90.928 43.0566C90.2501 45.0882 90.1919 45.3398 90.5406 45.0882C90.7537 44.9334 92.5357 43.6564 94.4727 42.2439C96.429 40.8508 98.6372 39.2642 99.3732 38.7224L100.729 37.7356H95.7898C94.7245 34.1367 94.3371 33.0918 94.279 33.0918C94.2015 33.0918 93.8141 34.1173 93.4461 35.3557L92.7294 37.6389ZM94.3565 42.4761C97.0295 44.4497 97.9205 45.0882 98.0561 45.1463C98.1917 45.243 98.0561 44.6045 97.7074 43.5403C97.3975 42.5922 97.0682 41.8183 96.9908 41.8183C96.9133 41.8376 96.2741 41.9924 95.5961 42.1665L94.3565 42.4761Z" fill="#00B877"/>
</svg>
