<svg width="93" height="22" viewBox="0 0 93 22" fill="none" xmlns="http://www.w3.org/2000/svg">
<g clip-path="url(#clip0_446_5588)">
<path d="M24.7145 7.7959H34.0067V9.48361H30.348V18.9975H28.3426V9.48361H24.6992L24.7145 7.7959ZM33.6087 10.8875H35.3232V12.4558H35.3538C35.4151 12.2317 35.5222 12.0226 35.6753 11.8135C35.8284 11.6045 36.0121 11.4103 36.2417 11.246C36.456 11.0668 36.701 10.9324 36.9765 10.8278C37.2368 10.7233 37.5123 10.6635 37.7879 10.6635C38.0022 10.6635 38.1553 10.6784 38.2318 10.6784C38.3083 10.6934 38.4002 10.7083 38.4767 10.7083V12.4259C38.3543 12.396 38.2165 12.3811 38.0787 12.3662C37.9409 12.3512 37.8185 12.3363 37.6807 12.3363C37.3745 12.3363 37.0837 12.396 36.8081 12.5155C36.5326 12.635 36.3029 12.8142 36.0886 13.0383C35.8896 13.2772 35.7212 13.561 35.5988 13.9045C35.4763 14.248 35.4151 14.6513 35.4151 15.0994V18.9527H33.5781L33.6087 10.8875ZM46.8963 18.9975H45.0899V17.8624H45.0593C44.8297 18.2806 44.4929 18.5943 44.049 18.8482C43.605 19.1021 43.1458 19.2216 42.6865 19.2216C41.5996 19.2216 40.8036 18.9677 40.3137 18.43C39.8239 17.9072 39.5789 17.1007 39.5789 16.0403V10.8875H41.4159V15.8611C41.4159 16.578 41.5537 17.0858 41.8446 17.3696C42.1201 17.6683 42.5181 17.8176 43.0233 17.8176C43.406 17.8176 43.7275 17.7579 43.9877 17.6384C44.248 17.5189 44.4623 17.3696 44.6154 17.1754C44.7838 16.9812 44.8909 16.7423 44.9675 16.4734C45.044 16.2046 45.0746 15.9059 45.0746 15.5922V10.8875H46.9116V18.9975H46.8963ZM50.0192 16.3987C50.0805 16.9215 50.2795 17.2799 50.6316 17.504C50.9837 17.7131 51.4123 17.8176 51.9022 17.8176C52.0705 17.8176 52.2696 17.8027 52.4839 17.7728C52.6982 17.7429 52.9125 17.6981 53.0962 17.6235C53.2952 17.5488 53.4483 17.4442 53.5708 17.2949C53.6932 17.1455 53.7545 16.9663 53.7392 16.7423C53.7238 16.5182 53.6473 16.3241 53.4789 16.1747C53.3105 16.0254 53.1115 15.9208 52.8666 15.8163C52.6216 15.7266 52.3308 15.652 52.0093 15.5922C51.6878 15.5325 51.3664 15.4578 51.0296 15.3831C50.6928 15.3085 50.356 15.2188 50.0345 15.1143C49.7131 15.0097 49.4375 14.8753 49.1773 14.6812C48.9323 14.5019 48.718 14.2779 48.5802 13.9941C48.4272 13.7104 48.3506 13.3818 48.3506 12.9636C48.3506 12.5155 48.4578 12.1571 48.6874 11.8584C48.9017 11.5596 49.1926 11.3207 49.5294 11.1415C49.8661 10.9622 50.2489 10.8278 50.6622 10.7531C51.0755 10.6784 51.4735 10.6486 51.8409 10.6486C52.2696 10.6486 52.6829 10.6934 53.0656 10.783C53.4483 10.8726 53.8157 11.007 54.1219 11.2161C54.4433 11.4103 54.7036 11.6791 54.9026 11.9928C55.1169 12.3064 55.2394 12.6947 55.3006 13.1428H53.3871C53.2952 12.7097 53.0962 12.4259 52.79 12.2766C52.4686 12.1272 52.1165 12.0525 51.7031 12.0525C51.5807 12.0525 51.4123 12.0675 51.2439 12.0824C51.0602 12.1123 50.9071 12.1421 50.7387 12.2019C50.5856 12.2616 50.4479 12.3512 50.3407 12.4558C50.2335 12.5603 50.1723 12.7097 50.1723 12.8889C50.1723 13.1129 50.2489 13.2772 50.4019 13.4116C50.555 13.5461 50.754 13.6506 51.0143 13.7552C51.2592 13.8448 51.5501 13.9195 51.8715 13.9792C52.193 14.0389 52.5298 14.1136 52.8666 14.1883C53.2034 14.263 53.5248 14.3526 53.8463 14.4571C54.1678 14.5617 54.4587 14.6961 54.7036 14.8903C54.9485 15.0695 55.1628 15.2935 55.3159 15.5624C55.469 15.8312 55.5455 16.1747 55.5455 16.563C55.5455 17.041 55.4384 17.4442 55.2088 17.7878C54.9791 18.1163 54.6883 18.4001 54.3362 18.6092C53.9841 18.8183 53.5708 18.9677 53.1421 19.0722C52.6982 19.1618 52.2696 19.2216 51.8409 19.2216C51.3204 19.2216 50.8306 19.1618 50.3866 19.0423C49.9427 18.9228 49.5447 18.7436 49.2232 18.5196C48.9017 18.2806 48.6415 17.9968 48.4578 17.6384C48.2741 17.2949 48.1669 16.8767 48.1516 16.3838H50.0039V16.3987H50.0192ZM56.066 10.8875H57.4591V8.43812H59.2961V10.8726H60.9494V12.2019H59.2961V16.5332C59.2961 16.7273 59.3114 16.8767 59.3267 17.026C59.342 17.1605 59.3879 17.2799 59.4339 17.3696C59.4951 17.4592 59.587 17.5338 59.6941 17.5787C59.8166 17.6235 59.9697 17.6533 60.184 17.6533C60.3064 17.6533 60.4442 17.6533 60.5667 17.6384C60.6891 17.6235 60.8269 17.6085 60.9494 17.5787V18.9677C60.7504 18.9975 60.5514 19.0125 60.3524 19.0274C60.1534 19.0573 59.9697 19.0573 59.7553 19.0573C59.2655 19.0573 58.8828 19.0125 58.5919 18.9229C58.301 18.8332 58.0714 18.6988 57.903 18.5345C57.7346 18.3553 57.6275 18.1462 57.5662 17.8923C57.505 17.6384 57.4744 17.3247 57.4591 16.9962V12.2168H56.066V10.8577V10.8875ZM62.2353 10.8875H63.9651V11.9928H63.9958C64.256 11.5148 64.6081 11.1863 65.0673 10.9772C65.5266 10.7681 66.0165 10.6635 66.5676 10.6635C67.2258 10.6635 67.7922 10.7681 68.2821 11.007C68.772 11.2311 69.17 11.5298 69.4915 11.933C69.8129 12.3214 70.0579 12.7844 70.2109 13.3071C70.364 13.8298 70.4559 14.3974 70.4559 14.9799C70.4559 15.5325 70.3793 16.0552 70.2416 16.563C70.0885 17.0708 69.8742 17.5338 69.5833 17.9222C69.2924 18.3105 68.925 18.6241 68.4658 18.8631C68.0065 19.1021 67.4861 19.2216 66.8737 19.2216C66.6135 19.2216 66.3379 19.1917 66.0777 19.1469C65.8174 19.1021 65.5572 19.0274 65.3123 18.9229C65.0673 18.8183 64.8377 18.6839 64.6387 18.5196C64.4244 18.3553 64.256 18.1611 64.1182 17.952H64.0876V21.9996H62.2506V10.8875H62.2353ZM68.6495 14.95C68.6495 14.5916 68.6036 14.2331 68.4964 13.8896C68.4046 13.5461 68.2515 13.2474 68.0525 12.9785C67.8535 12.7097 67.6085 12.5006 67.333 12.3363C67.0421 12.172 66.7053 12.0973 66.3379 12.0973C65.5725 12.0973 64.9908 12.3512 64.5928 12.874C64.2101 13.3967 64.0111 14.0987 64.0111 14.9649C64.0111 15.3831 64.057 15.7565 64.1641 16.1C64.2713 16.4436 64.4091 16.7423 64.6234 16.9962C64.8224 17.2501 65.0673 17.4442 65.3582 17.5936C65.6491 17.7429 65.9705 17.8176 66.3532 17.8176C66.7819 17.8176 67.1187 17.728 67.4095 17.5637C67.7004 17.3994 67.93 17.1754 68.129 16.9215C68.3127 16.6527 68.4505 16.3539 68.527 16.0104C68.6036 15.652 68.6495 15.3085 68.6495 14.95ZM71.8796 7.7959H73.7166V9.48361H71.8796V7.7959ZM71.8796 10.8875H73.7166V18.9975H71.8796V10.8875ZM75.3545 7.7959H77.1916V18.9975H75.3545V7.7959ZM82.7944 19.2216C82.1361 19.2216 81.5391 19.117 81.0186 18.893C80.4982 18.6689 80.0695 18.3852 79.7021 18.0118C79.35 17.6384 79.0745 17.1754 78.8908 16.6527C78.7071 16.1299 78.5999 15.5474 78.5999 14.9351C78.5999 14.3227 78.6918 13.7552 78.8908 13.2324C79.0745 12.7097 79.35 12.2616 79.7021 11.8733C80.0542 11.4999 80.4982 11.2012 81.0186 10.9921C81.5391 10.783 82.1361 10.6635 82.7944 10.6635C83.4527 10.6635 84.0497 10.7681 84.5702 10.9921C85.0907 11.2012 85.5193 11.4999 85.8867 11.8733C86.2388 12.2467 86.5143 12.7097 86.698 13.2324C86.8817 13.7552 86.9889 14.3227 86.9889 14.9351C86.9889 15.5624 86.897 16.1299 86.698 16.6527C86.499 17.1754 86.2388 17.6235 85.8867 18.0118C85.5346 18.3852 85.0907 18.6839 84.5702 18.893C84.0497 19.1021 83.468 19.2216 82.7944 19.2216ZM82.7944 17.8027C83.1924 17.8027 83.5598 17.7131 83.8507 17.5488C84.1569 17.3845 84.3865 17.1605 84.5855 16.8916C84.7845 16.6228 84.9223 16.3091 85.0141 15.9806C85.106 15.637 85.1519 15.2935 85.1519 14.9351C85.1519 14.5916 85.106 14.248 85.0141 13.9045C84.9223 13.561 84.7845 13.2623 84.5855 12.9935C84.3865 12.7246 84.1415 12.5155 83.8507 12.3512C83.5445 12.1869 83.1924 12.0973 82.7944 12.0973C82.3964 12.0973 82.029 12.1869 81.7381 12.3512C81.432 12.5155 81.2023 12.7395 81.0033 12.9935C80.8043 13.2623 80.6665 13.561 80.5747 13.9045C80.4828 14.248 80.4369 14.5916 80.4369 14.9351C80.4369 15.2935 80.4828 15.637 80.5747 15.9806C80.6665 16.3241 80.8043 16.6228 81.0033 16.8916C81.2023 17.1605 81.4473 17.3845 81.7381 17.5488C82.0443 17.728 82.3964 17.8027 82.7944 17.8027ZM87.54 10.8875H88.9331V8.43812H90.7701V10.8726H92.4234V12.2019H90.7701V16.5332C90.7701 16.7273 90.7854 16.8767 90.8007 17.026C90.816 17.1605 90.8619 17.2799 90.9078 17.3696C90.9691 17.4592 91.0609 17.5338 91.1681 17.5787C91.2905 17.6235 91.4436 17.6533 91.6579 17.6533C91.7804 17.6533 91.9182 17.6533 92.0407 17.6384C92.1631 17.6235 92.3009 17.6085 92.4234 17.5787V18.9677C92.2244 18.9975 92.0253 19.0125 91.8263 19.0274C91.6273 19.0573 91.4436 19.0573 91.2293 19.0573C90.7394 19.0573 90.3567 19.0125 90.0659 18.9229C89.775 18.8332 89.5454 18.6988 89.377 18.5345C89.2086 18.3553 89.1015 18.1462 89.0402 17.8923C88.979 17.6384 88.9484 17.3247 88.9331 16.9962V12.2168H87.54V10.8577V10.8875Z" fill="black"/>
<path d="M22.5723 7.79634H14.168L11.5809 0L8.9785 7.79634L0.574219 7.7814L7.37113 12.6056L4.76871 20.4019L11.5656 15.5777L18.3625 20.4019L15.7754 12.6056L22.5723 7.79634Z" fill="#00B67A"/>
<path d="M16.3582 14.3679L15.7765 12.6055L11.582 15.5776L16.3582 14.3679Z" fill="#005128"/>
</g>
<defs>
<clipPath id="clip0_446_5588">
<rect width="93" height="-22" fill="white" transform="matrix(-1 0 0 -1 93 0)"/>
</clipPath>
</defs>
</svg>
