<svg width="16" height="10" viewBox="0 0 16 10" fill="none" xmlns="http://www.w3.org/2000/svg">
<path d="M13.3338 8C13.534 8.1 13.7147 8.06667 13.8758 7.9C14.0369 7.73333 14.0619 7.54444 13.9508 7.33333L12.9508 5.46667L12.1674 7.43333L13.3338 8ZM9.98411 7.4H10.9008L12.4684 3.40117C12.5011 3.3115 12.4952 3.21944 12.4508 3.125C12.4063 3.03055 12.3397 2.96667 12.2508 2.93333L10.9174 2.41667C10.7952 2.36111 10.6813 2.36944 10.5758 2.44167C10.4702 2.51389 10.4119 2.61667 10.4008 2.75L9.98411 7.4ZM5.10078 7.4H6.01745L5.60078 2.75C5.58967 2.61667 5.52856 2.51389 5.41745 2.44167C5.30634 2.36944 5.18967 2.36111 5.06745 2.41667L3.74928 2.93483C3.66139 2.96717 3.59245 3.03055 3.54245 3.125C3.49245 3.21944 3.48395 3.3115 3.51695 3.40117L5.10078 7.4ZM2.66745 8L3.83411 7.41667L3.05078 5.45L2.11745 7.33333C2.00634 7.54444 2.023 7.73055 2.16745 7.89167C2.31189 8.05278 2.47856 8.08889 2.66745 8ZM7.23861 7.4H8.76745L9.28411 1.71667C9.29523 1.59444 9.26467 1.49167 9.19245 1.40833C9.12023 1.325 9.023 1.28333 8.90078 1.28333H7.10078C6.97856 1.28333 6.88134 1.326 6.80911 1.41133C6.73689 1.49667 6.70634 1.59844 6.71745 1.71667L7.23861 7.4ZM2.46745 9.26667C2.00078 9.26667 1.60634 9.10278 1.28411 8.775C0.961892 8.44722 0.800781 8.05 0.800781 7.58333C0.800781 7.46522 0.811892 7.34961 0.834115 7.2365C0.856337 7.12328 0.895226 7.01667 0.950781 6.91667L2.46745 3.96667C2.24523 3.56667 2.21989 3.15461 2.39145 2.7305C2.563 2.30639 2.86611 2.00733 3.30078 1.83333L4.61745 1.3C4.773 1.23333 4.93411 1.19444 5.10078 1.18333C5.26745 1.17222 5.42856 1.19444 5.58411 1.25C5.673 0.894443 5.858 0.608332 6.13911 0.391666C6.42034 0.174999 6.74089 0.0666656 7.10078 0.0666656H8.88795C9.24095 0.0666656 9.55911 0.174999 9.84245 0.391666C10.1258 0.608332 10.3119 0.888888 10.4008 1.23333C10.5563 1.17778 10.7174 1.16111 10.8841 1.18333C11.0508 1.20555 11.2119 1.24444 11.3674 1.3L12.7008 1.83333C13.1206 2.00355 13.4144 2.29611 13.5823 2.711C13.7502 3.12589 13.7397 3.54444 13.5508 3.96667L15.0508 6.91667C15.1063 7.01667 15.1452 7.1225 15.1674 7.23417C15.1897 7.34594 15.2008 7.46233 15.2008 7.58333C15.2008 8.05 15.0425 8.44722 14.7259 8.775C14.4095 9.10278 14.0178 9.26667 13.5508 9.26667C13.4174 9.26667 13.2897 9.25139 13.1674 9.22083C13.0452 9.19028 12.923 9.14444 12.8008 9.08333L11.8174 8.6H4.18411L3.20078 9.08333C3.07856 9.13889 2.95561 9.18333 2.83195 9.21667C2.70828 9.25 2.58678 9.26667 2.46745 9.26667Z" fill="black" fill-opacity="0.5"/>
</svg>
