<svg width="12" height="14" viewBox="0 0 12 14" fill="none" xmlns="http://www.w3.org/2000/svg">
<path d="M9.02 6.82434L8.31333 6.11768L5.06 9.37101L3.64667 7.95768L2.94 8.66434L5.06 10.7843L9.02 6.82434ZM10.6667 1.45101H10V0.117676H8.66667V1.45101H3.33333V0.117676H2V1.45101H1.33333C0.593333 1.45101 0.00666666 2.05101 0.00666666 2.78434L0 12.1177C0 12.851 0.593333 13.451 1.33333 13.451H10.6667C11.4 13.451 12 12.851 12 12.1177V2.78434C12 2.05101 11.4 1.45101 10.6667 1.45101ZM10.6667 12.1177H1.33333V4.78434H10.6667V12.1177Z" fill="black" fill-opacity="0.5"/>
</svg>
