<svg width="14" height="8" viewBox="0 0 14 8" fill="none" xmlns="http://www.w3.org/2000/svg">
<path d="M0.599609 8V4.4C0.599609 4.11111 0.669054 3.83889 0.807943 3.58333C0.946832 3.32778 1.14405 3.13889 1.39961 3.01667V1.6C1.39961 1.15556 1.55516 0.777778 1.86628 0.466667C2.17739 0.155556 2.55516 0 2.99961 0H5.99961C6.19028 0 6.3685 0.0305556 6.53428 0.0916667C6.70005 0.152778 6.85516 0.244444 6.99961 0.366667C7.14405 0.244444 7.29916 0.152778 7.46494 0.0916667C7.63072 0.0305556 7.80894 0 7.99961 0H10.9996C11.4441 0 11.8218 0.155556 12.1329 0.466667C12.4441 0.777778 12.5996 1.15556 12.5996 1.6V3.01667C12.8552 3.13889 13.0524 3.32778 13.1913 3.58333C13.3302 3.83889 13.3996 4.11111 13.3996 4.4V8H12.1996V6.8H1.79961V8H0.599609ZM7.59961 2.8H11.3996V1.6C11.3996 1.48667 11.3613 1.39167 11.2846 1.315C11.2079 1.23833 11.1129 1.2 10.9996 1.2H7.99961C7.88628 1.2 7.79128 1.23833 7.71461 1.315C7.63794 1.39167 7.59961 1.48667 7.59961 1.6V2.8ZM2.59961 2.8H6.39961V1.6C6.39961 1.48667 6.36128 1.39167 6.28461 1.315C6.20794 1.23833 6.11294 1.2 5.99961 1.2H2.99961C2.88628 1.2 2.79128 1.23833 2.71461 1.315C2.63794 1.39167 2.59961 1.48667 2.59961 1.6V2.8ZM1.79961 5.6H12.1996V4.4C12.1996 4.28667 12.1613 4.19167 12.0846 4.115C12.0079 4.03833 11.9129 4 11.7996 4H2.19961C2.08628 4 1.99128 4.03833 1.91461 4.115C1.83794 4.19167 1.79961 4.28667 1.79961 4.4V5.6Z" fill="black" fill-opacity="0.5"/>
</svg>
