<svg width="14" height="14" viewBox="0 0 14 14" fill="none" xmlns="http://www.w3.org/2000/svg">
<path d="M6.99961 13.4C6.04405 13.3333 5.17183 13.0972 4.38294 12.6917C3.59405 12.2861 2.91905 11.7417 2.35794 11.0583C1.79683 10.375 1.3635 9.56945 1.05794 8.64167C0.752387 7.7139 0.599609 6.70001 0.599609 5.60001V5.00001H1.19294C1.69739 5.00001 2.25239 5.08334 2.85794 5.25001C3.4635 5.41667 4.02183 5.6389 4.53294 5.91667C4.64405 5.05001 4.91905 4.14167 5.35794 3.19167C5.79683 2.24167 6.34405 1.37778 6.99961 0.600006C7.65517 1.37778 8.19961 2.23612 8.63294 3.17501C9.06628 4.1139 9.34405 5.02223 9.46628 5.90001C9.97739 5.63334 10.5357 5.41667 11.1413 5.25001C11.7468 5.08334 12.3018 5.00001 12.8063 5.00001H13.3996V5.60001C13.3996 6.73334 13.2496 7.7639 12.9496 8.69167C12.6496 9.61945 12.2218 10.4222 11.6663 11.1C11.1107 11.7778 10.4385 12.3139 9.64961 12.7083C8.86072 13.1028 7.97739 13.3333 6.99961 13.4ZM6.98294 12.2C6.88294 10.5111 6.38294 9.14445 5.48294 8.10001C4.58294 7.05556 3.36072 6.4389 1.81628 6.25001C1.92739 7.9389 2.41628 9.30834 3.28294 10.3583C4.14961 11.4083 5.38294 12.0222 6.98294 12.2ZM6.99961 8.15001C7.1885 7.87223 7.40794 7.59445 7.65794 7.31667C7.90794 7.0389 8.13294 6.81667 8.33294 6.65001C8.29961 6.06112 8.17461 5.42223 7.95794 4.73334C7.74128 4.04445 7.42183 3.3389 6.99961 2.61667C6.57739 3.3389 6.25517 4.05278 6.03294 4.75834C5.81072 5.4639 5.6885 6.09445 5.66628 6.65001C5.89894 6.85367 6.14322 7.09623 6.39911 7.37767C6.655 7.65923 6.85517 7.91667 6.99961 8.15001ZM8.14961 11.9667C8.79405 11.7667 9.35794 11.4889 9.84128 11.1333C10.3246 10.7778 10.7329 10.3556 11.0663 9.86667C11.3996 9.37778 11.6579 8.82778 11.8413 8.21667C12.0246 7.60556 12.1385 6.95001 12.1829 6.25001C11.1385 6.4389 10.2191 6.80556 9.42461 7.35001C8.63017 7.89445 8.0385 8.60556 7.64961 9.48334C7.76917 9.82901 7.87128 10.2071 7.95594 10.6177C8.04061 11.0281 8.10517 11.4778 8.14961 11.9667Z" fill="black" fill-opacity="0.5"/>
</svg>
