<svg width="14" height="10" viewBox="0 0 14 10" fill="none" xmlns="http://www.w3.org/2000/svg">
<path d="M0.599609 9.8V8.6H13.3996V9.8H0.599609ZM1.39961 7.8V7C1.39961 5.67777 1.81072 4.50555 2.63294 3.48333C3.45517 2.46111 4.51628 1.81111 5.81628 1.53333V1.4C5.81628 1.07 5.93216 0.787497 6.16394 0.552497C6.39561 0.317497 6.67417 0.199997 6.99961 0.199997C7.32961 0.199997 7.61211 0.317497 7.84711 0.552497C8.08211 0.787497 8.19961 1.07 8.19961 1.4V1.53333C9.4885 1.82222 10.5441 2.47416 11.3663 3.48916C12.1885 4.50405 12.5996 5.67433 12.5996 7V7.8H1.39961ZM2.61628 6.6H11.3829C11.2496 5.43333 10.7691 4.475 9.94128 3.725C9.1135 2.975 8.13017 2.6 6.99128 2.6C5.85239 2.6 4.86905 2.97222 4.04128 3.71666C3.2135 4.46111 2.7385 5.42222 2.61628 6.6Z" fill="black" fill-opacity="0.5"/>
</svg>
