<svg width="14" height="10" viewBox="0 0 14 10" fill="none" xmlns="http://www.w3.org/2000/svg">
<path d="M7.00335 9.90001C6.61223 9.90001 6.28056 9.76501 6.00833 9.49503C5.73611 9.22494 5.6 8.89439 5.6 8.50336C5.6 8.11223 5.73499 7.78056 6.00498 7.50834C6.27506 7.23612 6.60562 7.10001 6.99665 7.10001C7.38777 7.10001 7.71944 7.235 7.99167 7.50498C8.26389 7.77507 8.4 8.10562 8.4 8.49665C8.4 8.88778 8.26501 9.21945 7.99502 9.49167C7.72494 9.76389 7.39438 9.90001 7.00335 9.90001ZM3.47083 6.37084L2.47917 5.37917C3.08194 4.82501 3.76527 4.38994 4.52915 4.07396C5.29312 3.75799 6.11708 3.60001 7.00102 3.60001C7.88506 3.60001 8.70868 3.75799 9.47188 4.07396C10.2351 4.38994 10.9181 4.82501 11.5208 5.37917L10.5292 6.37084C10.0625 5.94306 9.52865 5.60764 8.92762 5.36459C8.3265 5.12153 7.68396 5.00001 7 5.00001C6.31604 5.00001 5.6735 5.12153 5.07238 5.36459C4.47135 5.60764 3.9375 5.94306 3.47083 6.37084ZM0.991667 3.90626L0 2.90001C0.913889 2.02501 1.96875 1.33959 3.16458 0.843756C4.36042 0.347923 5.63889 0.100006 7 0.100006C8.36111 0.100006 9.63958 0.347923 10.8354 0.843756C12.0313 1.33959 13.0861 2.02501 14 2.90001L13.0083 3.90626C12.2208 3.15764 11.3151 2.56945 10.2912 2.14167C9.26722 1.71389 8.17017 1.50001 7 1.50001C5.82983 1.50001 4.73278 1.71389 3.70883 2.14167C2.68489 2.56945 1.77917 3.15764 0.991667 3.90626Z" fill="black" fill-opacity="0.5"/>
</svg>
