<svg width="12" height="13" viewBox="0 0 12 13" fill="none" xmlns="http://www.w3.org/2000/svg">
<path d="M0.599976 12.8513V8.76794C0.599976 7.94571 0.892476 7.25421 1.47748 6.69344C2.06248 6.13266 2.76998 5.85227 3.59998 5.85227H4.19998V1.25127C4.19998 0.92127 4.3177 0.63877 4.55314 0.40377C4.78848 0.16877 5.07142 0.0512695 5.40198 0.0512695H6.60414C6.9347 0.0512695 7.21664 0.16877 7.44998 0.40377C7.68331 0.63877 7.79998 0.92127 7.79998 1.25127V5.85227H8.39998C9.22998 5.85227 9.93748 6.13266 10.5225 6.69344C11.1075 7.25421 11.4 7.94571 11.4 8.76794V12.8513H0.599976ZM1.79998 11.6513H2.99998V9.61794C2.99998 9.44794 3.05714 9.30544 3.17148 9.19044C3.28581 9.07544 3.42748 9.01794 3.59648 9.01794C3.76548 9.01794 3.90831 9.07544 4.02498 9.19044C4.14164 9.30544 4.19998 9.44794 4.19998 9.61794V11.6513H5.39998V9.61794C5.39998 9.44794 5.45714 9.30544 5.57148 9.19044C5.68581 9.07544 5.82748 9.01794 5.99648 9.01794C6.16548 9.01794 6.30831 9.07544 6.42498 9.19044C6.54164 9.30544 6.59998 9.44794 6.59998 9.61794V11.6513H7.79998V9.61794C7.79998 9.44794 7.85714 9.30544 7.97148 9.19044C8.08581 9.07544 8.22748 9.01794 8.39648 9.01794C8.56548 9.01794 8.70831 9.07544 8.82498 9.19044C8.94164 9.30544 8.99998 9.44794 8.99998 9.61794V11.6513H10.2V8.76794C10.2 8.27905 10.025 7.87071 9.67498 7.54294C9.32498 7.21516 8.89998 7.05127 8.39998 7.05127H3.59998C3.09998 7.05127 2.67498 7.21516 2.32498 7.54294C1.97498 7.87071 1.79998 8.27905 1.79998 8.76794V11.6513ZM6.59998 5.85127V1.25127H5.39998V5.85127H6.59998Z" fill="black" fill-opacity="0.5"/>
</svg>
