<svg width="7" height="8" viewBox="0 0 7 8" fill="none" xmlns="http://www.w3.org/2000/svg">
<path d="M3.50314 4.1C3.68933 4.1 3.84805 4.03372 3.9793 3.90116C4.11055 3.76859 4.17617 3.60922 4.17617 3.42303C4.17617 3.23684 4.10989 3.07812 3.97733 2.94688C3.84477 2.81563 3.68539 2.75 3.4992 2.75C3.31302 2.75 3.1543 2.81628 3.02305 2.94884C2.8918 3.08141 2.82617 3.24078 2.82617 3.42697C2.82617 3.61316 2.89245 3.77188 3.02502 3.90313C3.15758 4.03438 3.31695 4.1 3.50314 4.1ZM3.50117 6.80938C4.24492 6.14062 4.80586 5.525 5.18398 4.9625C5.56211 4.4 5.75117 3.89688 5.75117 3.45312C5.75117 2.79688 5.53711 2.25313 5.10898 1.82188C4.68086 1.39063 4.14492 1.175 3.50117 1.175C2.85742 1.175 2.32148 1.39063 1.89336 1.82188C1.46523 2.25313 1.25117 2.79688 1.25117 3.45312C1.25117 3.89688 1.44023 4.4 1.81836 4.9625C2.19648 5.525 2.75742 6.14062 3.50117 6.80938ZM3.50117 7.7C2.52011 6.88056 1.78733 6.11947 1.30283 5.41672C0.818391 4.71391 0.576172 4.05938 0.576172 3.45312C0.576172 2.61563 0.854297 1.91406 1.41055 1.34844C1.9668 0.782813 2.66211 0.5 3.49648 0.5C4.33086 0.5 5.02773 0.782813 5.58711 1.34844C6.14648 1.91406 6.42617 2.61563 6.42617 3.45312C6.42617 4.05938 6.18555 4.7125 5.7043 5.4125C5.22305 6.1125 4.48867 6.875 3.50117 7.7Z" fill="black" fill-opacity="0.5"/>
</svg>
