<svg width="12" height="13" viewBox="0 0 12 13" fill="none" xmlns="http://www.w3.org/2000/svg">
<path d="M6.33333 3.05117C7.52 3.05117 7.96 3.61784 8 4.45117H9.47333C9.42666 3.30451 8.72666 2.25117 7.33333 1.91117V0.451172H5.33333V1.89117C4.98 1.97117 4.64667 2.09117 4.34667 2.25117L5.32666 3.23117C5.6 3.11784 5.93333 3.05117 6.33333 3.05117ZM1.55333 1.15784L0.706665 2.00451L3 4.29784C3 5.68451 4.04 6.43784 5.60666 6.90451L7.94666 9.24451C7.72 9.56451 7.24667 9.85117 6.33333 9.85117C4.96 9.85117 4.42 9.23784 4.34667 8.45117H2.88C2.96 9.91117 4.05333 10.7312 5.33333 11.0045V12.4512H7.33333V11.0178C7.97333 10.8978 8.54667 10.6512 8.96667 10.2712L10.4467 11.7512L11.2933 10.9045L1.55333 1.15784Z" fill="black" fill-opacity="0.5"/>
</svg>
