<svg width="12" height="13" viewBox="0 0 12 13" fill="none" xmlns="http://www.w3.org/2000/svg">
<path d="M6 6.5C5.175 6.5 4.46875 6.20625 3.88125 5.61875C3.29375 5.03125 3 4.325 3 3.5C3 2.675 3.29375 1.96875 3.88125 1.38125C4.46875 0.79375 5.175 0.5 6 0.5C6.825 0.5 7.53125 0.79375 8.11875 1.38125C8.70625 1.96875 9 2.675 9 3.5C9 4.325 8.70625 5.03125 8.11875 5.61875C7.53125 6.20625 6.825 6.5 6 6.5ZM0 12.5V10.4C0 9.975 0.109375 9.58438 0.328125 9.22813C0.546875 8.87188 0.8375 8.6 1.2 8.4125C1.975 8.025 2.7625 7.73438 3.5625 7.54063C4.3625 7.34688 5.175 7.25 6 7.25C6.825 7.25 7.6375 7.34688 8.4375 7.54063C9.2375 7.73438 10.025 8.025 10.8 8.4125C11.1625 8.6 11.4531 8.87188 11.6719 9.22813C11.8906 9.58438 12 9.975 12 10.4V12.5H0ZM1.5 11H10.5V10.4C10.5 10.2625 10.4656 10.1375 10.3969 10.025C10.3281 9.9125 10.2375 9.825 10.125 9.7625C9.45 9.425 8.76875 9.17188 8.08125 9.00313C7.39375 8.83438 6.7 8.75 6 8.75C5.3 8.75 4.60625 8.83438 3.91875 9.00313C3.23125 9.17188 2.55 9.425 1.875 9.7625C1.7625 9.825 1.67188 9.9125 1.60313 10.025C1.53438 10.1375 1.5 10.2625 1.5 10.4V11ZM6 5C6.4125 5 6.76563 4.85313 7.05938 4.55938C7.35313 4.26563 7.5 3.9125 7.5 3.5C7.5 3.0875 7.35313 2.73438 7.05938 2.44063C6.76563 2.14688 6.4125 2 6 2C5.5875 2 5.23438 2.14688 4.94063 2.44063C4.64688 2.73438 4.5 3.0875 4.5 3.5C4.5 3.9125 4.64688 4.26563 4.94063 4.55938C5.23438 4.85313 5.5875 5 6 5Z" fill="#5F6368"/>
</svg>
