<svg width="11" height="15" viewBox="0 0 11 15" fill="none" xmlns="http://www.w3.org/2000/svg">
<path d="M1.5 14.25C1.0875 14.25 0.734375 14.1031 0.440625 13.8094C0.146875 13.5156 0 13.1625 0 12.75V4.5C0 4.0875 0.146875 3.73437 0.440625 3.44062C0.734375 3.14687 1.0875 3 1.5 3H3V1.5C3 1.0875 3.14688 0.734375 3.44063 0.440625C3.73438 0.146875 4.0875 0 4.5 0H6C6.4125 0 6.76563 0.146875 7.05938 0.440625C7.35313 0.734375 7.5 1.0875 7.5 1.5V3H9C9.4125 3 9.76563 3.14687 10.0594 3.44062C10.3531 3.73437 10.5 4.0875 10.5 4.5V12.75C10.5 13.1625 10.3531 13.5156 10.0594 13.8094C9.76563 14.1031 9.4125 14.25 9 14.25C9 14.4625 8.92813 14.6406 8.78438 14.7844C8.64063 14.9281 8.4625 15 8.25 15C8.0375 15 7.85938 14.9281 7.71563 14.7844C7.57188 14.6406 7.5 14.4625 7.5 14.25H3C3 14.4625 2.92813 14.6406 2.78438 14.7844C2.64063 14.9281 2.4625 15 2.25 15C2.0375 15 1.85938 14.9281 1.71563 14.7844C1.57188 14.6406 1.5 14.4625 1.5 14.25ZM1.5 12.75H9V4.5H1.5V12.75ZM3 12H4.5V5.25H3V12ZM6 12H7.5V5.25H6V12ZM4.5 3H6V1.5H4.5V3Z" fill="#5F6368"/>
</svg>
