<svg width="16" height="15" viewBox="0 0 16 15" fill="none" xmlns="http://www.w3.org/2000/svg">
<path d="M2 14.25C1.5875 14.25 1.23438 14.1031 0.940625 13.8094C0.646875 13.5156 0.5 13.1625 0.5 12.75V4.5C0.5 4.0875 0.646875 3.73438 0.940625 3.44063C1.23438 3.14688 1.5875 3 2 3H5V1.5C5 1.0875 5.14688 0.734375 5.44063 0.440625C5.73438 0.146875 6.0875 0 6.5 0H9.5C9.9125 0 10.2656 0.146875 10.5594 0.440625C10.8531 0.734375 11 1.0875 11 1.5V3H14C14.4125 3 14.7656 3.14688 15.0594 3.44063C15.3531 3.73438 15.5 4.0875 15.5 4.5V12.75C15.5 13.1625 15.3531 13.5156 15.0594 13.8094C14.7656 14.1031 14.4125 14.25 14 14.25H2ZM6.5 3H9.5V1.5H6.5V3Z" fill="#5F6368"/>
</svg>
