<svg width="13" height="13" viewBox="0 0 13 13" fill="none" xmlns="http://www.w3.org/2000/svg">
<path d="M2.05 11.2001C1.4875 10.6376 1.04688 9.98759 0.728125 9.25009C0.409375 8.51259 0.25 7.75009 0.25 6.96259C0.25 6.17509 0.4 5.39696 0.7 4.62821C1 3.85946 1.4875 3.13759 2.1625 2.46259C2.6 2.02509 3.14063 1.65009 3.78438 1.33759C4.42813 1.02509 5.19063 0.778215 6.07188 0.596965C6.95313 0.415715 7.95938 0.30634 9.09063 0.26884C10.2219 0.23134 11.4875 0.27509 12.8875 0.40009C12.9875 1.72509 13.0188 2.94384 12.9813 4.05634C12.9438 5.16884 12.8406 6.17197 12.6719 7.06572C12.5031 7.95946 12.2656 8.74071 11.9594 9.40946C11.6531 10.0782 11.275 10.6376 10.825 11.0876C10.1625 11.7501 9.45938 12.2345 8.71563 12.5407C7.97188 12.847 7.2125 13.0001 6.4375 13.0001C5.625 13.0001 4.83125 12.8407 4.05625 12.522C3.28125 12.2032 2.6125 11.7626 2.05 11.2001ZM4.15 10.9001C4.5125 11.1126 4.88438 11.2657 5.26563 11.3595C5.64688 11.4532 6.0375 11.5001 6.4375 11.5001C7.0125 11.5001 7.58125 11.3845 8.14375 11.1532C8.70625 10.922 9.24375 10.5501 9.75625 10.0376C9.98125 9.81259 10.2094 9.49696 10.4406 9.09071C10.6719 8.68446 10.8719 8.15321 11.0406 7.49696C11.2094 6.84072 11.3375 6.04697 11.425 5.11572C11.5125 4.18447 11.525 3.07509 11.4625 1.78759C10.85 1.76259 10.1594 1.75322 9.39063 1.75947C8.62188 1.76572 7.85625 1.82509 7.09375 1.93759C6.33125 2.05009 5.60625 2.23134 4.91875 2.48134C4.23125 2.73134 3.66875 3.07509 3.23125 3.51259C2.66875 4.07509 2.28125 4.63134 2.06875 5.18134C1.85625 5.73134 1.75 6.26259 1.75 6.77509C1.75 7.51259 1.89063 8.15946 2.17188 8.71571C2.45313 9.27196 2.7 9.66259 2.9125 9.88759C3.4375 8.88759 4.13125 7.92821 4.99375 7.00947C5.85625 6.09072 6.8625 5.33759 8.0125 4.75009C7.1125 5.53759 6.32813 6.42822 5.65938 7.42196C4.99063 8.41571 4.4875 9.57509 4.15 10.9001Z" fill="#5F6368"/>
</svg>
