<svg width="12" height="15" viewBox="0 0 12 15" fill="none" xmlns="http://www.w3.org/2000/svg">
<path d="M1.5 15C1.0875 15 0.734375 14.8531 0.440625 14.5594C0.146875 14.2656 0 13.9125 0 13.5V4.5C0 3.8 0.2125 3.1875 0.6375 2.6625C1.0625 2.1375 1.6 1.7875 2.25 1.6125V0H4.5V1.5H7.5V0H9.75V1.6125C10.4 1.7875 10.9375 2.1375 11.3625 2.6625C11.7875 3.1875 12 3.8 12 4.5V13.5C12 13.9125 11.8531 14.2656 11.5594 14.5594C11.2656 14.8531 10.9125 15 10.5 15H1.5ZM7.875 10.5H9.375V7.5H2.625V9H7.875V10.5Z" fill="#5F6368"/>
</svg>
